/* XPM */
static char *xpm_[] = {
/* columns rows colors chars-per-pixel */
"16 32 119 2 ",
"   c black",
".  c #010101",
"X  c gray1",
"o  c #000607",
"O  c #00090A",
"+  c #000A0B",
"@  c #000A0C",
"#  c #020B0C",
"$  c #000C0D",
"%  c #000C0E",
"&  c #000D0E",
"*  c #050D0E",
"=  c gray3",
"-  c #001518",
";  c #011619",
":  c #131514",
">  c #1B1A19",
",  c #1E1D1C",
"<  c #001E21",
"1  c #001F22",
"2  c #072225",
"3  c #002A2F",
"4  c #012E33",
"5  c #0E2F31",
"6  c #013339",
"7  c #01373D",
"8  c #01393F",
"9  c #202120",
"0  c #282725",
"q  c #3A3A36",
"w  c #3A3F3D",
"e  c #013C42",
"r  c #024046",
"t  c #02454C",
"y  c #014750",
"u  c #014A53",
"i  c #01515A",
"p  c #3A4645",
"a  c #2B4E50",
"s  c #015C67",
"d  c #015D68",
"f  c #015E69",
"g  c #01636F",
"h  c #07626D",
"j  c #14676F",
"k  c #016672",
"l  c #016773",
"z  c #016874",
"x  c #016B77",
"c  c #076A75",
"v  c #0C6C77",
"b  c #026D79",
"n  c #026F7B",
"m  c #03707C",
"M  c #03727E",
"N  c #16727C",
"B  c #2C676D",
"V  c #3C6F72",
"C  c #404340",
"Z  c #4F504B",
"A  c #4F504C",
"S  c #575853",
"D  c #595B57",
"F  c #417577",
"G  c #6B6F6A",
"H  c #6F726D",
"J  c #767872",
"K  c #767973",
"L  c #757D77",
"P  c #80837C",
"I  c #027784",
"U  c #037A87",
"Y  c #2A7D85",
"T  c #3B868C",
"R  c #338891",
"E  c #398990",
"W  c #3A8F98",
"Q  c #3B9099",
"!  c #2494A0",
"~  c #418A8F",
"^  c #4A8F93",
"/  c #4C9094",
"(  c #509296",
")  c #619C9E",
"_  c #6D9E9E",
"`  c #789593",
"'  c #569EA2",
"]  c #6AA1A2",
"[  c #6CA2A3",
"{  c #6EA3A4",
"}  c #77A8A8",
"|  c #819A96",
" . c #959992",
".. c #979B94",
"X. c #9DA199",
"o. c #9DA29B",
"O. c #A3A79F",
"+. c #8EB5B3",
"@. c #97BAB7",
"#. c #AEB3AB",
"$. c #AEBDB6",
"%. c #B7BDB4",
"&. c #A2C0BC",
"*. c #AAC5BF",
"=. c #BAC0B7",
"-. c #B7CCC5",
";. c #C4CAC1",
":. c #C6CCC2",
">. c #C2D2CA",
",. c #C4D3CB",
"<. c #CDD4CA",
"1. c #C8D6CD",
"2. c #CCD8CF",
"3. c #D1D7CE",
"4. c #D1D8CE",
"5. c #D5DCD2",
"6. c #D5DDD3",
"7. c #D7DED4",
"8. c None",
/* pixels */
"8.8.8.8.8.8.8.8.8.8.8.8.8.8.8.8.",
"8.8.8.8.8.8.8.8.8.8.8.8.8.8.8.8.",
"8.8.8.8.                      8.",
"8.8.8.$ e r r r r r r e r e o 8.",
"8.8.; 4 n I I I I I I I U m $ 8.",
"8.$ 4 U z k k k k k k k n m $ 8.",
"  e m z k k k k k k k k z f O   ",
"  8 z k k k / @.@.@.@.@.] k u - ",
"  6 k k k / &.7.7.7.7.7.-.) v 2 ",
"  6 k c T *.7.,.@.@.@.-.7.>.N < ",
"  6 k N >.7.2.+.N N N [ 1.,.Y 2 ",
"  6 k N >.7.} ^ >.>.>.[ ( 6.,.w ",
"  6 k N >.{ [ | Z Z #.-.*.7.7.C ",
"  6 k N >.~ V J K J =.7.=.P <.C ",
"8.3 i N >.{ a A 7.7.7.7.X.0 ;.C ",
"8.8.< j $.3.P S :.6.7.7.O.q :.C ",
"8.8.8.# : X.<. .q :.7.7.4.;.6.C ",
"8.8.8.8.  ..7.:.O.4.7.7.7.7.7.C ",
"8.8.8.8.8.D G H L _ [ &.%.H G 9 ",
"8.8.8.8.8.8.  $ 5 t s ' `       ",
"8.8.8.8.8.8.  2 s O u ! R X 8.8.",
"8.8.8.8.8.8.  < s O t ! Q > 8.8.",
"8.8.8.8.8.8.  < f O u ! Q , 8.8.",
"8.8.8.8.8.8.  < s O y ! Q , 8.8.",
"8.8.8.8.8.8.  < h p F E B , 8.8.",
"8.8.8.8.8.8.  2 N >.7.G = , 8.8.",
"8.8.8.8.8.8.  < N >.7.G   8.8.8.",
"8.8.8.8.8.8.  O 2 w C 9   8.8.8.",
"8.8.8.8.8.8.8.8.        8.8.8.8.",
"8.8.8.8.8.8.8.8.8.    8.8.8.8.8.",
"8.8.8.8.8.8.8.8.8.    8.8.8.8.8.",
"8.8.8.8.8.8.8.8.8.8.8.8.8.8.8.8."
};
