/* XPM */
static char *xpm_[] = {
/* columns rows colors chars-per-pixel */
"32 32 52 1 ",
"  c #003036",
". c #00424A",
"X c #003940",
"o c #015963",
"O c #00444C",
"+ c #002F35",
"@ c #015862",
"# c #00434B",
"$ c #002E34",
"% c #015660",
"& c #002D33",
"* c #01535D",
"= c #004047",
"- c #002B31",
"; c #015059",
": c #003D45",
"> c #00292E",
", c #014C55",
"< c #003A41",
"1 c #00272C",
"2 c #014850",
"3 c #00373D",
"4 c #002429",
"5 c #002C31",
"6 c #00282D",
"7 c #002126",
"8 c #013E45",
"9 c #001E23",
"0 c #013940",
"q c #001C20",
"w c #01333A",
"e c #00191C",
"r c #002328",
"t c #001619",
"y c #001F23",
"u c #001316",
"i c #001B1F",
"p c #001113",
"a c #001F24",
"s c #00181B",
"d c #000E11",
"f c #001317",
"g c #001114",
"h c #000C0E",
"j c #000A0C",
"k c #00090B",
"l c #001013",
"z c #000C0F",
"x c #00080A",
"c c #000B0D",
"v c #000709",
"b c #000A0D",
/* pixels */
" .............. X.............. ",
" oooooooooooooo Ooooooooooooooo ",
"+@@@@@@@@@@@@@@+#@@@@@@@@@@@@@@+",
"$%%%%%%%%%%%%%%$.%%%%%%%%%%%%%%$",
"&**************&=**************&",
"-;;;;;;;;;;;;;;-:;;;;;;;;;;;;;;-",
">,,,,,,,,,,,,,,><,,,,,,,,,,,,,,>",
"12222222222222213222222222222221",
"45555555555555566555555555555554",
"788888888888888+7888888888888887",
"900000000000000-9000000000000009",
"qwwwwwwwwwwwwww1qwwwwwwwwwwwwwwq",
"e$$$$$$$$$$$$$$re$$$$$$$$$$$$$$e",
"t>>>>>>>>>>>>>>yt>>>>>>>>>>>>>>t",
"u44444444444444iu44444444444444u",
"paaaaaaaaaaaaaaspaaaaaaaaaaaaaap",
"dffffffffffffffgdffffffffffffffd",
"hpppppppppppppphdpppppppppppppph",
"jffffffffffffffjdffffffffffffffj",
"kllllllllllllllkzllllllllllllllk",
"xddddddddddddddxcddddddddddddddx",
"vddddddddddddddvbddddddddddddddv",
"vddddddddddddddvbddddddddddddddv",
"vddddddddddddddvbddddddddddddddv",
"vddddddddddddddvbddddddddddddddv",
"vkkkkkkkkkkkkkkxxkkkkkkkkkkkkkkv",
"vddddddddddddddbvddddddddddddddv",
"vddddddddddddddbvddddddddddddddv",
"vddddddddddddddbvddddddddddddddv",
"vddddddddddddddbvddddddddddddddv",
"vddddddddddddddbvddddddddddddddv",
"vddddddddddddddbvddddddddddddddv"
};
