/* XPM */
static char *result[] = {
/* columns rows colors chars-per-pixel */
"32 32 2 1 ",
"  c #7100EC",
". c #160B23",
/* pixels */
" ...............................",
" ...............................",
" ...............................",
" ...............................",
" ...............................",
" ...............................",
" ...............................",
" ...............................",
" ...............................",
" ...............................",
" ...............................",
" ...............................",
" ...............................",
" ...............................",
" ...............................",
" ...............................",
" ...............................",
" ...............................",
" ...............................",
" ...............................",
" ...............................",
" ...............................",
" ...............................",
" ...............................",
" ...............................",
" ...............................",
" ...............................",
" ...............................",
" ...............................",
" ...............................",
" ...............................",
" ..............................."
};
