/* XPM */
static char *out[] = {
/* columns rows colors chars-per-pixel */
"304 32 82 1 ",
"  c None",
". c #060606",
"X c #0D0104",
"o c #0F0709",
"O c #0E0D0D",
"+ c #130104",
"@ c #1A0206",
"# c #140609",
"$ c #1B050A",
"% c #130A0C",
"& c #1B0A0D",
"* c #150F11",
"= c #1B0F11",
"- c #141414",
"; c #1B1315",
": c #1B1718",
"> c #1C1C1C",
", c #220207",
"< c #240309",
"1 c #2C030B",
"2 c #250A0F",
"3 c #34030D",
"4 c #3C030E",
"5 c #240C11",
"6 c #2D0C12",
"7 c #340F16",
"8 c #3B0D14",
"9 c #231316",
"0 c #2C1116",
"q c #231618",
"w c #2B161A",
"e c #221B1C",
"r c #2B191C",
"t c #341217",
"y c #35161B",
"u c #3E1118",
"i c #33191E",
"p c #3B191F",
"a c #231F20",
"s c #2A1F21",
"d c #351D21",
"f c #232323",
"g c #2A2324",
"h c #292728",
"j c #2C2C2C",
"k c #332224",
"l c #332628",
"z c #3B2629",
"x c #332B2C",
"c c #332F30",
"v c #333333",
"b c #3A3A3A",
"n c #41030F",
"m c #440410",
"M c #4F0714",
"N c #440A14",
"B c #4A0B16",
"V c #420F18",
"C c #580715",
"Z c #500815",
"A c #580816",
"S c #5C0A18",
"D c #43151D",
"F c #48131C",
"G c #42181F",
"H c #52101B",
"J c #630716",
"K c #650B1A",
"L c #6B0919",
"P c #720419",
"I c #70091A",
"U c #4A1720",
"Y c #451C23",
"T c #4F1B24",
"R c #422026",
"E c #482127",
"W c #404040",
"Q c #8B081E",
"! c #94061E",
"~ c #A70420",
"^ c #BA0121",
"/ c #C40223",
/* pixels */
"                                                                                                                                                                                                                                                                                                                ",
"                                   ->>>                                                                                                                                                                                                                                                                         ",
"                              f>>>>>>-a>>>>>f                                                             f>>>-->>>O->>ah                                                             >--- >fff  --->                                                            hff>>--:>>-->>fh                               ",
"                                --fh>O>jf--                                                               >-->hjf-hhh>-:>                                                             f>>->>>-f>>>>>f                                                             >-->hha-hff>-->                               ",
"                                -9ee0t0aq;-                                                                 --fh>Oaa>--                                                                >-:fh>-hff>-                                                                 --af:O>f>--                                 ",
"                                 BpwA!BquV                                                                  -0rqVLtew0                                                                  -9fst8qee;-                                                                 -tirFK7e00                                  ",
"                                 JDiK~HgFJ                                                                   ByrS^NqtB                                                                  -BywCQ8;06                                                                   LGiL^NquN                                  ",
"                                  gjgtghr5                                                                   8igGQie08                                                                   PFyI/B>8M                                                                   CpgFQie08                                  ",
"                                  fhhhhh>                                                                     jvcfcj>                                                                    8dhrZgfq6                                                                    jvj>vh>                                   ",
"                         h       >hhqBqjh>       h                                                   -        ff:O->>-                                                                    >aeea>-                                                            -       >>a-->>>-                                  ",
"                        jW   -   -cc9M:bj- O -  hbh                                                 cv       -hjq6>jf>      hvf                                                  f       >hf9V>f>        h                                                  cv       >hh;6>ja-      jbc                         ",
"                       cvbc >>>:->vv9N:bc>-->> fcbb                                                 vWh  -  ->vvwNevh-OO--  jWc                                                 vv   -   >vj9Nexh> O -  hbj                                                 vWh  -  ->cv9B>vh>OO:-  jWv                         ",
"                      jvbjvchhh>>-cv9N:bh->>jhhvvjbv                                               vvvvfaa-->-vvwBebh:-O>ffjvvvc                                               vbbj :>> ->vv9N>bj>-->:  cbb                                                vvvvfaa-->-cv9Nebh:-*:afjcvvv                        ",
"                      jbv>cvxlhf;#gvq8>vq$9hjlvvjfvWj                                             cbj>bjhx>>e;xvq8>bf;>>>xhcvfvbj                                              vbjbhafha>-vv9Mebh>>>hhajvhbv                                              cbjfbjll>>e*jv98>bg;:>>xjvvfjbj                       ",
"                     vbbvf>fkpe#n,9f>:fc;13*>Gkfafvbj                                            jvWbhjjzRjg2<zvqt:bi<2hjYzcjjbbc                                             jWvavvcxjj-#lvqBebr%-xjvvbvavWj                                            jvWbfjjEThf<,lvrt>vd<5hjYzjhhbWv                       ",
"                     vbvf-Ofa-#4m1&>>O>>&<m1O>a>O-hbWv                                           vbvj->fhe:<n,;af;ff914&>>ff->cbvj                                           vvbvffhzF>&4,ehe;>vw11;aGlhffvbj                                            vbvj:>fa>e<n,;ef-hg=14$>>ha->jbvv                      ",
"                    jvvhfaa>f>%4m3<=O.-=<3m3-fa>fafjvcf                                         hvvjh>->a>-1n3&;-.:-$341->f>->jjbv                                           vbvj>-fsq-3m1=>>Of>=146-qga>>hvbv                                          jvvjf->>e>;3n3&--.--@1m6-ff>->fcbc                      ",
"                    bvh>>>>aff;1n1$+. X+@34$:ffa>>>fjvv                                         vvch>>>ffa-1n1@$% &%#3n<>ff>>>>hvvv                                         hvvj>>>>a>;4m3<=-.:=<4m3->a>>>fjbc                                          cvcjf>>>ffe3n1$@# &%@341>ff>>>fhcjh                     ",
"                    bjf>  :ff> %n<+     +13% >h>>  >fvv                                         vvh> >>fh>-@n1@+   +@14$>fffa> ahvv                                         vvjf>>>fff93m1@#  o+@3n<:ff>>>>fjjj                                         bvh> >>fff-<n<@+   +$14@-fff>> ahcv                     ",
"                   hvh>   >f>  -1<@     @,2O :f>-   >cvf                                       >bj>   >fh> #41@     ,11# >hf:   fvv                                         vch> >-fha-$4,++   ++<3#>fhf>  fhvv                                        >vj>   >fh> #41+     ,1<o fh>>  >>vv                     ",
"                   cha    >>>  -#,,     ,$%-  >>:    fhf                                       vcf-   >f>  -$<<     1,#- -f>-   >hjj                                       jvh>   >h>: -1<,     ,<@- >fa>   >cvf                                       vvf-   >f>  -$11     1<#- -f>-   -hjj                    ",
"                  -vf     >>   -  +@   +X --  >--    >jv                                       bj>    >>>  -%++    ++#--  >>>    >jv                                       jj>    >>e  -#<,     ,<O-  a>-   -fhf                                       vj>    >>>  -OXX    +++--  >>>    fjv                    ",
"                  -j>     >-   -           -   ->     fj                                      -jf     >>   --      X  --   --     hc                                      -vh>    >>   -Oo++   +X#--  >->    ajv                                      -c>     >>   --      X  --   --    >fvO                   ",
"                  >>      a-   -           -   --     ff>                                     -f>     >-   -           -   --     >f-                                     -jf     >-   -          --   --     fc                                      -h>     >-   -           -   -:     >f>                   ",
"                  >-      -    -           -   --      -:                                     >>      >-   -           -   --      >>                                     >f      >-   -           -   --     >f-                                     >>      >-   -           -   --      >>                   ",
"                  f       O                    OO      ->                                     f-      O                    O-      >>                                     f-      >-   -           -   --      >>                                     >-      -                    -O      >f                   ",
"                 :h       -                     -      >j                                    -h       O                     O      -f                                    >h       O                    OO      -f                                    >f       O                     O      -f                   ",
"                 --                                     >                                    ->       O                             f                                    ->       O                     O       f                                    -f       O                             >                   ",
"                  -                                     -                                    --                                     -                                    O-                                     -                                    O-                                     -                   ",
"                                                                                             O                                                                           O                                                                           O                                                          ",
"                                                                                                                                                                                                                                                                                                                ",
"                                                                                                                                                                                                                                                                                                                "
};
