/* XPM */
static char *out[] = {
/* columns rows colors chars-per-pixel */
"128 32 16 1 ",
"  c None",
". c #070D2C",
"X c #0C1339",
"o c #0D1339",
"O c #0F1239",
"+ c #111138",
"@ c #121239",
"# c #141239",
"$ c #111645",
"% c #132C68",
"& c #183072",
"* c #007E64",
"= c #94F400",
"- c #B3FF6E",
"; c #1E3982",
": c #00C597",
/* pixels */
"                                                                                                                                ",
"            oo                                                                                                                  ",
"            oo                                                                                                                  ",
"            oo                              oo                                                                                  ",
"            oo  o                           oo                                                                                  ",
"            oX o                            oo                              oo                                                  ",
"         oooo.o;;;;;;                       oo  o                           oo                              oo                  ",
"         ooo..%&&&&;;;;                     oX o                            oo                              oo                  ",
"       :::*.%%&&&&&&&&;;;                oooo.o;;;;;;                       oo  o                           oo                  ",
"       ==:*.%&&&&&&&&&&&&                ooo..%&&&&;;;;                     oX o                            oo  o               ",
"       ==:*.%&&....=&&&                :::*.%%&&&&&&&&;;;                oooo.o;;;;;;                       oX o                ",
"       -=:*.&&..o#o====-               ==:*.%&&&&&&&&&&&&                ooo..%&&&&;;;;                  oooo.o;;;;;;           ",
"        =:%.&..#o+o=---=               ==:*.%&&....=&&&                :::*.%%&&&&&&&&;;;                ooo..%&&&&;;;;         ",
"       &&&%...#oo@o=====               -=:*.&&..o#o====-               ==:*.%&&&&&&&&&&&&              :::*.%%&&&&&&&&;;;       ",
"      oo&%%%%o#oo#.====                 =:%.&..#o+o=---=               ==:*.%&&....=&&&                ==:*.%&&&&&&&&&&&&       ",
"      oooo%& oooo#..##                 &&&%...#oo@o=====               -=:*.&&..o#o====-               ==:*.%&&....=&&&         ",
"     oooooo   ooo#Oo%&                oo&%%%%o#oo#.====                 =:%.&..#o+o=---=               -=:*.&&..o#o====-        ",
"      o$$o&    Oo@o%&&                oooo%& oooo#..##                 &&&%...#oo@o=====                =:%.&..#o+o=---=        ",
"      o$$oo&    oo%&o                oooooo   ooo#Oo%&                oo&%%%%o#oo#.====                &&&%...#oo@o=====        ",
"      oo$ooo&     &&oo                o$$o&    Oo@o%&&                oooo%& oooo#..##                oo&%%%%o#oo#.====         ",
"      oo$$ooo&    oo&oo               o$$oo&    oo%&o                oooooo   ooo#Oo%&                oooo%& oooo#..##          ",
"       ooo$ooooo  ooo&ooo             oo$ooo&     &&oo                o$$o&    Oo@o%&&               oooooo   ooo#Oo%&          ",
"        oo$$oo=-   ooo&o=-            oo$$ooo&    oo&oo               o$$oo&    oo%&o                 o$$o&    Oo@o%&&          ",
"         ooooo==    oooo==             ooo$ooooo  ooo&ooo             oo$ooo&     &&oo                o$$oo&    oo%&o           ",
"          oooo==     ooo==              oo$$oo=-   ooo&o=-            oo$$ooo&    oo&oo               oo$ooo&     &&oo          ",
"           ooo==      oo==               ooooo==    oooo==             ooo$ooooo  ooo&ooo             oo$$ooo&    oo&oo         ",
"            ooo        oo                 oooo==     ooo==              oo$$oo=-   ooo&o=-             ooo$ooooo  ooo&ooo       ",
"                                           ooo==      oo==               ooooo==    oooo==              oo$$oo=-   ooo&o=-      ",
"                                            ooo        oo                 oooo==     ooo==               ooooo==    oooo==      ",
"                                                                           ooo==      oo==                oooo==     ooo==      ",
"                                                                            ooo        oo                  ooo==      oo==      ",
"                                                                                                            ooo        oo       "
};
