/* XPM */
static char *out[] = {
/* columns rows colors chars-per-pixel */
"192 48 13 1 ",
"  c None",
". c black",
"X c #0E141D",
"o c #141D2B",
"O c #282C38",
"+ c #253544",
"@ c #4C5C76",
"# c #8D1313",
"$ c red",
"% c #865109",
"& c #EAC858",
"* c #A7C2CD",
"= c white",
/* pixels */
"                                                                                                                                                                                                ",
"                                                                                                                                                                                                ",
"                                                                                                                                                                                                ",
"                                                                                                                                                                                                ",
"                                                                                                                                                                                                ",
"                                                                                                                                                                                                ",
"                                                                                                                                                                                                ",
"                                                                                                                                                                                                ",
"                                                                                                                                                                                                ",
"                                                                                                                                                                                                ",
"                                                                                                                                                                                                ",
"                                                                                                                                                                                                ",
"                                                                                                                                                                                                ",
"               ==                                              ==                                              ==                                                                               ",
"              =..=                                            =..=                                            =..=                                             ==                               ",
"             =.#$.=                                          =.$#.=                                          =.#$.=                                           =..=                              ",
"            =......=  =========                             =......=  =========                             =......=  =========                              =.$#.=                             ",
"           =.******.==.........=                           =.******.==.........=                           =.******.==.........=                            =......=  =========                 ",
"          =..***.@@...&&%%&&%%&.==                        =..***.@@...&&%%&&%%&.==                        =..***.@@...&&%%&&%%&.==                         =.******.==.........=                ",
"          =.$.*.$.@.**.&&%%&&%%...=                       =.$.*.$.@.**.&&%%&&%%...=                       =.$.*.$.@.**.&&%%&&%%...=                       =..***.@@...&&%%&&%%&.==              ",
"          =.#$.#$.O.**@........@@@.=                      =.#$.#$.O.**@........@@@.=                      =.#$.#$.O.**@........@@@.=                      =.$.*.$.@.**.&&%%&&%%...=             ",
"          =.##.##.O.*@@@@@@@@@@@@@.=                      =.##.##.O.*@@@@@@@@@@@@@.=                      =.##.##.O.*@@@@@@@@@@@@@.=                      =.#$.#$.O.**@........@@@.=            ",
"           =..O..O@.@@o.o+oooo+o.o.=                       =..O..O@.@@o.o+oooo+o.o.=                       =..O..O@.@@o.o+oooo+o.o.=                      =.##.##.O.*@@@@@@@@@@@@@.=            ",
"           =.O@OO@@.@oo.o++++++o..=                        =.O@OO@@.@oo.o++++++o..=                        =.O@OO@@.@oo.o++++++o..=                        =..O..O@.@@o.o+oooo+o.o.=            ",
"            =......ooooo.o+##+o.==                          =......ooooo.o+##+o.==                          =......ooooo.o+##+o.==                         =.O@OO@@.@oo.o++++++o..=             ",
"             ======.oooo.o+oo+o.=                            ======.oooo.o+oo+o.=                            ======.oooo.o+oo+o.=                           =......ooooo.o+##+o.==              ",
"              ====.......o+oo+o.======                        ====.......o+oo+o.======                            ==.....o+oo+o.=                            ======.oooo.o+oo+o.=               ",
"             =....XX....+++##+++......=                      =....XX....+++##+++......=                       ====.....=.o+oo+o.======                        ====.......o+oo+o.======          ",
"            =.$.XXX.$.oooooooooooooooo.=                    =.$.XXX.$.oooooooooooooooo.=                     =....XX....+++##+++......=                      =....XX....+++##+++......=         ",
"            =.$.X$X.$.o$o#o#o#o#o++++.=                     =.$.X$X.$.o$o#o#o#o#o++++.=                     =.$.XXX.$.oooooooooooooooo.=                    =.$.XXX.$.oooooooooooooooo.=        ",
"            =.$.XXX.$.oooooooooooooooo.=                    =.$.XXX.$.oooooooooooooooo.=                    =.$.X$X.$.o$o#o#o#o#o++++.=                     =.$.X$X.$.o$o#o#o#o#o++++.=         ",
"             =....oo....+++++.........=                      =....oo....+++++.........=                     =.$.XXX.$.oooooooooooooooo.=                    =.$.XXX.$.oooooooooooooooo.=        ",
"              ====.....=.....=========                        ====.....=.....=========                       =....oo....+++++.........=                      =....oo....+++++.........=         ",
"                  ===== =====                                     ===== =====                                 ====.....=.....=========                        ====.....=.....=========          ",
"                                                                                                                  ===== =====                                     ===== =====                   ",
"                                                                                                                                                                                                ",
"                                                                                                                                                                                                ",
"                                                                                                                                                                                                ",
"                                                                                                                                                                                                ",
"                                                                                                                                                                                                ",
"                                                                                                                                                                                                ",
"                                                                                                                                                                                                ",
"                                                                                                                                                                                                ",
"                                                                                                                                                                                                ",
"                                                                                                                                                                                                ",
"                                                                                                                                                                                                ",
"                                                                                                                                                                                                ",
"                                                                                                                                                                                                "
};
