/* XPM */
static char *out[] = {
/* columns rows colors chars-per-pixel */
"32 32 103 2 ",
"   c None",
".  c black",
"X  c #050708",
"o  c gray6",
"O  c #190F06",
"+  c #0D1113",
"@  c #111111",
"#  c #191B1C",
"$  c #1E2224",
"%  c #232425",
"&  c #252A2C",
"*  c #2A2B2B",
"=  c #272F33",
"-  c #2B2F30",
";  c #2B3335",
":  c #2C373A",
">  c #313435",
",  c #343638",
"<  c #343B3D",
"1  c #3C3C3C",
"2  c #69411B",
"3  c #574738",
"4  c #67523C",
"5  c #323D41",
"6  c #393F41",
"7  c #354146",
"8  c #3E4245",
"9  c #354449",
"0  c #3A464B",
"q  c #3B494E",
"w  c #3F4E51",
"e  c #434343",
"r  c #424648",
"t  c #43484A",
"y  c #4C4C4D",
"u  c #454E52",
"i  c #4E4F50",
"p  c #435156",
"a  c #4A5255",
"s  c #45555A",
"d  c #4C565A",
"f  c #47585E",
"g  c #4A595F",
"h  c #505253",
"j  c #515659",
"k  c #535B5D",
"l  c #675441",
"z  c #4A5B60",
"x  c #525E62",
"c  c #4F6066",
"v  c #4C626A",
"b  c #556166",
"n  c #55656A",
"m  c #5A656A",
"M  c #56686D",
"N  c #5C696E",
"B  c #566B73",
"V  c #5B6D73",
"C  c #576E78",
"Z  c #5E7077",
"A  c #5C7179",
"S  c #626F74",
"D  c #647175",
"F  c #63757C",
"G  c #67797F",
"H  c #885627",
"J  c #845831",
"K  c #9A612D",
"L  c #627983",
"P  c #6A7D84",
"I  c #657F88",
"U  c #66818A",
"Y  c #6B838C",
"T  c #70878F",
"R  c #6C8691",
"E  c #6E8992",
"W  c #728B94",
"Q  c #788E96",
"!  c #748E99",
"~  c #76929C",
"^  c #79939C",
"/  c #7B97A2",
"(  c #7E9AA5",
")  c #8E8E84",
"_  c #84999D",
"`  c #819AA2",
"'  c #839FA9",
"]  c #85A2AD",
"[  c #87A5B0",
"{  c #88A6B1",
"}  c #8BAAB5",
"|  c #8EAEB9",
" . c #90AFBB",
".. c #8FB0BA",
"X. c #93B2BD",
"o. c #94B5C1",
"O. c #97B9C5",
"+. c #99BAC6",
"@. c #9ABCC9",
"#. c #A2C4D1",
"$. c #A7CAD7",
"%. c #A9CCD9",
"&. c #B1D5E2",
/* pixels */
"                                                                ",
"                                                                ",
"                              z z z 0                           ",
"                          z ~ X.o.o.@.                          ",
"                        E [ } o.O.@.@.W                         ",
"                      n [ } } o.+.#.@.^                         ",
"                    . [ [ { o.+.#.&.%.W $                       ",
"                    . E [ } +.@.#.&.%.E ~ ^ p                   ",
"                    . 0 ( o.+.@.#.$.( M W X.o./                 ",
"                  q ^ l M ( } } ..} ~ z M X.X.o.V               ",
"                A / / 5 4 9 q w Y / E N Z | o./ ^ W             ",
"              : ^ ` } Y 3 K H 2 O d E G A ! ( U  .X.`           ",
"              V | Q X.} ) J . X + 7 A ] X.] R A  .o.X.          ",
"              # Z G _ } [ _ s w A A / { ] ~ 7   u } D $         ",
"              @ b S k ~ W W ~ / { / ^ ~ A ;       $ k y         ",
"              q ] { & B U P A W ! ^ ~ M #         % M 1         ",
"              ( ]  .] 9 8 d s v C M d y P s         #           ",
"              & Z ! Q t t 8 0 0 c ; r N ` ^ &                   ",
"                < Z s t i d D N F ` D k  .X.W                   ",
"                g s p , 3 d ~ ~ ( N 8 h / o.X._ q               ",
"              * ` ' F & * d C C 7   @ , k Q m m ;               ",
"            - B | ] } T -             % b a j y #               ",
"          : d x ! ` } ] &             o 5 6 y y x 0             ",
"          7 d 8 d ! [ P                 % , m F E 0             ",
"          5 m r * > g <                 % d I L U 7             ",
"          a { ^ y y 1                     # Y L I f             ",
"          ; Y Y P ;                         V L F F             ",
"                                            v ^ | | Y           ",
"                                            q b | O.} ;         ",
"                                              a ] ] W 5         ",
"                                                : :             ",
"                                                                "
};
