/* XPM */
static char *out[] = {
/* columns rows colors chars-per-pixel */
"32 32 98 2 ",
"   c None",
".  c #010101",
"X  c #0B0E0F",
"o  c #151515",
"O  c #151A1C",
"+  c #1C1C1C",
"@  c #332518",
"#  c #1A1F21",
"$  c #1C2023",
"%  c #222525",
"&  c #2B2C2D",
"*  c #292F31",
"=  c #2C3235",
"-  c #2D363A",
";  c #2F393C",
":  c #343435",
">  c #393834",
",  c #31373A",
"<  c #35393B",
"1  c #3B3C3D",
"2  c #463221",
"3  c #534A3F",
"4  c #744B25",
"5  c #7B4D22",
"6  c #7E5229",
"7  c #333E42",
"8  c #393E40",
"9  c #344146",
"0  c #3C4345",
"q  c #35464C",
"w  c #3A454A",
"e  c #3D494E",
"r  c #3D4B50",
"t  c #444445",
"y  c #434A4C",
"u  c #4B4D4D",
"i  c #534F48",
"p  c #424E52",
"a  c #445256",
"s  c #4C5355",
"d  c #45555B",
"f  c #4B575B",
"g  c #47585F",
"h  c #4B585D",
"j  c #515455",
"k  c #535A5D",
"l  c #4B5C62",
"z  c #515D61",
"x  c #4B626A",
"c  c #576166",
"v  c #5B6365",
"b  c #54646B",
"n  c #5A676B",
"m  c #5D6A6F",
"M  c #506770",
"N  c #5C6D73",
"B  c #5D7077",
"V  c #5E727A",
"C  c #636C6D",
"Z  c #616F74",
"A  c #627176",
"S  c #63757B",
"D  c #835F3A",
"F  c #916841",
"G  c #5F7882",
"H  c #637A83",
"J  c #6A7E86",
"K  c #677F88",
"L  c #6A838B",
"P  c #738184",
"I  c #70848B",
"U  c #788A8C",
"Y  c #6D8690",
"T  c #6E8992",
"R  c #728B95",
"E  c #76929C",
"W  c #7A949D",
"Q  c #7C96A1",
"!  c #7D99A4",
"~  c #819CA5",
"^  c #829EA9",
"/  c #85A2AD",
"(  c #88A4AD",
")  c #98A7A7",
"_  c #87A5B1",
"`  c #88A7B1",
"'  c #8BAAB5",
"]  c #8EADB8",
"[  c #93B3BE",
"{  c #94B5C1",
"}  c #97B8C5",
"|  c #99BAC7",
" . c #9BBCC9",
".. c #A0BCC5",
"X. c #A0C2CF",
"o. c #A4C7D4",
"O. c #A9CCDA",
"+. c #B1D5E3",
/* pixels */
"                                                                ",
"                            0 l l a                             ",
"                          H / { { { g                           ",
"                      7 ! ] [ { | | ^                           ",
"                    7 Q _ ] {  . . .| d                         ",
"                    K _ _ ] }  .O.O.| w                         ",
"                    Y _ ' { O.+.+.+.{ N H r                     ",
"                  . - T ' } O.+.+.O.Q V { { T                   ",
"                a ! i i ! }  . .| E H b { [ ( a                 ",
"              O / ! w 2 B l M H W R N a ] [ ~ { ^               ",
"              L U [ ^ > 6 6 4 6 7 L N N E / R { | E             ",
"            y ^ ] ` } W F @ . X O V J [ E L a ..[ P             ",
"              h ] S [ } ) v # d M L _ _ H 9   f H k :           ",
"              1 m c R E W _ ! ' / Q Q N o       1 A t           ",
"            & L ^ R Z H T L R R E E l -         O & +           ",
"            , ` ] [ ( 7 7 d x x K < N ' w         .             ",
"            $ ! R ` W p u 8 & * : z C t z                       ",
"              $ r K c > C 0 b Q ^ S j ( [ B                     ",
"                H N s t t f T T e l Z [ [ [ U                   ",
"                l B n & & r a ;   : c ] [ W P                   ",
"                d O./ L m         + h J c u <                   ",
"                K O._ { ~           y 8 j u u V                 ",
"                W ] ^ [ ~           $ = k u S T .               ",
"                p b A L b             : s N H L .               ",
"                & 0 : : & %             a G H H -               ",
"                1 u > : > o             q B A / [ L             ",
"                z S ] k *               9 d A ] [ ' ;           ",
"                = ^ | | B                 - c ! ' !             ",
"                  R ' / T                     r 9               ",
"                  e d r                                         ",
"                                                                ",
"                                                                "
};
