/* XPM */
static char *out[] = {
/* columns rows colors chars-per-pixel */
"32 32 95 2 ",
"   c None",
".  c black",
"X  c #0E0904",
"o  c #0C0E0F",
"O  c #0F1212",
"+  c #141515",
"@  c #1B1510",
"#  c #16191B",
"$  c #1B1C1C",
"%  c #1C2224",
"&  c #1D272A",
"*  c #232424",
"=  c #242A2D",
"-  c #2B2C2D",
";  c #252E31",
":  c #2C3335",
">  c #2C373B",
",  c #343435",
"<  c #343A3C",
"1  c #393939",
"2  c #482E15",
"3  c #523F2A",
"4  c #53402D",
"5  c #6C4522",
"6  c #6C4B2C",
"7  c #6D5237",
"8  c #333D41",
"9  c #364044",
"0  c #3D4345",
"q  c #354348",
"w  c #3F494C",
"e  c #3E5057",
"r  c #434444",
"t  c #43494B",
"y  c #494C4E",
"u  c #585247",
"i  c #424F54",
"p  c #435257",
"a  c #4E5253",
"s  c #45565C",
"d  c #4B565A",
"f  c #4B595E",
"g  c #535A5D",
"h  c #465860",
"j  c #4C5D62",
"k  c #535E62",
"l  c #4D6166",
"z  c #4F666F",
"x  c #546065",
"c  c #586164",
"v  c #56656B",
"b  c #5A666B",
"n  c #5C6A6F",
"m  c #556970",
"M  c #5B6E74",
"N  c #5F7176",
"B  c #5E737B",
"V  c #606D73",
"C  c #63757B",
"Z  c #66787F",
"A  c #8C6E50",
"S  c #8A867A",
"D  c #607780",
"F  c #647B83",
"G  c #6E8187",
"H  c #6B828B",
"J  c #72868D",
"K  c #6D8690",
"L  c #6E8993",
"P  c #728C95",
"I  c #7A8D95",
"U  c #748F99",
"Y  c #76919B",
"T  c #79949E",
"R  c #7A96A1",
"E  c #7D9AA4",
"W  c #839DA6",
"Q  c #819EA9",
"!  c #85A3AE",
"~  c #89A5AF",
"^  c #89A7B1",
"/  c #8CAAB5",
"(  c #8EAEB9",
")  c #92ABB3",
"_  c #90AFBB",
"`  c #8FB0BA",
"'  c #92B2BD",
"]  c #94B5C0",
"[  c #97B9C5",
"{  c #99B9C6",
"}  c #9ABCC9",
"|  c #A0C2CF",
" . c #A2C4D1",
".. c #ACD0DE",
"X. c #B0D4E1",
/* pixels */
"                                                                ",
"                                                                ",
"                          9 F Y Y T f                           ",
"                        j / ' ' [ } Q                           ",
"                      F ! / ( [ } { { p                         ",
"                    > ! ! / ] } } | } s                         ",
"                    K ! ^ ( {  . .X.} v j                       ",
"                    e R ^ ]  . . .X.! M ] / B                   ",
"                  i = u E }  . . .} T 0 ` ] ] j                 ",
"                l E j 3 F U U U R T Y 0 ~ ' ' P B               ",
"              m ! ! T @ 6 3 3 3 h P F x L ] R ^ { P             ",
"              G J ) / F A 5 2 X O B B / H R F ^ ] { <           ",
"            i H ] ! ' ' S 7 . & q L R ] E H > M ( ) :           ",
"              % c b E E T ! D R ! T R T F ;     = r g +         ",
"              0 C M b P E M L L E T Y s +       + j y +         ",
"            8 L ~ ' C p N m D H P P x f q         + $           ",
"              U E / ] k < 0 h v p , f / I =                     ",
"              % m P M - a t * * p C b g C s                     ",
"                M x C 1 a y B T W C a ) ' ' M                   ",
"                B B C - : N L L e * d J ' ] W w                 ",
"                F / k < , : <       < b / C g -                 ",
"              9 ! ! / ^ <           $ f V k g b M               ",
"              H ( ! ^ _ t             < t x V E Q               ",
"              y k C ! / 9               * k P R E j             ",
"            = r 1 - r i +               : m Y R E H .           ",
"            : 1 y 1 , r $                 # k R Q U { Y         ",
"            $ k ( T I 9                     = D K ' { } j       ",
"              8 ! ! ! p                       e s ! E h         ",
"                p p                           & ; &             ",
"                                                                ",
"                                                                ",
"                                                                "
};
