/* XPM */
static char *out[] = {
/* columns rows colors chars-per-pixel */
"32 32 103 2 ",
"   c None",
".  c black",
"X  c #0C0C0C",
"o  c #0D1113",
"O  c #111415",
"+  c #15191B",
"@  c #1D1D1D",
"#  c #3A2717",
"$  c #1D2021",
"%  c #232525",
"&  c #23272A",
"*  c #21292C",
"=  c #2A2B2C",
"-  c #292E30",
";  c #273135",
":  c #2B3335",
">  c #2C3639",
",  c #2F393D",
"<  c #333435",
"1  c #333739",
"2  c #323B3E",
"3  c #393A3A",
"4  c #422A15",
"5  c #4E3014",
"6  c #4D463C",
"7  c #333E41",
"8  c #354145",
"9  c #3C4346",
"0  c #344349",
"q  c #3A454A",
"w  c #3C494E",
"e  c #3F4D53",
"r  c #444445",
"t  c #404648",
"y  c #424B4D",
"u  c #4A4B4C",
"i  c #434E52",
"p  c #445155",
"a  c #4C5255",
"s  c #455458",
"d  c #4B5559",
"f  c #4F595D",
"g  c #505354",
"h  c #505759",
"j  c #53595A",
"k  c #4C5C61",
"l  c #535C60",
"z  c #4F626B",
"x  c #536165",
"c  c #53646B",
"v  c #59666B",
"b  c #56686F",
"n  c #506770",
"m  c #556A72",
"M  c #5B6E74",
"N  c #5E7077",
"B  c #5C727A",
"V  c #6B706D",
"C  c #606E74",
"Z  c #62757C",
"A  c #6A787D",
"S  c #855223",
"D  c #8F5927",
"F  c #986234",
"G  c #A3764D",
"H  c #5F7882",
"J  c #647C84",
"K  c #697D84",
"L  c #677F89",
"P  c #6B828A",
"I  c #708183",
"U  c #72878F",
"Y  c #6C8691",
"T  c #6F8993",
"R  c #728B94",
"E  c #758F99",
"W  c #76939C",
"Q  c #79939D",
"!  c #7B97A1",
"~  c #7C99A3",
"^  c #809BA5",
"/  c #819EA9",
"(  c #85A2AD",
")  c #88A5AF",
"_  c #87A5B0",
"`  c #8AA7B1",
"'  c #8BAAB5",
"]  c #8EAEB9",
"[  c #90ABB3",
"{  c #90AFBA",
"}  c #91B1BC",
"|  c #95B6C1",
" . c #97B9C5",
".. c #99BBC7",
"X. c #9ABCC9",
"o. c #9FC1CE",
"O. c #A0C2CF",
"+. c #A2C4D1",
"@. c #A8CAD8",
"#. c #B1D5E3",
"$. c #B3D8E5",
"%. c #B7DCEA",
"&. c #C2E8F6",
/* pixels */
"                                                                ",
"                                                                ",
"                              i k k k                           ",
"                          q W { } | ..m                         ",
"                        z ) ] }  .X...| ,                       ",
"                      , ) ( ] } X.X.o. .2                       ",
"                      z ( _ ]  .o.#.%.] 7 7                     ",
"                      z ( ` } o.O.$.&._ K | R f                 ",
"                    8 - J '  .o.+.@.+.Y p ] | | M               ",
"                  q ! V 6 ( ) ` ' } ~ P i ) | } ) ;             ",
"                e ~ ! B # j 0 0 c ( T L k W | ( Q ..R           ",
"              + U E ] ~ 7 F D S 5 o K B ~ Z / L { | ..$         ",
"              2 ' / ` ` R G # . o + B R } ) Y 8 / ] ..q         ",
"                9 ^ v |  .[ I > M P T ` / W z     x Z j         ",
"                a N d B Y T ~ T ~ ) ! W B %       @ j u %       ",
"              ; I } x k m J P Y R W W b %         X y t @       ",
"              q ` } } y 7 7 9 w n H i d Q v         X           ",
"              & B / ) P r a q = e f Z j v N $                   ",
"                : Z R d x u L Q Q ( A g ) } !                   ",
"                p U q a u u m R P 7 3 d ( | | R =               ",
"            $ 7 ! ' ` d = $ q >     X 1 l E g h ;               ",
"          q p R { ~ { } i             % v a u u X               ",
"          w M r M W ` ' ,             2 = f u r 3               ",
"          C L t y y P Y               & 9 d u d B               ",
"          ` ( a 3 = < &                 f J b b 0               ",
"          ~ { E 3 u <                   7 B j a .               ",
"          z m J >                       i R R { Q s             ",
"              &                         q v U  . .R             ",
"                                          2 M ` ( K             ",
"                                            0 P s               ",
"                                                                ",
"                                                                "
};
