/* XPM */
static char *out[] = {
/* columns rows colors chars-per-pixel */
"32 32 105 2 ",
"   c None",
".  c #040302",
"X  c #0D0803",
"o  c #0C0C0C",
"O  c #0D1113",
"+  c #151515",
"@  c #111619",
"#  c #12181B",
"$  c #1D1E1E",
"%  c #3F2610",
"&  c #1D2224",
"*  c #202425",
"=  c #212628",
"-  c #252B2D",
";  c #2A2A2A",
":  c #252E31",
">  c #292E30",
",  c #263034",
"<  c #2D3233",
"1  c #2E383D",
"2  c #333333",
"3  c #343B3E",
"4  c #3B3B3B",
"5  c #69411B",
"6  c #574632",
"7  c #51473B",
"8  c #5E4B39",
"9  c #2E3C40",
"0  c #333E42",
"q  c #364145",
"w  c #3B4144",
"e  c #364449",
"r  c #3A4549",
"t  c #3D4A4E",
"y  c #3E4C52",
"u  c #434445",
"i  c #424A4D",
"p  c #4C4C4C",
"a  c #424E52",
"s  c #4E4F50",
"d  c #445257",
"f  c #4C5456",
"g  c #46555B",
"h  c #4C5659",
"j  c #4E5A5D",
"k  c #525556",
"l  c #505658",
"z  c #535B5E",
"x  c #785E44",
"c  c #7F6246",
"v  c #4C5C61",
"b  c #545D60",
"n  c #4E6168",
"m  c #536065",
"M  c #54666D",
"N  c #5A656A",
"B  c #56686E",
"V  c #5A696E",
"C  c #506770",
"Z  c #556A72",
"A  c #5C6C72",
"S  c #5D7177",
"D  c #57707A",
"F  c #5C7179",
"G  c #757064",
"H  c #607077",
"J  c #63757C",
"K  c #66787F",
"L  c #905B2B",
"P  c #637B84",
"I  c #6C7F86",
"U  c #657F89",
"Y  c #6D8087",
"T  c #67828D",
"R  c #6C838C",
"E  c #70848B",
"W  c #6D8791",
"Q  c #6E8A94",
"!  c #728B95",
"~  c #7A8E95",
"^  c #748E98",
"/  c #75919B",
"(  c #7A939B",
")  c #7C97A1",
"_  c #7D9AA4",
"`  c #819CA5",
"'  c #809EA9",
"]  c #85A2AD",
"[  c #88A3AC",
"{  c #87A5B0",
"}  c #89A7B1",
"|  c #8BAAB5",
" . c #8EADB9",
".. c #90AFBA",
"X. c #92B2BD",
"o. c #94B5C0",
"O. c #97B9C5",
"+. c #98BAC7",
"@. c #99BBC8",
"#. c #A0C2CF",
"$. c #A3C5D2",
"%. c #AACDDA",
"&. c #AED1DF",
"*. c #B1D5E3",
"=. c #BFE5F3",
/* pixels */
"                                                                ",
"                                                                ",
"                              a j v v g                         ",
"                          q F  .o.o.+. .t                       ",
"                          ) |  .o.+.+.+.^                       ",
"                        / { { ..+.+.#.+...9                     ",
"                      , ] ] | o.#.$.=.%.' m g                   ",
"                      @ W } | @.$.&.=.%.A ` O.) v               ",
"                    q F 7 { X.#.$.*.=._ t R o.o.o.e             ",
"                  y ) R 8 A _ | | .. .Q j F o.o.~ V a           ",
"                q ` ] ) 4 8 6 z e Z ( Q S Z o.| F X.@.r         ",
"                ! J } ] R c L 5 % o d S ~ R ) P ( X.O.+.q       ",
"              = V X.(  .[ G x . O # n P |  .! a - ` | ~ 3       ",
"                $ J m ( ] ..[ B n K Q ^ / P g       a N i       ",
"                j N r a J P Q U T ] / Q B >         u Z 4       ",
"                ` X.[ 0 h Z C F P Q W m N r         & 2 $       ",
"                _  .O.J m a 0 - 0 m a N ( '           o         ",
"                t ) } ~ 4 h ^ I K E ] N k h                     ",
"                  a B b b i B ! ^ Q V s ` +.`                   ",
"                  v a u a u : g a & $ k R +.+.R                 ",
"                * Y %.V k j         $ 4 b ] ` N                 ",
"              y a } &._ X.(         + > j h p ;                 ",
"            1 F N P f I | E         0 ; t f u 4 .               ",
"              F V q ; 2 2 0         : V w w 2 f                 ",
"              T ' u < < 2           - f Y V v =                 ",
"              W %.] < p ;           < A E I ( y                 ",
"              I [  .y               - V ! | o.o.r               ",
"              q 3 q =                 9 C ! | ] m               ",
"                                          C P a                 ",
"                                                                ",
"                                                                ",
"                                                                "
};
