/* XPM */
static char *out[] = {
/* columns rows colors chars-per-pixel */
"32 32 107 2 ",
"   c None",
".  c #030304",
"X  c #0E0E0E",
"o  c #141717",
"O  c #15191B",
"+  c #1D1D1D",
"@  c #321F0C",
"#  c #3C2B1C",
"$  c #1B1F21",
"%  c #21272A",
"&  c #2B2C2C",
"*  c #2C2F30",
"=  c #273236",
"-  c #2E3335",
";  c #2C363A",
":  c #2F383C",
">  c #333535",
",  c #313739",
"<  c #343A3C",
"1  c #3C3D3D",
"2  c #432A12",
"3  c #503D28",
"4  c #574C3F",
"5  c #6E4C2B",
"6  c #73593F",
"7  c #795838",
"8  c #343F43",
"9  c #393F41",
"0  c #364044",
"q  c #3B4245",
"w  c #37454A",
"e  c #3B4549",
"r  c #3E4C52",
"t  c #454545",
"y  c #424749",
"u  c #444B4D",
"i  c #484D4F",
"p  c #444E52",
"a  c #445156",
"s  c #4B5255",
"d  c #45545B",
"f  c #4B565A",
"g  c #45585F",
"h  c #4E5A5E",
"j  c #505658",
"k  c #525A5C",
"l  c #655845",
"z  c #4C5D64",
"x  c #525E62",
"c  c #4D626A",
"v  c #546165",
"b  c #586265",
"n  c #54646A",
"m  c #58656A",
"M  c #5B696E",
"N  c #566B73",
"B  c #5C6D73",
"V  c #5B7077",
"C  c #5E737B",
"Z  c #606D72",
"A  c #617074",
"S  c #64757B",
"D  c #64787F",
"F  c #87562A",
"G  c #5E7680",
"H  c #657C84",
"J  c #697D84",
"K  c #677F88",
"L  c #687F88",
"P  c #6B848D",
"I  c #73868B",
"U  c #6C8791",
"Y  c #6E8993",
"T  c #728C95",
"R  c #798C93",
"E  c #738E99",
"W  c #76919B",
"Q  c #79949E",
"!  c #7E97A0",
"~  c #7E9AA5",
"^  c #868A83",
"/  c #839DA7",
"(  c #829FAA",
")  c #85A2AD",
"_  c #89A5AF",
"`  c #87A5B0",
"'  c #89A6B1",
"]  c #8AA9B4",
"[  c #8FAEB9",
"{  c #92ADB7",
"}  c #90AFBA",
"|  c #91B1BD",
" . c #A9B9BB",
".. c #95B6C1",
"X. c #97B8C4",
"o. c #98B9C5",
"O. c #9ABCC9",
"+. c #9FC1CD",
"@. c #A2C4D2",
"#. c #AACDDA",
"$. c #B6CED2",
"%. c #B1D5E2",
"&. c #BFE5F3",
"*. c #C2DDE2",
"=. c #C8E3E8",
"-. c #C2E8F6",
";. c #E2FCFF",
/* pixels */
"                                                                ",
"                                                                ",
"                              V W W Q V                         ",
"                          d E } | X.O.O.p                       ",
"                        c _ ` } X.O.O.X.T                       ",
"                      ; ) _ ] | O.O.%...Q O                     ",
"                      ; ) ` ` X.@.#.-.#.J / N 8                 ",
"                      8 P ] [ +.@.%.&.O.f W ....K               ",
"                  8 ~ S 4 W o.@.@.%.#.E q U ..| | 8             ",
"                8 Q ~ P # Z U U Y W ~ T f V ....Q Q L           ",
"                n T ] ~ - 7 3 3 l x T K D H ..~ P ..O.H         ",
"              % ` / ` ` / 5 F 2 @ . a A _ W E c I } ..O.e       ",
"              X x ` B [ _ ^ l . = = a K [ ] P 8   K | J :       ",
"                > M k L W ) [ N W ~ K E E C 8       9 M 1       ",
"              O S D y z V G H H P E T P x o         u b >       ",
"              e ) | ` 1 u n e z N Y S p Q z         X *         ",
"              : ~ [ ..A B H z , ; p B E E R                     ",
"                p ' { R y M E ( ~ ~ ~ x 1 &                     ",
"                  8 x h x 1 i d G n A y  .*.B                   ",
"                  : m y m j d     O a x $.;.'                   ",
"                  w L p s ` z     X % s I =.' q                 ",
"                  d O.X.] ..B     s & > M M 1                   ",
"                  8 s k 3 e y     > s + u > &                   ",
"                  8 3 b 1 1 &     < x y > > >                   ",
"                  > b q < 1 *   $ x u B Z n                     ",
"                  p q p u o       c G [ } [ K                   ",
"                  f [ ..| e       = z P | | P                   ",
"                  = ( X.X.N           z ) I a                   ",
"                    P ! ! V                                     ",
"                    a z r                                       ",
"                                                                ",
"                                                                "
};
