/* XPM */
static char *out[] = {
/* columns rows colors chars-per-pixel */
"32 32 107 2 ",
"   c None",
".  c #050607",
"X  c gray3",
"o  c #0F1111",
"O  c gray9",
"+  c gray10",
"@  c #321F0C",
"#  c #21211E",
"$  c #1C1F20",
"%  c #1D2325",
"&  c #252525",
"*  c #242A2C",
"=  c #2A2A2A",
"-  c #372D22",
";  c #262E31",
":  c #2A2E31",
">  c #273236",
",  c #2B3134",
"<  c #2C3639",
"1  c #2F383B",
"2  c #323435",
"3  c #313739",
"4  c #323B3F",
"5  c gray23",
"6  c #462C14",
"7  c #45301C",
"8  c #503D28",
"9  c #52463A",
"0  c #664425",
"q  c #624931",
"w  c #333E42",
"e  c #3A3F41",
"r  c #3D4244",
"t  c #38454B",
"y  c #3C494E",
"u  c #3E4C52",
"i  c #424749",
"p  c #434A4C",
"a  c #484B4C",
"s  c #595042",
"d  c #474E51",
"f  c #455155",
"g  c #4B5356",
"h  c #44555C",
"j  c #4C565A",
"k  c #4B595E",
"l  c #51595C",
"z  c #4E5E63",
"x  c #555E61",
"c  c #546166",
"v  c #596366",
"b  c #54646A",
"n  c #59676C",
"m  c #53686F",
"M  c #5D696D",
"N  c #566A72",
"B  c #5A6B73",
"V  c #5E7076",
"C  c #57707A",
"Z  c #5D737C",
"A  c #606F73",
"S  c #657175",
"D  c #63757C",
"F  c #69797E",
"G  c #835226",
"H  c #80827A",
"J  c #5F7782",
"K  c #647B84",
"L  c #6A7D84",
"P  c #647E88",
"I  c #6D8087",
"U  c #6C838B",
"Y  c #728085",
"T  c #72868E",
"R  c #6C8791",
"E  c #6F8A93",
"W  c #708790",
"Q  c #738C94",
"!  c #798D94",
"~  c #738E99",
"^  c #76919B",
"/  c #79949E",
"(  c #7A96A0",
")  c #7D99A4",
"_  c #829BA4",
"`  c #839FA9",
"'  c #84A2AD",
"]  c #8AA5AF",
"[  c #87A5B1",
"{  c #88A7B2",
"}  c #8BAAB5",
"|  c #8FAEB9",
" . c #91B1BD",
".. c #94B5C1",
"X. c #97B9C5",
"o. c #99BAC6",
"O. c #9ABCC9",
"+. c #9FC1CD",
"@. c #A3C5D2",
"#. c #A7C8D4",
"$. c #ABCEDB",
"%. c #ADD0DE",
"&. c #AFD3E1",
"*. c #B2D6E4",
"=. c #B5D9E7",
"-. c #C1E6F4",
";. c #C2E8F6",
/* pixels */
"                                                                ",
"                                                                ",
"                              V ^ ^ / V                         ",
"                          h ~ |  .X.O.|                         ",
"                        z [ { | o.O.O.o.m                       ",
"                      1 { { }  .O.O.%...N                       ",
"                      u ` { } X.@.*.;.$.L b k                   ",
"                    w 1 R { | +.%.=.-.O.v _ ..) t               ",
"                  4 ) f 9 ^ X.@.*.&.=.~ r ! .... .              ",
"                w / ` B 7 A R R R / ) U 4 ~ ....' L d           ",
"                D ~ } ) # q 8 - s h Q K D m  .^ _ ..o.;         ",
"              w ' ` { { ^ 0 G 6 @ o Z b ] ) ' m D | ....        ",
"                g U T | { H 9 . > > B U  .{ E w ; _  .!         ",
"                a c g ~ ^ ) } J U L D ~ ~ N t     3 D 5 2       ",
"              < I Q 2 x Z K K P U ^ ~ U p o       % l l 2       ",
"              w } X.B i j k h m J ~ B h W ,         + , +       ",
"              * _ ....c M b r 3 , f S ' ` z                     ",
"                x ` #.5 x z ^ ' Q ) / l = X                     ",
"                > z 2 g v 5 a f Z m h i ! U                     ",
"                  O = i g D T   % p c F &.@.,                   ",
"                    $ a x  .o., r & 5 b @.%.I                   ",
"                    u ) ] } _ l m & = b ' I *                   ",
"                    t ~ L M L e i l = f & #                     ",
"                    ; p g a a e = c p p 2 5                     ",
"                      ; a a d c j R L A A *                     ",
"                        C z z C t C ~ ..{ b                     ",
"                        k B m w   h U ` R f                     ",
"                        m L _ ]     * 1                         ",
"                        d { .. .P                               ",
"                        4 ~ ..) f                               ",
"                          , 4                                   ",
"                                                                "
};
