/* XPM */
static char *out[] = {
/* columns rows colors chars-per-pixel */
"32 32 106 2 ",
"   c None",
".  c black",
"X  c #050708",
"o  c #070808",
"O  c #0D0E0E",
"+  c gray9",
"@  c #121719",
"#  c #1A1B1B",
"$  c #321F0C",
"%  c #2E2318",
"&  c #3F2610",
"*  c #252525",
"=  c #242B2D",
"-  c #2B2C2C",
";  c #262F32",
":  c #2E2F30",
">  c #263032",
",  c #2B3235",
"<  c #2B3539",
"1  c #2E393D",
"2  c #353536",
"3  c #323739",
"4  c #333A3D",
"5  c #3B3E3F",
"6  c #643F1E",
"7  c #443525",
"8  c #493E33",
"9  c #53402D",
"0  c #6B4C2E",
"q  c #353F43",
"w  c #3B3F40",
"e  c #3C4345",
"r  c #35444A",
"t  c #3B4549",
"y  c #3C494E",
"u  c #3F4D52",
"i  c #424343",
"p  c #464A46",
"a  c #444A4C",
"s  c #4B4C4C",
"d  c #404E53",
"f  c #4A4F51",
"g  c #465256",
"h  c #4B5254",
"j  c #46565B",
"k  c #49565B",
"l  c #47585E",
"z  c #4D595D",
"x  c #515655",
"c  c #595955",
"v  c #515B5E",
"b  c #4B5C62",
"n  c #525E62",
"m  c #4D6166",
"M  c #4F636B",
"N  c #576165",
"B  c #586266",
"V  c #54646A",
"C  c #5A656A",
"Z  c #55686F",
"A  c #5B696E",
"S  c #566C74",
"D  c #5C6E75",
"F  c #5C737C",
"G  c #616C71",
"H  c #65757B",
"J  c #66797F",
"K  c #68797E",
"L  c #966E4A",
"P  c #807364",
"I  c #5E7680",
"U  c #637A83",
"Y  c #6A7C82",
"T  c #657F89",
"R  c #658089",
"E  c #6C848C",
"W  c #70868E",
"Q  c #6B8791",
"!  c #6F8992",
"~  c #728B94",
"^  c #748F99",
"/  c #76929C",
"(  c #7A939C",
")  c #7C96A1",
"_  c #7E9AA4",
"`  c #7F9CA8",
"'  c #819BA4",
"]  c #819EA9",
"[  c #85A3AE",
"{  c #87A6B1",
"}  c #89A7B1",
"|  c #8BAAB5",
" . c #8FAEB9",
".. c #92AEB9",
"X. c #92B2BD",
"o. c #95B5C1",
"O. c #97B9C5",
"+. c #99BAC6",
"@. c #9ABCC9",
"#. c #ABC7CF",
"$. c #A2C4D1",
"%. c #A5C8D5",
"&. c #A8CBD8",
"*. c #AED1DF",
"=. c #B1D5E3",
"-. c #C2E8F6",
/* pixels */
"                                                                ",
"                                                                ",
"                              j b k b                           ",
"                          l / X.o.O.@.]                         ",
"                        m }  .X.O.@.+.+.l                       ",
"                      g } | | X.@.@.$.O.S                       ",
"                      l | | | +.&.=.=.+.V ;                     ",
"                    1 q ( | X.%.=.=.=.{ V [ ! e                 ",
"                  , _ c x } +.*.=.=.$.E g  .o.X.u               ",
"                m [ [ b 9 ~ ! Q [ O._ U t [ o.o.E 4             ",
"              = ( ' | ^ % 0 2 a r b / D g ~ o.[ ^ X.V           ",
"              ~ [ ' o.| B L 6 & $ X S H / ^ ` D ..X.O.=         ",
"              O K Y | X.| P 9 X @ 1 F ~ o./ I < ) ..+.-         ",
"              + A C U / [ X.[ b J / Q _ ) ^ q     ( Y ,         ",
"              { H C e F U R R T _ ^ ^ E y O       - v p *       ",
"              | X.O.3 y k Z S I Q ! D V j         * 3 i #       ",
"              U { o.] k a q q : u k D _ b           + +         ",
"              # Z | ~ 2 i ! E W _ _ ~ i q                       ",
"                ; k 2 v 5 i k S ! ^ C n E                       ",
"                  w h i a ' U O , a f | O.Z                     ",
"                  t 4 e H  .o.C * : b ( O.X.                    ",
"                    y _ ..| ' K - - h G [ m                     ",
"                    . R #.n f x i * h 5 5                       ",
"                      k n s s s 2 h t i 2                       ",
"                        a C h D C n G N                         ",
"                        ; N C I D ! ] T                         ",
"                          V I U F Z g                           ",
"                          b F ~ ` =                             ",
"                          3 ' -.-.O.                            ",
"                          2 ' =...Z                             ",
"                            ,                                   ",
"                                                                "
};
