/* XPM */
static char *out[] = {
/* columns rows colors chars-per-pixel */
"32 32 106 2 ",
"   c None",
".  c black",
"X  c #0B0E0F",
"o  c #0E1113",
"O  c #111111",
"+  c #15191B",
"@  c #1A1D1D",
"#  c #20170E",
"$  c #1E2527",
"%  c #232729",
"&  c #242A2D",
"*  c #2A2B2B",
"=  c #273034",
"-  c #2C3336",
";  c #2D363B",
":  c #2E393C",
">  c #323434",
",  c #303639",
"<  c #343A3D",
"1  c #3B3B3B",
"2  c #3F413C",
"3  c #574431",
"4  c #5F4B37",
"5  c #764D28",
"6  c #674F38",
"7  c #2C3A40",
"8  c #343D41",
"9  c #393F41",
"0  c #344045",
"q  c #3E4345",
"w  c #344349",
"e  c #39464A",
"r  c #3D494D",
"t  c #434546",
"y  c #414749",
"u  c #444A4C",
"i  c #4A4B4C",
"p  c #424E52",
"a  c #4B4E50",
"s  c #455155",
"d  c #4B5153",
"f  c #43555B",
"g  c #4B565A",
"h  c #4B595E",
"j  c #525556",
"k  c #52575A",
"l  c #525C5F",
"z  c #4B5C62",
"x  c #545D61",
"c  c #566267",
"v  c #586367",
"b  c #53656C",
"n  c #5A6569",
"m  c #55696F",
"M  c #5A686E",
"N  c #506770",
"B  c #5A6D74",
"V  c #57707A",
"C  c #5D737B",
"Z  c #626F74",
"A  c #637177",
"S  c #62757C",
"D  c #845123",
"F  c #975E28",
"G  c #848073",
"H  c #5F7782",
"J  c #5F7881",
"K  c #617781",
"L  c #637B84",
"P  c #697C83",
"I  c #657E89",
"U  c #6E8187",
"Y  c #67818B",
"T  c #6B848C",
"R  c #70868E",
"E  c #6D8690",
"W  c #6E8993",
"Q  c #718B94",
"!  c #738E98",
"~  c #7F9296",
"^  c #75919A",
"/  c #7A939C",
"(  c #7B96A1",
")  c #7D9AA4",
"_  c #7F9CA8",
"`  c #849EA6",
"'  c #839EA9",
"]  c #84A1AC",
"[  c #89A4AE",
"{  c #87A6B1",
"}  c #8BAAB5",
"|  c #8EAEB9",
" . c #90AFBB",
".. c #93B3BE",
"X. c #94B5C1",
"o. c #97B9C5",
"O. c #99BAC6",
"+. c #9ABCC9",
"@. c #A2C2CD",
"#. c #ABCEDB",
"$. c #ACD0DD",
"%. c #AFD3E1",
"&. c #B1D5E3",
"*. c #B8DDEB",
"=. c #BFE4F2",
"-. c #C2E8F6",
/* pixels */
"                                                                ",
"                                                                ",
"                              h h z e                           ",
"                          m  ...X.+.+.e                         ",
"                        W } | X.O.O.+.Q                         ",
"                      L { } | o.+.+.+...:                       ",
"                    . { } {  .@.$.%.%.) :                       ",
"                    . I } } +.%.%.*.-.W ` ) s                   ",
"                  B v : _ ..#.%.&.=. .h ` X...B                 ",
"                C ] ' 4 n _ | | ..O.^ u W ......+               ",
"              x Q | { % 6 2 w f Y ^ Q u ^ ..| L } !             ",
"            r ] ] ` X.T 3 F D D # h L S C } E ] X.+.C           ",
"              < ..` O. .G 5 . X o = b [ / ! r / X.X.|           ",
"              1 n x } } o.~ f b C C Y _ ^ C     b | Z @         ",
"            g A P 9 ^ L I ( Y ( ] Q Q L r         , d d         ",
"            C { X.R z z C K H T W W A s           9 d 1         ",
"            z ! ..o.d < < 8 0 p S g Y ' ;         O @           ",
"              f T } y t n ^ S p S _ T d                         ",
"                : 8 1 M q c K ( ! T d x f                       ",
"                @ 1 1 y y l o < u B u } [ :                     ",
"                & y 9 l ` X.! i * 9 l ....U                     ",
"                  . I  .}  . .n * > g ) / e                     ",
"                    L @.` x j t q * 0 g %                       ",
"                    7 ~ a i i 1 i i i j *                       ",
"                      & i i d g v A u *                         ",
"                        h C N H & +                             ",
"                        : z N V                                 ",
"                        @ S z m =                               ",
"                        - / | ..)                               ",
"                        @ A ..+...&                             ",
"                          p |  .T $                             ",
"                                                                "
};
