/* XPM */
static char *out[] = {
/* columns rows colors chars-per-pixel */
"32 32 104 2 ",
"   c None",
".  c #030304",
"X  c #0C0C0C",
"o  c #0E1214",
"O  c #141515",
"+  c #171C1D",
"@  c gray10",
"#  c #23160B",
"$  c #352212",
"%  c #232525",
"&  c #272728",
"*  c #242A2D",
"=  c #2D2D2D",
"-  c #272F32",
";  c #292E31",
":  c #2B3336",
">  c #2C3539",
",  c #343B3E",
"<  c #3B3C3D",
"1  c #4D2F14",
"2  c #584432",
"3  c #6D563E",
"4  c #343E42",
"5  c #3D3F40",
"6  c #354247",
"7  c #3B4245",
"8  c #344349",
"9  c #3B4448",
"0  c #3B484D",
"q  c #3E4C52",
"w  c #3F5054",
"e  c #444445",
"r  c #434A4C",
"t  c #494A4A",
"y  c #434D51",
"u  c #435156",
"i  c #4C5255",
"p  c #45555B",
"a  c #4A565B",
"s  c #4C595E",
"d  c #525A5D",
"f  c #455961",
"g  c #4C5C62",
"h  c #525E63",
"j  c #4E636B",
"k  c #546165",
"l  c #53656B",
"z  c #59656A",
"x  c #56686F",
"c  c #5A696E",
"v  c #566971",
"b  c #5B6C73",
"n  c #596F78",
"m  c #5E7077",
"M  c #5D727A",
"N  c #616D72",
"B  c #607076",
"V  c #687173",
"C  c #62757C",
"Z  c #697479",
"A  c #8B5726",
"S  c #82562F",
"D  c #945C29",
"F  c #9E8366",
"G  c #657C85",
"H  c #6A7E85",
"J  c #657F88",
"K  c #67818B",
"L  c #6D838B",
"P  c #71868D",
"I  c #6C8790",
"U  c #6E8992",
"Y  c #728B95",
"T  c #798E96",
"R  c #738E99",
"E  c #76919B",
"W  c #7B949D",
"Q  c #7A96A0",
"!  c #7D9AA4",
"~  c #80969D",
"^  c #839CA6",
"/  c #839EA9",
"(  c #85A2AD",
")  c #8AA4AD",
"_  c #89A7B1",
"`  c #8BAAB5",
"'  c #8EAEBA",
"]  c #8FB0BA",
"[  c #92B1BC",
"{  c #95B5C1",
"}  c #97B8C4",
"|  c #99B9C5",
" . c #9BBCC9",
".. c #9FC1CE",
"X. c #A1C1CE",
"o. c #A5C6D3",
"O. c #A7C9D6",
"+. c #AACDDB",
"@. c #ADD0DE",
"#. c #AED2E0",
"$. c #B1D5E3",
"%. c #B4D9E7",
"&. c #B8DDEB",
"*. c #C2E8F6",
/* pixels */
"                                                                ",
"                                                                ",
"                            f g f g                             ",
"                        w E [ [ |  ./                           ",
"                      q ! ` ' } |  . .u                         ",
"                    > ( ` ` {  . .X.} s                         ",
"                    v _ ` ` ..+.#.%...c q                       ",
"                  . f ! ` { #.$.%.*.| H { Q u                   ",
"                  E @ v _ o.#.$.&.&.W k { { _                   ",
"                Y / a 2 I { ] ' } ! L 0 [ [ ' P l               ",
"              P ^ ' P # 3 8 8 w R U c s ' [ W { | m             ",
"            z ] ( | ..k S D A 1 + n c W R Q P [ } Q             ",
"            : W  .^ O.{ F $ . o o m K [ E l 4 ) { (             ",
"            O e b N ( ' O.M 6 m M M E W m >     x s <           ",
"            y a T 7 L U U R K ! W R U 0         % z t           ",
"            L ) { Y p U n J J U U M k J         O = &           ",
"            M E [ [ y : < > 4 p l m P ( *         X             ",
"              s R ~ i e i L L P ! K t h k                       ",
"                7 i r d r H Y R C t Z X.' p                     ",
"                p y 5 e i = * + u d ) $.X.W                     ",
"                6 r H z ` b : 7 e , z o.{ H                     ",
"                  j [ ( ' ) p p d & s B < .                     ",
"                  f [ ( P T z h 5 i r = 5 =                     ",
"                  - ~ V t e < h W B t t e @                     ",
"                    = < e < < < ( G 7 @                         ",
"                      < z P L > : o                             ",
"                      4 p f y                                   ",
"                      9 C b P >                                 ",
"                      , Y  . .J                                 ",
"                      ; H ` ` `                                 ",
"                        C H l l                                 ",
"                                                                "
};
