/* XPM */
static char *out[] = {
/* columns rows colors chars-per-pixel */
"32 32 108 2 ",
"   c None",
".  c black",
"X  c #0E0904",
"o  c #0A0B0B",
"O  c #151515",
"+  c #161B1C",
"@  c #1B1C1C",
"#  c #2D231A",
"$  c #1B1F20",
"%  c #1B2123",
"&  c #222324",
"*  c #2D2A25",
"=  c #20262B",
"-  c #24292B",
";  c #2B2C2C",
":  c #3B3124",
">  c #262E31",
",  c #2B2F31",
"<  c #2B3235",
"1  c #2D393A",
"2  c #323334",
"3  c #333A3C",
"4  c #3B3B3B",
"5  c #462C14",
"6  c #643F1D",
"7  c #473220",
"8  c #493A28",
"9  c #55402C",
"0  c #564330",
"q  c #323E43",
"w  c #3C3F41",
"e  c #3B4244",
"r  c #3F4749",
"t  c #39484F",
"y  c #3C4C51",
"u  c #3F5057",
"i  c #424444",
"p  c #444A4D",
"a  c #494A4B",
"s  c #414F55",
"d  c #445155",
"f  c #4C5355",
"g  c #45545A",
"h  c #4B565A",
"j  c #4F585C",
"k  c #505353",
"l  c #52595D",
"z  c #706452",
"x  c #465960",
"c  c #4D5F65",
"v  c #525D61",
"b  c #585F62",
"n  c #4E6067",
"m  c #4E626A",
"M  c #546166",
"N  c #596062",
"B  c #53656B",
"V  c #5C6A6F",
"C  c #546972",
"Z  c #5B6C73",
"A  c #57707A",
"S  c #5B7179",
"D  c #636E71",
"F  c #647277",
"G  c #63757B",
"H  c #64787F",
"J  c #85572D",
"K  c #657B83",
"L  c #6A7C83",
"P  c #687E88",
"I  c #6C8087",
"U  c #66808A",
"Y  c #6B838B",
"T  c #718187",
"R  c #72868E",
"E  c #74888F",
"W  c #6C8791",
"Q  c #6E8993",
"!  c #718790",
"~  c #738C96",
"^  c #758F98",
"/  c #75919A",
"(  c #7A949D",
")  c #7C96A0",
"_  c #7D99A4",
"`  c #A9A18F",
"'  c #839DA6",
"]  c #819EA9",
"[  c #85A2AC",
"{  c #88A3AD",
"}  c #87A5B0",
"|  c #88A7B2",
" . c #8BAAB5",
".. c #8EADB8",
"X. c #91AFBA",
"o. c #93B2BD",
"O. c #94B5C0",
"+. c #97B9C5",
"@. c #99BAC5",
"#. c #9ABCC9",
"$. c #A3C2CD",
"%. c #A3C5D3",
"&. c #ACCFDC",
"*. c #B1D5E3",
"=. c #B4D8E6",
"-. c #B6DBE9",
";. c #B8DDEB",
":. c #C2E8F6",
/* pixels */
"                                                                ",
"                                                                ",
"                          M / / / ) 3                           ",
"                      e U ..o.+.#.#.]                           ",
"                      P | ..o.#.#.+.+.s                         ",
"                    U |  ...O.#.%.&.+.s                         ",
"                    /  . .o.&.*.*.*.+.G c 3                     ",
"                  . x ) | #.*.=.;.&.[ K +.o.Z                   ",
"                g _ 0 u _ &.=.;.:.o.H B o.o.| @                 ",
"              d { ] < 7 Y Q Q Q _ Q B Z o.+.E +.]               ",
"            < I ~ +.Y # 9 8 : z S Y v Z ..[ Y @.#.h             ",
"            B [ ' X.$.Y J 6 5 X + U L  .Y C G @.@.v             ",
"            O p X.T #.$.` * o > q K Y [ Y e   G ' p &           ",
"            O f V v ) ( o._ A ) ^ P ~ c %       i a <           ",
"            q I { G Z W U Q Q ( ^ Q Z <         3 p @           ",
"            B  .X.o.B g u m m U H g _ ) >         X             ",
"            g ~ _ ..o.- s ; ; 1 M F b g e                       ",
"              < v L w a l g R ) / k D +.o.t                     ",
"                K H 2 a k V ^ m g 2 ' o.o.o.                    ",
"                G s 4 4 2 @ ,   , h L o.o.( p                   ",
"                $  ...+.o.      o ; G ~ l 2                     ",
"                =  ... .#.<       4 r i 8 ; &                   ",
"                = | } ] { K     < x i r > - $                   ",
"                % G h i i 4 +   e A d i b 3                     ",
"                  4 i 4 ; 4 &     C K [ ..|                     ",
"                  + p w l G >     q K } +.|                     ",
"                  , h Z Z @         y _ Y S                     ",
"                  < j ..+.'           <                         ",
"                    l o.o. .g                                   ",
"                    % | ] W y                                   ",
"                      1                                         ",
"                                                                "
};
