/* XPM */
static char *out[] = {
/* columns rows colors chars-per-pixel */
"32 32 103 2 ",
"   c None",
".  c black",
"X  c #0F0A05",
"o  c #0D0D0D",
"O  c #131516",
"+  c #161B1D",
"@  c #1A1A1A",
"#  c #25180C",
"$  c #261B12",
"%  c #372719",
"&  c #1E2224",
"*  c #1E2629",
"=  c #252525",
"-  c #212628",
";  c #222A2C",
":  c #2B2B2B",
">  c #2C2F31",
",  c #263135",
"<  c #2E3133",
"1  c #2C3539",
"2  c #2F393D",
"3  c #323434",
"4  c #333739",
"5  c #333A3D",
"6  c #3D3D3D",
"7  c #51351A",
"8  c #593A1D",
"9  c #594B3B",
"0  c #6F4824",
"q  c #7E5229",
"w  c #705032",
"e  c #323E42",
"r  c #383F41",
"t  c #364247",
"y  c #3C4346",
"u  c #374448",
"i  c #3A464B",
"p  c #3C494E",
"a  c #3E4D52",
"s  c #454646",
"d  c #424A4D",
"f  c #4B4C4C",
"g  c #424E52",
"h  c #445156",
"j  c #4C5355",
"k  c #44545B",
"l  c #4C575A",
"z  c #4D595D",
"x  c #515759",
"c  c #525A5D",
"v  c #6B5641",
"b  c #475860",
"n  c #4D5F65",
"m  c #525E62",
"M  c #4B626A",
"N  c #556264",
"B  c #586063",
"V  c #53646A",
"C  c #5A666B",
"Z  c #56686F",
"A  c #58686E",
"S  c #546971",
"D  c #5B6D74",
"F  c #5E7077",
"G  c #57707A",
"H  c #5D747D",
"J  c #606E73",
"K  c #647177",
"L  c #63757C",
"P  c #69777C",
"I  c #68797F",
"U  c #5D7781",
"Y  c #5F7983",
"T  c #647B84",
"R  c #6B7D84",
"E  c #657E88",
"W  c #6D8087",
"Q  c #6B838C",
"!  c #71858D",
"~  c #6C8691",
"^  c #718B95",
"/  c #788D94",
"(  c #738F99",
")  c #75909A",
"_  c #7A949D",
"`  c #7B97A1",
"'  c #7D9AA5",
"]  c #7F9DA8",
"[  c #819CA5",
"{  c #829EA9",
"}  c #85A3AD",
"|  c #87A5B0",
" . c #88A6B1",
".. c #8BA9B5",
"X. c #8EAEB9",
"o. c #90AFBA",
"O. c #92B2BD",
"+. c #95B6C1",
"@. c #97B9C5",
"#. c #99BAC6",
"$. c #99BBC8",
"%. c #9FC1CE",
"&. c #A1C3D0",
/* pixels */
"                                                                ",
"                                                                ",
"                            ^ ( ) H k                           ",
"                          T X.O.+.@.O.D                         ",
"                        1 | X.+.@.#.$.$.^                       ",
"                        1 | o.+.$.$.$.$.$.z                     ",
"                        & ' O.@.$.$.$.$.@.M                     ",
"                        > D +.$.$.$.$.@.' a                     ",
"                  e L Q d m ^ ........' F @ o                   ",
"                H { ] P 3 a E ^ ^ ^ ^ a % 5 O.i                 ",
"              h } {  .c J k a X 8 7 0 q $ { #.X.i               ",
"              4 N ^ o.x _ k a . X # w 9 z $.%.@.{ i             ",
"            ^ R m c P _ } ! C c p O v N ..%.&.O.#.i             ",
"          p O.#...s L W { | E S L L ..X...} o.W P               ",
"          T @.#.! - L z ~ ^ ^ ^ ] ] } } _ ` Q R C @             ",
"          F O./       C g H ~ ^ ` ` ( Q H Z F O.O.o.            ",
"          t C O o   - L < a M M T U H H s a } X.o.}             ",
"          : j l 5 , ( Q x < k S G Q D z j J K _ ` h             ",
"          @ 4 y 5 Q m m U V 4 - : : n z h 6 s Z                 ",
"            o e _ } x = a Y E Q / ` { K 3 6 l V                 ",
"              l ' } _ 3 1 F G H Q H k j j T [ O.Q p             ",
"            = p ` | [ c l             o y m [ [ m u             ",
"            = : l } C f @               = d A x j <             ",
"            5 6 : L t :                 O N 4 f f 3 ;           ",
"        - Q O.R s s 3                     @ g f C P u           ",
"        b ( O.O._ ^ g                     + E H T Q t           ",
"        e Y | { H *                         g T T E e           ",
"          & h 5                             * Q U H 2           ",
"                                            ; T ! [ ^           ",
"                                              k _ O.#.D         ",
"                                              , T O.} ^         ",
"                                                H ^ M i         "
};
