/* XPM */
static char *out[] = {
/* columns rows colors chars-per-pixel */
"32 32 105 2 ",
"   c None",
".  c #070808",
"X  c #0D0E0F",
"o  c #1E130A",
"O  c gray8",
"+  c #141719",
"@  c #171B1C",
"#  c #1A1B1B",
"$  c #2C1D0E",
"%  c #211B15",
"&  c #3B2613",
"*  c #35281A",
"=  c #1D2325",
"-  c #1E2629",
";  c #252525",
":  c #20272B",
">  c #232A2D",
",  c #2A2C2D",
"<  c #242D30",
"1  c #292E31",
"2  c #253136",
"3  c #2D3133",
"4  c #2C373B",
"5  c #2E3A3E",
"6  c #343536",
"7  c #323B3E",
"8  c #3B3C3D",
"9  c #432B16",
"0  c #473E34",
"q  c #6F4824",
"w  c #7E5229",
"e  c #6D5135",
"r  c #2E3A40",
"t  c #333E42",
"y  c #3A3F41",
"u  c #364246",
"i  c #3D4447",
"p  c #374348",
"a  c #3A464A",
"s  c #3E494E",
"d  c #3D4B51",
"f  c #424444",
"g  c #414749",
"h  c #434A4C",
"j  c #494B4B",
"k  c #434E52",
"l  c #445156",
"z  c #4E5456",
"x  c #45565C",
"c  c #4C575C",
"v  c #47585E",
"b  c #49595F",
"n  c #505355",
"m  c #525658",
"M  c #535A5D",
"N  c #475D66",
"B  c #4C5C62",
"V  c #535D62",
"C  c #4F6066",
"Z  c #536166",
"A  c #5A6366",
"S  c #52646B",
"D  c #59676B",
"F  c #56686F",
"G  c #5B686E",
"H  c #556B74",
"J  c #5A6C73",
"K  c #5D7077",
"L  c #5D737B",
"P  c #647276",
"I  c #62747B",
"U  c #6C7A7F",
"Y  c #AA6E37",
"T  c #B9783C",
"R  c #8B6643",
"E  c #5D7680",
"W  c #637B85",
"Q  c #697A80",
"!  c #667F89",
"~  c #66818B",
"^  c #6B838C",
"/  c #72868E",
"(  c #788B8F",
")  c #6C8791",
"_  c #6E8992",
"`  c #728B94",
"'  c #748E99",
"]  c #77919A",
"[  c #7A939D",
"{  c #7B96A0",
"}  c #7E9AA4",
"|  c #849CA5",
" . c #829FA9",
".. c #85A3AD",
"X. c #89A2AC",
"o. c #87A6B1",
"O. c #89A6B1",
"+. c #8BAAB5",
"@. c #8DADB9",
"#. c #90AFBB",
"$. c #92B2BE",
"%. c #94B5C1",
"&. c #97B9C5",
"*. c #98BAC6",
"=. c #99BBC8",
/* pixels */
"                                                                ",
"                                4 t                             ",
"                            u L +.%.} ~                         ",
"                            { +.$.%.*.=.}                       ",
"                            @.@.$.*.=.=.=. .                    ",
"                            @.%.$.*.=.=.=.=.B                   ",
"                          #  .%.$.*.=.=.=.=.L                   ",
"                          3 }  .@.$.=.=.$.+.B                   ",
"                          , L C ' ' { } _ B l _                 ",
"                    v ..| A u 9 q $ < * e + D =.=.l             ",
"                  S O.o.[ A d . & w T Y o @ ` *.=.L             ",
"                ! O.+.+.X./ J c , # R 0 , v ..@.{ b             ",
"                K ] .. .+...I V h < ( P ..o.{ _  .%.I           ",
"                7 M _ ) [ ..@.+.[ } o.+.#.} [ L  .%.%.7         ",
"              _ U j F ! ) ] } } } } ....} ^ J > } $.{           ",
"            v @.&.[ @ N S _ L ] ] } } ` J 4 X I G / C           ",
"            x $.%.]   : t J B D D H L W Z 1   8 M j             ",
"            s  .} ] D ^ y Z Z W ~ ~ H h Q { B ; 8 ;             ",
"              Z M K J ! ! W 8 ; , , g M M j P =                 ",
"              6 i z 8 6 v ^ ) ^ / { ..Q j [ $.{ u               ",
"              6 8 M f , 6 L ! ! ^ J s 8 j ^ $.%.{ ,             ",
"            # 6 6 A } j k , t 4       X , d ] A z k             ",
"            ; , P ^ Z j                 # B y m M 3             ",
"            ; f i g 3 @                   h y n m V :           ",
"        - ^ O.A f j 6                     O k D ) ` a           ",
"        x ) $.#.' ` d                     s I W ^ _ p           ",
"        r E O.} L -                         t ' ~ _ p           ",
"          - l 7                             = ) W L 4           ",
"                                            > H ! | `           ",
"                                              x { $.*.J         ",
"                                              2 W $.o._         ",
"                                                I ` S p         "
};
