/* XPM */
static char *out[] = {
/* columns rows colors chars-per-pixel */
"32 32 107 2 ",
"   c None",
".  c #020201",
"X  c #07090A",
"o  c #0D0D0D",
"O  c #121313",
"+  c #111719",
"@  c #17191A",
"#  c #1E1E1E",
"$  c #3B2613",
"%  c #1B1F20",
"&  c #1D2426",
"*  c #1E2629",
"=  c #232323",
"-  c #262728",
";  c #212B2E",
":  c #2B2B2B",
">  c #352F27",
",  c #252E31",
"<  c #253136",
"1  c #2A3337",
"2  c #2C363A",
"3  c #2E383D",
"4  c #323334",
"5  c #323738",
"6  c #323B3D",
"7  c #3A3D3E",
"8  c #583616",
"9  c #4A3E31",
"0  c #5E4A37",
"q  c #6D4B2C",
"w  c #7E5229",
"e  c #333E42",
"r  c #344146",
"t  c #3B4144",
"y  c #374348",
"u  c #3C464A",
"i  c #3D494E",
"p  c #3D4C51",
"a  c #404546",
"s  c #414648",
"d  c #424A4D",
"f  c #4C4C4C",
"g  c #444D51",
"h  c #435157",
"j  c #4D5254",
"k  c #45555B",
"l  c #4B565B",
"z  c #4C595E",
"x  c #505355",
"c  c #525759",
"v  c #53595C",
"b  c #475860",
"n  c #4C5D64",
"m  c #575E61",
"M  c #4C626B",
"N  c #546065",
"B  c #596164",
"V  c #53646B",
"C  c #59676C",
"Z  c #55696F",
"A  c #5D696D",
"S  c #556B74",
"D  c #5B6D74",
"F  c #586F78",
"G  c #57707A",
"H  c #5D737C",
"J  c #616E73",
"K  c #657277",
"L  c #61747C",
"P  c #62787F",
"I  c #767A76",
"U  c #7D7B73",
"Y  c #85562B",
"T  c #936438",
"R  c #B7763A",
"E  c #5F7782",
"W  c #607781",
"Q  c #637A83",
"!  c #6B7D84",
"~  c #637E88",
"^  c #67818C",
"/  c #6B838C",
"(  c #71858D",
")  c #6E8790",
"_  c #6F8A94",
"`  c #738B94",
"'  c #748F98",
"]  c #76929C",
"[  c #79949D",
"{  c #7A96A1",
"}  c #7E9BA5",
"|  c #829BA4",
" . c #819EA9",
".. c #84A2AC",
"X. c #89A5AF",
"o. c #87A5B1",
"O. c #89A6B1",
"+. c #8BAAB4",
"@. c #8EADB8",
"#. c #90AFBA",
"$. c #92B2BE",
"%. c #95B6C2",
"&. c #97B8C4",
"*. c #98BAC6",
"=. c #9ABCC9",
"-. c #9FC1CE",
";. c #A1C3D0",
/* pixels */
"                                                                ",
"                                    e                           ",
"                            e L ] O.%.`                         ",
"                             .@.$.%.=.*.D                       ",
"                           .+.#.%.=.=.=.&.r                     ",
"                        n +.@.#.&.-.=.=. .                      ",
"                        p +.#.$.&.;.;.=.]                       ",
"                      . i H { %.=.-.-.-.Q                       ",
"                    y 5 > 9 S } { { { { L G / 2                 ",
"                  ! { ! o 8 0 e 2 3 2 b Q ] *.*.g               ",
"                _ ..} o.a O T R w Y $ 2 D +.=.=.| H             ",
"              3 V ' { o.A u 0 q . X , u | =.*.=.+.=.            ",
"              V H D E / ..[ I I ; C D / $.&.%.%.[ ..O           ",
"            Z $.K s F ~ Q o.{ } ..#.$.#.@. .[ ) / X.P           ",
"            +.*.*.d i L D ' _ '  ... . .[ [ ` l ` $.%.3         ",
"            +.%.*.1   2 V p F ) { } { / S h , @ ' @.@.1         ",
"            ..' (   & e s S S n M H E ) g d . B v J D           ",
"            h v , + H / A 3 r z E Q V Q x ' p d B t             ",
"            7 B t j J h W ! t : - : t / / A l : 4 #             ",
"            : u C ( m = e E ~ / ' | ..! f I +./ #               ",
"            O 7 ! X.[ 4 6 Z F H / H k g c [ $.$./ u             ",
"            = 7 { ..! j 6             o t N [ ..j V             ",
"            # 4 C / v 1 o               # d L v c t             ",
"            5 v 4 7 : #                   d N j f 4 ;           ",
"        * / #.` K j t                     O u j C Q y           ",
"        z ` $.$. .' p                     O D F Q / r           ",
"        e E o. .L -                         p ~ E ~ e           ",
"          & h 6                             & / H H e           ",
"                                            ; Q ( | `           ",
"                                              k { $.*.F         ",
"                                              < Q $...`         ",
"                                                H ` V y         "
};
