/* XPM */
static char *out[] = {
/* columns rows colors chars-per-pixel */
"32 32 107 2 ",
"   c None",
".  c #07090A",
"X  c #0D0D0D",
"o  c #141515",
"O  c #111719",
"+  c gray12",
"@  c #2C1D0E",
"#  c #322417",
"$  c #1E2526",
"%  c #1F2629",
"&  c #212324",
"*  c #232729",
"=  c #232B2D",
"-  c #2B2B2B",
";  c #36332D",
":  c #282F32",
">  c #253136",
",  c #2B3235",
"<  c #2D363A",
"1  c #333434",
"2  c #353738",
"3  c #333B3E",
"4  c #3C3C3C",
"5  c #47311C",
"6  c #4A3018",
"7  c #6B411B",
"8  c #474039",
"9  c #5A4C3D",
"0  c #323D41",
"q  c #364247",
"w  c #3F4244",
"e  c #364448",
"r  c #3B464A",
"t  c #3E4A4E",
"y  c #3D4C51",
"u  c #3F5057",
"i  c #434343",
"p  c #424648",
"a  c #444B4D",
"s  c #494B4C",
"d  c #454F52",
"f  c #455256",
"g  c #4E5253",
"h  c #43545A",
"j  c #4D5558",
"k  c #4F5A5D",
"l  c #515556",
"z  c #545C5F",
"x  c #475860",
"c  c #495C63",
"v  c #515E62",
"b  c #4E6066",
"n  c #536166",
"m  c #53646A",
"M  c #59666B",
"N  c #5C696E",
"B  c #576B73",
"V  c #5A6C74",
"C  c #576F78",
"Z  c #5F7177",
"A  c #57707A",
"S  c #5D727A",
"D  c #637176",
"F  c #63757B",
"G  c #64787F",
"H  c #6F7A7A",
"J  c #85562B",
"K  c #895E35",
"L  c #9D6734",
"P  c #5D7680",
"I  c #607680",
"U  c #637B84",
"Y  c #6A7B82",
"T  c #647F89",
"R  c #67818B",
"E  c #6C838B",
"W  c #72868D",
"Q  c #6C8790",
"!  c #6F8A94",
"~  c #728B94",
"^  c #798F97",
"/  c #738E98",
"(  c #75929C",
")  c #79959E",
"_  c #7B97A1",
"`  c #7D9AA5",
"'  c #839CA5",
"]  c #819EA8",
"[  c #85A3AE",
"{  c #87A5B0",
"}  c #89A7B2",
"|  c #8BAAB5",
" . c #8EAEB9",
".. c #99ACB0",
"X. c #90AFBA",
"o. c #92B2BE",
"O. c #94B5C1",
"+. c #97B9C5",
"@. c #99BAC6",
"#. c #9ABCC8",
"$. c #A5C3CB",
"%. c #A9C6CE",
"&. c #A1C3D0",
"*. c #B3D0D7",
"=. c #B7D4DB",
"-. c #B0D4E1",
";. c #D5F0F4",
/* pixels */
"                                                                ",
"                                3 3 0                           ",
"                            F ( o.O.O.!                         ",
"                        q ! | o.O.+.+.@.<                       ",
"                      r [ { | o.+.#.#.#.I                       ",
"                      V { | X.O.#.#.#.O.B                       ",
"                      u _ | o.+.#.#.+.` y                       ",
"                    O ; B | O.+.+.#.` _ y                       ",
"                  h F 8 9 Q ~ ~ / } _ _ e                       ",
"                y _ ( & 5 7 # > < ! / / F @.@.m                 ",
"                0 F ` d ; L J 6 @ > ~ F } #.#.#.B               ",
"            q Z z j Y Y H K . * * u U G #.$.&.@. .E             ",
"            o.=...a Y M _ R n f n m E ' #.&.&.#.-.F             ",
"          < { ;.%.q Z g P U / { X.X.o.o. .{ | W @.&             ",
"          r $.*.G   < n f U Q / ` _ ` _ ) ) ) a ' D             ",
"          o M m         3 h I R ( ! R m A A q F o.+.U           ",
"        X 4 f       e Z l h V M m S P S - 0 o {  .X.U           ",
"        X - v i o   V D Z , : h I B m Y i l a W ) ` r           ",
"          X 3 o r ` W + r Y v 3 - - b E N 1 p w 3               ",
"              0 ` [ ' 1 3 B P T W ) [ W s 2 2 8                 ",
"              < _ { | n t r q c E h b N l D E ' W               ",
"            3 - D ] M z 1             X r b } X.^ '             ",
"            & s 1 n 0 - X               o 2 D D l g             ",
"            0 V v 2 i &                   1 v l s 1 o           ",
"        % E  ._ m N r                     : w l g g y           ",
"        x / o.o.[ ) d                     o d m B U y           ",
"        0 P { ] I %                         d F B P 0           ",
"          $ f 3                             * R A V <           ",
"                                            = U G ) ~           ",
"                                              h ) o.@.C         ",
"                                              > Y o.[ ~         ",
"                                                S ~ m e         "
};
