/* XPM */
static char *out[] = {
/* columns rows colors chars-per-pixel */
"32 32 107 2 ",
"   c None",
".  c #010101",
"X  c #151616",
"o  c #15191A",
"O  c #191B1D",
"+  c #1E2325",
"@  c #1F2629",
"#  c #232424",
"$  c #212628",
"%  c #242C2D",
"&  c #2B2B2B",
"*  c #2E2F30",
"=  c #253136",
"-  c #2A3133",
";  c #2B3539",
":  c #2E393D",
">  c #333334",
",  c #333739",
"<  c #323B3E",
"1  c #3A3B3A",
"2  c #664322",
"3  c #77502B",
"4  c #6E4D32",
"5  c #333E42",
"6  c #364346",
"7  c #3C4244",
"8  c #374448",
"9  c #3B464B",
"0  c #3E4C51",
"q  c #424445",
"w  c #424749",
"e  c #434A4D",
"r  c #4C4C4C",
"t  c #5B584F",
"y  c #444E52",
"u  c #484F52",
"i  c #445256",
"p  c #495256",
"a  c #44565C",
"s  c #4C565A",
"d  c #4D585C",
"f  c #50575A",
"g  c #52595C",
"h  c #595D5E",
"j  c #475860",
"k  c #4C5C62",
"l  c #545E62",
"z  c #566165",
"x  c #53646A",
"c  c #5A666B",
"v  c #5B696E",
"b  c #566970",
"n  c #5C6D74",
"m  c #576F79",
"M  c #5F7177",
"N  c #57707A",
"B  c #5C717A",
"V  c #606360",
"C  c #606D71",
"Z  c #657277",
"A  c #63757C",
"S  c #64787F",
"D  c #707979",
"F  c #8E6846",
"G  c #5F7983",
"H  c #607782",
"J  c #647B83",
"K  c #697D85",
"L  c #667F8A",
"P  c #737F80",
"I  c #6E8086",
"U  c #66808A",
"Y  c #6C838C",
"T  c #72878E",
"R  c #6C8691",
"E  c #6E8992",
"W  c #728B95",
"Q  c #798D94",
"!  c #728E99",
"~  c #76919A",
"^  c #79949E",
"/  c #7A96A0",
"(  c #7C98A3",
")  c #829CA5",
"_  c #819EA9",
"`  c #8DA1A6",
"'  c #84A2AD",
"]  c #87A5B0",
"[  c #89A7B1",
"{  c #8CABB6",
"}  c #8EAEB9",
"|  c #90AFBA",
" . c #92B2BD",
".. c #94B5C0",
"X. c #96B8C4",
"o. c #99BAC6",
"O. c #99BBC8",
"+. c #A2BEC9",
"@. c #9EC1CD",
"#. c #A4C6D2",
"$. c #A7CAD7",
"%. c #A7CAD8",
"&. c #ADD1DE",
"*. c #B2D6E4",
"=. c #B9DDEA",
"-. c #BFE4F2",
";. c #C2E8F6",
/* pixels */
"                                                                ",
"                              , < 5 :                           ",
"                          b '  ... . .^                         ",
"                      5 H [ }  ...X.O.O.                        ",
"                      [ ' [ } ..o.O.O.X.                        ",
"                      [ ] {  ...o.O.o.( %                       ",
"                      Q [ }  ...o.O.} / 0                       ",
"                    < I Y ' { ..X.' ^ ^ 0                       ",
"                  a n D 1 k J W ( / / ~ 9                       ",
"                  $ A i F 3 2 t ~ ! ! U ^ n n                   ",
"              i Z > Z - 4 . . X Y E J B #.@.O.Q                 ",
"            = ( _ n C z z o 0 0 G Y l Q -.-.&. .i               ",
"            x ' _ K 5 s m H A c x K ) &.;.;.=.[ _               ",
"            < ( ~   X q N B _ ( ' }  .$.*.=.@.%.K               ",
"            s @       # u G R / ! ! ( ^ ^ ' I Q &               ",
"          & z %       @ # p n E J A A Y E c x } T 9             ",
"          8 v a       A l < 0 k c b N y w T }  . .x             ",
"            $     5 Y q l 7 * u k k k 8 l J  .{ ' 8             ",
"                0 _ ' 1 , J C e * & 7 w h l I M ;               ",
"              . J ' [ Q # u c S T ~ ~ p 1 > d z                 ",
"              & x { ( l x p % 9 U n k d > n ' | Y               ",
"            : e 1 b g w &               k g [  .} `             ",
"            X K p < & > X               + s T ^ g c             ",
"            7 w K Y e .                   , Z c r >             ",
"        @ Y  .) n g 0                     $ w r r q 6           ",
"        a !  . .' ^ i                     O 7 z g n a           ",
"        5 H [ _ S @                         k z z B <           ",
"          @ i <                             @ A b b ;           ",
"                                            % H A ~ W           ",
"                                              a )  .O.n         ",
"                                              = H  .' W         ",
"                                                A W x 8         "
};
