/* XPM */
static char *out[] = {
/* columns rows colors chars-per-pixel */
"32 32 91 1 ",
"  c None",
". c black",
"X c #141414",
"o c #191F20",
"O c #1D2223",
"+ c #1F2629",
"@ c #232323",
"# c #232B2D",
"$ c #282828",
"% c #242E32",
"& c #2A2E31",
"* c #253136",
"= c #2A3134",
"- c #2D3639",
"; c #2E393D",
": c #323434",
"> c #333B3D",
", c #383A3B",
"< c #603E20",
"1 c #73471E",
"2 c #53483C",
"3 c #7A4F27",
"4 c #6A4E36",
"5 c #323E42",
"6 c #393E40",
"7 c #354247",
"8 c #3D4244",
"9 c #374448",
"0 c #3B454A",
"q c #3D494D",
"w c #3F4D53",
"e c #434444",
"r c #444A4C",
"t c #4A4B4B",
"y c #434E52",
"u c #484F51",
"i c #445155",
"p c #495255",
"a c #44555B",
"s c #4C5659",
"d c #4D5A5E",
"f c #505759",
"g c #505B5F",
"h c #475860",
"j c #4D5C62",
"k c #555E61",
"l c #576367",
"z c #5A6367",
"x c #54646B",
"c c #52686F",
"v c #5B696E",
"b c #556A72",
"n c #5A6D75",
"m c #576F78",
"M c #5C737B",
"N c #647277",
"B c #63757B",
"V c #69767A",
"C c #66787F",
"Z c #5F7983",
"A c #647C85",
"S c #6B7D84",
"D c #67818B",
"F c #6C848C",
"G c #71878F",
"H c #6E8992",
"J c #738A93",
"K c #728E99",
"L c #76929C",
"P c #7A959E",
"I c #7A96A0",
"U c #7D9AA4",
"Y c #839CA5",
"T c #819EA9",
"R c #85A3AE",
"E c #89A4AE",
"W c #87A6B1",
"Q c #89A7B1",
"! c #8CAAB5",
"~ c #8EAEB9",
"^ c #90ABB5",
"/ c #90AFBA",
"( c #92B2BD",
") c #95B6C1",
"_ c #96B8C4",
"` c #99BAC6",
"' c #99BBC8",
"] c #A0C1CE",
"[ c #A5C7D5",
"{ c #A9CCDA",
"} c #B1D5E3",
/* pixels */
"                                ",
"              ;>5;;             ",
"            7A~(()(D            ",
"           nPQ(()``(            ",
"           TR!/)_'`!            ",
"           RW~()))RR            ",
"           W!//(_RUU            ",
"          #cHUQ(RIIL            ",
"          rt2hLPIPPP            ",
"        ;v><31iLLKKDbO.         ",
"        cJ,4..=DHHnG``'         ",
"       9LPfs==aMHxz){''J        ",
"       #DP8rmLnFGY]}}[!Y7       ",
"       r=q ,mAIU!~[{}^E/-       ",
"      #k@   0mHHHKLLUP!e        ",
"      %dV   >imbbZDFnNJe        ",
"        o  @B=7jbj8qI_'R=       ",
"          bk6k:rarzl(`(W;       ",
"        aTRV$jcr8,rrJUPs        ",
"       XuRRL8yamF,,:,8si        ",
"       ::UJsjsO7AAgrevP~a       ",
"       n6jr8@X     #fG/)(j      ",
"      OvA8:,X       #zR!NS      ",
"      uskNc.        XgNtt@      ",
"    #G(/Jcy          sptt2&     ",
"    aK)(RIw          6ueuja     ",
"    5ZQTB+            ,AhM5     ",
"     Oa>              #axb*     ",
"                      %MNLJ     ",
"                       aU)`n    ",
"                       *A(WH    ",
"                        MGx9    "
};
