/* XPM */
static char *out[] = {
/* columns rows colors chars-per-pixel */
"32 32 94 2 ",
"   c None",
".  c #0B0D0D",
"X  c #131414",
"o  c #161A1C",
"O  c #1D1D1D",
"+  c #1A1F21",
"@  c #1D2425",
"#  c #1F2629",
"$  c #232425",
"%  c #232A2C",
"&  c #2A2C2C",
"*  c #222D31",
"=  c #253136",
"-  c #2C3133",
";  c #2C3539",
":  c #2F3A3F",
">  c #333536",
",  c #333638",
"<  c #333A3D",
"1  c gray23",
"2  c #452C16",
"3  c #443426",
"4  c #4D3825",
"5  c #44423C",
"6  c #323E43",
"7  c #3B3F41",
"8  c #374144",
"9  c #3B4244",
"0  c #374448",
"q  c #3E474A",
"w  c #3E494D",
"e  c #3E4E54",
"r  c #424445",
"t  c #444749",
"y  c #434A4D",
"u  c #494A4A",
"i  c #434E52",
"p  c #435257",
"a  c #4B5255",
"s  c #44555B",
"d  c #4C565A",
"f  c #4D595E",
"g  c #515557",
"h  c #525759",
"j  c #555B5E",
"k  c #475860",
"l  c #4D5D63",
"z  c #535E63",
"x  c #4E6169",
"c  c #556064",
"v  c #5B6367",
"b  c #53646B",
"n  c #5B676C",
"m  c #5A6A6F",
"M  c #556B74",
"N  c #5B6D74",
"B  c #5C727B",
"V  c #647176",
"C  c #62747B",
"Z  c #5E7780",
"A  c #637B84",
"S  c #697D84",
"D  c #647E88",
"F  c #6B8087",
"G  c #668089",
"H  c #6A838C",
"J  c #71858C",
"K  c #6D8790",
"L  c #6F8A93",
"P  c #728A93",
"I  c #738E99",
"U  c #76939D",
"Y  c #7A949D",
"T  c #7996A0",
"R  c #7D99A3",
"E  c #80979E",
"W  c #819AA3",
"Q  c #819EA9",
"!  c #85A2AD",
"~  c #88A3AD",
"^  c #88A6B1",
"/  c #8BAAB5",
"(  c #8FAFBA",
")  c #91ABB3",
"_  c #90AFBA",
"`  c #92B2BD",
"'  c #95B5C1",
"]  c #97B9C5",
"[  c #99BAC6",
"{  c #99BBC8",
"}  c #9FC1CE",
"|  c #A0C2CF",
" . c #A4C6D3",
".. c #A5C8D5",
/* pixels */
"                                                                ",
"                            : l l 6                             ",
"                        x Y ( ` ' ] Q b                         ",
"                      G ! / ` ` ' { { H                         ",
"                    p R ! / ( ' [ { ] ^                         ",
"                    p ! / / ` ' ] ` ^ R                         ",
"                    e / / / ( ` ] R T R                         ",
"                    @ x Z R ` ^ T R T R                         ",
"                    o 3 * B T T T T U Y                         ",
"                  e < 4 2 5 U I I U T A l                       ",
"                  A t X . o H L L H M Q ' S N                   ",
"                  U a , ; 8 B H A d v / { { { ,                 ",
"                $ B q n n Y n H R Y [ | [ ' / p                 ",
"                z .   > b S H T ( ` [ | ' W Y N                 ",
"              < z <     9 A D D K P P R Y ` ! H                 ",
"                1 9     ; w x M M D G A 9 V g %                 ",
"                      + a < < c i q s S ^ Y V &                 ",
"                  6 b J > b , y t z S _  .../ w                 ",
"                6 Q Q ~ > y M 9 i u S ~ R ! E %                 ",
"              $ & R ! W c 9 e x 1 t f b j h r -                 ",
"              z - F C m f 9 $ 6 l y H u r j I ! s               ",
"              M c 9 y & $ X           X c ! ` ` R               ",
"            + N c b > > -               t S ` ` ) E             ",
"            i a j M N O                 & B ! j t $             ",
"        % P ` ` P n e                     c d u u 1 $           ",
"        s I ` ` ! T e                     7 m u r a 6           ",
"        6 A ^ Q C %                         t C z A :           ",
"          @ p 6                             = b b M =           ",
"                                            % Z C Y P           ",
"                                              s R ` [ N         ",
"                                              = A ` ! P         ",
"                                                B P b 0         "
};
