/* XPM */
static char *out[] = {
/* columns rows colors chars-per-pixel */
"32 32 91 1 ",
"  c None",
". c gray1",
"X c #0B0E0F",
"o c #151515",
"O c #1C1D1D",
"+ c #261D13",
"@ c #3B2513",
"# c #1B1F21",
"$ c #1C2425",
"% c #1E2629",
"& c #242627",
"* c #232729",
"= c #242B2D",
"- c #2E2F2F",
"; c #252D30",
": c #2C2F31",
"> c #253136",
", c #2A3032",
"< c #2B3539",
"1 c #2F3A3D",
"2 c #323536",
"3 c #333739",
"4 c #333B3E",
"5 c #3B3C3C",
"6 c #48392A",
"7 c #313E42",
"8 c #393F41",
"9 c #374144",
"0 c #3D4345",
"q c #374448",
"w c #3D474B",
"e c #3E494D",
"r c #3D4D53",
"t c #454545",
"y c #44494B",
"u c #4C4C4C",
"i c #424E53",
"p c #4A4E50",
"a c #455155",
"s c #4C5356",
"d c #44555B",
"f c #4E5759",
"g c #4C595E",
"h c #535B5E",
"j c #475860",
"k c #4C5D63",
"l c #535E63",
"z c #585E61",
"x c #4D6166",
"c c #526065",
"v c #5A6265",
"b c #53656C",
"n c #59686F",
"m c #556B73",
"M c #5B6D74",
"N c #5E757E",
"B c #666C6F",
"V c #687477",
"C c #64757B",
"Z c #5F7881",
"A c #647B84",
"S c #6A7D84",
"D c #647E88",
"F c #67818B",
"G c #6C848D",
"H c #73878E",
"J c #6C8791",
"K c #6E8992",
"L c #728B94",
"P c #738F99",
"I c #75919C",
"U c #79949E",
"Y c #7A96A0",
"T c #7C99A3",
"R c #80979F",
"E c #819BA4",
"W c #899FA5",
"Q c #819EA9",
"! c #85A3AE",
"~ c #8AA4AD",
"^ c #87A5B0",
"/ c #89A7B2",
"( c #8BAAB5",
") c #8FAEB9",
"_ c #90AFBA",
"` c #92B3BE",
"' c #95B6C2",
"] c #97B8C4",
"[ c #99BAC6",
"{ c #9ABCC9",
"} c #ACCFDC",
/* pixels */
"                                ",
"              1441              ",
"            kU_`'`Yg            ",
"           D^(_`[{[K            ",
"          iQ^(('[{{^            ",
"          b^/(_'{[^T;           ",
"          J^/(__/TTTi           ",
"          $mJ/(^YTYT            ",
"          16rKYUYUYU            ",
"          :+@VIPPYUJ<           ",
"         xa.X*KKJFMP'Ac         ",
"         Cp2<9AFZlv/{{{         ",
"         awtM!AHEI`{[[{d        ",
"        n: -vLFY){{{'U`y        ",
"        0y  wKDDKPUE~`T0        ",
"         a# OjbmmADSmVu%        ",
"            387l4akS~SB         ",
"          bH0M0ysgG[}`E         ",
"         ^Q~5wm5t0Y'E!T         ",
"        OIQEs5ra5unnkga3        ",
"       w2MJfas&70gSttsCY        ",
"       lM580&o     ih!`'T       ",
"      $BmM43,       tS_`~~      ",
"      ishSMO        =C)vh=      ",
"    %L``Lbr          Mzuu6#     ",
"    jL``!Yr          2htti7     ",
"    7Z!QC%            8lkZ1     ",
"     $a4              %Mcm>     ",
"                      =bCUL     ",
"                       dY`{M    ",
"                       >A`^L    ",
"                        NLcq    "
};
