/* XPM */
static char *out[] = {
/* columns rows colors chars-per-pixel */
"32 32 91 1 ",
"  c None",
". c #070708",
"X c #141414",
"o c #1B1C1C",
"O c #1B1F21",
"+ c #1C2325",
"@ c #1F2629",
"# c #222425",
"$ c #232729",
"% c #232B2D",
"& c #34312C",
"* c #272C31",
"= c #292F32",
"- c #253136",
"; c #2A3235",
": c #2B3539",
"> c #2E393D",
", c #323434",
"< c #323638",
"1 c #333A3D",
"2 c #3A3B3C",
"3 c #4C341D",
"4 c #5A391D",
"5 c #333D41",
"6 c #3B4144",
"7 c #374448",
"8 c #3B464A",
"9 c #3F4B4F",
"0 c #3E4D52",
"q c #444545",
"w c #434749",
"e c #42494C",
"r c #484848",
"t c #434F54",
"y c #435257",
"u c #4A5255",
"i c #45565C",
"p c #4A5559",
"a c #48585E",
"s c #515759",
"d c #545B5E",
"f c #465960",
"g c #4B5C62",
"h c #545E61",
"j c #566266",
"k c #5A6264",
"l c #54656B",
"z c #59656A",
"x c #56686F",
"c c #59696E",
"v c #546A73",
"b c #5B6D74",
"n c #5D737C",
"m c #666C70",
"M c #647277",
"N c #61777F",
"B c #6A777A",
"V c #68797E",
"C c #647B84",
"Z c #6A7D84",
"A c #647E88",
"S c #658089",
"D c #6A828B",
"F c #70838B",
"G c #6C8791",
"H c #6E8993",
"J c #728B93",
"K c #748F99",
"L c #76929C",
"P c #7A949D",
"I c #7996A0",
"U c #7C99A3",
"Y c #829AA4",
"T c #889DA4",
"R c #819EA9",
"E c #85A3AD",
"W c #8CA5AE",
"Q c #87A5B0",
"! c #89A7B2",
"~ c #8AA9B4",
"^ c #8EAEB9",
"/ c #93AEB7",
"( c #90AFBA",
") c #92B3BE",
"_ c #95B6C1",
"` c #97B8C4",
"' c #98BAC6",
"] c #99BBC8",
"[ c #9EC0CD",
"{ c #A6C2CA",
"} c #AACDD9",
/* pixels */
"                                ",
"              >11>              ",
"            iA^())Ia            ",
"           DQ~()`]]G            ",
"          5UQ~((]['E            ",
"          yRQ~(_]]ERy           ",
"          0U~~((!UUU0           ",
"          @vGQ(QUUUU7           ",
"          +&fKILIIIU            ",
"          o34BLKLIPD:           ",
"         gbo.$JHHHnJ)Cb         ",
"         Cd<=8CACzdP]]]:        ",
"         zp2jZDZPZT]]]]v        ",
"        6,=#jPHR)]]]]WPm        ",
"        p2  5KSAGKI^Y/]H        ",
"         8X opvvvCAAMBk#        ",
"            6w=00ifhPVmX        ",
"          lJzcuytpP]}WJ         ",
"         LR~q5busq(){!R         ",
"        oJEUh20822DJgcze        ",
"       1<bJhuu#:,uc6qsVJ        ",
"       tb,p6#o     1dE)_U       ",
"      Ohxb1<#       qU()TW      ",
"      tudZb8        =z~kk%      ",
"    $H_)Jx0          ckrr2      ",
"    fJ))EL0          <urqr5     ",
"    5C!RN$           Xrpan5     ",
"     +y1              +bkx-     ",
"                      %lMPJ     ",
"                       iP)]b    ",
"                       -C)EH    ",
"                        nJl7    "
};
