/* XPM */
static char *out[] = {
/* columns rows colors chars-per-pixel */
"32 32 98 2 ",
"   c None",
".  c black",
"X  c #141414",
"o  c #151C1E",
"O  c #191A1A",
"+  c #20140A",
"@  c #352211",
"#  c #1A1F21",
"$  c #1D2224",
"%  c #1F2629",
"&  c #222324",
"*  c #222A2D",
"=  c #2B2C2C",
"-  c #252E31",
";  c #2C2F31",
":  c #253136",
">  c #2A3336",
",  c #2B3539",
"<  c #2E393F",
"1  c #333536",
"2  c #333B3F",
"3  c #3C3D3D",
"4  c #443A31",
"5  c #60452E",
"6  c #6D5033",
"7  c #2F3B40",
"8  c #333D42",
"9  c #3B3F42",
"0  c #364145",
"q  c #3C4143",
"w  c #374448",
"e  c #38464B",
"r  c #3C494F",
"t  c #3E4C52",
"y  c #444545",
"u  c #424749",
"i  c #434A4D",
"p  c #4B4C4D",
"a  c #434E52",
"s  c #445156",
"d  c #485256",
"f  c #42545B",
"g  c #4C5559",
"h  c #4D595E",
"j  c #50575A",
"k  c #525B5F",
"l  c #475960",
"z  c #4D5D63",
"x  c #525F64",
"c  c #4D6067",
"v  c #536166",
"b  c #586165",
"n  c #53646B",
"m  c #5A6468",
"M  c #56686F",
"N  c #5C696E",
"B  c #5C6D75",
"V  c #5D7077",
"C  c #5D737C",
"Z  c #606D72",
"A  c #647277",
"S  c #63757B",
"D  c #68757B",
"F  c #5D7680",
"G  c #627A83",
"H  c #6B7E85",
"J  c #67818A",
"K  c #6A858E",
"L  c #73868D",
"P  c #6C8791",
"I  c #6E8992",
"U  c #728B94",
"Y  c #728D98",
"T  c #75929C",
"R  c #7A949D",
"E  c #7A96A1",
"W  c #7D99A3",
"Q  c #84969C",
"!  c #819EA9",
"~  c #85A2AD",
"^  c #8BA5AD",
"/  c #87A5B0",
"(  c #89A6B1",
")  c #8BAAB4",
"_  c #8EAEB9",
"`  c #90AFBA",
"'  c #93B2BD",
"]  c #95B6C1",
"[  c #97B9C5",
"{  c #9ABAC5",
"}  c #99BBC8",
"|  c #9EC0CD",
" . c #A4C0C7",
".. c #A3C5D2",
"X. c #A6C9D6",
"o. c #A7CAD8",
"O. c #B4D5DF",
"+. c #B1D5E3",
/* pixels */
"                                                                ",
"                                2                               ",
"                          t K T ' ~ U z                         ",
"                      8 C ! ) ' ' } } }                         ",
"                      ! W / _ _ ] } } ' t                       ",
"                      ! / ( _ ] ] } [ / s                       ",
"                      / ) ) _ ] ] _ W W t                       ",
"                      P E ) _ ] ` W W E t                       ",
"                    . , r C / W E T R E t                       ",
"                    x 6 4 # E E T E T Y 8                       ",
"                  z S 5 + @ z I I Y I G ~ G B e                 ",
"                0 W S 3 & % t J P F n A | } [ G                 ",
"                  W n 4 l b n B S H D ..o.| { _                 ",
"                ; f , = x H Y ~ ' ] X.+.o...( Q ,               ",
"              ; j X     8 K I P I W ( ] ] ] ' } 8               ",
"                p q     - x S G C J I I B U L 9                 ",
"                  #   # m 2 0 f f i z z U L b =                 ",
"                    n Y 3 N 2 q u N B _ X.O.R 3                 ",
"                  R ! ~ 1 9 B a i y I }  .' ! k                 ",
"                O E ! ~ b 9 f h d q g U H n h = X               ",
"              q 1 M T Z v 1 * 8 d 3 S i q g U ! s               ",
"              h z u h d = X           X k W ' ' ' *             ",
"            # N A a = 1 O               2 H ` ) Q ^             ",
"            a j k D x w                 $ N R Z p &             ",
"        % U ' ' U n t                     n u p p 3 O           ",
"        l Y ] ' ~ E t                     i b y y i %           ",
"        8 F / ! S %                         q m n C 7           ",
"          $ s 8                             % B b M :           ",
"                                            * C A T U           ",
"                                              f W ' } B         ",
"                                              : G ' ~ U         ",
"                                                S U n w         "
};
