/* XPM */
static char *out[] = {
/* columns rows colors chars-per-pixel */
"32 32 108 2 ",
"   c None",
".  c #010101",
"X  c #0F0A05",
"o  c #07090A",
"O  c #0C0C0C",
"+  c #160E07",
"@  c #1D130A",
"#  c #141516",
"$  c #1A1B1B",
"%  c #1A1F21",
"&  c #1D2224",
"*  c #1F2629",
"=  c #242423",
"-  c #232A2C",
";  c #2B2C2C",
":  c #302F2D",
">  c #232D31",
",  c #253136",
"<  c #2C3234",
"1  c #2B3639",
"2  c #2E393D",
"3  c #343637",
"4  c #323739",
"5  c #333B3D",
"6  c #3D3D3E",
"7  c #5D4631",
"8  c #6D4B2C",
"9  c #784F29",
"0  c #343E42",
"q  c #3A3F41",
"w  c #354045",
"e  c #3C4245",
"r  c #374448",
"t  c #3E494D",
"y  c #3E4C51",
"u  c #424444",
"i  c #404649",
"p  c #45494B",
"a  c #4A4B4B",
"s  c #424F53",
"d  c #435056",
"f  c #4C5356",
"g  c #43555B",
"h  c #4B5559",
"j  c #4B585E",
"k  c #515A5E",
"l  c #475A62",
"z  c #4C5D64",
"x  c #535E62",
"c  c #4F6168",
"v  c #546166",
"b  c #596367",
"n  c #53656B",
"m  c #5A666B",
"M  c #57686D",
"N  c #59696E",
"B  c #576D76",
"V  c #5B6D74",
"C  c #57707A",
"Z  c #5D737C",
"A  c #606F75",
"S  c #617076",
"D  c #62747B",
"F  c #67787F",
"G  c #727E7F",
"H  c #85562B",
"J  c #8D5B2E",
"K  c #875E37",
"L  c #98622F",
"P  c #647B84",
"I  c #6A7D84",
"U  c #66818B",
"Y  c #6A828C",
"T  c #71858D",
"R  c #77888D",
"E  c #6E8994",
"W  c #728A93",
"Q  c #788F97",
"!  c #728E99",
"~  c #77929C",
"^  c #7A939C",
"/  c #7995A1",
"(  c #7E9AA4",
")  c #7F9DA8",
"_  c #829CA5",
"`  c #819EA9",
"'  c #85A2AD",
"]  c #87A6B2",
"[  c #88A7B2",
"{  c #8BAAB5",
"}  c #8EAEB9",
"|  c #94ACB4",
" . c #92B2BD",
".. c #94B5C1",
"X. c #97B9C4",
"o. c #99BAC7",
"O. c #9BBCC9",
"+. c #9FC1CE",
"@. c #A0C2CF",
"#. c #A9C5CD",
"$. c #A1C3D0",
"%. c #A6C9D7",
"&. c #B1CDD6",
"*. c #BBD7DD",
"=. c #C6E2E8",
"-. c #D6EEF1",
";. c #D6F2F6",
":. c #E2FCFF",
/* pixels */
"                                                                ",
"                                  5 0                           ",
"                            d W ~ ..o.W                         ",
"                          t ( } ..o.o.O.V                       ",
"                        r ' { } ..o.O.o./                       ",
"                        U [ { } O.O.O.o.!                       ",
"                      . _ { {  .O.$.$.O.Y                       ",
"                    2 4 N T }  .@.$.@...P                       ",
"                    Z k : a ^ [ { ] / ^ P                       ",
"                  . I j = 9 5 5 2 2 2 l m %                     ",
"                1 W M ; 5 @ K L J H X 2 F .._ Y                 ",
"                P ' F p P r 7 8 + o > 5 | =.O...j               ",
"              w ( E M u C C I V 2 B V _ :.:.;.O.W               ",
"                v B y ; x C I ) ~ T [ =.:.:.-.| ^ .             ",
"              i < %     q B C E ! / ` } #.*.&.@.} .             ",
"            $ k 6       & e P E Y Y Y ! W n b m $               ",
"              $ 5 =   < D ; q d l g t j V _ } b ;               ",
"                    v D h k ; e z e b S ( X.%.` i               ",
"                1 U ) ^ = x D d = e 6 e  .X.` ^ y               ",
"                5 ` ` ' i 3 m S Y ; 3 i z n M q O               ",
"              3 ; ( ] P v k < e Z v u 6 6 b W ` x               ",
"              V 3 c m f 5 #           . x T {  ...V             ",
"            # D I 3 3 ; $               - N } _ I R             ",
"            s p x I k &                   h Q a f 6             ",
"        * W  .} W j 0                     V q a a 6 -           ",
"        l W .. .' ~ y                     i h a a k g           ",
"        0 P [ ` D -                         e V z C 0           ",
"          & g 5                             - z x M ,           ",
"                                            - Z D ^ W           ",
"                                              g ( ..X.V         ",
"                                              , P  .] W         ",
"                                                Z W v r         "
};
