/* XPM */
static char *out[] = {
/* columns rows colors chars-per-pixel */
"32 32 100 2 ",
"   c None",
".  c #070808",
"X  c #0C0C0C",
"o  c #131414",
"O  c #1B1C1C",
"+  c #21180F",
"@  c #1D2224",
"#  c #1E2629",
"$  c #242525",
"%  c #232729",
"&  c #242A2C",
"*  c #2A2A2A",
"=  c #252E31",
"-  c #253136",
";  c #2C3335",
":  c #2B3539",
">  c #2F3A3F",
",  c #323535",
"<  c #333A3D",
"1  c #3C3C3C",
"2  c #604B35",
"3  c #313D41",
"4  c #383F41",
"5  c #354044",
"6  c #3D4345",
"7  c #374448",
"8  c #3C4549",
"9  c #3C494D",
"0  c #3E4D53",
"q  c #434343",
"w  c #424A4D",
"e  c #4A4B4B",
"r  c #5C4E40",
"t  c #5E584D",
"y  c #434E52",
"u  c #484F52",
"i  c #445156",
"p  c #4C5254",
"a  c #44545A",
"s  c #4A565A",
"d  c #4E5A5E",
"f  c #505557",
"g  c #525658",
"h  c #52595D",
"j  c #675747",
"k  c #475961",
"l  c #4D5C62",
"z  c #495F68",
"x  c #525D62",
"c  c #4E626A",
"v  c #566267",
"b  c #5B6467",
"n  c #516268",
"m  c #5A666B",
"M  c #56686F",
"N  c #536770",
"B  c #546972",
"V  c #5A6C73",
"C  c #57707A",
"Z  c #5D747D",
"A  c #606867",
"S  c #626D72",
"D  c #627277",
"F  c #64747B",
"G  c #68777C",
"H  c #65787E",
"J  c #B1763F",
"K  c #7B807B",
"L  c #637B84",
"P  c #6A7D84",
"I  c #647E89",
"U  c #67818B",
"Y  c #6B828B",
"T  c #72878E",
"R  c #73888F",
"E  c #6D8790",
"W  c #6E8994",
"Q  c #718790",
"!  c #728B94",
"~  c #748F99",
"^  c #76929B",
"/  c #7A949E",
"(  c #7C97A1",
")  c #7E9BA5",
"_  c #849498",
"`  c #819CA5",
"'  c #8F9FA1",
"]  c #819EA9",
"[  c #85A2AD",
"{  c #87A5B0",
"}  c #8AA7B2",
"|  c #8BA9B4",
" . c #8EADB9",
".. c #92B2BD",
"X. c #A3B5B8",
"o. c #C5B69D",
"O. c #94B5C1",
"+. c #97B9C5",
"@. c #99BAC6",
"#. c #99BBC8",
/* pixels */
"                                                                ",
"                                                                ",
"                            Q ~ ^ Z a                           ",
"                          V | ....+.O.Y                         ",
"                        : [  .O.+.#.#.#.!                       ",
"                        = ] ..O.#.#.#.#.#.Y                     ",
"                        @ ~ O.+.@.#.#.#.+.) ;                   ",
"                        O b ` @.#.#.#.O.) U =                   ",
"                    i E w x T ) ) ) ] ( V @ ;                   ",
"                s { ] / 4 i V 3 3 3 3 t 2 < ..n                 ",
"              i [ } ] P D a c o X.[ o.J + Q #.+.l               ",
"              3 Y ]  .h ` a B % . X K j 5 @.#.@.@.n             ",
"            M x b b ! D ] P m h g & r A | #.+.} [ O             ",
"          n .. .D p P d | } I Z F H  . .O.{ [ V p               ",
"          ^ +.@.G ; m L ~ ~ W ( [ } ] [ ( / Y Y S *             ",
"          F #.@.6   4 V x L W ~ / ) ^ Y D s Y .... .            ",
"          8 _ *     @ % < k z Z E U Z L i < P |  ./             ",
"          6 v 1 O = E Q e 5 0 N N Y B n p F G ! Y 5             ",
"        X 8 l 9 > Y V B I x & $ < * w h p 1 1 i                 ",
"          X $ ; ! [ p * k Z I Y R / [ V 1 1 f Y                 ",
"              l ) { F * ; N C Z Q Z 9 d e P ] ..F 9             ",
"            O l [ [ [ p p             o 8 x / R m 5             ",
"            % , P ) x 8                 $ s w g g &             ",
"            $ 1 * h 4 O                 X y q p e , &           ",
"        % Y | b q e ,                     o y p I Q 7           ",
"        a ~ ..../ I 0                     y Y Z U E 7           ",
"        3 L } ] F #                         0 I L U 3           ",
"          # i <                             @ E L Z >           ",
"                                            = L T ` Q           ",
"                                              a ( ..#.V         ",
"                                              - L ..{ !         ",
"                                                Z E n 7         "
};
