/* XPM */
static char *out[] = {
/* columns rows colors chars-per-pixel */
"32 32 109 2 ",
"   c None",
".  c black",
"X  c #0F0A05",
"o  c #060708",
"O  c #0C0D0E",
"+  c #131415",
"@  c #171C1C",
"#  c #1A1B1B",
"$  c #21180F",
"%  c #1E2324",
"&  c #1E2529",
"*  c #212223",
"=  c #232B2E",
"-  c #292A2A",
";  c #263135",
":  c #2C3335",
">  c #2C3539",
",  c #2D383D",
"<  c #343434",
"1  c #323738",
"2  c #343B3E",
"3  c #3B3C3D",
"4  c #4A3018",
"5  c #5B4E3E",
"6  c #624326",
"7  c #684322",
"8  c #343E42",
"9  c #3A3F42",
"0  c #364043",
"q  c #3C4345",
"w  c #374448",
"e  c #3B4649",
"r  c #3B494E",
"t  c #3E4D52",
"y  c #444646",
"u  c #424749",
"i  c #40494C",
"p  c #4C4C4C",
"a  c #424E52",
"s  c #4A4F50",
"d  c #425156",
"f  c #4A5154",
"g  c #44555B",
"h  c #4B565A",
"j  c #4C595E",
"k  c #505557",
"l  c #525A5D",
"z  c #585C5E",
"x  c #475860",
"c  c #4D5D63",
"v  c #535D61",
"b  c #585F62",
"n  c #4E6066",
"m  c #4F6168",
"M  c #546166",
"N  c #54656B",
"B  c #5A666B",
"V  c #5A686E",
"C  c #566A72",
"Z  c #5B6D75",
"A  c #596F78",
"S  c #5D7077",
"D  c #5C727A",
"F  c #746D64",
"G  c #606D72",
"H  c #627176",
"J  c #63747B",
"K  c #65787F",
"L  c #815934",
"P  c #A36A35",
"I  c #B9783C",
"U  c #5E7781",
"Y  c #607680",
"T  c #637A83",
"R  c #6D7E83",
"E  c #657E88",
"W  c #678089",
"Q  c #6B838C",
"!  c #71878F",
"~  c #728B94",
"^  c #7B8F97",
"/  c #748E99",
"(  c #76919B",
")  c #79939C",
"_  c #7A96A1",
"`  c #7D9AA4",
"'  c #829DA6",
"]  c #8B9EA2",
"[  c #829FA9",
"{  c #85A3AE",
"}  c #8BA4AD",
"|  c #9AA8A9",
" . c #87A5B0",
".. c #8AA7B1",
"X. c #8BAAB5",
"o. c #8EADB9",
"O. c #96AFB8",
"+. c #92B2BD",
"@. c #94B5C0",
"#. c #97B9C5",
"$. c #99BAC6",
"%. c #99BBC8",
"&. c #9FC1CE",
"*. c #B4CBD1",
"=. c #B0D4E2",
"-. c #BDE1EE",
";. c #CAE4E8",
":. c #C0E6F4",
">. c #C2E8F6",
/* pixels */
"                                                                ",
"                                2                               ",
"                            d { +.{ ) W                         ",
"                            _ o.+.@.%.%.D                       ",
"                          d X.+.@.$.%.%.%.D                     ",
"                          j o.+.@.%.%.%.%.%.x                   ",
"                          : X.+.@.%.%.%.%.+.n                   ",
"                    : t c w Q o.+.#.%.#.{ _ t                   ",
"                  r ) _ ' 2 E / / _ _ _ D ; o                   ",
"                  c _  .z 1 C , , , > % L O 8 w                 ",
"                e y ( ) G h V X 4 7 P I $ e ....r               ",
"              D ` T j / { ~ C e & . 6 5 8 O.-.%.o.w             ",
"            : ` { ~ f Q T ` T M l = F R $.>.>.;.} C             ",
"            ; _ { D * S M E U / { ..X.+.=.:.>.*.;.}             ",
"            > M c     = s J Q Q ` ` `  .` o.#.| | +             ",
"            f q         + r A Q _ _ ~ ~ W W M K B *             ",
"            9 z :     A v * 8 N N Z N M r M X.#.X.c             ",
"              # -   C k C u - 8 D U D f h ! } +.o.c             ",
"                  Q  .s : Z Z w - - % e k M _ / C               ",
"                j [  .^ - f B H Q ^ ~ 9 1 3 j N @               ",
"              * g { { { a l : j D W c a < G ` O.Q               ",
"              1 - T ~ l 3 #             a M } +.o.]             ",
"            O V f i a < #               * h ' ) M H             ",
"            a u T f y -                   2 q p k <             ",
"        & ! +.' C J w                     2 c p p y 8           ",
"        x / +.+.` ) t                     # u f k Z g           ",
"        8 U  .[ J &                         c N v Z 8           ",
"          % d 2                             % D N C ;           ",
"                                            = T J ) ~           ",
"                                              g ` +.$.Z         ",
"                                              ; T +.{ ~         ",
"                                                D ~ N w         "
};
