/* XPM */
static char *out[] = {
/* columns rows colors chars-per-pixel */
"32 32 99 2 ",
"   c None",
".  c #0C0C0C",
"X  c #150D07",
"o  c #131415",
"O  c #171C1C",
"+  c #1A1B1B",
"@  c #3B2C1E",
"#  c #1C2325",
"$  c #1E2629",
"%  c #202425",
"&  c #232D2F",
"*  c #2A2A2A",
"=  c #322A22",
"-  c #232D31",
";  c #282F32",
":  c #253136",
">  c #2B3134",
",  c #2C3539",
"<  c #323334",
"1  c #323638",
"2  c #323A3D",
"3  c #3B3C3C",
"4  c #403F3C",
"5  c #4C4033",
"6  c #714A26",
"7  c #323E42",
"8  c #393F42",
"9  c #3D4244",
"0  c #374348",
"q  c #3B4549",
"w  c #3D4A4D",
"e  c #3E4C52",
"r  c #424343",
"t  c #424749",
"y  c #434A4C",
"u  c #4A4D4D",
"i  c #424D52",
"p  c #4A4F51",
"a  c #455155",
"s  c #4C5255",
"d  c #43545B",
"f  c #4C565A",
"g  c #505456",
"h  c #515A5D",
"j  c #756859",
"k  c #475860",
"l  c #4B5C62",
"z  c #575F63",
"x  c #4F636A",
"c  c #556267",
"v  c #596367",
"b  c #54646A",
"n  c #5B676B",
"m  c #526770",
"M  c #566C74",
"N  c #5A6C72",
"B  c #57707A",
"V  c #5C737C",
"C  c #757267",
"Z  c #666F71",
"A  c #63757B",
"S  c #69777C",
"D  c #6C7A7F",
"F  c #A57446",
"G  c #5D7781",
"H  c #627A84",
"J  c #697E86",
"K  c #687F88",
"L  c #707E83",
"P  c #6B838B",
"I  c #71868E",
"U  c #6C8791",
"Y  c #6D8892",
"T  c #708790",
"R  c #728B94",
"E  c #788F97",
"W  c #728D98",
"Q  c #76929C",
"!  c #79939C",
"~  c #7C97A1",
"^  c #7D9AA4",
"/  c #829CA6",
"(  c #819EA9",
")  c #85A3AD",
"_  c #8AA5AF",
"`  c #87A5B0",
"'  c #88A7B2",
"]  c #8BAAB5",
"[  c #8EADB9",
"{  c #90AEBA",
"}  c #92B1BD",
"|  c #95B5C1",
" . c #98B6C1",
".. c #97B8C4",
"X. c #98B9C6",
"o. c #9ABCC9",
"O. c #9FC1CE",
"+. c #A0C2CF",
"@. c #A4C5D1",
/* pixels */
"                                                                ",
"                                                                ",
"                            i / ) Q ~ P                         ",
"                            ^ ' } ..o.o.^                       ",
"                          i ` ] } o.o.o.o.^ w                   ",
"                          > E } ..o.o.o.o.o.)                   ",
"                          > N ( ....o.o.o.} ^                   ",
"                      , 0 i v V ] ..o.o.| ^ M                   ",
"                  e P ^ / r c N ~ ~ ( ( ^ C =                   ",
"                  ( ( ) S u z N e 7 m 5 6 @ 9 P                 ",
"                q T ( [ h T d m O , 0 Y F 5 ] o.P               ",
"            w Q v t H E E ( 8 x x - $ X j ^ +.+.{ A             ",
"            M ` ] N d P U ] ^ A b b e t / +.+.o. .o.2           ",
"            ) ] ! w q P V W ~ ^ ] ( ] { } o.o. .@.(             ",
"            A / V     b i Y W W ~ ` / ( ! ! Q J I 3             ",
"          2 p e         1 q B U Q ^ Q Y J H N / } D 7           ",
"          q n 8       G f 8 k b b V G G t i v } | [ d           ",
"          ; A 1     l A A q > d B H N l 8 Z A ' ' ^             ",
"                  P ] r i B b q * * 1 s a 4 5 N i               ",
"                x ( [ 8 * f G H P / Q R > 3 i P O               ",
"              o V ) _ E * 3 b B A P l l f u Q [ P               ",
"            & r i ' ^ z a ,             > c / } ! _             ",
"            + z < Z A a +               + 9 P s g h             ",
"            e t f 3 < %                   1 1 s u 3 .           ",
"        # P } / b v 1                     o t g u g l           ",
"        k W } } ^ ~ e                     o a t c H k           ",
"        7 G ' ( V %                         8 J N V 7           ",
"          # a 2                             # K M m ,           ",
"                                            & H I / R           ",
"                                              d ! } o.M         ",
"                                              : H ] ` Y         ",
"                                                A R b 0         "
};
