/* XPM */
static char *out[] = {
/* columns rows colors chars-per-pixel */
"32 32 101 2 ",
"   c None",
".  c #0F0A05",
"X  c #0D0E0E",
"o  c #0F1012",
"O  c #141515",
"+  c #161C1E",
"@  c #1B1D1E",
"#  c #1E2325",
"$  c #1E2629",
"%  c #212526",
"&  c #232628",
"*  c #202C2F",
"=  c #2B2B2C",
"-  c #3C342C",
";  c #232D31",
":  c #2B2F31",
">  c #253136",
",  c #2C3134",
"<  c #2E373B",
"1  c #2F3A3E",
"2  c #313334",
"3  c #343738",
"4  c #333A3D",
"5  c #3A3B3C",
"6  c #4A3018",
"7  c #403D39",
"8  c #62462A",
"9  c #76502C",
"0  c #745334",
"q  c #323E42",
"w  c #3B3F41",
"e  c #3B4144",
"r  c #37454A",
"t  c #3A4449",
"y  c #3B494E",
"u  c #3E4B51",
"i  c #454748",
"p  c #45494B",
"a  c #4C4C4C",
"s  c #59554E",
"d  c #454E52",
"f  c #445256",
"g  c #4A5254",
"h  c #43555C",
"j  c #4C575B",
"k  c #49595E",
"l  c #525556",
"z  c #515A5D",
"x  c #635443",
"c  c #706B5F",
"v  c #465860",
"b  c #4C5C63",
"n  c #535E62",
"m  c #4B626A",
"M  c #566166",
"N  c #586164",
"B  c #54646B",
"V  c #59666A",
"C  c #56686F",
"Z  c #59686E",
"A  c #556A72",
"S  c #5A6D75",
"D  c #576F78",
"F  c #596F79",
"G  c #5E7077",
"H  c #57707A",
"J  c #5D737C",
"K  c #606A6F",
"L  c #616D71",
"P  c #627379",
"I  c #86572C",
"U  c #5E7781",
"Y  c #647B84",
"T  c #6B7D84",
"R  c #667F88",
"E  c #66808A",
"W  c #6D848C",
"Q  c #71858D",
"!  c #6E8790",
"~  c #6D8992",
"^  c #738B93",
"/  c #788B93",
"(  c #77939D",
")  c #79949E",
"_  c #7B96A1",
"`  c #7E9AA4",
"'  c #829CA4",
"]  c #819EA9",
"[  c #85A3AE",
"{  c #89A3AD",
"}  c #87A5B0",
"|  c #89A7B2",
" . c #8CABB6",
".. c #8EADB9",
"X. c #90AFBA",
"o. c #92B2BD",
"O. c #95B6C2",
"+. c #97B9C5",
"@. c #99BAC6",
"#. c #99BBC8",
"$. c #9EC0CD",
/* pixels */
"                                                                ",
"                                                                ",
"                            k ! ^ ( _ W                         ",
"                            ` | o.#.#.#.` t                     ",
"                          y }  .O.#.#.#.#.#.J                   ",
"                          * R ..#.#.#.#.#.+...                  ",
"                          * v W O.#.#.#.#.O.`                   ",
"                        < r n A _ #.O.O.#.[ f                   ",
"                  r m W / t M S ^ _ ) ) ! c -                   ",
"                e [ [ [ T g n Z ~ 1 8 7 9 0 S ..                ",
"                S ] ` O.l T y v U . 6 6 I s [ #._ ,             ",
"              p p A ! _ ^ } t u U r * + x { #.#.| ..            ",
"            [ ' / p M Q ] o.| T C m B C ( #.#.#.$.+.4           ",
"          * | o.O.d n P R ` | ` [ | ..o...[ [ ` / z             ",
"          f ..{ G   t T b ^ ( ( _ } ] ] ` ) ) S / N             ",
"            Y Y       O j h J ~ ( ` ( W J C t ) o.o.v           ",
"          j , O     # , p B A b m G U E g p 2 | o...f           ",
"          = V 5     B ! L 4 > h H Y B Y e z Z P ` T             ",
"            j O   T W i S J g 4 = 2 g W g 3 5 n u               ",
"                H ` / = 2 H U T ^ _ { ) i 2 5 P #               ",
"              o Y ] { Z 2 B D H R D k d z j ) o._ t             ",
"              : A [ { T g &             + j T ..W g             ",
"            % p 2 Q W z %               O 2 Y g l g             ",
"            4 M e 5 5 %                   = 4 l a a X           ",
"        $ ! o.] L p e                     X 3 z l Z D           ",
"        h ^ o.o.] ^ y                     + b Y D Y u           ",
"        q Y | ] J $                         , W H U q           ",
"          # f 4                             , R D F <           ",
"                                            ; Y Q ' ^           ",
"                                              h ) o.#.S         ",
"                                              > Y o.[ ^         ",
"                                                G ^ B r         "
};
