/* XPM */
static char *out[] = {
/* columns rows colors chars-per-pixel */
"32 32 103 2 ",
"   c None",
".  c #040404",
"X  c #0F0A05",
"o  c #07090A",
"O  c #0C0E0F",
"+  c #121214",
"@  c #121719",
"#  c #171D1E",
"$  c #1B1C1D",
"%  c #1D2325",
"&  c #1E2629",
"*  c #242425",
"=  c #2B2620",
"-  c #21262A",
";  c #222B2D",
":  c #2A2C2C",
">  c #3A332B",
",  c #242D31",
"<  c #253136",
"1  c #2A3032",
"2  c #2D363A",
"3  c #2F393E",
"4  c #333435",
"5  c #31373A",
"6  c #343A3C",
"7  c #3B3B3B",
"8  c #4A3018",
"9  c #504334",
"0  c #5F4832",
"q  c #62462A",
"w  c #333E43",
"e  c #3D3F40",
"r  c #344247",
"t  c #3A4244",
"y  c #354449",
"u  c #3C464B",
"i  c #3A484E",
"p  c #3E4C51",
"a  c #3E5259",
"s  c #444748",
"d  c #444A4D",
"f  c #4B4C4C",
"g  c #434E53",
"h  c #4B4F51",
"j  c #435257",
"k  c #4B5255",
"l  c #44555B",
"z  c #4C565A",
"x  c #4B595E",
"c  c #525659",
"v  c #525B5E",
"b  c #7C6D58",
"n  c #465860",
"m  c #4B5D64",
"M  c #555E61",
"N  c #4D636C",
"B  c #566267",
"V  c #5B6467",
"C  c #53656B",
"Z  c #5B696E",
"A  c #566A72",
"S  c #5C6D74",
"D  c #5F7177",
"F  c #57707A",
"G  c #5C737C",
"H  c #646662",
"J  c #627176",
"K  c #637378",
"L  c #68777D",
"P  c #6C7A7F",
"I  c #8C6139",
"U  c #A06B3A",
"Y  c #5E7781",
"T  c #607680",
"R  c #637B85",
"E  c #6B7D85",
"W  c #667F89",
"Q  c #67818B",
"!  c #6C838C",
"~  c #72868E",
"^  c #6D8790",
"/  c #6E8992",
"(  c #728B94",
")  c #738E99",
"_  c #76919B",
"`  c #79959E",
"'  c #7B97A1",
"]  c #7D9AA4",
"[  c #83999E",
"{  c #829CA5",
"}  c #829FA9",
"|  c #85A2AD",
" . c #87A5B0",
".. c #88A7B2",
"X. c #8CAAB5",
"o. c #8EADB9",
"O. c #90AFBA",
"+. c #91B2BD",
"@. c #95B6C2",
"#. c #97B9C5",
"$. c #99BAC6",
"%. c #99BBC8",
"&. c #9FC1CE",
/* pixels */
"                                                                ",
"                                                                ",
"                            / / _ ' ' !                         ",
"                          ,  .o.@.%.%.#.]                       ",
"                          i  .X.@.%.%.%.%.%.C                   ",
"                          ; ( +.#.%.%.%.%.#.A                   ",
"                          y C ' #.%.%.%.%.+.m                   ",
"                        # p m D ] #.#.@.@.[ t                   ",
"                    A ! E g B F ) ] ` ` F b >                   ",
"                j  . .@.f f m C ^ 3 q = I 0 | o.%               ",
"                ( | | @.V ! a n A X 8 8 U H O.%.' %             ",
"              ; _ ( } } ` ` u l Y r , o 9 X.%.%.@.o.            ",
"            ! P v f B E +.|  .! S N C S X.o.@...| S             ",
"          r X.#.O.6 B ! { X.X. .X.| o.o...` ' Q h *             ",
"          A +.&.E @ v E S ' ' ' ] | } } ] ' ( B } J             ",
"          g X.X.2     1 v x G / _ ] ' ! D j 6 ` +.+.l           ",
"          : 6 %     % l d C N m N S Y Q u t 5 L +.| g           ",
"          4 z %   , ( ) Z 6 r m Y R C C d c v Z _ l             ",
"          # c * @ R J C R ! t : * 4 d Q d 4 7 4 2               ",
"            + . A ] E * u Y R ! ) { | ~ f v f v j               ",
"              ; / ] { 7 * n F G Q S u h h S { X...6             ",
"              5 ! } | L Z $           . : k E ` k B             ",
"            - 6 e | J x %               $ 6 z f h 7             ",
"            5 z 4 z t $                   d t f f 7 %           ",
"        - ! O.! M 7 t                     O : Z S / C           ",
"        x ( +.O.| ! s                     # C G R ! r           ",
"        w Y  .{ G -                         w / Y R w           ",
"          % j w                             % ! Y G w           ",
"                                            , R ~ { (           ",
"                                              l ' +.#.S         ",
"                                              < R +.| (         ",
"                                                D ( C y         "
};
