/* XPM */
static char *out[] = {
/* columns rows colors chars-per-pixel */
"32 32 100 2 ",
"   c None",
".  c #07090A",
"X  c #0B0B0B",
"o  c #171D1E",
"O  c #191919",
"+  c #2C1D0E",
"@  c #1D2224",
"#  c #1E2629",
"$  c #232324",
"%  c #20272B",
"&  c #232A2D",
"*  c #2A2B2B",
"=  c #232D31",
"-  c #263033",
";  c #2D3134",
":  c #2F3A3F",
">  c #343536",
",  c #343A3C",
"<  c #3A3C3C",
"1  c #4A3018",
"2  c #413427",
"3  c #684322",
"4  c #343E42",
"5  c #3A3F41",
"6  c #344146",
"7  c #3A4144",
"8  c #364449",
"9  c #3B474C",
"0  c #3C4A4F",
"q  c #434647",
"w  c #444A4C",
"e  c #4A4B4B",
"r  c #404F55",
"t  c #4B4F50",
"y  c #435157",
"u  c #4C5255",
"i  c #44555B",
"p  c #4D575A",
"a  c #4C595E",
"s  c #525557",
"d  c #515A5D",
"f  c #625647",
"g  c #635E55",
"h  c #465A62",
"j  c #4B5C62",
"k  c #545F63",
"l  c #4F6167",
"z  c #4C626A",
"x  c #546166",
"c  c #5B6467",
"v  c #54656B",
"b  c #5B666B",
"n  c #57686F",
"m  c #556A72",
"M  c #5B6E74",
"N  c #576F79",
"B  c #5F7077",
"V  c #57707A",
"C  c #5C737B",
"Z  c #757066",
"A  c #616F73",
"S  c #64747B",
"D  c #6B7A7F",
"F  c #8C6139",
"G  c #93714E",
"H  c #5D7580",
"J  c #5E7881",
"K  c #637A83",
"L  c #6A7C83",
"P  c #657F89",
"I  c #67818B",
"U  c #6C828A",
"Y  c #718086",
"T  c #71868E",
"R  c #6E8790",
"E  c #6F8A94",
"W  c #718A94",
"Q  c #758F98",
"!  c #75909A",
"~  c #7B959E",
"^  c #7A96A0",
"/  c #7D9AA4",
"(  c #80969E",
")  c #829CA6",
"_  c #819EA9",
"`  c #85A3AE",
"'  c #89A5AF",
"]  c #87A5B0",
"[  c #89A7B2",
"{  c #8BAAB5",
"}  c #8EAEB9",
"|  c #91AFBB",
" . c #92B2BE",
".. c #95B6C2",
"X. c #97B9C5",
"o. c #99BAC6",
"O. c #9ABCC8",
"+. c #A1BEC7",
"@. c #9FC1CE",
"#. c #A0C2CF",
/* pixels */
"                                                                ",
"                                                                ",
"                            R R ! ~ ^ m                         ",
"                          i [ } ..O.O.O.B                       ",
"                          I ] } O.O.O.O.O.) 9                   ",
"                          h { ..X.O.O.O.O. .l                   ",
"                          8 K ..O.O.#.O.O.` a                   ",
"                        @ h l P } O.O.O. .U @                   ",
"                    y R p p n V / / / / Q f ,                   ",
"                i ' ` X.s d c N C 4 - 2 F g } Q                 ",
"              y ` ` ` Y L x h j i + 1 3 G S O...L               ",
"              y Q ` ` ( ) K 9 h j = = . Z { O. .| C             ",
"            n p e x S ) | ) L k v c v m .. .} ) ` O             ",
"          i } O.C u b W / { { { { [ { }  ./ / a e X             ",
"          U  .#.K ; c L I ^ ^ / / ` ) / ^ ^ C x ` A             ",
"          W ..+.7   & a j j I E ^ / ! P v q $ }  . .4           ",
"          & u ;     # A w N m j z C J E < p ; '  .`             ",
"          , j ;   i Q ^ u : 0 j J M v v e s t b ~ y             ",
"          $ A S & K b C P v < * * > w T w > < * %               ",
"            O , P ) p > y H P U Q ) ` L e c s U y               ",
"              i ^ ) S * ; m N J P j 9 < t L '  .~ @             ",
"              7 Q ` [ L <             X > u L U d y             ",
"            O * S ` S k O               O 5 a e t >             ",
"            , < * K w $                   * r e t s %           ",
"        % U [ c q > <                     X 4 S U W 9           ",
"        a W  . .! A 0                     o B K I R 8           ",
"        4 J ] / C #                         4 E P P 6           ",
"          @ i 4                             @ U K C :           ",
"                                            = m Y ) W           ",
"                                              h ^ ....M         ",
"                                              # C { ] R         ",
"                                                M E x 8         "
};
