/* XPM */
static char *out[] = {
/* columns rows colors chars-per-pixel */
"32 32 103 2 ",
"   c None",
".  c black",
"X  c #0B0B0B",
"o  c #1E130A",
"O  c #0E1214",
"+  c #141516",
"@  c gray10",
"#  c #191E20",
"$  c #1D2224",
"%  c #1E2629",
"&  c #222323",
"*  c #22272A",
"=  c #222B2E",
"-  c #292A2B",
";  c #2C2F31",
":  c #263135",
">  c #2B3335",
",  c #2B353A",
"<  c #2E393E",
"1  c #323435",
"2  c #343A3D",
"3  c #3D3D3E",
"4  c #482E17",
"5  c #463C32",
"6  c #4B4034",
"7  c #5D4731",
"8  c #684322",
"9  c #764D26",
"0  c #333D41",
"q  c #3C3F41",
"w  c #344146",
"e  c #3D4345",
"r  c #374448",
"t  c #39454A",
"y  c #3E494D",
"u  c #3D4B50",
"i  c #414344",
"p  c #404749",
"a  c #444A4C",
"s  c #4B4C4D",
"d  c #454E52",
"f  c #4D4F51",
"g  c #445155",
"h  c #4A5153",
"j  c #44545A",
"k  c #4E5659",
"l  c #4D595E",
"z  c #505659",
"x  c #565C5E",
"c  c #475860",
"v  c #4B5C62",
"b  c #535F63",
"n  c #585E60",
"m  c #4A6069",
"M  c #566266",
"N  c #52646B",
"B  c #5B666A",
"V  c #5C6A6F",
"C  c #556A72",
"Z  c #5B6D75",
"A  c #5C7077",
"S  c #57707A",
"D  c #5D747C",
"F  c #626B6F",
"G  c #606D72",
"H  c #687272",
"J  c #65757B",
"K  c #66797F",
"L  c #6A7A7E",
"P  c #89613B",
"I  c #B2733A",
"U  c #5E7881",
"Y  c #627A84",
"T  c #6A7C82",
"R  c #657F89",
"E  c #67818B",
"W  c #6B838B",
"Q  c #718086",
"!  c #72868E",
"~  c #6F8791",
"^  c #6E8992",
"/  c #718B94",
"(  c #798E95",
")  c #738F99",
"_  c #77929C",
"`  c #7A959E",
"'  c #7B97A1",
"]  c #7D9AA4",
"[  c #7E9DA8",
"{  c #829CA5",
"}  c #819EA9",
"|  c #85A2AD",
" . c #87A5B0",
".. c #89A7B2",
"X. c #8BAAB5",
"o. c #8EADB9",
"O. c #92B2BD",
"+. c #94B5C1",
"@. c #97B9C5",
"#. c #9ABAC6",
"$. c #9ABCC9",
"%. c #A0C2CF",
"&. c #A1C3D0",
/* pixels */
"                                                                ",
"                                                                ",
"                          u ~ ) _ ` C                           ",
"                          R X.O.#.$.$.}                         ",
"                        ,  .X.+.#.$.$.$.o.M                     ",
"                        $ / o.+.$.$.$.$.#.o.,                   ",
"                        # b | #.$.&.%.$.@.[ >                   ",
"                        ; M Z } %.%.&.$.X.c                     ",
"                  w N / d M C Y [ [ } } L 5 2                   ",
"                j  .| L h k M / C < 0 6 P l $.E                 ",
"              v | } | T K l v N o 9 8 I 7 | $.+.Z               ",
"              j Q | X.n ] k j C = O . 4 T @.#.#.$.m             ",
"            Z Q B M W T X.! Z B b M : H ` O.+._ ` &             ",
"          j O.#.! k G ! ....o.W M | ] O.| ] ] a e               ",
"          W +.$.J 2 M / ` ' ' _ _ ..} } [ ^ A T ( M             ",
"          T $.#.e   * B s C ^ ) ' ] _ Y l < : O.+.O.            ",
"          j b a     # Y d S v v N U U Y 1 p b L +.'             ",
"          ; b 1 - g ) T C , u C U A v Z i V B L ' y             ",
"          & 2 b , Y Z Y R M 1 & - > x ` i 1 3 e <               ",
"            @ w W } p 2 v U R E ( { ..F 3 a 3 L 0               ",
"              v ] } J - 1 C S U W j 0 3 a Y ` +.' $             ",
"            + g ] | X.z y             X @ d T T x d             ",
"            & = J  .Q z @               & q J d f ;             ",
"            & 5 - E g &                   a u s s i =           ",
"        % W X.x i 5 e                     X g M R / t           ",
"        c / O.| T T u                     + J Y E ^ r           ",
"        0 Y  .} D %                         0 / R E w           ",
"          $ g 0                             $ ^ Y D 0           ",
"                                            = Y ! { /           ",
"                                              j ' O.@.Z         ",
"                                              : Y O. ./         ",
"                                                J / m t         "
};
