/* XPM */
static char *out[] = {
/* columns rows colors chars-per-pixel */
"32 32 95 2 ",
"   c None",
".  c black",
"X  c #0C0C0C",
"o  c #151515",
"O  c #1F1F1F",
"+  c #1D2325",
"@  c #1E2629",
"#  c #242525",
"$  c #282725",
"%  c #272728",
"&  c #232A2C",
"*  c #2C2D2D",
"=  c #263134",
"-  c #283236",
";  c #2B3539",
":  c #2F393D",
">  c #333435",
",  c #333A3D",
"<  c #3B3C3C",
"1  c #764D26",
"2  c #7D5834",
"3  c #2F3B40",
"4  c #343E42",
"5  c #374347",
"6  c #3C4244",
"7  c #374448",
"8  c #3A464A",
"9  c #3B484D",
"0  c #3E4C51",
"q  c #424648",
"w  c #42494C",
"e  c #494A4B",
"r  c #5B564B",
"t  c #434E52",
"y  c #4B4F50",
"u  c #425156",
"i  c #4B5356",
"p  c #44565C",
"a  c #4B565A",
"s  c #4B585D",
"d  c #515455",
"f  c #545B5E",
"g  c #645C51",
"h  c #465860",
"j  c #4C5C62",
"k  c #535E61",
"l  c #595F62",
"z  c #4D646C",
"x  c #556165",
"c  c #5A6264",
"v  c #53646A",
"b  c #57686F",
"n  c #5E6A6E",
"m  c #526770",
"M  c #556B73",
"N  c #5B6C73",
"B  c #5A6F78",
"V  c #5D7077",
"C  c #57707A",
"Z  c #5B727C",
"A  c #606F74",
"S  c #617177",
"D  c #63757C",
"F  c #66787F",
"G  c #9B6532",
"H  c #627A84",
"J  c #697D84",
"K  c #657F89",
"L  c #66808A",
"P  c #6C848D",
"I  c #72868D",
"U  c #6C8790",
"Y  c #6F8A94",
"T  c #708790",
"R  c #728B95",
"E  c #798C93",
"W  c #738E98",
"Q  c #76929C",
"!  c #79949D",
"~  c #7B96A0",
"^  c #7D9AA4",
"/  c #819CA6",
"(  c #819EA9",
")  c #85A3AD",
"_  c #87A5B0",
"`  c #89A7B2",
"'  c #8BAAB5",
"]  c #8EADB9",
"[  c #90AFBA",
"{  c #92B2BE",
"}  c #95B6C2",
"|  c #97B8C4",
" . c #98BAC6",
".. c #99BBC8",
"X. c #9FC0CC",
/* pixels */
"                                                                ",
"                                                                ",
"                            u v Q ~ W 8                         ",
"                        - P _ ] }  . .] W 9                     ",
"                        : _ ` ` }  .......Z                     ",
"                        : ~ ( ] | ........R                     ",
"                        : H Z Y | ......{ ) ;                   ",
"                        - B m Z Q ] ] ^ ^ Y @                   ",
"                        5 0 x B L Q ( P r g w ;                 ",
"                    v ) E s h v H Y 9 1 G 2 H ..j               ",
"                u P ` _ E N p j B K + . . $ ` | | v             ",
"              0 ) _ _ ` E I 8 t b C m v , S ..| | a             ",
"              : v ^ ^ ` ..] f f f x N D ` ~ ) I c X             ",
"            b k n M Z Y ] } } ] ^ N / [ [ ! ^ N n 6             ",
"          P { { D 0 C Z W ) _ _ ( ( _ ( ( Q S ) } '             ",
"          W ..X.n   j m J J W ~ ~ ^ ( ~ b 6 s _ { `             ",
"          V } E     X w p k j z Z U V m k y v ( ) P             ",
"          9 i 6   = H P < j v H Z M b w < c e c v               ",
"        X i a #   v P U D N * % > < w f q > < X                 ",
"        X 6 c > V ^ a , v K P P A ! ) A e F n Q p               ",
"          X # t ~ ) c # > Z H H P B 8 % i J [ } I &             ",
"            o t ^ ^ / y > + 3 4       X % i J c k 0             ",
"            * < Q ( N k &               O j 6 f d *             ",
"            # < > N a O                   $ a d c x &           ",
"        @ P ` f > < *                     o s B Y W 8           ",
"        p W { ) J A 6                     w D K U Y 9           ",
"        4 H ` / Z &                         4 W P U 8           ",
"          @ u ,                             + U L J 3           ",
"                                            & M I ^ Y           ",
"                                              p ! { | N         ",
"                                              - H { ) R         ",
"                                                Z R z 8         "
};
