/* XPM */
static char *out[] = {
/* columns rows colors chars-per-pixel */
"32 32 99 2 ",
"   c None",
".  c black",
"X  c #0C0C0C",
"o  c #151515",
"O  c #15191A",
"+  c #1B1C1C",
"@  c #2C1D0E",
"#  c #1D2224",
"$  c #1E2629",
"%  c #242525",
"&  c #242728",
"*  c #24292A",
"=  c #2B2C2C",
"-  c #262F34",
";  c #282E31",
":  c #253136",
">  c #2D3234",
",  c #2D3639",
"<  c #2F3A3F",
"1  c #323434",
"2  c #333738",
"3  c #333A3C",
"4  c #3B3D3D",
"5  c #624B34",
"6  c #333E42",
"7  c #3A3F41",
"8  c #374246",
"9  c #3D4445",
"0  c #374549",
"q  c #39464B",
"w  c #3E484B",
"e  c #3B4B51",
"r  c #424445",
"t  c #434749",
"y  c #424A4D",
"u  c #4B4C4C",
"i  c #4F504E",
"p  c #434E52",
"a  c #4B4E50",
"s  c #435157",
"d  c #4B5254",
"f  c #44555B",
"g  c #4B565A",
"h  c #4B585D",
"j  c #525657",
"k  c #515658",
"l  c #535A5D",
"z  c #475860",
"x  c #4A5B61",
"c  c #545E62",
"v  c #595F62",
"b  c #536166",
"n  c #586265",
"m  c #53646A",
"M  c #5A676C",
"N  c #57696F",
"B  c #58696F",
"V  c #566C74",
"C  c #5A6D74",
"Z  c #576F79",
"A  c #57707A",
"S  c #5C737C",
"D  c #616E73",
"F  c #637175",
"G  c #62757C",
"H  c #65787F",
"J  c #68797F",
"K  c #5D7680",
"L  c #637B84",
"P  c #6A7E84",
"I  c #657F88",
"U  c #6A7F88",
"Y  c #6D8087",
"T  c #66808A",
"R  c #6B828B",
"E  c #72848B",
"W  c #6D8791",
"Q  c #6E8993",
"!  c #728B94",
"~  c #798D95",
"^  c #748E99",
"/  c #76929C",
"(  c #79939D",
")  c #7C97A1",
"_  c #7E9BA5",
"`  c #899B9F",
"'  c #819AA4",
"]  c #819EA9",
"[  c #86A2AD",
"{  c #87A5B1",
"}  c #89A7B2",
"|  c #8BA9B5",
" . c #8FAEB9",
".. c #91AFBA",
"X. c #92B2BD",
"o. c #94B5C0",
"O. c #97B9C5",
"+. c #99BAC7",
"@. c #99BBC8",
/* pixels */
"                                                                ",
"                                                                ",
"                            6 H / | ] V s                       ",
"                          m ) | X.O.+.+.o.R                     ",
"                          R { | X.O.@.@.@.@.m                   ",
"                        # G _ { ..+.@.@.@.O.V                   ",
"                          G K K Q +.+.@.O.{ S                   ",
"                          B S L L ^ ]  ._ ^ ,                   ",
"                        . C Z A K R Q / D 5 i B ,               ",
"                      m ( M C A A I Q Q @ @ % | ...             ",
"                  0 ' | X.( l M A K L S O # b @.@.m             ",
"                m | | | X.^ u u S A S K S h ]  .[ X             ",
"                W ! | | X.} P j D N B G [  ._ R j =             ",
"              3 J n Q ^ { [  .[ X.} } [ | [ / H [ ~             ",
"            L ! E y S I I ) { } { ] ] [ ] Q b [ X.X.f           ",
"          x X.O.@.X g S K ^ ! / ] ] ] _ T d = ' X.} 0           ",
"          p  .O.R   X e e S p x C V V m 8 d F G ( x             ",
"          p ' ` ;   A B 4 7 I I U I Z 2 d u 9 1 &               ",
"            b , o p R ! I m > % % > d ! j r 9 &                 ",
"          O 4 c k R l p m R W R E ~ ' D d [ X.] f               ",
"            % g g ] n % 2 G L K R V , % u Y X.X.P ,             ",
"            X > ^ _ ' r 2 * 6 6 -     o > b P d m +             ",
"            + = ! ] D b *               % m d l l O             ",
"            2 4 9 ! c + +               # ; b l ^ ( e           ",
"        % R } v r t %                     # N T / / e           ",
"        z ^ X.[ P D 8                     w P W Q ^ q           ",
"        6 K [ _ S $                         6 / Q Q 0           ",
"          # s 6                             + W R I 6           ",
"                                            $ V R ) ^           ",
"                                              f ) X.+.C         ",
"                                              : I X.[ !         ",
"                                                S ! m 0         "
};
