/* XPM */
static char *out[] = {
/* columns rows colors chars-per-pixel */
"32 32 90 1 ",
"  c None",
". c black",
"X c #090909",
"o c #0F1214",
"O c #141414",
"+ c #191C1C",
"@ c #1E2426",
"# c #1E272A",
"$ c #242525",
"% c #22272A",
"& c #26292B",
"* c gray16",
"= c #262F34",
"- c #282F32",
"; c #253136",
": c #2C3235",
"> c #2F3A3F",
", c #323435",
"< c #323638",
"1 c #333B3D",
"2 c #3B3D3D",
"3 c #333E42",
"4 c #364145",
"5 c #3D4345",
"6 c #36464B",
"7 c #3C4649",
"8 c #3D4B51",
"9 c #434444",
"0 c #424749",
"q c #434A4D",
"w c #4B4D4D",
"e c #504B43",
"r c #464F51",
"t c #494E50",
"y c #435156",
"u c #4A5255",
"i c #46565C",
"p c #4B5659",
"a c #525759",
"s c #545B5D",
"d c #785E44",
"f c #455961",
"g c #4D5D63",
"h c #535D60",
"j c #4E6066",
"k c #546166",
"l c #5B6366",
"z c #536369",
"x c #5B656A",
"c c #5D696D",
"v c #566971",
"b c #5B6D74",
"n c #5E7177",
"m c #57707A",
"M c #5D747C",
"N c #616F74",
"B c #63757B",
"V c #66787F",
"C c #5E7681",
"Z c #637B84",
"A c #6B7E85",
"S c #657F88",
"D c #6C8087",
"F c #67818B",
"G c #6B848D",
"H c #72858C",
"J c #6C8790",
"K c #6E8992",
"L c #708790",
"P c #718B95",
"I c #7A8F96",
"U c #748F98",
"Y c #76919B",
"T c #79939C",
"R c #7B97A0",
"E c #7E9AA5",
"W c #819CA6",
"Q c #819EA9",
"! c #85A3AD",
"~ c #89A5AE",
"^ c #87A5B1",
"/ c #89A6B1",
"( c #8BAAB5",
") c #8EAEB9",
"_ c #90AFBA",
"` c #92B2BE",
"' c #95B6C2",
"] c #97B8C4",
"[ c #99BAC6",
"{ c #99BBC8",
/* pixels */
"                                ",
"                 3              ",
"              3BU'QTg           ",
"             8W(`]{{]P          ",
"             m((`]{{{{Q         ",
"             8E_)`{{{{)         ",
"             6ZSJE{{{^E         ",
"             6SFSGYE^YpX        ",
"             4FCSJPTPdet7       ",
"           7ihGmCCJKDOOI{y      ",
"          g()!ucmCSFm8u/{7      ",
"         n!()_xwgCCZCAPWH.      ",
"        iTU(_]TaxAAAE^EGHu      ",
"        yHT!!``~]``()EEM]]4     ",
"       gccAGKEQ/^!!QQD-W()y     ",
"      v`]G1CZGEUEQEED7tB~G      ",
"      j]{i.5fgZubbbk59kBA3      ",
"      g)W3fZ3&PJGDZ<lu<2O       ",
"      @s0:BJZZ7$$,qkslB+        ",
"      Owx05rnGFJATRla_`T        ",
"      O2p95$3BZSGb:$h!])L       ",
"       $0bW22%33=  O5bAtZO      ",
"      +,G!Nk&       :7wsh+      ",
"      <27Bs*X       %:kxUW      ",
"    #G/x90$          $nKTT      ",
"    fP`_HN5          qGKUU%     ",
"    3Z/WM#            8UKP6     ",
"     @y1              +PGS3     ",
"                      #ZKEJ     ",
"                       iR_{b    ",
"                       ;Z'^K    ",
"                        MJzi    "
};
