/* XPM */
static char *out[] = {
/* columns rows colors chars-per-pixel */
"32 32 87 1 ",
"  c None",
". c #010101",
"X c gray5",
"o c #141414",
"O c #14191B",
"+ c #1B1C1C",
"@ c #1E2426",
"# c #1E2629",
"$ c #252525",
"% c #20262B",
"& c #23292A",
"* c #2D2E2E",
"= c #262E32",
"- c #292E32",
"; c #2D3233",
": c #2F3A3E",
"> c #323536",
", c #333A3C",
"< c #3B3B3B",
"1 c #4D3E30",
"2 c #333E42",
"3 c #393F42",
"4 c #364144",
"5 c #3C4142",
"6 c #374549",
"7 c #39464C",
"8 c #3D494E",
"9 c #3F4E54",
"0 c #424546",
"q c #444749",
"w c #424A4D",
"e c #454E52",
"r c #494E51",
"t c #445155",
"y c #4D5254",
"u c #45565C",
"i c #4C575A",
"p c #4B595E",
"a c #525657",
"s c #525B5F",
"d c #475860",
"f c #4C5E64",
"g c #525E62",
"h c #4E6067",
"j c #4B6169",
"k c #556166",
"l c #5A6366",
"z c #53636A",
"x c #5A656A",
"c c #5D696E",
"v c #566C75",
"b c #5D6D74",
"n c #5E737B",
"m c #616E73",
"M c #607176",
"N c #62757C",
"B c #68787E",
"V c #5F7782",
"C c #637B84",
"Z c #6A7D84",
"A c #647E88",
"S c #67818B",
"D c #6B838C",
"F c #7D8785",
"G c #71868D",
"H c #6D8792",
"J c #6E8992",
"K c #728B95",
"L c #738E99",
"P c #75919C",
"I c #79949E",
"U c #7B97A1",
"Y c #7D9AA4",
"T c #819CA5",
"R c #819EA9",
"E c #86A3AE",
"W c #88A4AD",
"Q c #87A5B0",
"! c #89A7B1",
"~ c #8CAAB5",
"^ c #8FAEB9",
"/ c #90AFBA",
"( c #92B2BD",
") c #95B6C1",
"_ c #97B9C5",
"` c #98BAC6",
"' c #9ABCC9",
/* pixels */
"                                ",
"                 2              ",
"               zL)RIH           ",
"              A~()```K          ",
"             t~^()''''R         ",
"             eG^((`''')6        ",
"             ezDLP~''(Y,        ",
"             exCKDLIYEv.        ",
"             ,bJAHHUUF1,p       ",
"            p;NVCASJPeom).      ",
"          9LW!cvVVCASfiW(.      ",
"         ,I~~~cycHCCnCMPko      ",
"        t~!((^WacGZZE^RK()      ",
"        4!D~W((T~)(~QRAW)(2     ",
"        >nZLJL~/^RERYD3/((      ",
"       T)Z>CJHPKURRYN,kic+      ",
"      =^))&2jjvMgmmfw<>0*       ",
"      %W(WzC3&HLDHZ,lT5$+       ",
"       jxibDCs8$$-wlaBN$        ",
"       +yeq8nSJSGUUbm()I        ",
"       +>lr*<nAAAz%,g!(/x       ",
"       ;w5b53&22-  +rDZsz.      ",
"      +5DJcg+       32gsqX      ",
"      ,<0Bs++       ->xmYY      ",
"    #D!l0<$          &nKPU      ",
"    dK(/Gm4          8HJLP      ",
"    2V!Yn#            9PLK7     ",
"     @t,              +JHS2     ",
"                      OvHYL     ",
"                       uI))b    ",
"                       %C~QJ    ",
"                        nJz6    "
};
