/* XPM */
static char *out[] = {
/* columns rows colors chars-per-pixel */
"32 32 91 1 ",
"  c None",
". c #020202",
"X c #0D0D0D",
"o c #111111",
"O c #15191A",
"+ c #1B1D1D",
"@ c #1E2426",
"# c #1E2629",
"$ c #252525",
"% c #232A2D",
"& c #2B2D2D",
"* c #262E32",
"= c #292F31",
"- c #2C3436",
"; c #2A3438",
": c #2D383C",
"> c #313435",
", c #333739",
"< c #343A3C",
"1 c #3C3C3C",
"2 c #343E41",
"3 c #3D3F40",
"4 c #374246",
"5 c #3E4244",
"6 c #374449",
"7 c #3B454A",
"8 c #3D4D54",
"9 c #3F525A",
"0 c #414344",
"q c #444A4C",
"w c #4A4D4F",
"e c #51524E",
"r c #445155",
"t c #4C5254",
"y c #44555C",
"u c #495559",
"i c #4D585C",
"p c #525455",
"a c #525B5D",
"s c #475C63",
"d c #4C5C62",
"f c #525D62",
"g c #4F6166",
"h c #4C626A",
"j c #566266",
"k c #5B6366",
"l c #54646A",
"z c #59666A",
"x c #5B696E",
"c c #566C74",
"v c #5C6D74",
"b c #57707A",
"n c #5C727B",
"m c #616C70",
"M c #627277",
"N c #65757B",
"B c #61787F",
"V c #68787D",
"C c #5E7780",
"Z c #5F7883",
"A c #647B84",
"S c #697D84",
"D c #647E88",
"F c #697F88",
"G c #67818B",
"H c #6B838D",
"J c #72858C",
"K c #6C8791",
"L c #6E8992",
"P c #728B94",
"I c #798F96",
"U c #728E98",
"Y c #76929C",
"T c #79949E",
"R c #7B97A0",
"E c #7C99A3",
"W c #7F9DA9",
"Q c #819BA3",
"! c #829EA9",
"~ c #85A2AD",
"^ c #88A4AE",
"/ c #87A6B1",
"( c #89A7B1",
") c #8BAAB5",
"_ c #8FAEB9",
"` c #90AFBA",
"' c #92B2BD",
"] c #95B6C1",
"[ c #97B9C5",
"{ c #98B9C6",
"} c #99BBC8",
/* pixels */
"                                ",
"                 :              ",
"               gI_TTP           ",
"              F_`]}}{P6         ",
"             ;`_'[}}}}}4        ",
"             2L/'}}}}[]r        ",
"             sbZ~W)}}}/<        ",
"             rbbKLUUEWA         ",
"             <cnGLKUTWet6       ",
"            .;jGDGLLUF5NE       ",
"          ;P^^JcZDDGHKzQS       ",
"         +E)))mwzLAAnATHj4      ",
"        4)Q_''^pkJHH!'!I]]      ",
"        %_T_`'{T_]'^)!S^']      ",
"        #ia(YT_'_^!!!P7JPV      ",
"       n~IuvKKTTT!!ESO7Mao      ",
"      %!]]%&shhnfZvdwt&3$       ",
"       H''dS,%hDKKS-N!5$        ",
"       sP!xAS5f=$$qaeJS$        ",
"        ,0-qvGPSVITam']T        ",
"       X>qa1,nDLPc<<z']Qx       ",
"       10>z02682*  +tJNau.      ",
"      O1Hv5i+       7uzf7X      ",
"      <3qVf+        =,zHEE      ",
"    @G(f01$          =GURE      ",
"    yK'^Sj-          fPLUT      ",
"    :n^Rn%            dTUU6     ",
"     @y,              +LLG2     ",
"                      OcKEU     ",
"                       yT][v    ",
"                       %A)/L    ",
"                        nLl6    "
};
