/* XPM */
static char *out[] = {
/* columns rows colors chars-per-pixel */
"32 32 95 2 ",
"   c None",
".  c black",
"X  c #0B0B0C",
"o  c #0F1315",
"O  c #111111",
"+  c #1B1C1D",
"@  c #1E2425",
"#  c #1D272A",
"$  c #262626",
"%  c #232A2D",
"&  c #2B2B2B",
"*  c #262F34",
"=  c #292F31",
"-  c #2C3335",
";  c #2E373C",
":  c #2D383C",
">  c #323435",
",  c #313739",
"<  c #353A3B",
"1  c #3B3C3C",
"2  c #323E42",
"3  c #364044",
"4  c #3B4346",
"5  c #374549",
"6  c #3C464A",
"7  c #3D4F55",
"8  c #3F525A",
"9  c #414445",
"0  c #424749",
"q  c #444A4C",
"w  c #494E4F",
"e  c #445155",
"r  c #4F5050",
"t  c #44555B",
"y  c #4C565A",
"u  c #47595F",
"i  c #4E5A5E",
"p  c #525455",
"a  c #505658",
"s  c #545B5D",
"d  c #475C63",
"f  c #4E5D63",
"g  c #565F62",
"h  c #4F6166",
"j  c #4C626B",
"k  c #556165",
"l  c #5A6366",
"z  c #52656C",
"x  c #5B666A",
"c  c #5C6A6F",
"v  c #526770",
"b  c #5B6D74",
"n  c #5A6F78",
"m  c #57707A",
"M  c #5C737B",
"N  c #616E72",
"B  c #607076",
"V  c #64777D",
"C  c #66797F",
"Z  c #68787E",
"A  c #5F7780",
"S  c #5F7882",
"D  c #647B84",
"F  c #6A7E85",
"G  c #657E88",
"H  c #6D8187",
"J  c #66818A",
"K  c #6B848D",
"L  c #71858C",
"P  c #74888E",
"I  c #6C8690",
"U  c #6E8993",
"Y  c #718B95",
"T  c #788E97",
"R  c #738F99",
"E  c #76929C",
"W  c #7A949D",
"Q  c #7A96A0",
"!  c #7D99A3",
"~  c #829BA4",
"^  c #829EA9",
"/  c #85A3AE",
"(  c #88A3AC",
")  c #87A5B0",
"_  c #89A6B0",
"`  c #8BAAB5",
"'  c #8FAEB9",
"]  c #90AFBA",
"[  c #93B3BE",
"{  c #95B5C1",
"}  c #97B9C5",
"|  c #98BAC6",
" . c #9ABCC9",
".. c #A0C2CF",
"X. c #A1C3D0",
/* pixels */
"                                                                ",
"                                  ;                             ",
"                              h R ' W W M                       ",
"                            F ' [ {  . .| Y 5                   ",
"                          : ] ' [ |  . . . .}                   ",
"                          : U / [ ..X. .| | [ 3                 ",
"                          5 m D / ' ` {  . .' @                 ",
"                          t m M K R R R Q ! M X                 ",
"                          2 m m K U U R E Q c w t               ",
"                        . - i m J I I I Y ^ g P b               ",
"                    - U ) / Z B S G G J I R N ] 3               ",
"                  5 Q ` ` ` x w n D G D M G E T Z f             ",
"                2 ` ! [ ' ] ( p l P L L Q _ E T { {             ",
"                % ' W ' ' ` [ ~ ' [ ] ( ) ~ f F { |             ",
"                O k p ` E R / [ ' / ^ ^ ^ D 2 H E ~             ",
"              u ~ D f b Y Y W E E ^ ~ ! D o - g s <             ",
"              D ' { b q d j j M z V b k w y $ 1 $               ",
"              n { { V D > & m J I I D < Z ` 6 X                 ",
"              e ^ E x K V 4 i $ $ - q k r T H                   ",
"                y q > 0 n I Y C F ~ W x N { { Q                 ",
"              % 1 9 w 9 - D D U I z < - a _ { ^ F               ",
"            + 1 4 < s & e : 2 2 *     + 6 K x a f X             ",
"            & 1 L g , y +               0 , g s 9 X             ",
"            , 4 q V y +                 = , x K ! !             ",
"        @ K _ g 9 1 &                     - K R Q !             ",
"        8 I [ ( F l -                     : J Y E W             ",
"        : A / Q M %                         5 E Y Y 5           ",
"          @ e ;                             + Y K J 5           ",
"                                            # v Y ! R           ",
"                                              t W [ { b         ",
"                                              % D ` ) U         ",
"                                                M Y z 5         "
};
