/* XPM */
static char *out[] = {
/* columns rows colors chars-per-pixel */
"32 32 86 1 ",
"  c None",
". c black",
"X c #0F1214",
"o c #131414",
"O c #171B1B",
"+ c #1C1D1D",
"@ c #1D1F20",
"# c #1E2526",
"$ c #1D272A",
"% c #232525",
"& c #22272A",
"* c #242A2C",
"= c #2A2C2D",
"- c #252F30",
"; c #2D3233",
": c #2E373C",
"> c #2E383D",
", c #353636",
"< c #343B3E",
"1 c #3C3C3C",
"2 c #323E42",
"3 c #3B4245",
"4 c #374448",
"5 c #3A464B",
"6 c #3C4B50",
"7 c #3F525A",
"8 c #434444",
"9 c #424A4D",
"0 c #484A4B",
"q c #454E52",
"w c #4B4F51",
"e c #435257",
"r c #4C5154",
"t c #44555B",
"y c #4B5559",
"u c #4C5A5E",
"i c #535A5D",
"p c #4C5D63",
"a c #535D61",
"s c #556166",
"d c #5A6264",
"f c #55656B",
"g c #5B6569",
"h c #5D6A6F",
"j c #556A72",
"k c #5C6C73",
"l c #57707A",
"z c #5C737C",
"x c #636863",
"c c #606F75",
"v c #61757B",
"b c #68767B",
"n c #67787F",
"m c #5E7681",
"M c #637B84",
"N c #697B81",
"B c #647E88",
"V c #66808A",
"C c #6B848D",
"Z c #71868D",
"A c #74888E",
"S c #6C8791",
"D c #6E8993",
"F c #708790",
"G c #728C95",
"H c #788E96",
"J c #738E99",
"K c #788F98",
"L c #76929C",
"P c #79949D",
"I c #7B97A1",
"U c #7D9AA4",
"Y c #819CA5",
"T c #829EA9",
"R c #85A3AE",
"E c #89A5AF",
"W c #87A5B0",
"Q c #89A7B2",
"! c #8BAAB5",
"~ c #8FAEB9",
"^ c #90AFBA",
"/ c #92B2BD",
"( c #95B6C1",
") c #97B9C5",
"_ c #98B9C6",
"` c #99BBC8",
/* pixels */
"                                ",
"                 <              ",
"               MG(TIp           ",
"              J^/(```G          ",
"             p~^/(````T         ",
"             qF~/()```(         ",
"             qcUJR(``(U6        ",
"             qNVBCLW^Uzo        ",
"             3VmBVDJLx1yt       ",
"           54uCzmMVDN@oA(.      ",
"          MQQEyjlmBBz<q^P.      ",
"         f!!!!grklzmvzLACh      ",
"        tYU!//PdbVZnYQRH((p     ",
"        tYTRR//(((^TQUVv/)u     ",
"        tgNGGI~!QRTTTV;iJY2     ",
"       CTn,MBCHHPUTPMo#fw3      ",
"      -I^(**ppmiskkqriO,2.      ",
"      *L/(sf-=zGSCf<cQfoo       ",
"       jGNaCMp3%%;9vwnv:        ",
"       <ri05MCCDFKIxi/(I3       ",
"       *<r8,<vBBBk2%wG(^c       ",
"      +q0,r=9>22   o%aNwco      ",
"      %3Hiq3&       =uaia+      ",
"      %1yC0+        &*scPI      ",
"    #CEi81;          +kDLP      ",
"    7S^RNk>          9VDGJ&     ",
"    >zRIv*            6JDJ5     ",
"     #e<              OSCB2     ",
"                      $jCUG     ",
"                       tI/)k    ",
"                       *M!WD    ",
"                        zDf4    "
};
