/* XPM */
static char *xpm_[] = {
/* columns rows colors chars-per-pixel */
"16 25 57 1 ",
"  c black",
". c #BAEEEE",
"X c white",
"o c #B5EDED",
"O c #030D0D",
"+ c #2EBCBC",
"@ c #6EDCDC",
"# c #9AE6E6",
"$ c #FAFEFE",
"% c #A8EAEA",
"& c #208282",
"* c #175D5D",
"= c #196969",
"- c #186464",
"; c #3CD0D0",
": c #249494",
"> c #020606",
", c #53D5D5",
"< c #155959",
"1 c #EDFBFB",
"2 c #DAF6F6",
"3 c #F9FDFD",
"4 c #0B2B2B",
"5 c #0F3F3F",
"6 c #F5FDFD",
"7 c #092525",
"8 c #F7FDFD",
"9 c #EAFAFA",
"0 c #F4FCFC",
"q c #0D3737",
"w c #95E5E5",
"e c #061A1A",
"r c #071F1F",
"t c #061818",
"y c #0D3535",
"u c #29ABAB",
"i c #1B7171",
"p c #FDFFFF",
"a c #DDF7F7",
"s c #E4F8F8",
"d c #114747",
"f c #1A6A6A",
"g c #1C7676",
"h c #010505",
"j c #30C4C4",
"k c #269C9C",
"l c #010303",
"z c #239191",
"x c #E8FAFA",
"c c #EFFBFB",
"v c #D4F4F4",
"b c #D0F4F4",
"n c #071D1D",
"m c #B7EDED",
"M c #051717",
"N c #0B2F2F",
"B c #0E3A3A",
/* pixels */
"   .XXXXXXXXoO  ",
"  +XXXXXXXXXX@  ",
" #X$XXXXXXXX$X% ",
"&XXX*======-XXX;",
":XXX       >XXX,",
":XXX       >XXX,",
":XXX    <1$2XXX,",
":XXX   -$XX3XXX,",
":XXX  4$XXX2XXX,",
":XXX 5$XXX6OXXX,",
":XXX5$XXX6>>XXX,",
"78X9$XXX0q  1X$5",
" qweXXX9r   t#y ",
" u0ipXat    *s: ",
"dpX3        3Xpf",
"gXXX       hXXXj",
"gXXX       hXXXj",
"gXXX       hXXXj",
"gXXX       hXXXj",
"gXXX       hXXXj",
"gXXX       hXXXk",
"gXXX       lXXXz",
"txXc06666cs2vXbn",
" 7mpXXXXXXXX8wM ",
"  N0XXXXXXXX2B  "
};
