/* XPM */
static char *xpm_[] = {
/* columns rows colors chars-per-pixel */
"16 25 31 1 ",
"  c black",
". c #269C9C",
"X c #030D0D",
"o c #218787",
"O c #FAFEFE",
"+ c #051717",
"@ c #1A6A6A",
"# c white",
"$ c #134D4D",
"% c #F7FDFD",
"& c #208686",
"* c #FDFFFF",
"= c #051313",
"- c #0B2D2D",
"; c #E0F8F8",
": c #D4F4F4",
"> c #020606",
", c #0B2F2F",
"< c #76DEDE",
"1 c #082020",
"2 c #1C7676",
"3 c #D5F5F5",
"4 c #165A5A",
"5 c #104242",
"6 c #F1FBFB",
"7 c #EFFBFB",
"8 c #1E7C7C",
"9 c #071D1D",
"0 c #F4FCFC",
"q c #176161",
"w c #EAFAFA",
/* pixels */
"         .X     ",
"        oO+     ",
"       @O#+     ",
"      $%##+     ",
"      &*##=     ",
"      &*##=     ",
"      &*##=     ",
"      &*##=     ",
"      &*##=     ",
"      &*##=     ",
"      &*##=     ",
"      -;#:>     ",
"       ,<1      ",
"       234      ",
"      56#7X     ",
"      8*##9     ",
"      8*##9     ",
"      8*##9     ",
"      8*##9     ",
"      8*##9     ",
"      8*##9     ",
"      8*##9     ",
"      50##9     ",
"       46#9     ",
"        qw9     "
};
