/* XPM */
static char *xpm_[] = {
/* columns rows colors chars-per-pixel */
"16 25 41 1 ",
"  c black",
". c #020A0A",
"X c #B8EEEE",
"o c white",
"O c #70DCDC",
"+ c #56D6D6",
"@ c #218787",
"# c #010505",
"$ c #E2F8F8",
"% c #F1FBFB",
"& c #31CBCB",
"* c #145252",
"= c #2BB1B1",
"- c #FDFFFF",
"; c #0D3737",
": c #259999",
"> c #114545",
", c #36CECE",
"< c #EFFBFB",
"1 c #F5FDFD",
"2 c #D4F4F4",
"3 c #33CDCD",
"4 c #93E5E5",
"5 c #040E0E",
"6 c #E8FAFA",
"7 c #E5F9F9",
"8 c #071D1D",
"9 c #1E7A7A",
"0 c #F4FCFC",
"q c #A3E9E9",
"w c #90E4E4",
"e c #0C3434",
"r c #0E3C3C",
"t c #F9FDFD",
"y c #1E7E7E",
"u c #C8F2F2",
"i c #134D4D",
"p c #1A6A6A",
"a c #FCFEFE",
"s c #ECFAFA",
"d c #0A2A2A",
/* pixels */
"  .XooooooooO   ",
"  +oooooooooo@  ",
"  #$oooooooo%o& ",
"   #*******=oo-;",
"           :ooo>",
"           :ooo>",
"           :ooo>",
"           :ooo>",
"           :ooo>",
"           :ooo>",
"           :ooo>",
"   ,%%%%%%%<1o2.",
"  3ooooooooo-45 ",
" 36-oooooooo78  ",
"9oo0qqqqqqqwe   ",
"&oo-            ",
"&oo-            ",
"&oo-            ",
"&oo-            ",
"&oo-            ",
"&oo-            ",
"&oo-            ",
"rto61111111<y   ",
" *uooooooooo-i  ",
"  paoooooooosd  "
};
