/* XPM */
static char *xpm_[] = {
/* columns rows colors chars-per-pixel */
"16 25 35 1 ",
"  c black",
". c #010505",
"X c #ABEBEB",
"o c #FDFFFF",
"O c white",
"+ c #CFF3F3",
"@ c #61D9D9",
"# c #EFFBFB",
"$ c #092525",
"% c #F4FCFC",
"& c #EDFBFB",
"* c #071D1D",
"= c #239191",
"- c #259B9B",
"; c #31C9C9",
": c #1E7E7E",
"> c #56D6D6",
", c #F1FBFB",
"< c #FCFEFE",
"1 c #E0F8F8",
"2 c #3FD1D1",
"3 c #BFEFEF",
"4 c #165A5A",
"5 c #F9FDFD",
"6 c #1E7A7A",
"7 c #A0E8E8",
"8 c #A3E9E9",
"9 c #AEEBEB",
"0 c #FAFEFE",
"q c #2BB1B1",
"w c #D8F6F6",
"e c #DCF6F6",
"r c #C5F1F1",
"t c #2AACAC",
"y c #F7FDFD",
/* pixels */
" .XoOOOOOOOOo+  ",
" @OOOOOOOOOO#O  ",
" $%OOOOOOOO&OO  ",
"  *=------;OOO  ",
"          :OOO  ",
"          :OOO  ",
"          :OOO  ",
"          :OOO  ",
"          :OOO  ",
"          :OOO  ",
"          :OOO  ",
"  >,,,,,,,,<O1  ",
" 2OOOOOOOOOo3*  ",
" 4<OOOOOOOO556  ",
"  :78888889oO0  ",
"          6OOO  ",
"          6OOO  ",
"          6OOO  ",
"          6OOO  ",
"          6OOO  ",
"          6OOO  ",
"          6OOO  ",
"  qweeeeeeroOO  ",
" qOOOOOOOOO%oO  ",
" tOOOOOOOOOOy0  "
};
