/* XPM */
static char *xpm_[] = {
/* columns rows colors chars-per-pixel */
"16 25 36 1 ",
"  c black",
". c #1A6A6A",
"X c #F4FCFC",
"o c #49D3D3",
"O c #124848",
"+ c #ECFAFA",
"@ c #80E0E0",
"# c #010505",
"$ c #051313",
"% c white",
"& c #1F8181",
"* c #DCF6F6",
"= c #3FD1D1",
"- c #082222",
"; c #3CD0D0",
": c #8EE4E4",
"> c #C2F0F0",
", c #FAFEFE",
"< c #F1FBFB",
"1 c #EDFBFB",
"2 c #FCFEFE",
"3 c #1B6D6D",
"4 c #040E0E",
"5 c #71DDDD",
"6 c #D4F4F4",
"7 c #186262",
"8 c #C7F1F1",
"9 c #FDFFFF",
"0 c #4CD4D4",
"q c #83E1E1",
"w c #A3E9E9",
"e c #30C4C4",
"r c #6CDCDC",
"t c #239191",
"y c #CBF3F3",
"u c #061818",
/* pixels */
" .Xo        O+@#",
"$X%%&       *%%=",
"-%%%;       X%%:",
"-%%%;       X%%:",
"-%%%;       X%%:",
"-%%%;       X%%:",
"-%%%;       X%%:",
"-%%%;       X%%:",
"-%%%;       X%%:",
"-%%%;       X%%:",
"-%%%;       X%%:",
"#>%,+<<<<<<<1%23",
" 452%%%%%%%%%67 ",
"  #8%%%%%%%%910 ",
"   #qwwwwwww1%%e",
"            X%%:",
"            X%%:",
"            X%%:",
"            X%%:",
"            X%%:",
"            X%%:",
"            X%%:",
"            X%%:",
"            1%%r",
"            t9yu"
};
