/* XPM */
static char *xpm_[] = {
/* columns rows colors chars-per-pixel */
"16 25 35 1 ",
"  c #1E7E7E",
". c #DCF6F6",
"X c #FDFFFF",
"o c white",
"O c #F9FDFD",
"+ c #218787",
"@ c black",
"# c #3BCFCF",
"$ c #F1FBFB",
"% c #FAFEFE",
"& c #0A2828",
"* c #83E1E1",
"= c #259999",
"- c #259B9B",
"; c #196565",
": c #36CECE",
"> c #134D4D",
", c #F7FDFD",
"< c #EFFBFB",
"1 c #1C7272",
"2 c #114545",
"3 c #D5F5F5",
"4 c #124848",
"5 c #31CBCB",
"6 c #186262",
"7 c #A0E8E8",
"8 c #A3E9E9",
"9 c #9BE7E7",
"0 c #145252",
"q c #208484",
"w c #1F8181",
"e c #D7F5F5",
"r c #C5F1F1",
"t c #1B6D6D",
"y c #F5FDFD",
/* pixels */
" .XooooooooooO+@",
"#X$ooooooooooo%&",
"#oXOoooooooooo*@",
"#ooO=--------;@@",
":ooX@@@@@@@@@@@@",
":ooX@@@@@@@@@@@@",
":ooX@@@@@@@@@@@@",
":ooX@@@@@@@@@@@@",
":ooX@@@@@@@@@@@@",
":ooX@@@@@@@@@@@@",
":ooX@@@@@@@@@@@@",
">Oo,$$$$$$$<1@@@",
"@23oooooooooX;@@",
"@@4Ooooooooo,O5@",
"@@@678888889XoX0",
"@@@@@@@@@@@@oooq",
"@@@@@@@@@@@@oooq",
"@@@@@@@@@@@@oooq",
"@@@@@@@@@@@@oooq",
"@@@@@@@@@@@@oooq",
"@@@@@@@@@@@@oooq",
"@@@@@@@@@@@@oooq",
"@@@we......r%ooq",
"@@1XooooooooOOoq",
"@@tXooooooooo%yw"
};
