/* XPM */
static char *xpm_[] = {
/* columns rows colors chars-per-pixel */
"16 25 45 1 ",
"  c black",
". c #082222",
"X c #9DE7E7",
"o c #C7F1F1",
"O c #1F8181",
"+ c #D7F5F5",
"@ c white",
"# c #FCFEFE",
"$ c #155555",
"% c #8DE3E3",
"& c #F4FCFC",
"* c #FDFFFF",
"= c #1E7A7A",
"- c #AEEBEB",
"; c #CAF2F2",
": c #CFF3F3",
"> c #1B6D6D",
", c #FAFEFE",
"< c #6CDCDC",
"1 c #86E2E2",
"2 c #ECFAFA",
"3 c #F1FBFB",
"4 c #93E5E5",
"5 c #010505",
"6 c #69DBDB",
"7 c #A0E8E8",
"8 c #061818",
"9 c #DFF7F7",
"0 c #EAFAFA",
"q c #EDFBFB",
"w c #78DEDE",
"e c #D4F4F4",
"r c #BFEFEF",
"t c #A3E9E9",
"y c #E2F8F8",
"u c #36CECE",
"i c #2EC0C0",
"p c #F9FDFD",
"a c #0B2F2F",
"s c #2DB9B9",
"d c #EFFBFB",
"f c #E8FAFA",
"g c #124848",
"h c #90E4E4",
"j c #44D2D2",
/* pixels */
"   .XoooooooooO ",
"   +@@@@@@@@@@#$",
"  %&@@@@@@@@@@*=",
" -@*;:::::::::> ",
" ,@@<           ",
" ,@@<           ",
" ,@@<           ",
" ,@@<           ",
" ,@@<           ",
" ,@@<           ",
" ,@@<           ",
" 1@#2333333345  ",
"  6,@@@@@@@@@7  ",
" 890@@@@@@@@@qw ",
" e@@rttttttty@@u",
" ,@@<       0@@7",
" ,@@<       0@@7",
" ,@@<       0@@7",
" ,@@<       0@@7",
" ,@@<       0@@7",
" ,@@<       0@@7",
" ,@@<       0@@7",
" i@32,,,,,,,q@pa",
"  sd@@@@@@@@@fg ",
"   h@@@@@@@@@j  "
};
