/* XPM */
static char *xpm_[] = {
/* columns rows colors chars-per-pixel */
"16 25 27 1 ",
"  c black",
". c #051313",
"X c #C7F1F1",
"o c white",
"O c #FDFFFF",
"+ c #BAEEEE",
"@ c #061818",
"# c #7EE0E0",
"$ c #E7F9F9",
"% c #082222",
"& c #124848",
"* c #FAFEFE",
"= c #E4F8F8",
"- c #092525",
"; c #259B9B",
": c #53D5D5",
"> c #3FD1D1",
", c #071D1D",
"< c #134D4D",
"1 c #FCFEFE",
"2 c #D5F5F5",
"3 c #020A0A",
"4 c #145252",
"5 c #A6EAEA",
"6 c #86E2E2",
"7 c #2CB6B6",
"8 c #4CD4D4",
/* pixels */
" .XoooooooooO+@ ",
" #oooooooooo$O% ",
" &*oooooooo=oo% ",
"  -;;;;;;;:ooo% ",
"          >ooo, ",
"          >ooo, ",
"          >ooo, ",
"          >ooo, ",
"          >ooo, ",
"          >ooo, ",
"          >ooo, ",
"          <1o23 ",
"           45@  ",
"           61;  ",
"          ;oo*. ",
"          >ooo, ",
"          >ooo, ",
"          >ooo, ",
"          >ooo, ",
"          >ooo, ",
"          >ooo, ",
"          >ooo, ",
"          >ooo, ",
"          7ooO@ ",
"          3Xo8  "
};
