/* XPM */
static char *xpm_[] = {
/* columns rows colors chars-per-pixel */
"16 25 55 1 ",
"  c black",
". c #145252",
"X c #C5F1F1",
"o c #D7F5F5",
"O c #D5F5F5",
"+ c #2CB6B6",
"@ c #092525",
"# c #F5FDFD",
"$ c white",
"% c #FDFFFF",
"& c #020A0A",
"* c #D0F4F4",
"= c #FAFEFE",
"- c #E5F9F9",
"; c #1B6D6D",
": c #EAFAFA",
"> c #FCFEFE",
", c #C8F2F2",
"< c #CFF3F3",
"1 c #CAF2F2",
"2 c #EDFBFB",
"3 c #259B9B",
"4 c #33CDCD",
"5 c #30C8C8",
"6 c #259999",
"7 c #C7F1F1",
"8 c #F9FDFD",
"9 c #F1FBFB",
"0 c #ECFAFA",
"q c #E2F8F8",
"w c #092323",
"e c #98E6E6",
"r c #BFEFEF",
"t c #0C3232",
"y c #104040",
"u c #F4FCFC",
"i c #DDF7F7",
"p c #238F8F",
"a c #AEEBEB",
"s c #A3E9E9",
"d c #135050",
"f c #F7FDFD",
"g c #228C8C",
"h c #1B6F6F",
"j c #44D2D2",
"k c #B3EDED",
"l c #DAF6F6",
"z c #C0F0F0",
"x c #020606",
"c c #2AACAC",
"v c #EFFBFB",
"b c #A2E8E8",
"n c #030D0D",
"m c #95E5E5",
"M c #1A6A6A",
/* pixels */
"   .XooooooO+   ",
"  @#$$$$$$$$%+  ",
" &*=$$$$$$$$$-; ",
" :$>,<<<<<<12$%.",
" $$$3       %$$4",
" $$$3       %$$4",
" $$$3       %$$4",
" $$$3       %$$4",
" $$$3       %$$4",
" $$$3       %$$5",
" $$$3       %$$6",
" 7$8299999990$qw",
" &e%$$$$$$$$$rt ",
" y0u$$$$$$$$%ip ",
" 9$%asssssss9$=d",
" $$$3       >$$6",
" $$$3       f$$6",
" $$$3       #$$6",
" $$$3       #$$6",
" %$$g       #$$6",
" >$$h       #$$6",
" >$$h       #$$6",
" j$kl0000000X%zx",
"  cv$$$$$$$$$bn ",
"  &m$$$$$$$$9M  "
};
