/* XPM */
static char *xpm_[] = {
/* columns rows colors chars-per-pixel */
"16 25 45 1 ",
"  c black",
". c #49D3D3",
"X c #D7F5F5",
"o c #B3EDED",
"O c #0C3434",
"+ c white",
"@ c #D8F6F6",
"# c #051313",
"$ c #2EC0C0",
"% c #E2F8F8",
"& c #F4FCFC",
"* c #A5E9E9",
"= c #010505",
"- c #31C9C9",
"; c #E0F8F8",
": c #CFF3F3",
"> c #C8F2F2",
", c #FDFFFF",
"< c #B7EDED",
"1 c #F5FDFD",
"2 c #66DADA",
"3 c #FAFEFE",
"4 c #228E8E",
"5 c #E5F9F9",
"6 c #F1FBFB",
"7 c #EAFAFA",
"8 c #9AE6E6",
"9 c #218787",
"0 c #DDF7F7",
"q c #F9FDFD",
"w c #64DADA",
"e c #259999",
"r c #EFFBFB",
"t c #0A2A2A",
"y c #259B9B",
"u c #A3E9E9",
"i c #BAEEEE",
"p c #DCF6F6",
"a c #83E1E1",
"s c #44D2D2",
"d c #61D9D9",
"f c #FCFEFE",
"g c #30C4C4",
"h c #1C7272",
"j c #C7F1F1",
/* pixels */
"   .XXXXXXXoO   ",
"  .+++++++++@#  ",
" $%+++++++++&*= ",
"-++;:::::::>,+: ",
"<++1       2++3 ",
"<++1       2++3 ",
"<++1       2++3 ",
"<++1       2++3 ",
"<++1       2++3 ",
"<++1       2++3 ",
"<++1       2++3 ",
"4,+566666667,+8 ",
" 90+++++++++qw= ",
"  e,++++++++rXt ",
"   yuuuuuuui++p ",
"           2++3 ",
"           2++3 ",
"           2++3 ",
"           2++3 ",
"           2++3 ",
"           2++3 ",
"           2++3 ",
"   a33333331q+s ",
"  d+++++++++fg  ",
"  h,++++++++j#  "
};
