/* XPM */
static char *xpm_[] = {
/* columns rows colors chars-per-pixel */
"113 25 247 2 ",
"   c #325858",
".  c #FCFEFE",
"X  c white",
"o  c #FEFEFE",
"O  c #FAFCFC",
"+  c #F5F9F9",
"@  c #F1F7F7",
"#  c #E0EEEE",
"$  c #477D7D",
"%  c #070D0D",
"&  c #010101",
"*  c black",
"=  c #091111",
"-  c #B1D3D3",
";  c #F0F6F6",
":  c #F3F9F9",
">  c #EEF6F6",
",  c #E8F2F2",
"<  c #E4F0F0",
"1  c #C8E0E0",
"2  c #569A9A",
"3  c #1C3232",
"4  c #020404",
"5  c #3C6C6C",
"6  c #B6D6D6",
"7  c #589C9C",
"8  c #1B3131",
"9  c #010303",
"0  c #0C1414",
"q  c #82B8B8",
"w  c #D7E9E9",
"e  c #203A3A",
"r  c #060A0A",
"t  c #142424",
"y  c #284646",
"u  c #355F5F",
"i  c #376161",
"p  c #3C6A6A",
"a  c #417373",
"s  c #427676",
"d  c #437777",
"f  c #447878",
"g  c #386464",
"h  c #162828",
"j  c #1E3434",
"k  c #4A8484",
"l  c #152525",
"z  c #1B2F2F",
"x  c #6CACAC",
"c  c #4C8888",
"v  c #FBFDFD",
"b  c #F9FBFB",
"n  c #8DBFBF",
"m  c #4E8A8A",
"M  c #172929",
"N  c #0F1B1B",
"B  c #3A6666",
"V  c #9EC8C8",
"C  c #64A8A8",
"Z  c #223C3C",
"A  c #060C0C",
"S  c #D3E7E7",
"D  c #87BBBB",
"F  c #366060",
"G  c #030505",
"H  c #294949",
"J  c #96C4C4",
"K  c #4C8686",
"L  c #0A1212",
"P  c #233F3F",
"I  c #599D9D",
"U  c #B9D7D7",
"Y  c #B0D2D2",
"T  c #0D1717",
"R  c #BAD8D8",
"E  c #1E3636",
"W  c #0E1818",
"Q  c #95C3C3",
"!  c #F7FBFB",
"~  c #92C2C2",
"^  c #447A7A",
"/  c #ABCFCF",
"(  c #D1E5E5",
")  c #68AAAA",
"_  c #ECF4F4",
"`  c #9BC7C7",
"'  c #376363",
"]  c #0C1616",
"[  c #6DADAD",
"{  c #E7F1F1",
"}  c #D0E4E4",
"|  c #254343",
" . c #2C4E4E",
".. c #DBEBEB",
"X. c #192D2D",
"o. c #345C5C",
"O. c #C0DCDC",
"+. c #5FA5A5",
"@. c #529292",
"#. c #3D6D6D",
"$. c #AED2D2",
"%. c #DAEAEA",
"&. c #B2D4D4",
"*. c #A8CECE",
"=. c #CCE2E2",
"-. c #D2E6E6",
";. c #519191",
":. c #040606",
">. c #101C1C",
",. c #132121",
"<. c #93C3C3",
"1. c #3B6969",
"2. c #2D4F4F",
"3. c #E3EFEF",
"4. c #F2F8F8",
"5. c #E9F3F3",
"6. c #C5DFDF",
"7. c #A5CDCD",
"8. c #1A2E2E",
"9. c #3F6F6F",
"0. c #080E0E",
"q. c #254141",
"w. c #305656",
"e. c #0E1A1A",
"r. c #C7DFDF",
"t. c #70AEAE",
"y. c #9AC6C6",
"u. c #A7CDCD",
"i. c #E5F1F1",
"p. c #7BB5B5",
"a. c #111F1F",
"s. c #1F3737",
"d. c #65A9A9",
"f. c #F6FAFA",
"g. c #EDF5F5",
"h. c #71AFAF",
"j. c #97C5C5",
"k. c #84BABA",
"l. c #5AA0A0",
"z. c #488080",
"x. c #477F7F",
"c. c #498383",
"v. c #182A2A",
"b. c #DFEDED",
"n. c #549696",
"m. c #122020",
"M. c #9FC9C9",
"N. c #244040",
"B. c #EBF3F3",
"V. c #4D8989",
"C. c #BCDADA",
"Z. c #111D1D",
"A. c #599F9F",
"S. c #72B0B0",
"D. c #467C7C",
"F. c #162626",
"G. c #99C5C5",
"H. c #2B4D4D",
"J. c #E2EEEE",
"K. c #7FB7B7",
"L. c #0B1313",
"P. c #407272",
"I. c #050909",
"U. c #A4CCCC",
"Y. c #182C2C",
"T. c #C4DEDE",
"R. c #498181",
"E. c #2A4C4C",
"W. c #80B8B8",
"Q. c #77B3B3",
"!. c #457B7B",
"~. c #D6E8E8",
"^. c #9CC8C8",
"/. c #040808",
"(. c #427474",
"). c #7EB6B6",
"_. c #213B3B",
"`. c #6EAEAE",
"'. c #264444",
"]. c #7CB6B6",
"[. c #6BABAB",
"{. c #B5D5D5",
"}. c #132323",
"|. c #A0CACA",
" X c #83B9B9",
".X c #DCECEC",
"XX c #88BCBC",
"oX c #203838",
"OX c #A3CBCB",
"+X c #4B8585",
"@X c #3F7171",
"#X c #3E6E6E",
"$X c #73B1B1",
"%X c #69ABAB",
"&X c #C3DDDD",
"*X c #90C0C0",
"=X c #518F8F",
"-X c #BEDADA",
";X c #D5E7E7",
":X c #C9E1E1",
">X c #ADD1D1",
",X c #315757",
"<X c #2A4A4A",
"1X c #1D3333",
"2X c #5EA4A4",
"3X c #89BDBD",
"4X c #8BBDBD",
"5X c #335B5B",
"6X c #233D3D",
"7X c #2D5151",
"8X c #559797",
"9X c #75B1B1",
"0X c #2F5353",
"qX c #ACD0D0",
"wX c #274545",
"eX c #539393",
"rX c #BBD9D9",
"tX c #A2CACA",
"yX c #569898",
"uX c #DEECEC",
"iX c #CBE1E1",
"pX c #B7D7D7",
"aX c #C2DCDC",
"sX c #549494",
"dX c #91C1C1",
"fX c #7AB4B4",
"gX c #4E8C8C",
"hX c #A9CFCF",
"jX c #5CA4A4",
"kX c #579B9B",
"lX c #62A6A6",
"zX c #4F8D8D",
"xX c #090F0F",
"cX c #79B3B3",
"vX c #8CBEBE",
"bX c #60A6A6",
"nX c #2E5252",
"mX c #D9E9E9",
"MX c #355D5D",
"NX c #CEE4E4",
"BX c #63A7A7",
"VX c #5BA3A3",
"CX c #76B2B2",
"ZX c #BFDBDB",
"AX c #325A5A",
"SX c #508E8E",
"DX c #305454",
/* pixels */
"  . X X X X o . . O + @ # $ % & * * * & =   - ; + : > , < 1 2 3 4 * * * * 5 6 7 8 9 * * * * * * * 0 q w e 9 * * * r t y u i p a s d f f s g h & * * * * * * * * * * * * j k l 9 * * * * * * * * 4 z x c * * * * * * * * * * * * * ",
"2 o X X X X X X o o v b @ n m M * * 9 N B V o X X X X X X X w C Z A * * * i S D F 0 * * * * * * G H J > K L G * * P I U b v X X X X X X X o Y T 9 * * * * * * * * * * *   R q E * * * * * * * * W Q ! ~ * * * * * * * * * * * * * ",
"O X X X X X X X X X X X . ! O 5 * * l ^ / : o . . . . O O v b ( ) P & * * 5 v _ ` ' & * * * * * ] [ { X } | T * *  .q ... X X X X X X X X X + X.4 * * * * * * * * * * * o.O.o +.4 9 * * * * * ] @.+ X ~ * * * * * * * * * * * * * ",
". X X X o o X X v b v o . . o #.* * m $.. X %.U &.&.&.*./ =.O . -.;.:.* * 5 . o + ` >.* * * * * ,.<.! X : 1.M * * 2.D 3.o o ! 4.> _ _ _ > 5.*.% * * * * * * * * * * * * B 6.X 7.8.9.p | = * * u 3.X X ~ * * * * * 0.q.w.e.* * * * ",
"o X X r.t.=.v X ..k y.O X o o #.* * u.i.X X p.| t t t a.s.d.f.X g.h.% * * 5 o X X g.1.* * * * * l j.b X b 9.X.* *  .k.3.X o $.l.c z.x.c.m ^ v.* * * * * * * * * * * * * #.1 X b.s . . } n.m.* e b X X ~ * * * * * ;.S , p.T * * * ",
"o X X M.N.*.. X B.= V.O X o o #.* * C.g.X X [ t * * * * Z.A.f.X > S.% * * #.o X X + D.* * * * * F.G.b X O 9.X.* * H.q J.X o K.s.] L.L.0 T L 9 * * * * * * * * * * * * * P.=.X o d X X . ( l.I.L.O X X ~ * * * *  .S X X { c.e.* * ",
"X X X U.Y.V X X v :.P.O X o . 5 * * T.; X X [ t * * * * Z.A.f.X > S.A * * #.o X X f.R.* * * * * M y.b X O 9.X.* * E.W.J.X o Q.t * * * * * * * * * * * * * * * * * * * * !.} X X p i.X X . ~.P.e.v X X ~ * * * * 6 X X X X =.9.* * ",
"X X X Y 8 ^.X X o /.(.. X o . 5 * * ( + X X [ t * * * * Z.A.f.X > S.A * * #.o X X ! c.* * * * * X.^.b X v 9.X.* * y ).J.X o Q.t * * * * * * * * * * * * * * * * * * * * x.( X X F.I > X X X ! v.o X X ~ * * * * p X X X X x _.* * ",
"X X X $.z ` X X o :.s o X o o #.* * S f.X X `.t * * * * Z.A.f.X > S.A * * #.o X X b c.* * * * * 8.M.O X v 9.X.* * '.].J.X o Q.t * * * * * * * * * * * * * * * * * * * * x.( X X L e [.! X X X 3 o X X ~ * * * * * x X X {.}.* * * ",
"X X X 7.t j.o X v /.s . X X o #.* * 1 : X X x }.* * * * Z.7 + X _ `.r * * #.o X X O k * * * * * X.M.O X O p M * * N.p.J.X o p.X.A r r r r :.* * * * * * * * * * * * * * $ ( X X e.% e.Q.b.. X j o X X ~ * * * * * T s +.8.* * * * ",
"o X X |.m. X@ . %.9 k v X X . 5 * * j...o v A.N * * * * T c 5.. .Xl.:.* * #.o X X O z.* * * * * }.XX@ < r.E.N * * oXt..XX o OX+X@X9.#X#X#.F l * * * * * * * * * * * * * 5 1 X X W /.* e $X6.J.8.! X X ~ * * * * * * * * * * * * * ",
"# X ! Q Z.x./ 6.%X& 2 ; o f.i.' * * s K.6.&X1.% * * * * A  .|.O.*Xi 9 * * 1.! o X 4.5 * * * * * = D.G.q =XW :.* * t m -Xo o _ ....%.w w ;X:XC % G * * * * * * * * * * * 3 K.:X-X= & * * X.P.I T >X+ > p.* * * * * * * * * * * * * ",
"D.%XA.,X/.0.j | N * q.x.@.R.#X}.* * L Z @X5 W & * * * * & L w.#X<XW * * * 1X2Xk.3X2Xa.* * * * & m.=X^.6 4XW * * * /.3 C f.X X X X X X X X X > E W * * * * * * * * * * * & N.m 5X/.* * * * * * * 6Xc.P.e * * * * * * * * * * * * * ",
"7X) 8XH :.* 9 4 9 * 2.9XV ].;.v.* * 0X) qXOX,Xr * * * * I.wXXX7.9X0X* * * ] w.eXI @XA * * * & ] eX6.! o < X.* * * A Z 9Xb o X X X X X X X X , v.0 * * * * * * * * * * * t x rXu.y * * * * * * }.).tX^.@.* * * * * * * * * * * * * ",
"/ w T.C L * * * * * yXuXv 5.r.w.* * [ iX. O n.T * * * * L.!.< O ~.7 :.* * wXJ O.r.OXz * * * = B 1 f.X X , Y.* * * }.R.pXo . ; @ ; B., , { .XS.A G * * * * * * * * * * * i aXX o sXG * * * * * d g.X o dX* * * * * * * * * * * * * ",
"{ X : ~ W * * * * * fX: X . f.1.* * M.3.X X d.m.* * * * 0 gX: X _ p.% * * B @ o X g.' * * ] 1.hXb X X . ` T * * * 6X`.%.X v >X`.jXkX8X8Xn.c.z * * * * * * * * * * * * * z.-.X X h.0 * * * * * lX. X X ~ * * * * * * * * * * * * * ",
"4.X ! ` e.* * * * * XXf.X o . 5 * * / { X X x t * * * * 0 zXf.X f.3XxX* * 5 o X X O k * /.kXuXX X X v D t * * * * 2.3X< X b $XM * * * * * * * * * * * * * * * * * * * * +X;XX X cX>.* * * * * [.. X X ~ * * * * * }.%X&.y * * * * ",
"g.X ! ` e.* * * * * XXf.X o . 5 * * / { X X x t * * * * 0 zXf.X ! vXxX* * 5 o X X O k /.u J.X X X v V L.* * * * * 0X*X3.X O Q.v.* * * * * * * * * * * * * * * * * * * * +X;XX X cX>.* * * * * [.. X X ~ * * * * * fXX X {.}.I.* * ",
"uXX ! ` e.* * * * * XXf.X o . 5 * * / { X X [.}.* * * * 0 zX+ X ! vXxX* * 5 . X X O 2 8XuXX X X uXbX8.* * * * * * nXk.%.X . cXM * * * * * * * * * * * * Z.#.Y.* * * * * +X;XX X cXZ.* * * * * [.. X X ~ * * * * ].X X X X ` _.* * ",
"..X : <.W * * * * * XXf.X o . 5 * * / { X X C m.* * * * 0 zX+ X ! vXxX* * 5 . X X v ` uXX X o { C z 9 * * * * * * H p.mXX o cXM * * * * * * * * * * * Z.eXo ).,.* * * * +X;XX X cXZ.* * * * * [.. X X ~ * * * * -XX X X X =.MX* * ",
"..X _ q ] * * * * * XXf.X o . 5 * * OX< X X d.3 N N N N X.2 + X f.D 0.* * 5 . X X o > X X X {  Xt 9 * * * * * * * | 9XmXX o ).s.0 L.L L L 0.9 * * * m.sX;XX X I }.* * * +X;XX X cXZ.* * * * * %X. X X ~ * * * *   S X X { c.e.* * ",
"..X , 9X= * * * * * W.: X o . 5 * * 9.|.f.v :X/ 7.7.7.7./ r.O o ~.@.4 * * 5 . X X X X X X ~.A.}.& * * * * * * * * q.x w X o 6.<.*XD k.k.q [.oX* * * %XB.X X X _ x * * * +X;XX X x T * * * * * 8XO X X ~ * * * * *   ` =.c.A * * * ",
"..! C.^ I.* * * * * c NX. o v 5 * * ] i n { O v v v v v v v b =.jXs.* * * 5 v X X X X X . l.M 9 * * * * * * * * * P BXS o o + @ : ; > > g.< y.= :.* c.S X X X %.;.* * * k ;XX @ g :.* * * * * _.C.X X ~ * * * * * A _.0XT * * * * ",
";XR a m.& * * * * * h V.U + f.p * * & L w.<.O X X X X X X o ( VX1X/.* * * w.NXv X < CXbXK l 9 * * * * * * * * * * s.A.iX. X X X X X X X X X + 5Xz * Z.eX;XX X A.t * * * R.S , ;.0 * * * * * * :.7X} X ~ * * * * * * * * * * * * * ",
") E.r * * * * * * * & ] 5XD U E * * * * % 6XfXU ZXZXZXZX6.>Xx.F.9 * * * * L AXvXOXx.h L :.* * * * * * * * * * * * a.f ZXo X X X X X X X X X G.}.A * * = SXb.BXW * * * * w.<.DXr * * * * * * * * r E.u.%X* * * * * * * * * * * * * "
};
