/* XPM */
static char *out[] = {
/* columns rows colors chars-per-pixel */
"32 32 87 1 ",
"  c None",
". c black",
"X c #0B0B0B",
"o c gray9",
"O c #191B1B",
"+ c #1D2225",
"@ c #252727",
"# c #252A2C",
"$ c gray17",
"% c #2D3335",
"& c #2D3639",
"* c #2E393E",
"= c gray19",
"- c #33393C",
"; c #3D3E3F",
": c #333D42",
"> c #354146",
", c #384044",
"< c #394549",
"1 c #3C494D",
"2 c #3D4C52",
"3 c #464646",
"4 c #424749",
"5 c #44494A",
"6 c #4C4C4C",
"7 c #424D52",
"8 c #494F52",
"9 c #4D5254",
"0 c #44545A",
"q c #4E5558",
"w c #49595E",
"e c #51575A",
"r c #545B5E",
"t c #4C5D62",
"y c #545F63",
"u c #556064",
"i c #52646A",
"p c #5A6468",
"a c #5B696D",
"s c #566B72",
"d c #5B6D74",
"f c #5D727B",
"g c #60676A",
"h c #646F73",
"j c #647276",
"k c #63767C",
"l c #68757A",
"z c #66797F",
"x c #69797F",
"c c #647C85",
"v c #6A7F87",
"b c #687F88",
"n c #6E848C",
"m c #73878E",
"M c #76898F",
"N c #6D8791",
"B c #6E8992",
"V c #738C95",
"C c #738F99",
"Z c #75919B",
"A c #7A939C",
"S c #7A96A0",
"D c #7D99A3",
"F c #809DA7",
"G c #819EA9",
"H c #85A2AD",
"J c #8BA5AD",
"K c #87A6B1",
"L c #88A7B2",
"P c #8AA9B4",
"I c #8FAEB9",
"U c #91ACB5",
"Y c #90AFBA",
"T c #93B3BD",
"R c #9CB7BF",
"E c #94B5C0",
"W c #96B8C4",
"Q c #9BBAC4",
"! c #9DBCC8",
"~ c #A4C1CB",
"^ c #A8C6CF",
"/ c #A3C6D3",
"( c #BCE1EE",
") c #C4DEE2",
"_ c #D3EDF2",
"` c #DDF7FB",
"' c #E2FCFF",
/* pixels */
"                                ",
"                                ",
"           .dAZf                ",
"          sKIEWEG               ",
"         kGKIEEYYw              ",
"        tFHILPKPPf              ",
"        1GPDHHHLPV              ",
"         nSSHDHKPV              ",
"         :ZZDDHKPf&w:           ",
"         yBBSDSKPt9ITV:         ",
"         &jZBBVAaMJPEPV=        ",
"      #@>VPHjeexHQ(^UFaAV       ",
"     *haVPLPQ)''~~/!JxpzA       ",
"     sAzpVKLR`_)UJKHGd$n0       ",
"     0jqqdFDHTJHHnCz2& *        ",
"     &s8;$nAFDGnmYIH            ",
"      >c#X1iiFEETTYP@           ",
"            OcYJAl66:           ",
"           f4$a6663655          ",
"           VA8r633gASa          ",
"          <GDKAAFFSccf          ",
"          HLVADZVVc:0-          ",
"         cKLPGtafiwdf7          ",
"        wHPPkk+  o4NZf          ",
"        :SLA3$    2SAc          ",
"         =ihh1    >ii+          ",
"         -cKTE1                 ",
"         7dBTE1                 ",
"         2zfTEw                 ",
"         0GkPES                 ",
"         2ccTIA                 ",
"          :sst7                 "
};
