/* XPM */
static char *out[] = {
/* columns rows colors chars-per-pixel */
"32 32 252 2 ",
"   c None",
".  c black",
"X  c #111111",
"o  c #151515",
"O  c #141517",
"+  c #1D1D1D",
"@  c #181E21",
"#  c #252728",
"$  c #262C2E",
"%  c #272C2E",
"&  c #2F2F2F",
"*  c #242E30",
"=  c #262E32",
"-  c #2A2F30",
";  c #273135",
":  c #293134",
">  c #283235",
",  c #2B3334",
"<  c #2D3739",
"1  c #303435",
"2  c gray21",
"3  c #373737",
"4  c #363839",
"5  c #35393A",
"6  c #303C3E",
"7  c #343C3E",
"8  c gray24",
"9  c #323D41",
"0  c #343D41",
"q  c #373F42",
"w  c #333F44",
"e  c #383E40",
"r  c #354145",
"t  c #364246",
"y  c #374449",
"u  c #3B4549",
"i  c #38444A",
"p  c #3A454A",
"a  c #38474B",
"s  c #3F4649",
"d  c #3C464A",
"f  c #3A464C",
"g  c #3D484B",
"h  c #3C484C",
"j  c #3D4A4F",
"k  c #3A4A50",
"l  c #3A4B51",
"z  c #3D4B51",
"x  c #3F4F52",
"c  c #424546",
"v  c #444444",
"b  c #414648",
"n  c #494949",
"m  c #4C4C4C",
"M  c #4C4E4F",
"N  c #4E4F4F",
"B  c #404C51",
"V  c #404D52",
"C  c #415156",
"Z  c #435257",
"A  c #445054",
"S  c #475155",
"D  c #495256",
"F  c #4B5356",
"G  c #4E5254",
"H  c #435359",
"J  c #455459",
"K  c #45545A",
"L  c #44565E",
"P  c #4E5558",
"I  c #48585E",
"U  c #4A585E",
"Y  c #535657",
"T  c #54585A",
"R  c #585E5F",
"E  c #4B5D65",
"W  c #575F63",
"Q  c #585F61",
"!  c #4E6168",
"~  c #506067",
"^  c #556064",
"/  c #596264",
"(  c #516168",
")  c #516268",
"_  c #556368",
"`  c #56656B",
"'  c #51656C",
"]  c #54666D",
"[  c #57666C",
"{  c #59666C",
"}  c #55686F",
"|  c #59686E",
" . c #5A696E",
".. c #566971",
"X. c #566A73",
"o. c #596E75",
"O. c #5E6F75",
"+. c #5C7077",
"@. c #5E7076",
"#. c #5A7179",
"$. c #5F747B",
"%. c #616C71",
"&. c #627177",
"*. c #647176",
"=. c #687073",
"-. c #617278",
";. c #657479",
":. c #64747A",
">. c #60757D",
",. c #64767C",
"<. c #6C777A",
"1. c #68777E",
"2. c #63787F",
"3. c #6A787C",
"4. c #5F7882",
"5. c #607780",
"6. c #617983",
"7. c #667A81",
"8. c #657B83",
"9. c #657C84",
"0. c #6B7B80",
"q. c #6A7C82",
"w. c #6A7D84",
"e. c #687E86",
"r. c #687F87",
"t. c #6C7F85",
"y. c #717D82",
"u. c #688088",
"i. c #6B828B",
"p. c #6D8189",
"a. c #68828C",
"s. c #6F848C",
"d. c #71868E",
"f. c #76868D",
"g. c #6C8791",
"h. c #6F8791",
"j. c #6D8992",
"k. c #6E8892",
"l. c #6E8993",
"z. c #6F8A93",
"x. c #6F8A94",
"c. c #728890",
"v. c #738890",
"b. c #738990",
"n. c #728891",
"m. c #708A93",
"M. c #708B95",
"N. c #718C96",
"B. c #718C97",
"V. c #738C96",
"C. c #738D96",
"Z. c #758C95",
"A. c #748D97",
"S. c #798D95",
"D. c #7A8D95",
"F. c #788E96",
"G. c #788F97",
"H. c #728D98",
"J. c #788F98",
"K. c #749099",
"L. c #769099",
"P. c #74909A",
"I. c #75919B",
"U. c #76909A",
"Y. c #77919B",
"T. c #77929B",
"R. c #75919C",
"E. c #76929C",
"W. c #77929C",
"Q. c #77939E",
"!. c #77949E",
"~. c #789199",
"^. c #7C9299",
"/. c #7F939B",
"(. c #7A939C",
"). c #79949E",
"_. c #78949F",
"`. c #78959F",
"'. c #7C959F",
"]. c #7996A0",
"[. c #7996A1",
"{. c #7B96A0",
"}. c #7B97A0",
"|. c #7A97A1",
" X c #7B97A1",
".X c #7A97A2",
"XX c #7B98A2",
"oX c #7C99A3",
"OX c #7D9AA5",
"+X c #7E9AA4",
"@X c #7E9BA5",
"#X c #7F9CA6",
"$X c #7F9CA7",
"%X c #7F9CA8",
"&X c #809AA3",
"*X c #829CA5",
"=X c #819DA7",
"-X c #819DA8",
";X c #819EA8",
":X c #819EA9",
">X c #819FA9",
",X c #819FAA",
"<X c #829FAA",
"1X c #83A1AB",
"2X c #84A0AA",
"3X c #84A1AB",
"4X c #83A1AC",
"5X c #83A2AD",
"6X c #84A2AD",
"7X c #85A2AD",
"8X c #85A3AE",
"9X c #86A4AF",
"0X c #88A2AB",
"qX c #88A4AD",
"wX c #86A5B0",
"eX c #87A5B0",
"rX c #87A6B1",
"tX c #88A6B1",
"yX c #8AA6B0",
"uX c #89A7B2",
"iX c #89A8B3",
"pX c #8BA8B2",
"aX c #8AA8B3",
"sX c #8AA9B4",
"dX c #8BA9B5",
"fX c #8BAAB5",
"gX c #8CABB6",
"hX c #8CABB7",
"jX c #8EADB8",
"kX c #8FAEB9",
"lX c #8FAFBA",
"zX c #90AFBA",
"xX c #91B1BC",
"cX c #93B3BE",
"vX c #92B2BF",
"bX c #AABBBD",
"nX c #94B5C0",
"mX c #96B7C3",
"MX c #97B8C4",
"NX c #98BAC6",
"BX c #9DBECA",
"VX c #A5C1CA",
"CX c #A7C4CD",
"ZX c #AAC7CF",
"AX c #B3C6C9",
"SX c #B0D2DE",
"DX c #B8D4DB",
"FX c #B9D5DB",
"GX c #BDDDE7",
"HX c #C5D9DC",
"JX c #DEFAFE",
"KX c #E2FCFF",
/* pixels */
"                          r                                     ",
"                      } e.cXnX}.x                               ",
"                    W.rXjXnXnXnXxX6                             ",
"                f V.<XwXjXlXlXzXzX..                            ",
"                J uXdXgXeXeXtXfXkX9.                            ",
"                $ F.|.@X6X9X9XiXfXC.                            ",
"                  I !.XX,X,X4XiXsXC.                            ",
"                  { l.N.OX#X$XrXsX] g U.j                       ",
"                  K 8.u.!.`.oX=X+X: F xXnX;Xi                   ",
"                  8.&Xt.i.7.,.P G =.bX>XnXyX/.#                 ",
"            ) :.'.aXsXsX<.y.AXAXSXJXKXDXxXD.B 8X}.              ",
"          +.;.2.@.9X9XhXHXKXKXKXBXGXZXpXiXq.%.S.nXZ             ",
"          >.1.W &.Y.<X1XCXFXVXVX0XeXuXwX7X .2 m.T.              ",
"          r | b 1 _ [.XX:X9X3X(.c.~.b.).=     H                 ",
"            $.p X 7 ].`.G.2Xv.J.*XnXnX}.                        ",
"                    . . S vXNXMXmXyXqX*.                        ",
"                        + p.^.3.R N m m 4 o                     ",
"                      2.c D m m m M n Y / -.                    ",
"                    * a.{.d.m v 8 T f.-XXXZ.O                   ",
"                    ( x.I.Q.%X4X8X5X!.k.z..X}                   ",
"                  A E.`.[._.B.x.z.M.g.q d h                     ",
"                  #.].oXL.M.' z C 9 e 3 s X.@                   ",
"                  5.j.K.u.L         5 ~ 6.a.>                   ",
"                  y r.O.3 & ,         U g.P.o.                  ",
"                  u - ^ Q 0.C.        % R.H.H.                  ",
"                    V g.sXsXC.          ! E ;                   ",
"                    0 ` tXsXA.                                  ",
"                    4.w.n.kXaX                                  ",
"                    l [ s.sXsXw                                 ",
"                      k h.eX X<                                 ",
"                        a t                                     ",
"                                                                "
};
