/* XPM */
static char *out[] = {
/* columns rows colors chars-per-pixel */
"32 32 94 2 ",
"   c None",
".  c black",
"X  c #141415",
"o  c #181C1D",
"O  c #1B1F21",
"+  c #1D2223",
"@  c #242525",
"#  c #242A2B",
"$  c #2A2A2A",
"%  c #242E31",
"&  c #2B3235",
"*  c #2C3639",
"=  c #303A3E",
"-  c #393D3E",
";  c #2E3D40",
":  c #343E42",
">  c #383F41",
",  c #3B4345",
"<  c #334349",
"1  c #3A454A",
"2  c #3D494D",
"3  c #3F5057",
"4  c gray27",
"5  c #474848",
"6  c #4B4B4B",
"7  c #444E51",
"8  c #435155",
"9  c #4C5356",
"0  c #45555B",
"q  c #4B575B",
"w  c #4A595E",
"e  c #505354",
"r  c #505658",
"t  c #535B5E",
"y  c #585D5F",
"u  c #4C5C63",
"i  c #515E63",
"p  c #4E6269",
"a  c #566267",
"s  c #5C6366",
"d  c #53656C",
"f  c #5B676B",
"g  c #546971",
"h  c #5D6D73",
"j  c #576F79",
"k  c #5C7077",
"l  c #57707A",
"z  c #5E747C",
"x  c #606C70",
"c  c #637276",
"v  c #62747B",
"b  c #69767B",
"n  c #6F7B7C",
"m  c #647A82",
"M  c #697C84",
"N  c #6C8087",
"B  c #6B838C",
"V  c #72868E",
"C  c #6C8691",
"Z  c #6E8993",
"A  c #748B94",
"S  c #798F97",
"D  c #738E99",
"F  c #76929C",
"G  c #7A939D",
"H  c #7A97A1",
"J  c #7D9AA4",
"K  c #8097A0",
"L  c #819CA5",
"P  c #819EA9",
"I  c #85A3AD",
"U  c #87A5B0",
"Y  c #88A7B2",
"T  c #8BAAB5",
"R  c #8EADB8",
"E  c #90AFBA",
"W  c #92B2BC",
"Q  c #99B5BD",
"!  c #A4B7BB",
"~  c #94B5C0",
"^  c #9AB7C0",
"/  c #97B9C4",
"(  c #98B8C4",
")  c #A6C3CB",
"_  c #A8C7D1",
"`  c #A8CBD8",
"'  c #B0CCD3",
"]  c #BBD8E0",
"[  c #B9DDEB",
"{  c #CBE1E4",
"}  c #D0E9ED",
"|  c #D3EDF2",
" . c #D0F1FA",
".. c #E2FCFF",
/* pixels */
"                                                                ",
"                        : v k %                                 ",
"                    1 A R ~ / / Z                               ",
"                  m P Y E ~ ~ ~ E 7                             ",
"                w J U Y U R T R T d                             ",
"                7 T U U I I I U T n                             ",
"                  A H J P P I T T D                             ",
"                  2 A F P L P U T d & 1                         ",
"                  w C Z H H J U T a k ~ ~ 8                     ",
"                  > c m D F F U m b A R ~ W K .                 ",
"            > $ & H Y L f M 9 t A ' ..) W A , U d               ",
"          0 h V P Y Y E ! } { | ` [ | Q R V b L ~               ",
"          z G c h U J T [  ...| _ ( R I I c , G v               ",
"          d q e r Z J J ^ ^ Q R A F S H u 1 o p                 ",
"          * m 9 @ 9 H H L U A G V A W G                         ",
"            u u . @ m m c M ~ ~ ~ ~ ~ K                         ",
"                        & L ~ ~ I V y e @                       ",
"                      2 $ 7 b 6 6 6 6 6 s >                     ",
"                      Z G 6 e 6 4 5 s V A N O                   ",
"                    * D D U D A G K I A F F +                   ",
"                    z P H R H F S F Z p d d X                   ",
"                  g F I S R A m A z w @ 2 i X                   ",
"                % D P P U D 8   # + 7 a h h u                   ",
"                o A H J r ,           # k l C                   ",
"                  2 F x 6 @             < ; .                   ",
"                  + > c b L F                                   ",
"                  8 u I E E F                                   ",
"                    8 z E E F                                   ",
"                  # c a T W J                                   ",
"                  + a a A R R =                                 ",
"                    % g U R B                                   ",
"                        p ,                                     "
};
