/* XPM */
static char *out[] = {
/* columns rows colors chars-per-pixel */
"32 32 92 1 ",
"  c None",
". c black",
"X c #171717",
"o c #171718",
"O c #161C1E",
"+ c #1E1E1E",
"@ c #1D2223",
"# c #212425",
"$ c #202629",
"% c #23292C",
"& c #282828",
"* c #262D30",
"= c #2C3335",
"- c #303232",
"; c #303A3E",
": c #393A3A",
"> c #2E3940",
", c #323F43",
"< c #3A3F41",
"1 c #364247",
"2 c #394145",
"3 c #3F474B",
"4 c #3C494E",
"5 c #3E4D52",
"6 c #444546",
"7 c #454A4C",
"8 c #4B4C4C",
"9 c #404E54",
"0 c #435156",
"q c #4C5255",
"w c #44555B",
"e c #4B565B",
"r c #4A595E",
"t c #505658",
"y c #525B5E",
"u c #4C5C62",
"i c #525D62",
"p c #4F6167",
"a c #4F6269",
"s c #556165",
"d c #5A6266",
"f c #53656B",
"g c #5E6669",
"h c #576B72",
"j c #5B6B71",
"k c #5D7077",
"l c #5D737B",
"z c #65757B",
"x c #65787F",
"c c #6A787D",
"v c #5E7780",
"b c #647B83",
"n c #6B7C82",
"m c #647E88",
"M c #66808A",
"N c #6B848D",
"B c #71868D",
"V c #6C8790",
"C c #6F8992",
"Z c #728B94",
"A c #798C93",
"S c #738F99",
"D c #75929C",
"F c #7A949D",
"G c #7B97A0",
"H c #7D99A4",
"J c #819CA6",
"K c #819EA9",
"L c #85A2AD",
"P c #8AA5AE",
"I c #87A5B0",
"U c #88A6B2",
"Y c #8BAAB5",
"T c #8EAEB9",
"R c #92A9B0",
"E c #92AFBA",
"W c #9FB0B4",
"Q c #92B1BC",
"! c #94B5C0",
"~ c #97B9C5",
"^ c #9ABBC7",
"/ c #99BBC8",
"( c #A3BDC3",
") c #A6C1C9",
"_ c #ADCBD4",
"` c #B2CED5",
"' c #B4D0D7",
"] c #B3D8E6",
"[ c #C3DCE1",
"{ c #C6E9F5",
"} c #DBF7FB",
"| c #E2FCFF",
/* pixels */
"                                ",
"             **                 ",
"          ,fG!!Hw               ",
"         5KIQ!!QQ,              ",
"        5FHITTTYYp              ",
"        uITYLIIYYf              ",
"        1HHHLLLYUS              ",
"         wGGKKLYYf=             ",
"         fZZHHKIUuf!h0          ",
"         rmVFGHIFyyLQQH         ",
"         9HNcjqtgP}`QJ2Bu       ",
"       .7KYYR(W[Q]{[YBcBQ       ",
"      snFLIY)|||_^!PLz6ZH       ",
"     5Tj7CLIT'(QPJJHb0+h,       ",
"     wl8iiZHHKYFAAFY@           ",
"     =as-&rGBTN^/!!!*           ",
"       h   $&D^!!IFco           ",
"           1&:Zg8888:           ",
"           NZ-d88888if          ",
"          uHGGDgtgAHFf          ",
"         $IHbTGHJHSbNl          ",
"        fHTUYUkSSCf700          ",
"        bILLZN@901kVNw          ",
"        fLJi6#   +jDGu          ",
"        ouznr=   oqKKf          ",
"        ,bDT!!    iKKN          ",
"        >lVT!b    5msw          ",
"         1mH!Y                  ",
"         ObH!!                  ",
"        5SZG!!4                 ",
"        5mvfuw                  ",
"         *                      "
};
