/* XPM */
static char *out[] = {
/* columns rows colors chars-per-pixel */
"32 32 89 1 ",
"  c None",
". c black",
"X c #1B1B1B",
"o c #1E2224",
"O c #1F2529",
"+ c #242627",
"@ c #21272B",
"# c #21292D",
"$ c #2C2D2E",
"% c #262D30",
"& c #2B3337",
"* c #333435",
"= c #323B3D",
"- c gray24",
"; c #333F44",
": c #364146",
"> c #3E4446",
", c #3B454A",
"< c #3B494E",
"1 c #3E4C51",
"2 c #434546",
"3 c #46494A",
"4 c #4C4C4D",
"5 c #424D51",
"6 c #4A4F51",
"7 c #435055",
"8 c #4B5255",
"9 c #45555B",
"0 c #4D575B",
"q c #4B595F",
"w c #535B5D",
"e c #4C5D63",
"r c #515C60",
"t c #595F61",
"y c #4E6067",
"u c #546166",
"i c #53656B",
"p c #5A666B",
"a c #55686F",
"s c #5E696D",
"d c #5B6D74",
"f c #5A6F78",
"g c #5D7077",
"h c #5C7079",
"j c #667175",
"k c #687275",
"l c #64767C",
"z c #68777D",
"x c #65797F",
"c c #647A82",
"v c #697D84",
"b c #667E89",
"n c #66808B",
"m c #6B838C",
"M c #73858C",
"N c #6E8790",
"B c #6E8993",
"V c #728B94",
"C c #738F99",
"Z c #76919B",
"A c #7B949D",
"S c #7C97A1",
"D c #7D9AA4",
"F c #819CA5",
"G c #819EA9",
"H c #85A3AE",
"J c #88A2AC",
"K c #87A6B1",
"L c #89A7B2",
"P c #8AA9B4",
"I c #8FAEB9",
"U c #90AFBA",
"Y c #93B2BD",
"T c #94B5C0",
"R c #99B7C1",
"E c #97B8C5",
"W c #98BAC7",
"Q c #9BBDC9",
"! c #A1BBC4",
"~ c #9FC1CE",
"^ c #A2C3CE",
"/ c #B3C6C9",
"( c #A5C8D5",
") c #ABC9D1",
"_ c #BCD6DC",
"` c #B1D5E2",
"' c #B9DDEB",
"] c #C6E3EB",
"[ c #E2FCFF",
/* pixels */
"                                ",
"           <ATPc#               ",
"          ZPYTTTc               ",
"        ,VHLIIIII5              ",
"        eLPPLLPPIi              ",
"        5LDGLHLPIi              ",
"         cSDHHLPPi              ",
"         iCSHDGLP<dFq&          ",
"         dmBSDFHN*8PYYa         ",
"         :BcSmp6pM]YTVq=&       ",
"         APPsk/_Q`'QUAzAS       ",
"       1cHPP)[[[!QRHHz8vb       ",
"      5xuvHPY_^RFJJmd5oa=       ",
"     9Fs83DGGHJFVFJV            ",
"     ;np>*rDGFUG)QYY%           ",
"      1Gg.$9$F^^~PJFo           ",
"       O   ,+0Fsw444$           ",
"           bM63444343+          ",
"         odSCSg2-wMJZu          ",
"        1cGDFGSDHHACZlO         ",
"        hDKHGDCBVVm,Nm          ",
"        mDGDBe,9qe>*==          ",
"        *cdw9O   evzme          ",
"        ;fPTTc   <DDJy          ",
"        ,dCTT%   XxHLi          ",
"         1cEW1   XuPLi          ",
"         %bEWB    dHHB          ",
"        ;abTQW    9dd@          ",
"        <cbZw,                  ",
"         #                      ",
"                                ",
"                                "
};
