/* XPM */
static char *out[] = {
/* columns rows colors chars-per-pixel */
"32 32 92 1 ",
"  c None",
". c #030303",
"X c #151616",
"o c #1D2123",
"O c #1E2428",
"+ c #252727",
"@ c #232A2D",
"# c #2C2C2C",
"$ c #262D30",
"% c #2B3335",
"& c #2A3439",
"* c #2F3B3F",
"= c #323233",
"- c #31373A",
"; c #3A3B3B",
": c #343D41",
"> c #3B3F41",
", c #354245",
"< c #3E4345",
"1 c #39464C",
"2 c #3B494D",
"3 c #3F4D53",
"4 c #464747",
"5 c #474748",
"6 c #434B4E",
"7 c #4B4B4B",
"8 c #424D52",
"9 c #445156",
"0 c #4A5155",
"q c #46565B",
"w c #4B5458",
"e c #4B595E",
"r c #515557",
"t c #535A5D",
"y c #4C5D63",
"u c #525D61",
"i c #595F61",
"p c #4E6269",
"a c #536166",
"s c #596265",
"d c #53656B",
"f c #5B6568",
"g c #55686E",
"h c #5C6D74",
"j c #5F7076",
"k c #5D737B",
"l c #636F73",
"z c #617177",
"x c #65767D",
"c c #69757B",
"v c #6B7A7E",
"b c #5E7680",
"n c #5F7882",
"m c #657C85",
"M c #6B7E84",
"N c #657F88",
"B c #67828B",
"V c #6B848D",
"C c #728387",
"Z c #71848C",
"A c #6F8A94",
"S c #728B95",
"D c #788C93",
"F c #738F99",
"G c #76929C",
"H c #7A939D",
"J c #7B97A1",
"K c #7D9AA4",
"L c #829CA5",
"P c #819EA9",
"I c #85A3AD",
"U c #87A6B1",
"Y c #88A7B2",
"T c #8BAAB5",
"R c #8EADB8",
"E c #92ACB6",
"W c #91AFBA",
"Q c #93B2BD",
"! c #94B5C0",
"~ c #9AB6C1",
"^ c #97B9C5",
"/ c #9BBAC5",
"( c #9BBDCA",
") c #A4C4CF",
"_ c #A8C2CA",
"` c #A8CBD8",
"' c #ACD0DD",
"] c #AFD2E0",
"[ c #BDE2EF",
"{ c #CCE7EC",
"} c #DAF7FD",
"| c #E2FCFF",
/* pixels */
"             2@                 ",
"          9kQQ!Ke               ",
"         yITQ!!QG               ",
"        dPPTRRTQQ8              ",
"        jTTUUYTTRd              ",
"        2IKPIIUTRd              ",
"         mGKIIITTy@             ",
"        XxFGPKPTT%z!Jz          ",
"         gBVHKKSg<CTQTP         ",
"         eKSMh0tvQ[)Qx8S3       ",
"        eYTTQ_||)`'QTDMMK       ",
"       uGITR/}|{ETQIIx4I9       ",
"      8DtzYUT_TTLHDM8&X:        ",
"     2Ivt;VPITPHLUET            ",
"     &nd<#<Pm/E]`(^Q@           ",
"      3Vq ..+Z)~QDCvX           ",
"       +   k60sr7777=           ",
"         :ySGu76447ft9          ",
"        2hFSFTGxlcLLKa          ",
"        yFKGJGAAFHFVGH@         ",
"        gJKKKGBnBAx%kJ@         ",
"        3BqGk3@:&%#;:o          ",
"        89uwhy   6ftrd          ",
"        %dPUUh   9LIIN          ",
"         -mTTq   @JYTd          ",
"         MpTRh   XuTRg          ",
"        +xlTRH   XuRRN          ",
"         8hWWK    eYYS          ",
"          @1%      ,<:          ",
"                                ",
"                                ",
"                                "
};
