/* XPM */
static char *out[] = {
/* columns rows colors chars-per-pixel */
"32 32 99 2 ",
"   c None",
".  c black",
"X  c #111111",
"o  c #171D1F",
"O  c #1A1C1C",
"+  c #1D2124",
"@  c #1E2428",
"#  c #232A2D",
"$  c #2A2C2D",
"%  c #262F32",
"&  c #292F32",
"*  c #2A3437",
"=  c #273338",
"-  c #2D3639",
";  c #2E383C",
":  c #333435",
">  c #333A3D",
",  c #3B3D3E",
"<  c #303D41",
"1  c #364145",
"2  c #3C4144",
"3  c #3B464A",
"4  c #3D4A4F",
"5  c #3D4C51",
"6  c gray25",
"7  c #414749",
"8  c #444B4D",
"9  c #4C4C4C",
"0  c #444E52",
"q  c #4A4F52",
"w  c #445156",
"e  c #495256",
"r  c #45545B",
"t  c #4C575A",
"y  c #4B585E",
"u  c #525556",
"i  c #4D5D63",
"p  c #535D61",
"a  c #585F62",
"s  c #4F6066",
"d  c #4E636A",
"f  c #526166",
"g  c #5A6062",
"h  c #53646A",
"j  c #56686F",
"k  c #5A696E",
"l  c #566971",
"z  c #5C6E74",
"x  c #5E7177",
"c  c #5D7079",
"v  c #626D71",
"b  c #647277",
"n  c #63757C",
"m  c #6B777C",
"M  c #6C797E",
"N  c #5E7781",
"B  c #647B83",
"V  c #6B7D83",
"C  c #647E88",
"Z  c #717F85",
"A  c #6D8086",
"S  c #66818A",
"D  c #6A838D",
"F  c #708186",
"G  c #6D8791",
"H  c #6E8992",
"J  c #738C95",
"K  c #798E95",
"L  c #748F98",
"P  c #76919A",
"I  c #79939D",
"U  c #7B97A1",
"Y  c #7E9AA4",
"T  c #80969F",
"R  c #8097A0",
"E  c #829CA5",
"W  c #819FA9",
"Q  c #85A3AE",
"!  c #88A4AE",
"~  c #87A6B1",
"^  c #88A7B1",
"/  c #8BA9B4",
"(  c #8FAEB9",
")  c #92ABB4",
"_  c #90AFBA",
"`  c #92B2BD",
"'  c #94B6C1",
"]  c #97B8C3",
"[  c #9BBAC6",
"{  c #9DBFCB",
"}  c #A7C4CD",
"|  c #A2C4D1",
" . c #ACCBD6",
".. c #ACCEDB",
"X. c #AED1DE",
"o. c #BBE0EE",
"O. c #C2E8F6",
"+. c #CCEAF2",
"@. c #D2F2FB",
/* pixels */
"                          1                                     ",
"                      l I ] ] U w                               ",
"                    U ^ ` ' ' ' ^                               ",
"                3 J W ^ ( ( ( ( _ i                             ",
"                y / / / ~ ~ / / _ l                             ",
"                3 Y Y Y ~ ~ ~ / _ l                             ",
"                  y U Y Q Q ~ ^ / h                             ",
"                  i J L Y Y W / / i z Y D *                     ",
"                  k S D U U I W M $ 2 Q ' / f                   ",
"                  & Y U C V p 8 v R ..] ` E t n 4               ",
"                < / / ( _ [ [ +. .| ..{ ( Q m I ^               ",
"              i K W ^ ( ] o.O.@.} ` ` Q Q b q x w               ",
"            4 I y v / / / [ ` / ~ Q K A w 0 O i <               ",
"          5 ) V u 8 b W W W R W E E ! Y o                       ",
"          1 B 4 3 $ 6 Y V K ) ..X.{ ] ] %                       ",
"            d Y r   . . $ U | | ` / K F +                       ",
"              @       3 : e g g 9 9 9 9 :                       ",
"                  - z B J e 9 9 9 9 8 9 u &                     ",
"                  1 h C L Y V b 6 M Z E P h                     ",
"                  r H S J L H H W W I J U Y #                   ",
"                  3 H H U G C N D H B 2 D ^ #                   ",
"                  8 t G H l o = = 0 , , 0 f                     ",
"                  1 q 8 3 7 #     > g u q +                     ",
"                  w z n z C #     $ J R T b                     ",
"                  q a H G H       > W ( ( I                     ",
"                  = i L I J       X V _ ` c                     ",
"                    5 I J J       X a { | B                     ",
"                      s r @       X h _ ` P                     ",
"                                    y ^ / J                     ",
"                                      ; ;                       ",
"                                                                ",
"                                                                "
};
