/* XPM */
static char *out[] = {
/* columns rows colors chars-per-pixel */
"32 32 95 2 ",
"   c None",
".  c black",
"X  c #0D0E0E",
"o  c #151819",
"O  c #181C1E",
"+  c #1B2122",
"@  c #222425",
"#  c #202628",
"$  c #23292C",
"%  c #2A2D2D",
"&  c #262E31",
"*  c #273135",
"=  c #2C3335",
"-  c #2D363A",
";  c #2E383C",
":  c #343434",
">  c #313739",
",  c #353C3F",
"<  c #383B3C",
"1  c #323C40",
"2  c #383E40",
"3  c #354247",
"4  c #3C4345",
"5  c #3C4649",
"6  c #3C494E",
"7  c #3D4B50",
"8  c #3E5057",
"9  c #454747",
"0  c #414749",
"q  c #45494B",
"w  c #4C4C4C",
"e  c #454F53",
"r  c #455055",
"t  c #435359",
"y  c #4C565B",
"u  c #48595D",
"i  c #53595B",
"p  c #4E5D62",
"a  c #515C61",
"s  c #4F6166",
"d  c #4E636C",
"f  c #556065",
"g  c #5A6366",
"h  c #55656B",
"j  c #5B6569",
"k  c #5D696E",
"l  c #556A73",
"z  c #5D6D72",
"x  c #5B717A",
"c  c #606669",
"v  c #62696D",
"b  c #657176",
"n  c #62757C",
"m  c #6B777A",
"M  c #65787F",
"N  c #6A787D",
"B  c #637B84",
"V  c #6B7E84",
"C  c #657F89",
"Z  c #727F84",
"A  c #67808A",
"S  c #6D838C",
"D  c #708289",
"F  c #6C8690",
"G  c #738B93",
"H  c #738F99",
"J  c #76919C",
"K  c #7A939D",
"L  c #7A97A0",
"P  c #7D9AA4",
"I  c #829BA5",
"U  c #829EA9",
"Y  c #84A2AD",
"T  c #88A2AB",
"R  c #86A5B0",
"E  c #88A6B1",
"W  c #8BAAB5",
"Q  c #8EADB8",
"!  c #90AFBA",
"~  c #91B1BC",
"^  c #99B4BC",
"/  c #A3B8BE",
"(  c #94B5C0",
")  c #9AB6C0",
"_  c #9ABAC6",
"`  c #99BBC8",
"'  c #A3C3CE",
"]  c #A8C2C9",
"[  c #A3C5D1",
"{  c #A9CCDA",
"}  c #ADD0DE",
"|  c #B1D0DA",
" . c #B4D8E6",
".. c #BEDCE4",
"X. c #C2E8F6",
/* pixels */
"                                                                ",
"                      $ u W Q B &                               ",
"                    B W Q ( ( ( ~ u                             ",
"                  B P E Q ~ Q ~ ~ n                             ",
"                - U W Q R E W W Q H                             ",
"                + K P P R R R W Q H                             ",
"                  u L P Y R Y R W G                             ",
"                  5 H K U P Y R W B o 6                         ",
"                  r S F K P P R Y 5 < Y ^ F ,                   ",
"                  ; S J V J n i y y D ~ ( Q I 5                 ",
"                  L W Q ! I ^ _ T ' } [ ~ P a Y L               ",
"              s K Y W Q _  .X.X._ ^ ` Q Y I v D z               ",
"            b G y k W W W _ ' ~ Y Q ~ W Y J 9 A t               ",
"          t Y N k q D Y Y W W I I G I S & * O =                 ",
"          3 B p 2 : q U K ^ ] / ) ` _ _ *                       ",
"            6 S 6 . + 3 , W { { { _ W W $                       ",
"                    + 2 % v I V j i w w @                       ",
"                  $ x C g j w w w 9 w w z X                     ",
"                  % p C H b i w f v v b G h                     ",
"                  ; B B H C H P I T Y L L D #                   ",
"                  - C B K C x B F H H h V W $                   ",
"                  X p B G d r = 8 p 4 < n M +                   ",
"                  * 0 h r 5 l     - N m f A                     ",
"                  * y z B x d     % T | ' F                     ",
"                    8 a S A x     > J ` ` Q                     ",
"                    $ f J A l       b ` _ U                     ",
"                      5 x t +       y ....^                     ",
"                                    p ' ' Y                     ",
"                                    u ( ( Q #                   ",
"                                    1 t 1 2                     ",
"                                                                ",
"                                                                "
};
