/* XPM */
static char *out[] = {
/* columns rows colors chars-per-pixel */
"32 32 110 2 ",
"   c None",
".  c #0E0E0E",
"X  c gray8",
"o  c #161A1B",
"O  c #1C2123",
"+  c #1E2629",
"@  c #232424",
"#  c #21272B",
"$  c #232A2D",
"%  c #282A2A",
"&  c #292F32",
"*  c #293133",
"=  c #2E3639",
"-  c #2F383C",
";  c #353636",
":  c #353A3D",
">  c #393B3D",
",  c #323D41",
"<  c #394043",
"1  c #3A4549",
"2  c #3C4A4E",
"3  c #3E4C52",
"4  c #434545",
"5  c #41494C",
"6  c #4C4C4D",
"7  c #424D52",
"8  c #494F52",
"9  c #475054",
"0  c #4D5254",
"q  c #45555B",
"w  c #4A565B",
"e  c #4C585D",
"r  c #525556",
"t  c #53585A",
"y  c #4B5C62",
"u  c #535F63",
"i  c #595F61",
"p  c #4F6167",
"a  c #576267",
"s  c #5E6467",
"d  c #55666C",
"f  c #5D676B",
"g  c #5C696E",
"h  c #566B73",
"j  c #5E6E74",
"k  c #5D7179",
"l  c #606C71",
"z  c #657075",
"x  c #6A7274",
"c  c #62757C",
"v  c #69797F",
"b  c #5E7781",
"n  c #637A84",
"m  c #6B7E84",
"M  c #647E88",
"N  c #717E83",
"B  c #66818A",
"V  c #6C838B",
"C  c #72858B",
"Z  c #77888E",
"A  c #7A898E",
"S  c #6C8791",
"D  c #6F8891",
"F  c #728C95",
"G  c #788C93",
"H  c #748F99",
"J  c #76929C",
"K  c #7A959E",
"L  c #7B97A0",
"P  c #7D9AA4",
"I  c #7F9DA8",
"U  c #81969D",
"Y  c #83989D",
"T  c #8197A0",
"R  c #829AA3",
"E  c #819FAA",
"W  c #8EA2A7",
"Q  c #85A2AD",
"!  c #8DA3A9",
"~  c #87A5B1",
"^  c #89A7B2",
"/  c #8AA9B4",
"(  c #8EADB8",
")  c #93A9B1",
"_  c #90AFBA",
"`  c #92B2BD",
"'  c #A4B9BE",
"]  c #94B5C0",
"[  c #97B8C4",
"{  c #99B9C5",
"}  c #9ABCC9",
"|  c #A3BCC4",
" . c #AAC2C7",
".. c #A7C5CD",
"X. c #A8C3CB",
"o. c #A3C5D2",
"O. c #A9C6D0",
"+. c #AAC9D3",
"@. c #A9CCDA",
"#. c #AED1DF",
"$. c #AFD3E0",
"%. c #B3D7E5",
"&. c #CAE2E6",
"*. c #C2E0E8",
"=. c #CCE9EF",
"-. c #C2E8F6",
";. c #D5F4FB",
":. c #DCF5F8",
">. c #DEF9FC",
",. c #E2FCFF",
/* pixels */
"                                                                ",
"                      # , / F y #                               ",
"                    d Q ( ] ] ] /                               ",
"                  b E Q ( ` ` ` _ h                             ",
"                q Q ^ ` / / / / _ D                             ",
"                @ U ^ I ^ ^ ^ / / F                             ",
"                  c P P Q Q Q / / F                             ",
"                  , J J Q I Q ^ / n # 1                         ",
"                  7 F S L I I ^ Q 7 1 ( { 7                     ",
"                  - M H V P V d q , A / ] ( T                   ",
"                  L / ( G v z A T o.%...` L > n y               ",
"              p L / / ( { -.;.,.| o.o.{ ^ Q m N ]               ",
"          2 Y Z 8 V / / ` %.O...^ ^ _ ^ ^ c 4 c R               ",
"          y V g g 8 P Q Q Q / Q K T G m q 2 X : 1               ",
"          3 k 9 > ; j E E Q W ) ) ] } ^                         ",
"            q F o . % , 0 O.#.@.@.} } _ #                       ",
"                      X % Z } R Z i i r @                       ",
"                    q V 0 i 6 6 6 6 6 4 >                       ",
"                  = e n V l 6 4 6 8 t s C q                     ",
"                  & n n F J F F K U ^ E P P $                   ",
"                  = M n F B B B D H J d L ^ $                   ",
"                  & d M J b 7 1 q y 5 ; j m ,                   ",
"                    > k u 1 d O   . t x C K 7                   ",
"                    5 u y n h       ' ,.,.>.:                   ",
"                  % a 5 H D n     O W ,.,.&.                    ",
"                    : a V L L *     y =.=. .                    ",
"                      w F K M       : *.*.|                     ",
"                        # +         @ ,.,.:.>                   ",
"                                    * X.| | *                   ",
"                                      : ; :                     ",
"                                                                ",
"                                                                "
};
