/* XPM */
static char *out[] = {
/* columns rows colors chars-per-pixel */
"32 32 105 2 ",
"   c None",
".  c black",
"X  c gray7",
"o  c #15161A",
"O  c #1C1E1E",
"+  c #1B1F21",
"@  c #1C2224",
"#  c #1D2428",
"$  c gray13",
"%  c #202628",
"&  c #242A2D",
"*  c #2A2C2D",
"=  c #272F31",
"-  c #292E31",
";  c #263035",
":  c #2C3538",
">  c #2F383C",
",  c #303538",
"<  c #313B3D",
"1  c #3F3F3F",
"2  c #313D42",
"3  c #383F41",
"4  c #354146",
"5  c #3C4144",
"6  c #3B4549",
"7  c #3D494D",
"8  c #3E4E55",
"9  c #424344",
"0  c #444A4C",
"q  c #4B4B4B",
"w  c #424D52",
"e  c #425156",
"r  c #495356",
"t  c #45545A",
"y  c #4F5658",
"u  c #47585E",
"i  c #49595E",
"p  c #505253",
"a  c #515B5E",
"s  c #585B5D",
"d  c #4C5C62",
"f  c #535E62",
"g  c #595F61",
"h  c #4E6269",
"j  c #536167",
"k  c #596062",
"l  c #54646A",
"z  c #5F6568",
"x  c #56686E",
"c  c #576A72",
"v  c #5B6D74",
"b  c #5D727A",
"n  c #647175",
"m  c #63757B",
"M  c #67797F",
"N  c #68797E",
"B  c #5D7580",
"V  c #637B84",
"C  c #6A7C84",
"Z  c #657F89",
"A  c #6B838B",
"S  c #72848A",
"D  c #7E8C8F",
"F  c #6B8690",
"G  c #6F8891",
"H  c #738C95",
"J  c #798F97",
"K  c #738F99",
"L  c #76929B",
"P  c #7A949D",
"I  c #7C97A1",
"U  c #7D9AA4",
"Y  c #829CA6",
"T  c #819EA9",
"R  c #8CA1A6",
"E  c #84A2AD",
"W  c #8AA4AE",
"Q  c #92A6AA",
"!  c #97A8AB",
"~  c #87A5B0",
"^  c #88A7B2",
"/  c #8BAAB5",
"(  c #8FAEB9",
")  c #90AFBA",
"_  c #91B1BC",
"`  c #A3B8BE",
"'  c #94B5C1",
"]  c #9FB9C0",
"[  c #99BBC8",
"{  c #A1BBC3",
"}  c #A0BFCB",
"|  c #A7C4CC",
" . c #B0C2C5",
".. c #B3C6C9",
"X. c #A6C9D6",
"o. c #ABCAD4",
"O. c #AACDDA",
"+. c #B2CED5",
"@. c #B1D3DE",
"#. c #B9D6DD",
"$. c #B9DDEB",
"%. c #D3EDF2",
"&. c #D0F1FA",
"*. c #DEF8FC",
"=. c #E2FCFF",
/* pixels */
"                                                                ",
"                      & i / H V &                               ",
"                    V ^ _ ' ' _ ^                               ",
"                  m T ^ ) _ _ _ _ d                             ",
"                d ^ ( ^ ^ ^ / / _ b                             ",
"                5 P I U E ^ ^ / _ H                             ",
"                  m I U E E E ^ ) G                             ",
"                  h K L U E E ^ ^ j > 6                         ",
"                  j A F I I E W I : 6 ' ' e                     ",
"                  2 U L P L b h r y Q T ' _ Y                   ",
"              % A / / ( n Q  ...} $.&.+.' H , h d               ",
"            r I C ^ ^ ( #.=.=.=.@.O.o./ ( S n S _ t             ",
"          Z Y r f P W ^ | o.| | T ^ ( W ^ n 3 v H               ",
"          B 0 i 0 f Y E U ^ ^ I L J J C 4 6 X 3 =               ",
"          2 C j + * H T L ` Q ` { [ [ Y                         ",
"            7       $ . l O.O.O.X.[ ) I                         ",
"                        * Y W Y k g p q $                       ",
"                    < V q v q q q q q q 9 -                     ",
"                  t h V A n q k q s z n I N +                   ",
"                  - b V G L G K J T T P P E b                   ",
"                  w Z V L A A Z F K H w A I m                   ",
"                  e l Z K B d 4 8 u N S J ! *                   ",
"                  & w c h 7 x @   o R =.=.=.<                   ",
"                    d x r V A       x %.=.=.<                   ",
"                    0 f L L A       & _ [ [ 4                   ",
"                    c f G U T :       v [ [ V                   ",
"                    - j A T T :       j E E d                   ",
"                      7 A T v         N f f 5                   ",
"                                      - # O @                   ",
"                                                                ",
"                                                                ",
"                                                                "
};
