/* XPM */
static char *out[] = {
/* columns rows colors chars-per-pixel */
"32 32 93 2 ",
"   c None",
".  c #151515",
"X  c #222526",
"o  c #23272A",
"O  c #242B2D",
"+  c #2A2D2E",
"@  c #262E32",
"#  c #2A2E31",
"$  c #273033",
"%  c #2A3436",
"&  c #2A353B",
"*  c #2F3A3E",
"=  c #323334",
"-  c #303A3E",
";  c #3C3D3D",
":  c #333E43",
">  c #364145",
",  c #3C4446",
"<  c #3A454A",
"1  c #3F4D52",
"2  c #444444",
"3  c #454748",
"4  c #444B4E",
"5  c #4B4B4B",
"6  c #434E52",
"7  c #494F51",
"8  c #445156",
"9  c #45545A",
"0  c #4A565A",
"q  c #4B595E",
"w  c #515556",
"e  c #55585A",
"r  c #4D5F66",
"t  c #545E62",
"y  c #5B5F61",
"u  c #556266",
"i  c #53656C",
"p  c #5B6768",
"a  c #55686F",
"s  c #5B686D",
"d  c #576B73",
"f  c #5B6B71",
"g  c #5D7077",
"h  c #5D7279",
"j  c #616D72",
"k  c #637176",
"l  c #62757C",
"z  c #6A777D",
"x  c #69787D",
"c  c #657C84",
"v  c #697E85",
"b  c #647E88",
"n  c #678087",
"m  c #6B8087",
"M  c #6C848D",
"N  c #75858B",
"B  c #6C8791",
"V  c #6E8992",
"C  c #718790",
"Z  c #738B94",
"A  c #798E96",
"S  c #738E99",
"D  c #77929B",
"F  c #7C959E",
"G  c #7B97A1",
"H  c #7D9AA4",
"J  c #849194",
"K  c #809BA5",
"L  c #829EA9",
"P  c #85A3AE",
"I  c #87A5B0",
"U  c #89A7B1",
"Y  c #8BA9B4",
"T  c #8EADB8",
"R  c #93ADB5",
"E  c #90AFBA",
"W  c #92B2BD",
"Q  c #94B5C0",
"!  c #9ABAC6",
"~  c #9ABCC9",
"^  c #ADBFC1",
"/  c #A2C2CD",
"(  c #B3C6C9",
")  c #ADCCD4",
"_  c #AACDDB",
"`  c #BAD1D5",
"'  c #BAD4DB",
"]  c #BCDCE6",
"[  c #BBE0EE",
"{  c #CCE3E6",
"}  c #CEE9EE",
"|  c #DBF8FD",
" . c #E2FCFF",
/* pixels */
"                          < O                                   ",
"                      d b Q Q G 1                               ",
"                    D Y W Q Q Q E -                             ",
"                < S H T T T T E E d                             ",
"                q Y Y T P I Y Y E v                             ",
"                O N G H I I I Y T D                             ",
"                  r G H L P I U T C                             ",
"                  6 V S H H L U Y r 6 D :                       ",
"                  9 b M F G G P M % < W Q L <                   ",
"                $ l Y S c v r 5 7 J { L Q Y J X                 ",
"            X m P Y Y Y ^ ` ( ` ] |  .' E A 4 c G               ",
"          C Z q u P I E }  . . .Q _ / Y Y v j N Q 8             ",
"          d k t f N L P R / W U P Y Y v H s = B D               ",
"          < v 4 % u H H P Y K F A K K Z O     &                 ",
"            g 9 . # S i A Y R ! _ ! ! K                         ",
"                        8 ! / / ! Y Y k                         ",
"                      : + A F s e 5 5 5 =                       ",
"                      b 3 f 5 5 5 5 5 w z s                     ",
"                    9 b N z 7 2 ; e N L G v q                   ",
"                  > h b B D G H P P D S S F d                   ",
"                  : V V D V V n M V V 0 0 i @                   ",
"                  r S S Z n i : : > i A K A O                   ",
"                  , f d f 3 :       i U Y T O                   ",
"                  O q 0 ; j D %       l ) ' p                   ",
"                    > l K L D         , ] _ M                   ",
"                    @ t P P L         7 ~ ~ Q                   ",
"                    i u N P U *       , h g 6                   ",
"                    & d M P I 6                                 ",
"                      : c H n @                                 ",
"                                                                ",
"                                                                ",
"                                                                "
};
