/* XPM */
static char *xpm_[] = {
/* columns rows colors chars-per-pixel */
"32 32 141 2 ",
"   c #0F0D18",
".  c #110E17",
"X  c #110E19",
"o  c #15121D",
"O  c #251B15",
"+  c #2E1817",
"@  c #2E1818",
"#  c #21273B",
"$  c #21283C",
"%  c #552109",
"&  c #5B230C",
"*  c #5F2610",
"=  c #722B0D",
"-  c #463222",
";  c #4A3522",
":  c #4F3821",
">  c #523A21",
",  c #543B28",
"<  c #6C4526",
"1  c #674927",
"2  c #674928",
"3  c #684928",
"4  c #704826",
"5  c #272D44",
"6  c #283047",
"7  c #2B334C",
"8  c #2F3752",
"9  c #323B59",
"0  c #374162",
"q  c #394365",
"w  c #874C1B",
"e  c #8A4E1C",
"r  c #8E511D",
"t  c #A64615",
"y  c #AB4715",
"u  c #A74C17",
"i  c #AC4915",
"p  c #B44C16",
"a  c #AC5319",
"s  c #BA5117",
"d  c #B65519",
"f  c #BB5318",
"g  c #BB5A1A",
"h  c #8D512E",
"j  c #8B5C29",
"k  c #9C5C25",
"l  c #905E29",
"z  c #8F5834",
"x  c #AD6425",
"c  c #AC642B",
"v  c #A46F2A",
"b  c #A6712A",
"n  c #A9732A",
"m  c #AC6738",
"M  c #AC683E",
"N  c #CD5C1A",
"B  c #C35E1C",
"V  c #D25F1B",
"C  c #D4611B",
"Z  c #DD661D",
"A  c #E56B1E",
"S  c #C15E23",
"D  c #DC6E20",
"F  c #DF7421",
"G  c #D27A24",
"H  c #C3793F",
"J  c #E06F20",
"K  c #E27221",
"L  c #F77A23",
"P  c #B27044",
"I  c #BD8031",
"U  c #C5872F",
"Y  c #CD8C2F",
"T  c #DD8126",
"R  c #D5852C",
"E  c #D98529",
"W  c #DD8C2C",
"Q  c #D5912F",
"!  c #C68830",
"~  c #CD9637",
"^  c #C4943B",
"/  c #D39A37",
"(  c #EE8427",
")  c #E4862A",
"_  c #EC852A",
"`  c #E28A29",
"'  c #F88426",
"]  c #F88729",
"[  c #F18C29",
"{  c #F88C2D",
"}  c #E3912B",
"|  c #F2952C",
" . c #FB972C",
".. c #FB9E2F",
"X. c #E88D36",
"o. c #E9873F",
"O. c #E58C38",
"+. c #F99130",
"@. c #FCA02F",
"#. c #FBA937",
"$. c #FAAC3D",
"%. c #C08744",
"&. c #C0894F",
"*. c #E48640",
"=. c #DDB046",
"-. c #E0B547",
";. c #E5BD4D",
":. c #F6B746",
">. c #FBBE48",
",. c #FAAE55",
"<. c #FAAF58",
"1. c #E1BB5E",
"2. c #C7A175",
"3. c #E7C14F",
"4. c #FCC249",
"5. c #E9C454",
"6. c #FDD456",
"7. c #FCD15D",
"8. c #F6D95B",
"9. c #FDDF5D",
"0. c #FDE05D",
"q. c #E7C76C",
"w. c #F7CD66",
"e. c #F7DE6E",
"r. c #FDD870",
"t. c #FEEB7B",
"y. c #FDE374",
"u. c #E2C283",
"i. c #EACE87",
"p. c #ECCE8A",
"a. c #F6C081",
"s. c #E2C696",
"d. c #E7CE9D",
"f. c #EAD39E",
"g. c #FDDF9F",
"h. c #FDE195",
"j. c #FEEDA6",
"k. c #F7E9A8",
"l. c #FFF6AE",
"z. c #FFFAC7",
"x. c None",
/* pixels */
"x.x.x.x.x.x.x.x.x.x.x.x.x.x.x.x.x.x.x.x.x.x.x.x.x.x.x.x.x.x.x.x.",
"x.x.x.x.x.x.x.x.x.x.x.x.x.x.x.x.x.x.x.x.x.x.x.x.x.x.x.x.x.x.x.x.",
"x.x.x.x.x.x.x.x.x.x.x.x.& = = = = = = & x.x.x.x.x.x.x.x.x.x.x.x.",
"x.x.x.x.x.x.x.x.x.x.x.x.e c m M M m c r x.x.x.x.x.x.x.x.x.x.x.x.",
"x.x.x.x.x.x.x.x.x.x.& e ^ 1.u.s.s.u.1.%.r * x.x.x.x.x.x.x.x.x.x.",
"x.x.x.x.x.x.x.x.x.x.w I 3.t.l.z.z.l.t.5.%.j x.x.x.x.x.x.x.x.x.x.",
"x.x.x.x.x.x.x.x.& r ^ 3.8.t.l.z.z.l.t.e.i.2.z & x.x.x.x.x.x.x.x.",
"x.x.x.x.x.x.x.x.r n 3.9.6.w.p.d.d.p.w.r.j.f.&.r x.x.x.x.x.x.x.x.",
"x.x.x.x.x.x.% w ^ ;.8.6.$.X.H P P H X.<.h.k.q.^ r % x.x.x.x.x.x.",
"x.x.x.x.x.x.= x -.0.6.:._ C d u y p V *.a.h.y.;.x = x.x.x.x.x.x.",
"x.x.x.x.x.x.= x -.6.:._ B g G T D N s S *.<.7.3.x = x.x.x.x.x.x.",
"x.x.x.x.x.x.* k =.>.+.Z i a } @.L Z y y D +.4.=.k * x.x.x.x.x.x.",
"x.x.x.x.x.x.@ < ~ $.] Z i a } ..' A y y Z ] #./ 4 + x.x.x.x.x.x.",
"x.x.x.x.x.x.X , ! @.' Z i a `  .' D y y Z ' ..Y , o x.x.x.x.x.x.",
"x.x.x.x.x.x.o , ! @.' A y i K ' L A y y Z ' @.Y , o x.x.x.x.x.x.",
"x.x.x.x.x.x.  - n W _ K f p C A A V p s K ( W n ; . x.x.x.x.x.x.",
"x.x.x.x.x.x.x.x.: j R [ K N f p p s N D [ E j > O x.x.x.x.x.x.x.",
"x.x.x.x.x.x.x.x.o - v W _ K g u t g J ( W n ; o x.x.x.x.x.x.x.x.",
"x.x.x.x.x.x.x.x.x.O > j R | ` E E ` | E l > O x.x.x.x.x.x.x.x.x.",
"x.x.x.x.x.x.x.x.x.x.. - b Q Q Q Q Q Q n ; o x.x.x.x.x.x.x.x.x.x.",
"x.x.x.x.x.x.x.x.x.x.x.O > 2 3 3 2 3 3 > O x.x.x.x.x.x.x.x.x.x.x.",
"x.x.x.x.x.x.x.x.x.x.x.x.X o o o o o o X x.x.x.x.x.x.x.x.x.x.x.x.",
"x.x.x.x.x.x.x.x.x.x.x.x.x.x.x.x.x.x.x.x.x.x.x.x.x.x.x.x.x.x.x.x.",
"x.x.x.x.x.x.x.x.x.x.x.x.x.x.x.x.x.x.x.x.x.x.x.x.x.x.x.x.x.x.x.x.",
"x.x.x.x.x.x.x.x.x.6 5 5 5 5 5 5 5 5 5 5 5 5 6 x.x.x.x.x.x.x.x.x.",
"x.x.x.x.x.x.x.x.8 q q q 0 q q q q q q q q q q 8 x.x.x.x.x.x.x.x.",
"x.x.x.x.x.x.x.7 9 q q q q q q q q q q q q q q 9 7 x.x.x.x.x.x.x.",
"x.x.x.x.x.x.5 9 0 q q q q q q q q q q q q q q 0 9 5 x.x.x.x.x.x.",
"x.x.x.x.x.x.x.# 9 q q q q q q q q q q q q q q 9 $ x.x.x.x.x.x.x.",
"x.x.x.x.x.x.x.x.6 9 9 9 9 9 9 9 9 9 9 9 9 9 9 6 x.x.x.x.x.x.x.x.",
"x.x.x.x.x.x.x.x.x.x.x.x.x.x.x.x.x.x.x.x.x.x.x.x.x.x.x.x.x.x.x.x.",
"x.x.x.x.x.x.x.x.x.x.x.x.x.x.x.x.x.x.x.x.x.x.x.x.x.x.x.x.x.x.x.x."
};
