/* XPM */
static char *result[] = {
/* columns rows colors chars-per-pixel */
"32 32 125 2 ",
"   c #174141",
".  c #2D8181",
"X  c #2E8282",
"o  c #2E8383",
"O  c #2E8484",
"+  c #2F8585",
"@  c #2F8686",
"#  c #2F8787",
"$  c #308787",
"%  c #308888",
"&  c #308989",
"*  c #308A8A",
"=  c #318A8A",
"-  c #318B8B",
";  c #318C8C",
":  c #328D8D",
">  c #328E8E",
",  c #328F8F",
"<  c #329090",
"1  c #339090",
"2  c #339191",
"3  c #339292",
"4  c #349393",
"5  c #349494",
"6  c #349595",
"7  c #359696",
"8  c #359797",
"9  c #359898",
"0  c #369999",
"q  c #369A9A",
"w  c #369B9B",
"e  c #379B9B",
"r  c #379C9C",
"t  c #379D9D",
"y  c #379E9E",
"u  c #389E9E",
"i  c #389F9F",
"p  c #38A0A0",
"a  c #39A1A1",
"s  c #39A2A2",
"d  c #39A3A3",
"f  c #39A4A4",
"g  c #3AA4A4",
"h  c #3AA5A5",
"j  c #3AA6A6",
"k  c #3BA7A7",
"l  c #3BA8A8",
"z  c #3BA9A9",
"x  c #3CAAAA",
"c  c #3CABAB",
"v  c #3CACAC",
"b  c #3DADAD",
"n  c #3DAEAE",
"m  c #3EAFAF",
"M  c #3EB0B0",
"N  c #3EB1B1",
"B  c #3FB3B3",
"V  c #3FB4B4",
"C  c #40B5B5",
"Z  c #40B6B6",
"A  c #40B7B7",
"S  c #41B8B8",
"D  c #41B9B9",
"F  c #42BBBB",
"G  c #42BCBC",
"H  c #42BDBD",
"J  c #43BDBD",
"K  c #44BDBD",
"L  c #45BEBE",
"P  c #46BEBE",
"I  c #47BEBE",
"U  c #48BFBF",
"Y  c #49BFBF",
"T  c #4ABFBF",
"R  c #4BC0C0",
"E  c #4CC0C0",
"W  c #4DC0C0",
"Q  c #4EC1C1",
"!  c #4FC1C1",
"~  c #50C2C2",
"^  c #51C2C2",
"/  c #52C2C2",
"(  c #53C3C3",
")  c #54C3C3",
"_  c #55C3C3",
"`  c #56C3C3",
"'  c #56C4C4",
"]  c #58C4C4",
"[  c #59C5C5",
"{  c #5AC5C5",
"}  c #5BC5C5",
"|  c #5CC6C6",
" . c #5DC6C6",
".. c #5EC6C6",
"X. c #60C7C7",
"o. c #61C8C8",
"O. c #62C8C8",
"+. c #63C8C8",
"@. c #64C8C8",
"#. c #64C9C9",
"$. c #65C9C9",
"%. c #66C9C9",
"&. c #67CACA",
"*. c #68CACA",
"=. c #69CACA",
"-. c #6ACBCB",
";. c #6BCBCB",
":. c #6DCCCC",
">. c #6ECCCC",
",. c #6FCDCD",
"<. c #72CDCD",
"1. c #73CECE",
"2. c #74CECE",
"3. c #76CFCF",
"4. c #78D0D0",
"5. c #7DD1D1",
"6. c #80D2D2",
"7. c #81D3D3",
"8. c #82D3D3",
"9. c #88D5D5",
"0. c #8AD6D6",
"q. c #8BD6D6",
"w. c #8CD7D7",
"e. c #93D9D9",
"r. c None",
/* pixels */
"r.r.r.r.r.r.r.r.r.r.r.r.r.r.r.r.r.r.r.r.r.r.r.r.r.r.r.r.r.r.r.r.",
"r.r.r.r.r.r.r.r.r.r.r.r.r.r.r.r.r.r.r.r.r.r.r.r.r.r.r.r.r.r.r.r.",
"r.r.r.r.r.r.r.r.r.r.r.r.r.-.2.1.,.O./ T r.r.r.r.r.r.r.r.r.r.r.r.",
"r.r.r.r.r.r.r.r.r.r.r.=.7.9.5.:.%.o.[ ' ! J r.r.r.r.r.r.r.r.r.r.",
"r.r.r.r.r.r.r.r.r.' ;.2.3.>.%.#.O.[ H A L K D r.r.r.r.r.r.r.r.r.",
"r.r.r.r.r.r.r.r.F O.*.o.-.8.w.6.&./ W K n l v V r.r.r.r.r.r.r.r.",
"r.r.r.r.r.r.r.r.J } ] @.0.e.7.:.^ N R ` P j r c x r.r.r.r.r.r.r.",
"r.r.r.r.r.r.r.v F R  .3.q.7.>.$.E l Y ] ~ B i i j r.r.r.r.r.r.r.",
"r.r.r.r.r.r.r.k b J 3.7.<.%.[ | U h Y ] ^ L M 6 r y r.r.r.r.r.r.",
"r.r.r.r.r.r.r.p t ` 4.:. ._ D E I h Y ` R P F 0 3 w r.r.r.r.r.r.",
"r.r.r.r.r.r.0 8 0 X.%.} ! L K } I h K R P L L s - 7 4 r.r.r.r.r.",
"r.r.r.r.r.r.q 2 6 ( ] _ ) / ` +.I f A P L L K g % 3 4 r.r.r.r.r.",
"r.r.r.r.r.r.0 , : Z I U E W ! ..I d C L L G S t + > 4 r.r.r.r.r.",
"r.r.r.r.r.r.5 > $ l G L L L Y  .P s C K D V m 7 o < 4 r.r.r.r.r.",
"r.r.r.r.r.r.r.> O 9 n D K L Y | L p n C M b j ; o 4 r.r.r.r.r.r.",
"r.r.r.r.r.r.r.> + * u x Z F P { K y z m v h q + + 4 r.r.r.r.r.r.",
"r.r.r.r.r.r.r.1 - X - 6 u h n Q D e s h u 4 % o ; r.r.r.r.r.r.r.",
"r.r.r.r.r.r.r.r.> + . $ 6 e d F n 7 0 e 2 + . % > r.r.r.r.r.r.r.",
"r.r.r.r.r.r.r.r.> & . . & 3 r z a 4 6 2 # . X ; r.r.r.r.r.r.r.r.",
"r.r.r.r.r.r.r.r.r.: = @ . X @ $ $ + O . . + * r.r.r.r.r.r.r.r.r.",
"r.r.r.r.r.r.r.r.r.r.r.; % + X o o X . O & - r.r.r.r.r.r.r.r.r.r.",
"r.r.r.r.r.r.r.r.r.r.r.r.r.> : ; ; ; : > r.r.r.r.r.r.r.r.r.r.r.r.",
"r.r.r.r.r.r.r.r.r.r.r.r.r.r.r.r.r.r.r.r.r.r.r.r.r.r.r.r.r.r.r.r.",
"r.r.r.r.r.r.r.r.r.r.r.r.r.r.r.r.r.r.r.r.r.r.r.r.r.r.r.r.r.r.r.r.",
"r.r.r.r.r.r.r.r.r.r.r.r.r.r.r.r.r.r.r.r.r.r.r.r.r.r.r.r.r.r.r.r.",
"r.r.r.r.r.r.r.r.r.r.r.r.                r.r.r.r.r.r.r.r.r.r.r.r.",
"r.r.r.r.r.r.r.r.                                r.r.r.r.r.r.r.r.",
"r.r.r.r.r.r.r.                                    r.r.r.r.r.r.r.",
"r.r.r.r.r.r.r.r.                              r.r.r.r.r.r.r.r.r.",
"r.r.r.r.r.r.r.r.r.r.r.r.r.            r.r.r.r.r.r.r.r.r.r.r.r.r.",
"r.r.r.r.r.r.r.r.r.r.r.r.r.r.r.r.r.r.r.r.r.r.r.r.r.r.r.r.r.r.r.r.",
"r.r.r.r.r.r.r.r.r.r.r.r.r.r.r.r.r.r.r.r.r.r.r.r.r.r.r.r.r.r.r.r."
};
