/* XPM */
static char *result[] = {
/* columns rows colors chars-per-pixel */
"32 32 94 2 ",
"   c #1B1B1B",
".  c #2A211B",
"X  c #2B2A1B",
"o  c #3A281B",
"O  c #3A311B",
"+  c #3B3A1B",
"@  c #472D1B",
"#  c #52321B",
"$  c #55331B",
"%  c #6E3D1B",
"&  c #4A471B",
"*  c #56521B",
"=  c #58551B",
"-  c #736E1B",
";  c #8A491B",
":  c #8B511B",
">  c #9F521B",
",  c #AB571B",
"<  c #B75C1B",
"1  c #DA6A1B",
"2  c #DB701B",
"3  c #E46E1B",
"4  c #EF731B",
"5  c #F2761B",
"6  c #F2781B",
"7  c #F37A1B",
"8  c #F37B1B",
"9  c #F37F1B",
"0  c #90831B",
"q  c #918A1B",
"w  c #BC8D1B",
"e  c #A79F1B",
"r  c #B4AB1B",
"t  c #F4821B",
"y  c #F4831B",
"u  c #F4881B",
"i  c #F58D1B",
"p  c #F58E1B",
"a  c #E9971B",
"s  c #F5931B",
"d  c #F69A1B",
"f  c #F69B1B",
"g  c #F69C1B",
"h  c #F79C1B",
"j  c #F79D1B",
"k  c #C1B71B",
"l  c #F7A21B",
"z  c #F7A41B",
"x  c #F8A91B",
"c  c #F8AD1B",
"v  c #F9B01B",
"b  c #F9B21B",
"n  c #F9B51B",
"m  c #FAB71B",
"M  c #F7BE1B",
"N  c #FAB91B",
"B  c #FABA1B",
"V  c #FABC1B",
"C  c #FABF1B",
"Z  c #EECA1B",
"A  c #FBC11B",
"S  c #FBC21B",
"D  c #FBC41B",
"F  c #FBC51B",
"G  c #FBC71B",
"H  c #FBC91B",
"J  c #FBCA1B",
"K  c #FCCA1B",
"L  c #FCCB1B",
"P  c #FCCD1B",
"I  c #FCCE1B",
"U  c #E5D61B",
"Y  c #E6DA1B",
"T  c #FCD01B",
"R  c #FCD11B",
"E  c #FCD41B",
"W  c #FCD51B",
"Q  c #FDD61B",
"!  c #FDDB1B",
"~  c #FDDC1B",
"^  c #F1E41B",
"/  c #FDE01B",
"(  c #FEE31B",
")  c #FEE41B",
"_  c #FEE71B",
"`  c #FEE91B",
"'  c #FEEA1B",
"]  c #FEEC1B",
"[  c #FCEF1B",
"{  c #FFEE1B",
"}  c #FFEF1B",
"|  c #FFF01B",
" . c #FFF11B",
".. c None",
/* pixels */
"................................................................",
"................................................................",
"................................................................",
"................................................................",
"..................                            ..................",
"................& * = = = = = = = = = = = = * & ................",
"..............X - e r r r r r r r r r r r r e - X ..............",
"............. O 0 U } } } } } } } } } } |  .Y q + X ............",
"..........@ % : w Z ~ ~ ~ ~ ~ ~ ~ ~ ~ ~ ( ] ^ k q - & ..........",
"........  # > 2 a M J J J J J J J J J J Q _ [ ^ Y e *     ......",
"........  $ , 7 d B D D F K T R R T K F I ~ _ ]  .r =     ......",
"........  $ , 7 d B D D G E / ) ) / E G H I Q ( | r =     ......",
"........  $ , 7 d B S C A W ` { { ' ! L G F J ~ } r =     ......",
"........  $ , 7 d B N x l V W ! ! ! ! ! E K J ~ } r =     ......",
"........  $ , 7 d B v s y l A H H P ! ' / T J ~ } r =     ......",
"........  $ , 7 d B c i 8 f V D D H ! { ) R J ~ } r =     ......",
"........  $ , 7 d B c i 8 f V D D H ! { ) R J ~ } r =     ......",
"........  $ , 7 d B v s t g n V V A W ` / T J ~ } r =     ......",
"........  $ , 7 d B N x j h g f f l V W E K J ~ } r =     ......",
"........  $ , 7 d B S C m j t 8 8 y l A G F J ~ } r =     ......",
"........  $ , 6 p z b V C x s i i s x C D D J ~ } r =     ......",
"........  $ , 5 9 u f b S N v c c v N S D D J ~ } r =     ......",
"........  # > 1 3 4 u z B B B B B B B B B B M Z U e *     ......",
"..........@ % ; < 3 9 p d d d d d d d d d d a w 0 - & ..........",
"............. o ; 1 5 6 7 7 7 7 7 7 7 7 7 7 2 : O X ............",
"............... % > , , , , , , , , , , , , > % . ..............",
"................@ # $ $ $ $ $ $ $ $ $ $ $ $ # @ ................",
"..................                            ..................",
"..................                            ..................",
"................................................................",
"................................................................",
"................................................................"
};
