/* XPM */
static char *result[] = {
/* columns rows colors chars-per-pixel */
"32 32 180 2 ",
"   c #0F1328",
".  c #0F132A",
"X  c #0E142B",
"o  c #0F152C",
"O  c #10142B",
"+  c #10132C",
"@  c #10162D",
"#  c #10172D",
"$  c #11172E",
"%  c #11182F",
"&  c #161D2C",
"*  c #141F2E",
"=  c #0A123C",
"-  c #131731",
";  c #191732",
":  c #101930",
">  c #101B30",
",  c #141832",
"<  c #151933",
"1  c #161832",
"2  c #171933",
"3  c #151B33",
"4  c #141834",
"5  c #141934",
"6  c #151935",
"7  c #151A35",
"8  c #161A34",
"9  c #161A36",
"0  c #161B37",
"q  c #171B37",
"w  c #141D34",
"e  c #151E35",
"r  c #171E35",
"t  c #181833",
"y  c #1D1F33",
"u  c #191934",
"i  c #191B35",
"p  c #181E35",
"a  c #171C38",
"s  c #161C39",
"d  c #191C3A",
"f  c #181C3B",
"g  c #1A1D3B",
"h  c #191D3C",
"j  c #1B272E",
"k  c #1C282B",
"l  c #172437",
"z  c #182033",
"x  c #1D2333",
"c  c #192134",
"v  c #1A2334",
"b  c #1A2235",
"n  c #1C2534",
"m  c #1C2734",
"M  c #1F2734",
"N  c #1B2A30",
"B  c #1D2A34",
"V  c #1E2B35",
"C  c #1D2837",
"Z  c #1F2C36",
"A  c #1F2D36",
"S  c #202933",
"D  c #202935",
"F  c #202F35",
"G  c #223035",
"H  c #223236",
"J  c #223237",
"K  c #243636",
"L  c #273737",
"P  c #273835",
"I  c #253B36",
"U  c #293D36",
"Y  c #233238",
"T  c #253338",
"R  c #27323A",
"E  c #243438",
"W  c #28353A",
"Q  c #2A3F38",
"!  c #1F2C54",
"~  c #1F2E57",
"^  c #1F3057",
"/  c #202E56",
"(  c #212F57",
")  c #212F58",
"_  c #223059",
"`  c #233059",
"'  c #203259",
"]  c #213259",
"[  c #23315A",
"{  c #22325B",
"}  c #24325B",
"|  c #20365A",
" . c #23325D",
".. c #25335C",
"X. c #24335E",
"o. c #24345D",
"O. c #26345D",
"+. c #24345F",
"@. c #25345F",
"#. c #273959",
"$. c #27395F",
"%. c #2A3A5D",
"&. c #253560",
"*. c #263561",
"=. c #263661",
"-. c #263763",
";. c #273960",
":. c #263962",
">. c #273A63",
",. c #273C61",
"<. c #263864",
"1. c #273864",
"2. c #283863",
"3. c #293D60",
"4. c #293964",
"5. c #293C65",
"6. c #2C3F6E",
"7. c #2D3F71",
"8. c #2F3F70",
"9. c #2D4561",
"0. c #2C4463",
"q. c #2E4563",
"w. c #2D4164",
"e. c #2D4165",
"r. c #355264",
"t. c #385463",
"y. c #3A5862",
"u. c #2E4170",
"i. c #2E4072",
"p. c #0A7260",
"a. c #0B7162",
"s. c #0A7462",
"d. c #087662",
"f. c #7FF11B",
"g. c #24967A",
"h. c #249C7A",
"j. c #209B7D",
"k. c #22A17B",
"l. c #25A079",
"z. c #24A67D",
"x. c #28A97E",
"c. c #82EE06",
"v. c #88ED00",
"b. c #8FEC00",
"n. c #91EF00",
"m. c #85F403",
"M. c #8BF100",
"N. c #89F300",
"B. c #8DF300",
"V. c #8CF500",
"C. c #88F706",
"Z. c #8AF800",
"A. c #89FB00",
"S. c #8CFE00",
"D. c #8AFE04",
"F. c #91F000",
"G. c #92F000",
"H. c #95F400",
"J. c #96F500",
"K. c #95F800",
"L. c #90FF01",
"P. c #95FF00",
"I. c #93FF0A",
"U. c #83EF16",
"Y. c #87FF13",
"T. c #84FE15",
"R. c #8CFF17",
"E. c #85FF18",
"W. c #90FF12",
"Q. c #90FF14",
"!. c #93FF14",
"~. c #92FF16",
"^. c #A4FF54",
"/. c #A1FF5B",
"(. c #ACFF5B",
"). c #ABFF5E",
"_. c #ADFF5F",
"`. c #ADFF60",
"'. c #ACFF62",
"]. c None",
/* pixels */
"].].].].].].].].].].].].].].].].].].].].].].].].].].].].].].].].",
"].].].].].].].].].].].]., , ].].].].].].].].].].].].].].].].].].",
"].].].].].].].].].].].]., , ].].].].].].].].].].].].].].].].].].",
"].].].].].].].].].].].]., , ].].].].].].].].].].].].].].].].].].",
"].].].].].].].].].].].]., , ].].< ].].].].].].].].].].].].].].].",
"].].].].].].].].].].].]., 5 ].9 ].].].].].].].].].].].].].].].].",
"].].].].].].].].].w 3 5 4 . 0 6.7.7.7.u.i.].].].].].].].].].].].",
"].].].].].].].].].l e 3 X @ ] -.<.1.1.7.7.7.8.].].].].].].].].].",
"].].].].].].].x.z.j.p.# ^ _ =.=.=.:.2.>.4.1.7.u.u.].].].].].].].",
"].].].].].].].R.E.k.d.> ) *.&.+.o.$.3.9.q.0.w.e.5.].].].].].].].",
"].].].].].].].W.Y.l.s.: ~ @. .o + * N U.y.t.r.].].].].].].].].].",
"].].].].].].]./.T.h.a.% { [ O   - D E D.Q.~.!.'.].].].].].].].].",
"].].].].].].].].f.g.| $ _ O   ; , S U L.(.`._.J.].].].].].].].].",
"].].].].].].].;.,.;.' @ O . ; , , M K A.I.P.K.H.].].].].].].].].",
"].].].].].].6 9 +.( ^ / ! 4 t , , x k c.Z.S.b.].].].].].].].].].",
"].].].].].].5 < 7 0 ) &.].< , 1 , y & j W R ].].].].].].].].].].",
"].].].].]., , , < 7 0 ].].].2 1 , u 8 q / @.].].].].].].].].].].",
"].].].].].]., f g 6 ..].].].].2 < i a ( @.&.].].].].].].].].].].",
"].].].].].]., g h < 7 O.].].].].8 q ^ X.s ].].].].].].].].].].].",
"].].].].].]., , f < < 9 ..].].].].].}  .0 6 ].].].].].].].].].].",
"].].].].].]., , f f < < r %.].].].].9 9 [ 9 p ].].].].].].].].].",
"].].].].].].]., , 4 f < z C Y T ].].6 < 9 ` b Z J ].].].].].].].",
"].].].].].].].]., , f d c G C.^.].].].6 < 7 #.E C.).].].].].].].",
"].].].].].].].].]., , , m L B.H.].].].].6 5 A Q M.H.].].].].].].",
"].].].].].].].].].]., , v H V.F.].].].].]., B I v.n.].].].].].].",
"].].].].].].].].].].]., v F N.G.].].].].].].V P m.n.].].].].].].",
"].].].].].].].].].].].].z n n ].].].].].].].].B B ].].].].].].].",
"].].].].].].].].].].].].].].].].].].].].].].].].].].].].].].].].",
"].].].].].].].].].].].= = = = = = = = = = = ].].].].].].].].].].",
"].].].].].].].= = = = = = = = = = = = = = = = = = = ].].].].].].",
"].].].].].].].].].= = = = = = = = = = = = = = = ].].].].].].].].",
"].].].].].].].].].].].].].].].].].].].].].].].].].].].].].].].]."
};
