/* XPM */
static char *xpm_[] = {
/* columns rows colors chars-per-pixel */
"25 25 199 2 ",
"   c black",
".  c #020202",
"X  c gray1",
"o  c #040404",
"O  c gray2",
"+  c #060606",
"@  c #070707",
"#  c gray3",
"$  c #090909",
"%  c gray4",
"&  c #0B0B0B",
"*  c gray5",
"=  c #0E0E0E",
"-  c gray6",
";  c #101010",
":  c #111111",
">  c gray7",
",  c #131313",
"<  c gray8",
"1  c #151515",
"2  c #161616",
"3  c gray9",
"4  c #181818",
"5  c #191919",
"6  c #1B1B1B",
"7  c gray11",
"8  c #1D1D1D",
"9  c #1E1E1E",
"0  c gray12",
"q  c #202020",
"w  c #252525",
"e  c gray15",
"r  c #272727",
"t  c #282828",
"y  c gray16",
"u  c #2A2A2A",
"i  c gray17",
"p  c #2C2C2C",
"a  c #2F2F2F",
"s  c gray19",
"d  c #313131",
"f  c #353535",
"g  c gray21",
"h  c #373737",
"j  c gray22",
"k  c #393939",
"l  c #3A3A3A",
"z  c #3C3C3C",
"x  c gray24",
"c  c #3E3E3E",
"v  c #3F3F3F",
"b  c gray25",
"n  c #414141",
"m  c gray26",
"M  c #434343",
"N  c gray27",
"B  c #464646",
"V  c gray28",
"C  c #484848",
"Z  c gray29",
"A  c #4B4B4B",
"S  c #4C4C4C",
"D  c gray30",
"F  c #4E4E4E",
"G  c #505050",
"H  c #515151",
"J  c gray33",
"K  c #555555",
"L  c #565656",
"P  c gray34",
"I  c #585858",
"U  c gray35",
"Y  c #5A5A5A",
"T  c #5B5B5B",
"R  c gray36",
"E  c #5D5D5D",
"W  c gray37",
"Q  c #5F5F5F",
"!  c #606060",
"~  c #626262",
"^  c gray39",
"/  c #646464",
"(  c #656565",
")  c gray40",
"_  c #676767",
"`  c #686868",
"'  c DimGray",
"]  c #6A6A6A",
"[  c gray42",
"{  c #6D6D6D",
"}  c #6F6F6F",
"|  c gray44",
" . c #727272",
".. c gray45",
"X. c gray46",
"o. c #777777",
"O. c gray47",
"+. c #797979",
"@. c gray48",
"#. c #7B7B7B",
"$. c gray49",
"%. c gray50",
"&. c #838383",
"*. c gray52",
"=. c #868686",
"-. c #898989",
";. c gray54",
":. c gray55",
">. c gray56",
",. c gray57",
"<. c #939393",
"1. c gray58",
"2. c #959595",
"3. c #979797",
"4. c gray60",
"5. c #9B9B9B",
"6. c gray61",
"7. c gray62",
"8. c gray63",
"9. c #A2A2A2",
"0. c gray64",
"q. c #A4A4A4",
"w. c gray65",
"e. c #A7A7A7",
"r. c gray66",
"t. c #A9A9A9",
"y. c #AAAAAA",
"u. c gray67",
"i. c gray68",
"p. c #AEAEAE",
"a. c #AFAFAF",
"s. c #B1B1B1",
"d. c gray70",
"f. c #B4B4B4",
"g. c gray71",
"h. c #B6B6B6",
"j. c #B7B7B7",
"k. c gray72",
"l. c #B9B9B9",
"z. c #BCBCBC",
"x. c gray74",
"c. c gray",
"v. c #C1C1C1",
"b. c gray76",
"n. c #C3C3C3",
"m. c gray77",
"M. c #C5C5C5",
"N. c gray78",
"B. c #C8C8C8",
"V. c gray79",
"C. c #CACACA",
"Z. c #CBCBCB",
"A. c gray80",
"S. c #CDCDCD",
"D. c #CECECE",
"F. c gray81",
"G. c gray82",
"H. c #D2D2D2",
"J. c gray83",
"K. c #D5D5D5",
"L. c gray84",
"P. c #D7D7D7",
"I. c #D8D8D8",
"U. c gray85",
"Y. c #DADADA",
"T. c gray86",
"R. c gainsboro",
"E. c #DDDDDD",
"W. c gray87",
"Q. c #DFDFDF",
"!. c gray88",
"~. c #E1E1E1",
"^. c #E2E2E2",
"/. c gray89",
"(. c #E4E4E4",
"). c gray90",
"_. c #E6E6E6",
"`. c #E7E7E7",
"'. c #E9E9E9",
"]. c #EAEAEA",
"[. c gray92",
"{. c #ECECEC",
"}. c gray93",
"|. c #EEEEEE",
" X c #EFEFEF",
".X c gray94",
"XX c #F1F1F1",
"oX c gray95",
"OX c #F3F3F3",
"+X c #F4F4F4",
"@X c gray96",
"#X c #F8F8F8",
"$X c #F9F9F9",
"%X c #FBFBFB",
"&X c gray99",
"*X c #FDFDFD",
"=X c #FEFEFE",
"-X c white",
";X c None",
/* pixels */
";X;X;X;X;X;X;X;X;X;X;X;X;X;X;X;X;X;X;X;X;X;X;X;X;X",
";X;X;X;X;X;X;X;X                    ;X;X;X;X;X;X;X",
";X;X;X;X;Xt ..y.F.P.'.'. X'. X).~.P.k.0.{ s ;X;X;X",
";X;X;X;Xk m.-X-X-X-X-X-X-X-X-X-X-X-X-X-X-XC.k ;X;X",
";X;X;X9 4.~. XOX+X+XOX'.~.).~.~.~.Q.I.I.~.).v.* ;X",
";X;X# o.w.d.C.I.Q.~.0.x t t r r r 9 1 6 9 x 0.9 ;X",
";X;X9 7.y.k.H.P.I.I.>     @ * > # @     # > o.# ;X",
";X;Xm y...k 4.I.I.k.@ # x v.~.).m.H #   T 1 T ;X;X",
";X;X^ O.m ] J v.I.<.@ 6 w.'. XOX XC.9 @ ] t D ;X;X",
";X> { m T :.o.$.Q.E @ k Q.2.d.F.7.).h   T J k @ ;X",
";X6 { Z Z &.=...k.T # m ).F.P.).H.'.m @ Z ] ^ 9 ;X",
";X9 ..J ] J -.Z E 0.> J '. X:.O.'. XJ > D ) ..r ;X",
";Xq $.k Z T o.^ P.v.> J '.'.v.c. X XD > ^ O.^ 9 ;X",
";Xt i.s h E ^ J '.~.> J  X XOXOX X'.V * O.O.V > ;X",
";X) F.=.m Z x T $X+X6 x 7.T <.2.) y.s * <.^ t ;X;X",
"# d.F.C.<.T E i. X-Xm 9 t 9 r r 9 t 9 # c.s @ ;X;X",
"x F.F.F.I.Q.I.H.F.'.F.V t J 7.m.H.P.$.Z m.@ ;X;X;X",
"J F.F.F.I.-X-X$XP.g.y.g.k.{ g.+X+X+Xd.=.h ;X;X;X;X",
"a F.F.F.H.$X-X-X-Xv.d.d.i.T H ^ ] J s # ;X;X;X;X;X",
"  ..C.C.C.'.-X-XI.C.4.$XOX'.'.I.y.1 ;X;X;X;X;X;X;X",
";X* T y.O.P.$XC.s 2.O.OXOX'.~.v.V @ ;X;X;X;X;X;X;X",
";X;X;X# > <.P.-.1 ] O.F.F.F.-.q o.  ;X;X;X;X;X;X;X",
";X;X;X;X;X9 m.<.D x E ..T 6 > w.H ;X;X;X;X;X;X;X;X",
";X;X;X;X;X  H :.x @   ;X;X;X  1   ;X;X;X;X;X;X;X;X",
";X;X;X;X;X;X    ;X;X;X;X;X;X;X;X;X;X;X;X;X;X;X;X;X"
};
