/* XPM */
static char *result[] = {
/* columns rows colors chars-per-pixel */
"64 64 127 2 ",
"   c #231C19",
".  c #2A1F1C",
"X  c #2F211E",
"o  c #31221F",
"O  c #342621",
"+  c #3A2523",
"@  c #372925",
"#  c #392C27",
"$  c #3B2E29",
"%  c #3E302B",
"&  c #3E3835",
"*  c #432927",
"=  c #452E29",
"-  c #482B2A",
";  c #502F2D",
":  c #4C302E",
">  c #53332F",
",  c #4B3730",
"<  c #463937",
"1  c #5A3231",
"2  c #523C36",
"3  c #5A3A33",
"4  c #543B39",
"5  c #613635",
"6  c #653837",
"7  c #643E39",
"8  c #6B3D3A",
"9  c #5E443E",
"0  c #60433B",
"q  c #74413F",
"w  c #504540",
"e  c #634C44",
"r  c #694C44",
"t  c #684C4B",
"y  c #794040",
"u  c #7E4D44",
"i  c #774F49",
"p  c #6A5047",
"a  c #6C534A",
"s  c #78594F",
"d  c #6E5B59",
"f  c #745E56",
"g  c #7C5F54",
"h  c #736968",
"j  c #75716F",
"k  c #7A726E",
"l  c #854545",
"z  c #884747",
"x  c #824945",
"c  c #844C49",
"v  c #8B4A49",
"b  c #914E4B",
"n  c #855147",
"m  c #825249",
"M  c #8F504E",
"N  c #8B594F",
"B  c #93524E",
"V  c #98544F",
"C  c #92584E",
"Z  c #865F57",
"A  c #895D52",
"S  c #975651",
"D  c #995551",
"F  c #9F5B54",
"G  c #9E5D58",
"H  c #A35D55",
"J  c #A15F59",
"K  c #8E665A",
"L  c #99635C",
"P  c #91685C",
"I  c #A36156",
"U  c #A6635A",
"Y  c #AE665B",
"T  c #AA6A5E",
"R  c #B0665C",
"E  c #B56B5F",
"W  c #8E6D60",
"Q  c #84736D",
"!  c #8E756C",
"~  c #967064",
"^  c #997366",
"/  c #99776A",
"(  c #9D786B",
")  c #877A79",
"_  c #A76A63",
"`  c #AD6D64",
"'  c #B56D62",
"]  c #A57265",
"[  c #AD7068",
"{  c #A47C6E",
"}  c #AE7A6F",
"|  c #BB7366",
" . c #B4776B",
".. c #BA7669",
"X. c #B7786D",
"o. c #BC7D70",
"O. c #C07A6D",
"+. c #C37F71",
"@. c #B28374",
"#. c #BE8577",
"$. c #BA8D7D",
"%. c #C58274",
"&. c #C88576",
"*. c #C48A7D",
"=. c #CB8B7C",
"-. c #948985",
";. c #BC9080",
":. c #A29D9B",
">. c #ACAAA8",
",. c #C39282",
"<. c #CC9382",
"1. c #CE9D8B",
"2. c #D49685",
"3. c #D49B8A",
"4. c #DB9F8D",
"5. c #D5A18F",
"6. c #DBA08D",
"7. c #D7A491",
"8. c #DDA592",
"9. c #DEA995",
"0. c #E1A794",
"q. c #E2A996",
"w. c #E5AD9A",
"e. c #E7B09C",
"r. c #CECBCA",
"t. c #E3E2E2",
"y. c white",
/* pixels */
"y.y.t.>.j &                                                                                                         & j >.t.y.y.",
"y.y.t.>.j &                                                                                                         & j >.t.y.y.",
"t.t.r.:.j 9 % % # # # # $ $ $ O X     X @ $ # # $ $ $ $ $ $ % % # # % # # % # # $ $ $ O X X   . O $ $ $ $ $ $ $ $ $ 9 j :.r.t.t.",
">.>.:.-.Q f a a a a a a a a w 9 % X X % 9 w a a a a a a a a a a a a a a a a a a a a e 2 % . X $ 9 e a a a a a a a a d k -.:.>.>.",
"j j j Q ! / / / ( ( ( ( / ( W a 2 O O 9 a W ( ( / ( ( ( ( ( ( ( ( ( ( ( ( ( ( ( ( ( W a 9 O @ 2 t Q ( ( ( ( / / ( ( / ! Q k j j ",
"& < w f / ;.1.1.1.1.1.1.1.1.$.W e # $ w W $.1.1.1.1.1.1.1.1.1.1.1.1.1.1.1.1.1.1.1.1.$.W w @ $ e W $.1.1.1.1.1.1.1.1.;./ f w & & ",
"    % a ( 1.w.9.5.5.5.5.7.9.1.^ r $ $ a ( 1.w.w.w.9.0.0.0.0.0.0.0.0.0.0.0.0.9.9.8.5.;.W p $ $ r W ,.9.9.5.1.1.7.9.e.1.( a # X   ",
"    $ a ( 1.9.1.$.@.{ @.$.=.$.K e # $ a ( 1.w.0.5.3.2.2.2.2.2.2.2.2.2.2.2.2.<.<.<.*.} K 9 @ # r P $.=.*.@.@.@.@.1.9.1./ a #     ",
"    $ a @.1.7.@.~ f a K ] #. .N e + $ a ( 1.q.4.=.&.&.%.&.+.&.+.&.&.&.&.+.+.+.O.| [ G i 4 O + 0 A  .#.] K s g ^ $.5.1.( a $     ",
"    $ a @.1.1.@.s 9 0 q A T T n 3 O $ a ( 1.0.3.=.O.| | | O.| O.....| | O.E O.Y J S c 7 - O O 3 m U Y N 0 = 9 g @.1.1.( a $     ",
"    $ a k $.1.@.s , = 0 n I I q 3 O $ r ~ ,.3.=.%.E R R R R R R Y Y R R R R Y F S v y 5 - o O 3 q T I n 0 = , s ( 1.1.( a $     ",
"    $ 9 @.1.7.@.K 0 0 q C T T q 3 O O 9 Z } #.X.' Y H H H H H H H H H H H H F V v z y 5 - . O 3 q I Y C u 0 q K @.5.1./ a $     ",
"    $ a @.$.1.$.] N n C I Y I q 3 O O 4 i L _ U H D D V V V V V V V D D V V V b v z y 5 - o O 3 n I Y I C n N ] $.7.1.( a $     ",
"    $ a @.5.9.=.@.T I T Y E I n 3 O O - 7 x S B b v v v v v v v v v v b v v z z z z y 5 - X O 3 n I E T Y I T #.<.9.1.( a $     ",
"    $ a @.$.e.=.&.| E E E E I q 3 O X * 1 8 y q y y y y 8 l q q q 8 l 8 y 8 l y y y 8 1 * X O 3 q I E E E E ..&.2.0.1.( a $     ",
"    $ a @.=.w.=.&.| E E E | I n 3 O . + - 1 5 5 5 5 5 5 5 5 6 5 5 5 6 5 6 6 5 5 5 5 1 - + . O 3 n I E E E E ..&.2.0.1./ a #     ",
"    $ a @.$.9.1.&.| E E E E I u 0 o . o O = = = % = = = = = = = - - = = = = = % = = = O O   X 0 q I E E E E | &.=.q.$.@.p $     ",
"    $ a @.$.e.=.&.| E E E E I u 3 O     . o X X . . o o o o X X X o o o o X X X X X X .     o > n I E E E E | &.=.q.$.@.a $     ",
"    $ a @.1.9.=.&.| E E E E I u 3 O   . # % # # & $ $ @ $ $ $ $ # # $ $ $ $ $ $ # $ # O . . . 0 q I E E E E %.&.=.e.=.@.a $     ",
"    $ a @.1.9.7.&.| E E E E I n 3 O X = 9 9 a q a a e 9 a a a a a a a a a a p 9 s 9 0 0 % .   0 n I E E E Y E &.=.e.9.@.a $     ",
"    $ a W 1.7.=.&.| E E E E I u 9 O . 9 a W @.W @.@.W @.@.@.@.@.( ( ( ( @./ / @.@.@.W a 0 O O 0 u T E E E E E %.=.e.$.k a $     ",
"    $ a @.$.9.1.&.| E E E E I u 9 O $ e W $.1.1.1.=.1.1.$.1.$.=.3.1.1.1.=.5.1.1.$.1.$.W 0 # O 0 q I E E E E %.&.=.e.$.@.a $     ",
"    $ a @.1.9.=.&.| E E E E I u 0   @ e @.1.w.e.e.e.e.w.9.9.e.e.0.0.0.0.9.9.9.9.e.9.1.@.s $ . 0 n I ' E E E %.&.=.e.1.@.a $     ",
"    % 9 ^ 1.w.6.&.| E E E E I u 0 . O 9 @.1.e.e.e.e.w.9.7.1.=.=.2.2.2.2.5.=.5.7.9.7.$.@.9 # o , q T ' E E E E &.=.e.$.@.a $     ",
"    $ a @.$.7.1.=.| E E E E I u 0 O # 9 @.$.9.e.e.e.9.7.=.=.&.&.&.&.&.&.&.&.=.2.9.e.=.@.9 @ X 0 u I E E E E | &.9.e.$.@.e $     ",
"    $ a @.1.9.=.&.@.E E E E I u , . $ s @.1.e.e.e.e.9.1.&.%.| | | | | ..| | O.=.=.w.7.@.a $   0 u I E E E E | &.=.9.$.@.a $     ",
"    $ a @.$.w.8.&.| E E E E I u 0 O $ a @.$.e.w.w.9.7.=.%.E E E E E E E E E | %.5.9.$.@.a $ O 0 u I E E E E | &.=.e.=.@.a $     ",
"    $ a @.=.q.=.&.| E E E E I u 0 O $ a @.=.9.9.6.5.=.=.%.| E E E E E E E E | &.=.w.$.W a $ O 0 u I E E E E | %.=.e.9.@.a $     ",
"    $ a @.$.9.=.&.| E E E E I u , O $ a @.$.e.7.=.=.%.%.| E E E E E E E E E | &.=.e.7.@.q # O 3 u I E E E E | %.=.9.$.@.a $     ",
"    $ a @.1.e.6.&.| E E E E I u 0 O $ a @.1.e.=.=.%.| | E E E E E E E E E E | &.=.w.5.@.a # O 3 u I E E E E %.%.=.9.$.@.a $     ",
"    $ a @.5.9.=.&.| E E E E I u > O # a @.$.9.5.&.| E E E E E E E E E E E E | O.&.=.$.@.p $ O 3 u I E E E E | %.=.7.$.@.e $     ",
"    $ a k $.9.=.&.| E E E E I u 3 O # q @.$.9.=.&.| E E E E E E E E E E E E | ..@.@.@.A 0 # o 0 u I E E E E E @.#.$.@.g w @     ",
"    $ a ( 1.0.2.&.| E E E E I u 3 O $ a ( 1.0.2.%.| E E E E E E E E E E E E E E ` _ L i 4 O O 3 u I ' E E E E E ` ` L i 3 @     ",
"    $ a ( 1.0.2.&...E E E E I u 3 O $ a ( 1.0.2.&.| E E E E E E E E E E E E R I H S c 8 - O O 3 u I E E E E R U G C c 8 : X     ",
"    $ a ( 1.0.2.&.| E E E E I u 3 O $ r ~ ,.3.<.+.| E E E E E E E E E E R R U H B v y 5 - X O 3 x I E E E E R H V v y 5 * X     ",
"    $ a ( 1.0.2.&.| E E E E I u 3 O + 9 Z } #.o...' E E E E E E E E E Y Y H F V b z y 5 - X O 3 u H E E E E R H V v y 5 - X     ",
"    $ a ( 1.0.2.&.| E E E E I u 3 O O 3 i L ` ` ' E E E E E E E E E R Y H D B b v z y 5 - . O 3 u I E E E E Y H D v y 5 - X     ",
"    $ a ( 1.0.2.&.| E E E E I u 3 O X : 8 v S F U R E E E E E E E E R H V b v v z z y 5 - o O 3 u I E E E E R H D v y 5 - X     ",
"    $ r ~ ;.4.=.+.| E E E E I u 3 O X - 6 y v b H I R R R R Y R R R H H B v l z z l y 5 - o O 3 u I E E E E R H B v y 5 * X     ",
"    @ 9 K } #.O...' E E E E I u 3 O X - 6 8 v b V H H H H H H H H H H V b z z l l l y 5 - o O 3 u I E E E E Y I D v y 5 - X     ",
"    O 2 i L ` ` ' E E E E E I u 3 O X - 5 y z v b B D V V V D V V V B b v z z z l l y 5 - X O 3 x I E E E E R H V v y 5 - X     ",
"    O : 8 x S G I R E E E E I u 3 O X - 5 y z z v v v v v v v v v v v z z z l l z l y 5 - X O 3 x H E E E E R H V v y 5 - o     ",
"    X - 5 y v S H R E E E E I u 3 O . * 1 8 y y y y y y y y y y l 8 8 l y y y y y y 8 1 * . O 3 u I E E E E R H V v y 5 - X     ",
"    X * 5 y v B H R E E E E I u 3 O . + - 1 5 5 5 5 5 5 5 5 5 5 5 5 5 5 5 5 5 5 5 5 1 - + . O 3 u I E E E E R H V v y 5 - X     ",
"    X - 5 y v D H R E E E E I u 4 O . o + * - - - - * * - * - - - - - - - - - - - - * + O   O 3 u I E E E E R H V v y 5 - X     ",
"    X - 5 y v V H Y E E E ' I u 3 O     . . . O o X O X X X X X X o o . o . . o X X . . .   O 3 u I E E E E R H V v y 5 - X     ",
"    X - 5 y v V H R E E E E I u 3 O . X O # $ $ $ $ $ $ $ $ % $ $ $ $ $ $ $ $ $ $ $ # O X . O 3 u I E E E E R H V v y 6 - X     ",
"    X - 5 y v V H R E E E E I u 3 O X $ 2 e a a a a a a a a a a i a a a a a a a a a e 2 $ X O 3 u I E E E E R H V v 8 5 - X     ",
"    X - 5 y v V H R E E E E I u 3 O O 2 a W ( ( ( ( ( ( ( ( ( ( ( ( ( ( ( ( ( ( ( ( W a 2 O O 3 u I E E E E Y H V b y 5 - o     ",
"    X - 6 y v V H R E E E E I u 3 O # e W ;.1.1.1.1.1.1.1.3.1.1.1.1.1.3.1.1.1.1.1.1.$.P w @ O 3 u I E E E E Y H V v y 5 - o     ",
"    X - 6 y v b V H H Y Y R I u 3 O $ a ( 1.w.w.q.0.9.0.0.0.0.0.9.0.0.0.0.0.8.8.9.7.,.~ a % O 3 q I E Y I I F V b v q 5 - X     ",
"    X - 6 8 z z l x n C I Y I u 3 O $ a ( 1.w.9.4.3.2.2.2.2.2.2.2.2.2.2.2.2.2.<.<.*.} Z 9 # O 3 n I Y I C n u u x x y 5 - X     ",
"    X - 5 8 l 8 q 3 0 x C Y L u 3 O $ a ( 1.q.4.2.&.&.&.%.&.&.&.&.&.&.&.%.%.%.o. .[ L i 3 O O 3 u I Y C q 0 0 q 8 l y 5 - X     ",
"    X - 6 y y 6 ; * - 0 n U I u 1 O $ a ( 1.0.3.=.O.| | | | | | | | | | | | | Y J S x 8 : o O 3 u I I n 0 ; + > 8 y y 5 - X     ",
"    X - 6 l y 6 ; o o 0 u I F q 4 O # t ~ ,.3.<.+.' R Y R R R R Y R R Y Y R U F S v y 5 - o + 1 q I L u 5 + o > 6 l y 6 - X     ",
"    X - 5 8 l 8 5 > ; q u V C q > O + 9 Z } o.X.' J H H H H H H H H H H H H H D v v y 5 - o o ; q C C n q ; > 5 8 y 8 5 - X     ",
"    o - 5 l l 8 8 6 8 8 z b v q ; X + 1 i L _ _ H D V V V V V H D V V V V D b b v z 8 5 - X o ; 8 c b l q 6 6 8 y l l 5 - o     ",
"    o - 5 8 l l l y y l z v u 5 - X X ; 8 c M M b v v v v v z b v v v v v v v v z z l 6 - X X - 6 l v l l l y y l l 8 5 - o     ",
"& & < 4 6 q 8 l 8 y y y y y 8 1 * X X * 1 8 y y y y 8 l 8 l 8 y y y y y y y y y 8 l 8 1 * X X * 1 8 8 l 8 l y y y y 8 8 4 < = & ",
"j j h d t 7 5 5 6 5 5 5 5 5 1 * + . . + - 1 1 6 5 5 5 5 5 5 5 5 5 5 5 5 5 5 5 5 5 5 1 - + . . + - 1 5 5 5 5 5 5 5 5 6 r d h j j ",
">.>.:.) d 2 = = - - - - - * * + X .   o + * - - - - - - - - - - - - - - - - - - - - * + o .   o + * - - * - - - - - 2 d ) :.>.>.",
"t.t.r.:.h , X X X X X X o o X .       . . X X X X X X X X X X X X X X . X X X X X . . . .       . X X o X X o o X X < h :.r.t.t.",
"y.y.t.>.j &                                                                                                         & j >.t.y.y.",
"y.y.t.>.k =                                                                                                         & h >.t.y.y."
};
