/* XPM */
static char *result[] = {
/* columns rows colors chars-per-pixel */
"64 64 5 1 ",
"  c #231C19",
". c #67332D",
"X c #B66B3A",
"o c #D89E58",
"O c None",
/* pixels */
"OOOOOOOOOOOOOOOOOOOOOOOOOOOOOOOOOOOOOOOOOOOOOOOOOOOOOOOOOOOOOOOO",
"OOOOOOOOOOOOOOOOOOOOOOOOOOOOOOOOOOOOOOOOOOOOOOOOOOOOOOOOOOOOOOOO",
"OOOOOOOOOOOOOOOOOOOOOOOOOOOOOOOOOOOOOOOOOOOOOOOOOOOOOOOOOOOOOOOO",
"OOOOOOOOOOOOOOOOOOOOOOOOOOOOOOOOOOOOOOOOOOOOOOOOOOOOOOOOOOOOOOOO",
"OOOOOOOOOOOOOOOOOOOOOOOOOOOOOOOOOOOOOOOOOOOOOOOOOOOOOOOOOOOOOOOO",
"OOOOOOOOOOOOOOOOOOOOOOOOOOOOOOOOOOOOOOOOOOOOOOOOOOOOOOOOOOOOOOOO",
"OOOOOOOOOOOOOOOOOOOOOOOOOOOOOOOOOOOOOOOOOOOOOOOOOOOOOOOOOOOOOOOO",
"OOOOOOOOOOOOOOOOOOOOOOOOOOOOOOOOOOOOOOOOOOOOOOOOOOOOOOOOOOOOOOOO",
"OOOOOOOOOOOOOOOOOOOOOOOOOOOOOOOOOOOOOOOOOOOOOOOOOOOOOOOOOOOOOOOO",
"OOOOOOOOOOOOOOOOOOOOOOOOOOOOOOOOOOOOOOOOOOOOOOOOOOOOOOOOOOOOOOOO",
"OOOOOOOOOOOOOOOOOOOOOOOOOOOOOOOOOOOOOOOOOOOOOOOOOOOOOOOOOOOOOOOO",
"OOOOOOOOOOOOOOOOOOOOOOOOOOOOOOOOOOOOOOOOOOOOOOOOOOOOOOOOOOOOOOOO",
"OOOOOOOOOOOOOOOOOOOOOOOOOOOOOOOOOOOOOOOOOOOOOOOOOOOOOOOOOOOOOOOO",
"OOOOOOOOOOOOOOOOOOOOOOOOOOOOOOOOOOOOOOOOOOOOOOOOOOOOOOOOOOOOOOOO",
"OOOOOOOOOOOOOOOOOOOOOOOOOOOOOOOOOOOOOOOOOOOOOOOOOOOOOOOOOOOOOOOO",
"OOOOOOOOOOOOOOOOOOOOOOOOOOOOOOOOOOOOOOOOOOOOOOOOOOOOOOOOOOOOOOOO",
"OOOOOOOO        OOOOOOOOOOOOOOOOOOOOOOOOOOOOOOOO        OOOOOOOO",
"OOOOOOOO        OOOOOOOOOOOOOOOOOOOOOOOOOOOOOOOO        OOOOOOOO",
"OOOOOOOO        OOOOOOOOOOOOOOOOOOOOOOOOOOOOOOOO        OOOOOOOO",
"OOOOOOOO        OOOOOOOOOOOOOOOOOOOOOOOOOOOOOOOO        OOOOOOOO",
"OOOO    oooooooo    OOOOOOOOOOOOOOOOOOOOOOOO    oooooooo    OOOO",
"OOOO    oooooooo    OOOOOOOOOOOOOOOOOOOOOOOO    oooooooo    OOOO",
"OOOO    oooooooo    OOOOOOOOOOOOOOOOOOOOOOOO    oooooooo    OOOO",
"OOOO    oooooooo    OOOOOOOOOOOOOOOOOOOOOOOO    oooooooo    OOOO",
"OOOO    ooooXXXX    OOOOOOOOOOOOOOOOOOOOOOOO    XXXXoooo    OOOO",
"OOOO    ooooXXXX    OOOOOOOOOOOOOOOOOOOOOOOO    XXXXoooo    OOOO",
"OOOO    ooooXXXX    OOOOOOOOOOOOOOOOOOOOOOOO    XXXXoooo    OOOO",
"OOOO    ooooXXXX    OOOOOOOOOOOOOOOOOOOOOOOO    XXXXoooo    OOOO",
"OOOO    ooooXXXX                                XXXXoooo    OOOO",
"OOOO    ooooXXXX                                XXXXoooo    OOOO",
"OOOO    ooooXXXX                                XXXXoooo    OOOO",
"OOOO    ooooXXXX                                XXXXoooo    OOOO",
"OOOO    ooooXXXX    ooooooooooooooooXXXX....    XXXXoooo    OOOO",
"OOOO    ooooXXXX    ooooooooooooooooXXXX....    XXXXoooo    OOOO",
"OOOO    ooooXXXX    ooooooooooooooooXXXX....    XXXXoooo    OOOO",
"OOOO    ooooXXXX    ooooooooooooooooXXXX....    XXXXoooo    OOOO",
"OOOO    ooooXXXX                                XXXXoooo    OOOO",
"OOOO    ooooXXXX                                XXXXoooo    OOOO",
"OOOO    ooooXXXX                                XXXXoooo    OOOO",
"OOOO    ooooXXXX                                XXXXoooo    OOOO",
"OOOO    ooooXXXX    OOOOOOOOOOOOOOOOOOOOOOOO    XXXXoooo    OOOO",
"OOOO    ooooXXXX    OOOOOOOOOOOOOOOOOOOOOOOO    XXXXoooo    OOOO",
"OOOO    ooooXXXX    OOOOOOOOOOOOOOOOOOOOOOOO    XXXXoooo    OOOO",
"OOOO    ooooXXXX    OOOOOOOOOOOOOOOOOOOOOOOO    XXXXoooo    OOOO",
"OOOO    ....XXXX                                XXXX....    OOOO",
"OOOO    ....XXXX                                XXXX....    OOOO",
"OOOO    ....XXXX                                XXXX....    OOOO",
"OOOO    ....XXXX                                XXXX....    OOOO",
"OOOO    ....XXXX    XXXXXXXXXXXXXXXX........    XXXX....    OOOO",
"OOOO    ....XXXX    XXXXXXXXXXXXXXXX........    XXXX....    OOOO",
"OOOO    ....XXXX    XXXXXXXXXXXXXXXX........    XXXX....    OOOO",
"OOOO    ....XXXX    XXXXXXXXXXXXXXXX........    XXXX....    OOOO",
"OOOO    ....XXXX                                XXXX....    OOOO",
"OOOO    ....XXXX                                XXXX....    OOOO",
"OOOO    ....XXXX                                XXXX....    OOOO",
"OOOO    ....XXXX                                XXXX....    OOOO",
"OOOO    ........    OOOOOOOOOOOOOOOOOOOOOOOO    ........    OOOO",
"OOOO    ........    OOOOOOOOOOOOOOOOOOOOOOOO    ........    OOOO",
"OOOO    ........    OOOOOOOOOOOOOOOOOOOOOOOO    ........    OOOO",
"OOOO    ........    OOOOOOOOOOOOOOOOOOOOOOOO    ........    OOOO",
"OOOOOOOO        OOOOOOOOOOOOOOOOOOOOOOOOOOOOOOOO        OOOOOOOO",
"OOOOOOOO        OOOOOOOOOOOOOOOOOOOOOOOOOOOOOOOO        OOOOOOOO",
"OOOOOOOO        OOOOOOOOOOOOOOOOOOOOOOOOOOOOOOOO        OOOOOOOO",
"OOOOOOOO        OOOOOOOOOOOOOOOOOOOOOOOOOOOOOOOO        OOOOOOOO"
};
