/* XPM */
static char *xpm_[] = {
/* columns rows colors chars-per-pixel */
"32 32 123 2 ",
"   c #011C1D",
".  c #012224",
"X  c #012729",
"o  c #012A2D",
"O  c #012D31",
"+  c #003036",
"@  c #00353A",
"#  c #01393F",
"$  c #013C42",
"%  c #014046",
"&  c #01454B",
"*  c #02494E",
"=  c #024C53",
"-  c #014F58",
";  c #025156",
":  c #01535B",
">  c #02585D",
",  c #015760",
"<  c #015B64",
"1  c #015F69",
"2  c #036166",
"3  c #02636C",
"4  c #026770",
"5  c #036B74",
"6  c #046F78",
"7  c #04737C",
"8  c #0B747C",
"9  c #19777F",
"0  c #047B83",
"q  c #0E7980",
"w  c #05848B",
"e  c #05898F",
"r  c #058C92",
"t  c #06959A",
"y  c #079A9F",
"u  c #2C8286",
"i  c #2F8589",
"p  c #33868B",
"a  c #3C868B",
"s  c #358C93",
"d  c #349197",
"f  c #36959C",
"g  c #33999F",
"h  c #079BA1",
"j  c #089FA3",
"k  c #359CA2",
"l  c #3899A0",
"z  c #08A1A6",
"x  c #09A5A9",
"c  c #09AAAE",
"v  c #0AADB1",
"b  c #0AB5B7",
"n  c #0BBDBF",
"m  c #32A2A7",
"M  c #3CBDBD",
"N  c #478C8F",
"B  c #4C8D8F",
"V  c #518D8F",
"C  c #4E9293",
"Z  c #559293",
"A  c #5E9595",
"S  c #519F9F",
"D  c #5D9D9D",
"F  c #618F93",
"G  c #619495",
"H  c #619699",
"J  c #62999A",
"K  c #639DA1",
"L  c #639CA0",
"P  c #629FA4",
"I  c #51A1A1",
"U  c #59A2A2",
"Y  c #66A0A6",
"T  c #63A6AB",
"R  c #71A9AD",
"E  c #72ACB2",
"W  c #7CAEB3",
"Q  c #0BBFC1",
"!  c #0CC2C3",
"~  c #0BC4C6",
"^  c #0CC7C9",
"/  c #0DC8C9",
"(  c #0DC9CA",
")  c #0CCACB",
"_  c #0DCCCD",
"`  c #0DCECF",
"'  c #0CCFCF",
"]  c #0DC8C9",
"[  c #0DCFD0",
"{  c #0ED4D4",
"}  c #0ED6D5",
"|  c #0EDAD9",
" . c #0FDDDC",
".. c #16D5D5",
"X. c #15D8D7",
"o. c #17D9D9",
"O. c #16DCDB",
"+. c #10DFDE",
"@. c #16DFDE",
"#. c #1CDCDB",
"$. c #2ECBCA",
"%. c #38C2C2",
"&. c #20D6D4",
"*. c #20D7D5",
"=. c #26D3D2",
"-. c #20D9D7",
";. c #16E0DF",
":. c #0FE3E2",
">. c #0FE6E4",
",. c #0FE7E5",
"<. c #10E4E3",
"1. c #10E5E5",
"2. c #12E5E4",
"3. c #11E6E4",
"4. c #10E7E5",
"5. c #12E6E4",
"6. c #10E7E6",
"7. c #11E7E5",
"8. c #10E8E6",
"9. c #10E8E7",
"0. c #10E9E7",
"q. c #10E8E7",
"w. c #11EAE8",
/* pixels */
"+ + O + $ $ $ $ & & * = ; : : : : : : ; = * & % % % # # + + + + ",
"+ < < 1 1 4 4 5 7 7 7 0 e c ( } ;. .] c w 7 6 5 4 3 3 2 1 , < + ",
"+ 1 1 3 4 4 6 7 0 7 w ! 9.0.0.0.w.,.,.,.>.n 0 6 6 4 4 3 1 1 1 O ",
"# 1 3 3 q s d d f m O.9.w.0.0.0.,.w.,.,.,.,.X.g s s p s P 1 1 @ ",
"@ 1 4 4 W s d f k X.9.9.9.^ c t w t c ] ,.,.>...d s s a W 3 1 @ ",
"$ 1 4 5 T 0 0 0 Q 9.9.9.v 7 < - * ; : 3 x 9.9.,.b 6 5 5 P 3 1 @ ",
"@ 1 4 5 L 0 0 r >.9.9.c 7 - * & % % & ; 2 x ,.,.:.w 6 6 H 3 1 # ",
"$ 4 4 5 L 0 0 b 9.9.[ 0 - & $ @ @ @ # % = 4 _ 4.9.c 6 6 H 4 1 @ ",
"@ 3 4 6 K 0 0 { w.1.j 3 * $ @ O X X + # & : z 1.>.[ 6 6 H 4 3 # ",
"$ 1 4 6 K 0 0 ;.w.w.w , & $ O X . . X @ $ - w 9.9. .0 6 H 4 1 @ ",
"$ 4 4 6 K 0 0 2.9.9.6 - * $ O .     X + % = 0 1.>.:.7 7 H 4 3 $ ",
"@ 4 5 6 K 0 0 @.9.9.0 , * $ O X . . o @ % - e 1.9.@.0 7 L 4 1 @ ",
"$ 1 4 6 K 0 0 #.9.9.t , = $ $ O o o + % & : j 9.9.&.0 6 H 4 3 # ",
"$ 3 4 5 L 0 0 M 9.9.) < - = $ $ # # % & - 1 [ 9.9.M 6 0 H 4 1 # ",
"+ 1 3 6 L 0 0 S 2.9.9.h < - - * & & * = , j 9.9.2.S 7 6 H 4 3 @ ",
"@ $ $ $ H 6 0 V %.9.9.9.h 1 , - : : > 2 j 1.9.9.%.B 0 7 H - = # ",
"@ = - : J 7 7 s J -.9.9.4.~ z w 6 e j ^ 0.0.,.=.J i 7 6 G % # @ ",
"+ 1 1 4 G 6 7 8 G U #.w.w.4.4.4.1.9.9.1.0.0.;.U A 8 6 5 G 3 3 @ ",
"@ 1 1 3 G 4 6 7 p G D $.4.9.4.4.w.w.9.9.;.$.D G p 7 5 5 G 2 2 + ",
"+ < 1 2 G 4 4 6 7 C G J U M =.;.5.2.;.I U J G B 7 6 4 5 G 2 2 @ ",
"+ < 1 1 G 3 3 5 6 8 V G G J J J J J J J G G V 8 6 5 3 4 F 1 , + ",
"+ 1 < 1 G 3 4 4 6 6 6 N G G G G G G G G F a 7 6 5 4 3 3 F 1 1 + ",
"+ < 3 3 G 4 5 6 6 7 7 7 8 p N Z G Z N u 8 7 6 7 5 4 4 4 G 3 3 + ",
"@ 1 4 5 J 7 7 7 7 7 0 7 0 0 w q w 0 0 0 8 w 7 7 7 7 7 7 H 5 3 + ",
"# 3 5 7 R l f f l l l k k k k m m k k m k k k k k k g f R 8 4 # ",
"$ 4 5 0 9.9.9.9.w.w.w.w.w.w.w.w.w.w.w.w.w.w.9.9.9.9.w.w.w.0 6 # ",
"@ 3 5 7 > > , 1 < 2 1 < 2 2 2 2 2 2 2 2 3 3 3 1 2 < 2 > > 7 5 @ ",
"+ 1 3 4 * * * = = * * * = = = ; = ; ; = = = * * = = * * * 3 3 @ ",
"O < < 1 # # # $ $ $ $ $ $ $ $ $ $ $ $ $ $ $ $ $ $ @ $ $ # 1 < O ",
"+ < < < , 1 < 1 < < < < < < < * @ < < 1 < < 1 < < < < < , 1 < + ",
"+ < < < , < , , < , < < < , < & + < < < < , , < < , < < < < < O ",
"+ + + + + + + + + + O + + + + + + + + O + + + + + + + + + + + + "
};
