/* XPM */
static char *result[] = {
/* columns rows colors chars-per-pixel */
"32 32 101 2 ",
"   c #001E00",
".  c #002401",
"X  c #002C01",
"o  c #003301",
"O  c #003C03",
"+  c #003036",
"@  c #00353B",
"#  c #01393F",
"$  c #004204",
"%  c #004C04",
"&  c #005404",
"*  c #005C06",
"=  c #006504",
"-  c #006B03",
";  c #006B08",
":  c #007406",
">  c #007C05",
",  c #013D43",
"<  c #014046",
"1  c #01454B",
"2  c #02494E",
"3  c #024D54",
"4  c #025255",
"5  c #025B52",
"6  c #025459",
"7  c #015B65",
"8  c #015F69",
"9  c #02626C",
"0  c #026770",
"q  c #026B74",
"w  c #036F78",
"e  c #03727B",
"r  c #008304",
"t  c #008A03",
"y  c #028909",
"u  c #009202",
"i  c #009E00",
"p  c #0E8A14",
"a  c #00A300",
"s  c #00AC00",
"d  c #02B500",
"f  c #00B900",
"g  c #249325",
"h  c #2A922B",
"j  c #2A9C2F",
"k  c #2D9632",
"l  c #2B9C30",
"z  c #349336",
"x  c #3F973F",
"c  c #2AA52D",
"v  c #25AB29",
"b  c #29AD2D",
"n  c #25B426",
"m  c #2AB02E",
"M  c #2BA030",
"N  c #2DAB30",
"B  c #04C100",
"V  c #04CB00",
"C  c #05D500",
"Z  c #05DC00",
"A  c #26DC1D",
"S  c #05E200",
"D  c #07EC02",
"F  c #0BEC00",
"G  c #15ED0B",
"H  c #05F500",
"J  c #0BF600",
"K  c #0BF900",
"L  c #10F305",
"P  c #1CE415",
"I  c #1BE811",
"U  c #0BDD3F",
"Y  c #33CC2D",
"T  c #2DD129",
"R  c #37CA30",
"E  c #0BEE2B",
"W  c #058875",
"Q  c #07A966",
"!  c #439543",
"~  c #499647",
"^  c #479846",
"/  c #489C46",
"(  c #4A964A",
")  c #4E9B4E",
"_  c #5C975C",
"`  c #5D9C5C",
"'  c #4BA749",
"]  c #4AAA48",
"[  c #58A456",
"{  c #53AA51",
"}  c #5CA25D",
"|  c #5CA95E",
" . c #5BB35D",
".. c #5D9960",
"X. c #5FAD65",
"o. c #6BB36C",
"O. c #6BB971",
"+. c #76B979",
"@. c #0BDD61",
"#. c #037880",
"$. c #05858A",
/* pixels */
"+ + + + @ # , < 1 1 2 3 4 5 6 6 6 6 6 3 4 3 1 1 , , , @ + + + + ",
"+ 7 8 8 9 9 q q w #.#.W Q U E F J F C d t e w q q 9 9 9 8 7 7 + ",
"+ 8 8 9 9 q q e #.#.$.@.K K K K J K K J J V r w q q 9 9 8 8 7 + ",
"# 8 9 9 p l M c M n J K K K K K K K K K J K F v j l l z X.9 8 + ",
"# 9 9 9 O.M c c N D K K J C d i u i f C K J J D M l l k +.9 8 @ ",
"@ 9 0 q  .r r t V K K K f > ; * & & * ; d J J J B > > > | 9 8 @ ",
"# 8 0 w | r t u H K J d > * & % % $ % & ; d J J J t > > ` 9 8 @ ",
"# 9 0 w | t t B K K Z r * % $ O O O O % & - Z J J d > r ` 9 9 # ",
"# 9 q w | t t Z K K s - & $ O o X X o O % * s K J Z > r ` 0 9 # ",
"# 9 q q } t t F K K t = & $ o .   . X O % & u K J F r > } 0 9 @ ",
", 0 q w | t t J K K > * % O X .     X O $ * r K J J > r } q 9 # ",
"# 9 q q | r t J K K r * & $ o X . . X O $ & u K J J r r } 9 9 @ ",
"# 8 0 q | r t G K K a * & % O o o o O $ % * s K J G r > ` 0 9 # ",
"# 9 0 q X.r t Y K K C ; * & % $ O O $ % & ; Z K J Y r r } 0 9 @ ",
"+ 8 0 q } r r ] K J K a = * & & % % & * = s K K J ' r r ` 0 9 # ",
"# # , 1 } > r / T K K J a ; * * * * * ; s J K J T ~ > r } 6 3 + ",
"@ 3 4 6 } > t h } G K K K C s u > u s C K K K I } g > > ` < # @ ",
"@ 8 8 9 ` > > y ` { G K K L K K J J J K K K G { ` t > > ` 9 9 @ ",
"+ 8 8 9 ..> > > h ` [ A J K K K K J K K K A [ _ h > > > ` 9 7 @ ",
"+ 7 8 9 ..: : > r ~ ` ` { Y P L K L P R { ` _ ! > > : : _ 9 7 @ ",
"@ 7 8 8 ..: : : > y ~ _ ` ` ` ` ` } _ ` _ ` ~ t > : : : _ 8 7 + ",
"+ 7 7 8 ..: - : > : y z _ _ ` ` ` _ _ _ _ z t : : : - : _ 8 7 @ ",
"+ 7 9 9 ..> : : : > > r t g x ) ` ) x g t > > > : : : : _ 9 9 + ",
"+ 8 0 q ` r > r r r r t t t t t t t t t t t > r r r > r } q 9 + ",
", 9 q e o.N c b b b b m m m m m m m m m m m m b b b b b o.e 0 , ",
", 0 w #.K K K J K K K K K K K K K K K K K K K K K K K K J #.q # ",
"+ 9 q e * = = = = = = - - - - - : - : - - - - - - = = = * w q # ",
"+ 9 9 0 % % & & & & & & & & & & & & & & & & & & & & & % % 0 9 + ",
"+ 7 7 8 $ O $ $ O O $ $ $ $ $ $ $ $ $ $ O $ $ O $ O $ O $ 8 7 + ",
"+ 7 7 7 7 7 7 7 7 7 7 7 7 7 7 2 @ 7 7 9 7 7 8 7 7 8 7 7 7 7 7 + ",
"+ 7 7 7 7 6 7 7 7 7 7 7 7 7 7 1 + 7 6 8 7 7 7 7 7 7 6 7 7 7 7 + ",
"+ + + + + + + + + + + + + + + + + + + + + + + + + + + + + + + + "
};
