/* XPM */
static char *xpm_[] = {
/* columns rows colors chars-per-pixel */
"32 32 4 1 ",
"  c #003036",
". c #015963",
"X c #00444C",
"o c #003A41",
/* pixels */
"                                ",
" .............. X.............. ",
" .............. X.............. ",
" .............. X.............. ",
" .............. X.............. ",
" .............. X.............. ",
" .............. X.............. ",
" .............. X.............. ",
" .............. X.............. ",
" .............. X.............. ",
" .............. X.............. ",
" .............. X.............. ",
" .............. X.............. ",
" .............. X.............. ",
" .............. X.............. ",
"                oXXXXXXXXXXXXXX ",
" XXXXXXXXXXXXXXo                ",
" ..............X .............. ",
" ..............X .............. ",
" ..............X .............. ",
" ..............X .............. ",
" ..............X .............. ",
" ..............X .............. ",
" ..............X .............. ",
" ..............X .............. ",
" ..............X .............. ",
" ..............X .............. ",
" ..............X .............. ",
" ..............X .............. ",
" ..............X .............. ",
" ..............X .............. ",
"                                "
};
