/* XPM */
static char *xpm_[] = {
/* columns rows colors chars-per-pixel */
"32 32 54 1 ",
"  c #00A4B7",
". c #001F23",
"X c #013A40",
"o c #002C31",
"O c #00262A",
"+ c #002327",
"@ c #002226",
"# c #001E22",
"$ c #01393F",
"% c #002B30",
"& c #001D21",
"* c #01373D",
"= c #002A2F",
"- c #001C20",
"; c #01353A",
": c #00282D",
"> c #001B1E",
", c #013237",
"< c #00191C",
"1 c #012E33",
"2 c #00171A",
"3 c #012B2F",
"4 c #002024",
"5 c #001517",
"6 c #011F23",
"7 c #00191D",
"8 c #001215",
"9 c #012326",
"0 c #001A1D",
"q c #001012",
"w c #011E22",
"e c #000E10",
"r c #001416",
"t c #000C0D",
"y c #001618",
"u c #001112",
"i c #00090B",
"p c #001214",
"a c #000D0F",
"s c #000708",
"d c #000E0F",
"f c #000B0C",
"g c #000506",
"h c #000707",
"j c #000607",
"k c #000404",
"l c #000203",
"z c #000405",
"x c #000304",
"c c #000101",
"v c #000202",
"b c #000102",
"n c black",
"m c #000001",
/* pixels */
"                                ",
".XXXXXXXXXXXXXX.oXXXXXXXXXXXXXX.",
".XXXXXXXXXXXXXX.oXXXXXXXXXXXXXX.",
".XXXXXXXXXXXXXX.oXXXXXXXXXXXXXX.",
".XXXXXXXXXXXXXX.oXXXXXXXXXXXXXX.",
".XXXXXXXXXXXXXX.oXXXXXXXXXXXXXX.",
".XXXXXXXXXXXXXX.oXXXXXXXXXXXXXX.",
".OOOOOOOOOOOOOO+@OOOOOOOOOOOOOO.",
"#$$$$$$$$$$$$$$%#$$$$$$$$$$$$$$#",
"&**************=&**************&",
"-;;;;;;;;;;;;;;:-;;;;;;;;;;;;;;-",
">,,,,,,,,,,,,,,O>,,,,,,,,,,,,,,>",
"<11111111111111+<11111111111111<",
"23333333333333342333333333333332",
"56666666666666657666666666666665",
"89999999999999980999999999999998",
"qwwwwwwwwwwwwwwq2wwwwwwwwwwwwwwq",
"e00000000000000er00000000000000e",
"tyyyyyyyyyyyyyytuyyyyyyyyyyyyyyt",
"ippppppppppppppiappppppppppppppi",
"sddddddddddddddsfdddddddddddddds",
"ghhhhhhhhhhhhhhjjhhhhhhhhhhhhhhg",
"kssssssssssssssgkssssssssssssssk",
"lzzzzzzzzzzzzzzxlzzzzzzzzzzzzzzl",
"cvvvvvvvvvvvvvvbcvvvvvvvvvvvvvvc",
"nmmmmmmmmmmmmmmnnmmmmmmmmmmmmmmn",
"nnnnnnnnnnnnnnnnnnnnnnnnnnnnnnnn",
"nnnnnnnnnnnnnnnnnnnnnnnnnnnnnnnn",
"nnnnnnnnnnnnnnnnnnnnnnnnnnnnnnnn",
"nnnnnnnnnnnnnnnnnnnnnnnnnnnnnnnn",
"nnnnnnnnnnnnnnnnnnnnnnnnnnnnnnnn",
"nnnnnnnnnnnnnnnnnnnnnnnnnnnnnnnn"
};
