/* XPM */
static char *xpm_[] = {
/* columns rows colors chars-per-pixel */
"32 32 59 1 ",
"  c #875F00",
". c #332503",
"X c #5E4406",
"o c #473305",
"O c #483404",
"+ c #423005",
"@ c #523B05",
"# c #322403",
"$ c #513B06",
"% c #412E04",
"& c #483405",
"* c #302303",
"= c #594106",
"- c #433005",
"; c #2E2203",
": c #563E05",
"> c #412E05",
", c #2C2003",
"< c #513A05",
"1 c #3D2C04",
"2 c #291E02",
"3 c #4B3605",
"4 c #392904",
"5 c #261B02",
"6 c #453204",
"7 c #342604",
"8 c #221902",
"9 c #3F2D04",
"0 c #2F2203",
"q c #1E1602",
"w c #241A02",
"e c #1B1302",
"r c #312403",
"t c #251B03",
"y c #171101",
"u c #2A1F03",
"i c #201702",
"p c #130E01",
"a c #231A02",
"s c #100B01",
"d c #1D1502",
"f c #161002",
"g c #0C0901",
"h c #161001",
"j c #110C01",
"k c #090701",
"l c #0D0901",
"z c #060400",
"x c #090600",
"c c #080601",
"v c #0A0701",
"b c #040300",
"n c #050400",
"m c #020100",
"M c #030200",
"N c #020200",
"B c black",
"V c #010100",
"C c #010000",
/* pixels */
"                                ",
".XXXXXXXXXXXXXX.oXXXXXXXXXXXXXX.",
".XXXXXXXXXXXXXX.oXXXXXXXXXXXXXX.",
".XXXXXXXXXXXXXX.oXXXXXXXXXXXXXX.",
".XXXXXXXXXXXXXX.oXXXXXXXXXXXXXX.",
".XXXXXXXXXXXXXX.oXXXXXXXXXXXXXX.",
".XXXXXXXXXXXXXX.oXXXXXXXXXXXXXX.",
".OOOOOOOOOOOOOO.+@@@@@@@@@@@@@@.",
"#$$$$$$$$$$$$$$%#&&&&&&&&&&&&&&#",
"*==============-*==============*",
";::::::::::::::>;::::::::::::::;",
",<<<<<<<<<<<<<<1,<<<<<<<<<<<<<<,",
"23333333333333342333333333333332",
"56666666666666675666666666666665",
"89999999999999908999999999999998",
"q,,,,,,,,,,,,,,qw,,,,,,,,,,,,,,q",
"errrrrrrrrrrrrretrrrrrrrrrrrrrre",
"yuuuuuuuuuuuuuuyiuuuuuuuuuuuuuuy",
"paaaaaaaaaaaaaapeaaaaaaaaaaaaaap",
"sddddddddddddddsfdddddddddddddds",
"ghhhhhhhhhhhhhhgjhhhhhhhhhhhhhhg",
"kjjjjjjjjjjjjjjkljjjjjjjjjjjjjjk",
"zxxxxxxxxxxxxxxzcvvvvvvvvvvvvvvz",
"bzzzzzzzzzzzzzznbnnnnnnnnnnnnnnb",
"mMMMMMMMMMMMMMMNmMMMMMMMMMMMMMMm",
"BVVVVVVVVVVVVVVCBVVVVVVVVVVVVVVB",
"BBBBBBBBBBBBBBBBBBBBBBBBBBBBBBBB",
"BBBBBBBBBBBBBBBBBBBBBBBBBBBBBBBB",
"BBBBBBBBBBBBBBBBBBBBBBBBBBBBBBBB",
"BBBBBBBBBBBBBBBBBBBBBBBBBBBBBBBB",
"BBBBBBBBBBBBBBBBBBBBBBBBBBBBBBBB",
"BBBBBBBBBBBBBBBBBBBBBBBBBBBBBBBB"
};
