/* XPM */
static char *result[] = {
/* columns rows colors chars-per-pixel */
"64 64 7 1 ",
"  c #231C19",
". c #6F2C77",
"X c #997D57",
"o c #E65F69",
"O c #B73D94",
"+ c #C3AA83",
"@ c None",
/* pixels */
"@@@@@@@@@@@@@@@@@@@@                        @@@@@@@@@@@@@@@@@@@@",
"@@@@@@@@@@@@@@@@@@@@                        @@@@@@@@@@@@@@@@@@@@",
"@@@@@@@@@@@@@@@@@@@@                        @@@@@@@@@@@@@@@@@@@@",
"@@@@@@@@@@@@@@@@@@@@                        @@@@@@@@@@@@@@@@@@@@",
"@@@@@@@@@@@@        oooooooooooooooooooooooo        @@@@@@@@@@@@",
"@@@@@@@@@@@@        oooooooooooooooooooooooo        @@@@@@@@@@@@",
"@@@@@@@@@@@@        oooooooooooooooooooooooo        @@@@@@@@@@@@",
"@@@@@@@@@@@@        oooooooooooooooooooooooo        @@@@@@@@@@@@",
"@@@@@@@@    oooooooooooooooooooooooooooooooooooooooo    @@@@@@@@",
"@@@@@@@@    oooooooooooooooooooooooooooooooooooooooo    @@@@@@@@",
"@@@@@@@@    oooooooooooooooooooooooooooooooooooooooo    @@@@@@@@",
"@@@@@@@@    oooooooooooooooooooooooooooooooooooooooo    @@@@@@@@",
"@@@@    ooooOOOOOOOOOOOOooooooooOOOOOOOOOOOOOOOOOOOOoooo    @@@@",
"@@@@    ooooOOOOOOOOOOOOooooooooOOOOOOOOOOOOOOOOOOOOoooo    @@@@",
"@@@@    ooooOOOOOOOOOOOOooooooooOOOOOOOOOOOOOOOOOOOOoooo    @@@@",
"@@@@    ooooOOOOOOOOOOOOooooooooOOOOOOOOOOOOOOOOOOOOoooo    @@@@",
"    ooooOOOOOOOOOOOOOOOOooooooooOOOOooooooooooooOOOOOOOOoooo    ",
"    ooooOOOOOOOOOOOOOOOOooooooooOOOOooooooooooooOOOOOOOOoooo    ",
"    ooooOOOOOOOOOOOOOOOOooooooooOOOOooooooooooooOOOOOOOOoooo    ",
"    ooooOOOOOOOOOOOOOOOOooooooooOOOOooooooooooooOOOOOOOOoooo    ",
"    ooooOOOOOOOOooooOOOOOOOOOOOOOOOOooooooooooooOOOOOOOOoooo    ",
"    ooooOOOOOOOOooooOOOOOOOOOOOOOOOOooooooooooooOOOOOOOOoooo    ",
"    ooooOOOOOOOOooooOOOOOOOOOOOOOOOOooooooooooooOOOOOOOOoooo    ",
"    ooooOOOOOOOOooooOOOOOOOOOOOOOOOOooooooooooooOOOOOOOOoooo    ",
"    ooooOOOOOOOOOOOOOOOOOOOO........ooooooooooooOOOOOOOOoooo    ",
"    ooooOOOOOOOOOOOOOOOOOOOO........ooooooooooooOOOOOOOOoooo    ",
"    ooooOOOOOOOOOOOOOOOOOOOO........ooooooooooooOOOOOOOOoooo    ",
"    ooooOOOOOOOOOOOOOOOOOOOO........ooooooooooooOOOOOOOOoooo    ",
"    ....OOOOOOOO........OOOO........OOOOOOOOOOOOOOOOOOOO....    ",
"    ....OOOOOOOO........OOOO........OOOOOOOOOOOOOOOOOOOO....    ",
"    ....OOOOOOOO........OOOO........OOOOOOOOOOOOOOOOOOOO....    ",
"    ....OOOOOOOO........OOOO........OOOOOOOOOOOOOOOOOOOO....    ",
"    ........OOOO........OOOOOOOOOOOOOOOO....OOOOOOOO........    ",
"    ........OOOO........OOOOOOOOOOOOOOOO....OOOOOOOO........    ",
"    ........OOOO........OOOOOOOOOOOOOOOO....OOOOOOOO........    ",
"    ........OOOO........OOOOOOOOOOOOOOOO....OOOOOOOO........    ",
"@@@@    ................................................    @@@@",
"@@@@    ................................................    @@@@",
"@@@@    ................................................    @@@@",
"@@@@    ................................................    @@@@",
"@@@@@@@@                                                @@@@@@@@",
"@@@@@@@@                                                @@@@@@@@",
"@@@@@@@@                                                @@@@@@@@",
"@@@@@@@@                                                @@@@@@@@",
"@@@@@@@@@@@@@@@@    XXXXXXXXXXXXXXXXXXXXXXXX    @@@@@@@@@@@@@@@@",
"@@@@@@@@@@@@@@@@    XXXXXXXXXXXXXXXXXXXXXXXX    @@@@@@@@@@@@@@@@",
"@@@@@@@@@@@@@@@@    XXXXXXXXXXXXXXXXXXXXXXXX    @@@@@@@@@@@@@@@@",
"@@@@@@@@@@@@@@@@    XXXXXXXXXXXXXXXXXXXXXXXX    @@@@@@@@@@@@@@@@",
"@@@@@@@@@@@@            ++++++++++++++++XXXX        @@@@@@@@@@@@",
"@@@@@@@@@@@@            ++++++++++++++++XXXX        @@@@@@@@@@@@",
"@@@@@@@@@@@@            ++++++++++++++++XXXX        @@@@@@@@@@@@",
"@@@@@@@@@@@@            ++++++++++++++++XXXX        @@@@@@@@@@@@",
"@@@@@@@@    XXXX++++++++    ++++++++XXXXXXXX    ++++    @@@@@@@@",
"@@@@@@@@    XXXX++++++++    ++++++++XXXXXXXX    ++++    @@@@@@@@",
"@@@@@@@@    XXXX++++++++    ++++++++XXXXXXXX    ++++    @@@@@@@@",
"@@@@@@@@    XXXX++++++++    ++++++++XXXXXXXX    ++++    @@@@@@@@",
"@@@@@@@@    XXXXXXXXXXXX    XXXXXXXXXXXXXXXX    XXXX    @@@@@@@@",
"@@@@@@@@    XXXXXXXXXXXX    XXXXXXXXXXXXXXXX    XXXX    @@@@@@@@",
"@@@@@@@@    XXXXXXXXXXXX    XXXXXXXXXXXXXXXX    XXXX    @@@@@@@@",
"@@@@@@@@    XXXXXXXXXXXX    XXXXXXXXXXXXXXXX    XXXX    @@@@@@@@",
"@@@@@@@@@@@@                                        @@@@@@@@@@@@",
"@@@@@@@@@@@@                                        @@@@@@@@@@@@",
"@@@@@@@@@@@@                                        @@@@@@@@@@@@",
"@@@@@@@@@@@@                                        @@@@@@@@@@@@"
};
