/* XPM */
static char *result[] = {
/* columns rows colors chars-per-pixel */
"25 25 224 2 ",
"   c black",
".  c #010101",
"X  c #020202",
"o  c gray1",
"O  c #040404",
"+  c #040504",
"@  c gray2",
"#  c #060606",
"$  c #070707",
"%  c gray3",
"&  c #080908",
"*  c #090909",
"=  c #090A09",
"-  c gray4",
";  c #0B0B0B",
":  c #0B0C0B",
">  c #0C0C0C",
",  c #0C0D0C",
"<  c gray5",
"1  c #0D0E0D",
"2  c #0E0E0E",
"3  c #0E0F0E",
"4  c #0F150C",
"5  c #11190B",
"6  c #131B0F",
"7  c #131C0E",
"8  c #101010",
"9  c #111111",
"0  c gray7",
"q  c #131313",
"w  c gray8",
"e  c #141514",
"r  c #151515",
"t  c #151615",
"y  c #151715",
"u  c gray9",
"i  c #141D11",
"p  c #161916",
"a  c #181C17",
"s  c #181818",
"d  c #191919",
"f  c gray10",
"g  c #1B1B1B",
"h  c gray11",
"j  c #1D1D1D",
"k  c gray12",
"l  c #16210F",
"z  c #1A2313",
"x  c #1A2512",
"c  c #1A2810",
"v  c #20201F",
"b  c #283F18",
"n  c #2C3E1F",
"m  c #202020",
"M  c gray13",
"N  c #222222",
"B  c #232323",
"V  c gray14",
"C  c #252525",
"Z  c gray15",
"A  c #272727",
"S  c #252B23",
"D  c #282828",
"F  c #2A2A2A",
"G  c gray17",
"H  c #2F2F2F",
"J  c #2F3E26",
"K  c gray19",
"L  c #313131",
"P  c #323232",
"I  c #343434",
"U  c #353535",
"Y  c gray21",
"T  c #393939",
"R  c #3A3A3A",
"E  c gray23",
"W  c #3C3C3C",
"Q  c gray24",
"!  c #3E3E3E",
"~  c #3F3F3F",
"^  c #2E411F",
"/  c #334A22",
"(  c #3D5925",
")  c #3C572A",
"_  c #426327",
"`  c #416822",
"'  c #426428",
"]  c gray25",
"[  c #414141",
"{  c gray26",
"}  c #434343",
"|  c gray27",
" . c gray28",
".. c #494949",
"X. c gray29",
"o. c #4B4B4B",
"O. c #4C4C4C",
"+. c gray30",
"@. c #4E4E4E",
"#. c gray31",
"$. c #505050",
"%. c #515151",
"&. c gray32",
"*. c gray33",
"=. c #555555",
"-. c #585858",
";. c gray35",
":. c #5A5A5A",
">. c #5B5B5B",
",. c gray36",
"<. c gray37",
"1. c #5F5F5F",
"2. c gray38",
"3. c #646464",
"4. c #656565",
"5. c gray40",
"6. c #676767",
"7. c DimGray",
"8. c #6A6A6A",
"9. c gray42",
"0. c #6C6C6C",
"q. c #6D6D6D",
"w. c #6F6F6F",
"e. c gray44",
"r. c #717171",
"t. c #727272",
"y. c gray45",
"u. c #747474",
"i. c #767676",
"p. c #777777",
"a. c #797979",
"s. c #7C7C7C",
"d. c gray49",
"f. c #7E7E7E",
"g. c gray50",
"h. c #54832A",
"j. c #639637",
"k. c #639830",
"l. c #689F33",
"z. c #6BA534",
"x. c #6BA437",
"c. c #6EA93A",
"v. c #73B136",
"b. c #78B739",
"n. c #81C63C",
"m. c #87CD3F",
"M. c #88CD40",
"N. c #8BD240",
"B. c #9FF047",
"V. c #AEFF4F",
"C. c #818181",
"Z. c gray51",
"A. c #838383",
"S. c #848484",
"D. c gray52",
"F. c #868686",
"G. c gray53",
"H. c #888888",
"J. c #8B8B8B",
"K. c #8D8D8D",
"L. c #8E8E8E",
"P. c gray56",
"I. c gray57",
"U. c #929292",
"Y. c #959595",
"T. c gray59",
"R. c gray60",
"E. c #9A9A9A",
"W. c gray63",
"Q. c #A2A2A2",
"!. c #A4A4A4",
"~. c #A5A5A5",
"^. c gray66",
"/. c gray68",
"(. c #AEAEAE",
"). c gray69",
"_. c gray70",
"`. c gray71",
"'. c #B6B6B6",
"]. c gray72",
"[. c #B9B9B9",
"{. c gray73",
"}. c #BBBBBB",
"|. c gray74",
" X c gray",
".X c gray75",
"XX c #C0C0C0",
"oX c gray76",
"OX c #C3C3C3",
"+X c gray77",
"@X c #C5C5C5",
"#X c gray78",
"$X c #CACACA",
"%X c gray80",
"&X c #CDCDCD",
"*X c gray81",
"=X c #D2D2D2",
"-X c LightGray",
";X c gray83",
":X c #D5D5D5",
">X c gray84",
",X c #D7D7D7",
"<X c #D8D8D8",
"1X c gray85",
"2X c #DADADA",
"3X c gray86",
"4X c gainsboro",
"5X c gray87",
"6X c #DFDFDF",
"7X c #E4E4E4",
"8X c #E6E6E6",
"9X c gray92",
"0X c gray93",
"qX c gray94",
"wX c #F1F1F1",
"eX c gray95",
"rX c #F3F3F3",
"tX c #F9F9F9",
"yX c gray98",
"uX c gray99",
"iX c #FDFDFD",
"pX c #FEFEFE",
"aX c white",
"sX c None",
/* pixels */
"sXsXsXsXsXsXsXsXsXsXsXsXsXsXsXsXsXsXsXsXsXsXsXsXsX",
"sXsXsXsXsXsXsXsXg B L I P U H Z M sXsXsXsXsXsXsXsX",
"sXsXsXsX< T a.!.`.XX&X*X&X*X$XOX X/.Y.9.} sXsXsXsX",
"sXsXsX2 G.9XaXaXaXaXaXpXpXpXpXpXiXiXiXiXrXU.2 sXsX",
"sXsXsX&.{.8XqXrXrXwX0X6X4X2X2X1X>X-X=X;X3X7XQ sXsX",
"sXsX$ d.E.!.&X4X5X6X1.B j g g g u 9 8 0 g f.{ sXsX",
"sXsX% g.R.{.-X,X,XT.X X X o X o X X X 0 o $.F sXsX",
"sXsXsXy.! +.+X<X2X2.@ @ @ # @ # # # o T B } k sXsX",
"sXsXX X.3.3.D.>X<XT & l 4 * * = 7 4 + V O.@.d sXsX",
"sXsX2 =.i.P.5.+X'.v b N.h.- - 6 z.k.5 u 8.=.8 sXsX",
"sXsXr 4.X.P.4.(.d.A ` V.b., ; x m.M.c 0 d.+.Q sXsX",
"sXsXf u. .A.q.$.t.~ i B.v.1 < z n.l.: 0 Z.} +.sXsX",
"sXsXr =.Q p.q.D.%X-.e ( ^ p r a / n 3 u ~.] ~ sXsX",
"sXsX* U | 1.=.R.aXa.h k S c.) j.J j 0 m oXL N sXsX",
"sXsXsXC ....H ].aXP.9 q t ' x._ y 0 * A ).P 2 sXsX",
"sXsXsX. w V 5.{.yX.X0 u u s s s u q % X.K.% sXsXsX",
"sXsXsXsXsXd J.R.#XeX7.I :.I.:X:X>X'.Q _.[ sXsXsXsX",
"sXsXsXsXsXsXr X.w.g.!.[.`.e.tXuXiXeXJ.w.sXsXsXsXsX",
"sXsXsXsXsXsXsX. Z H.F.#.2 V O.%.%.o.d sXsXsXsXsXsX",
"sXsXsXsXsXsX0 p.W.U.*XL.H.>.<.8.I [ > sXsXsXsXsXsX",
"sXsXsXsXsXsXQ.uXaXeX>.s.0.,.6.*.Y @X(.# sXsXsXsXsX",
"sXsXsXsXsXsX8.S.&X9XY ,.^.|.}.F.R C.[.d sXsXsXsXsX",
"sXsXsXsXsXsXr.R.d.T.s ;.9.,.>.Q &.Y ! O sXsXsXsXsX",
"sXsXsXsXsXsXq D Y K k C *.@.r A @.o.r sXsXsXsXsXsX",
"sXsXsXsXsXsX  ; q r Z h E E 9 G R W d sXsXsXsXsXsX"
};
