/* XPM */
static char *result[] = {
/* columns rows colors chars-per-pixel */
"32 32 7 1 ",
"  c #231C19",
". c #6F2C77",
"X c #997D57",
"o c #E65F69",
"O c #B73D94",
"+ c #C3AA83",
"@ c None",
/* pixels */
"@@@@@@@@@@            @@@@@@@@@@",
"@@@@@@@@@@            @@@@@@@@@@",
"@@@@@@    oooooooooooo    @@@@@@",
"@@@@@@    oooooooooooo    @@@@@@",
"@@@@  oooooooooooooooooooo  @@@@",
"@@@@  oooooooooooooooooooo  @@@@",
"@@  ooOOOOOOooooOOOOOOOOOOoo  @@",
"@@  ooOOOOOOooooOOOOOOOOOOoo  @@",
"  ooOOOOOOOOooooOOooooooOOOOoo  ",
"  ooOOOOOOOOooooOOooooooOOOOoo  ",
"  ooOOOOooOOOOOOOOooooooOOOOoo  ",
"  ooOOOOooOOOOOOOOooooooOOOOoo  ",
"  ooOOOOOOOOOO....ooooooOOOOoo  ",
"  ooOOOOOOOOOO....ooooooOOOOoo  ",
"  ..OOOO....OO....OOOOOOOOOO..  ",
"  ..OOOO....OO....OOOOOOOOOO..  ",
"  ....OO....OOOOOOOO..OOOO....  ",
"  ....OO....OOOOOOOO..OOOO....  ",
"@@  ........................  @@",
"@@  ........................  @@",
"@@@@                        @@@@",
"@@@@                        @@@@",
"@@@@@@@@  XXXXXXXXXXXX  @@@@@@@@",
"@@@@@@@@  XXXXXXXXXXXX  @@@@@@@@",
"@@@@@@      ++++++++XX    @@@@@@",
"@@@@@@      ++++++++XX    @@@@@@",
"@@@@  XX++++  ++++XXXX  ++  @@@@",
"@@@@  XX++++  ++++XXXX  ++  @@@@",
"@@@@  XXXXXX  XXXXXXXX  XX  @@@@",
"@@@@  XXXXXX  XXXXXXXX  XX  @@@@",
"@@@@@@                    @@@@@@",
"@@@@@@                    @@@@@@"
};
