/* XPM */
static char *result[] = {
/* columns rows colors chars-per-pixel */
"32 32 2 1 ",
"  c #2A2A2A",
". c None",
/* pixels */
"................................",
"................................",
"................................",
"................................",
"................................",
"................................",
"................................",
"................................",
"................................",
"................................",
"................................",
"................................",
"................................",
"................................",
"................................",
"................................",
"................................",
"................................",
"................................",
"................................",
"........               .........",
"......                   .......",
"....                       .....",
"...                        .....",
"...                         ....",
"...                        .....",
"....                      ......",
"......                   .......",
".........             ..........",
"................................",
"................................",
"................................"
};
