/* XPM */
static char *xpm_[] = {
/* columns rows colors chars-per-pixel */
"32 64 180 2 ",
"   c #0E071B",
".  c #0F081C",
"X  c #110A1E",
"o  c #120D22",
"O  c #161127",
"+  c #16142B",
"@  c #1B162B",
"#  c #191730",
"$  c #1A1932",
"%  c #1F1F3A",
"&  c #221A2D",
"*  c #2A1C29",
"=  c #2F1D26",
"-  c #301D26",
";  c #391F21",
":  c #241E33",
">  c #1F203B",
",  c #26272A",
"<  c #3C2022",
"1  c #36232B",
"2  c #22233E",
"3  c #2A2334",
"4  c #312534",
"5  c #3E273D",
"6  c #4F1F2E",
"7  c #571C27",
"8  c #541E2A",
"9  c #452323",
"0  c #4B2524",
"q  c #532826",
"w  c #5D2C28",
"e  c #5B342E",
"r  c #4A2631",
"t  c #502D31",
"y  c #47383F",
"u  c #693B30",
"i  c #723A3C",
"p  c #6F4E38",
"a  c #242643",
"s  c #262A47",
"d  c #2D2D44",
"f  c #2A2F4D",
"g  c #322D45",
"h  c #382942",
"j  c #302C49",
"k  c #2B304F",
"l  c #2E3353",
"z  c #313756",
"x  c #343B5B",
"c  c #353B59",
"v  c #373F60",
"b  c #4B3C44",
"n  c #3A4263",
"m  c #3E4768",
"M  c #3F4869",
"N  c #4B4851",
"B  c #494B5F",
"V  c #7A4B40",
"C  c #6F5757",
"Z  c #6F6053",
"A  c #796259",
"S  c #424C6D",
"D  c #444B67",
"F  c #535464",
"G  c #575467",
"H  c #4C5572",
"J  c #555C75",
"K  c #5C637C",
"L  c #666B7D",
"P  c #6A6E7D",
"I  c #777379",
"U  c #885542",
"Y  c #985B44",
"T  c #966457",
"R  c #916C54",
"E  c #BF6F4A",
"W  c #B36846",
"Q  c #B17953",
"!  c #826763",
"~  c #8B6E6A",
"^  c #816D6A",
"/  c #A47F61",
"(  c #B4826D",
")  c #AE8974",
"_  c #DF9C6F",
"`  c #D89466",
"'  c #DD9D72",
"]  c #D69E7A",
"[  c #E49C6A",
"{  c #DCA179",
"}  c #EBAC7C",
"|  c #E4A67A",
" . c #646D87",
".. c #6C7589",
"X. c #727B92",
"o. c #79849B",
"O. c #798292",
"+. c #7F8AA1",
"@. c #838385",
"#. c #8A8A8A",
"$. c #838893",
"%. c #8B8B93",
"&. c #959595",
"*. c #9C9C9C",
"=. c #92959F",
"-. c #A0958E",
";. c #BE9E8F",
":. c #BA9F93",
">. c #AB9995",
",. c #B0A59C",
"<. c #8B96AB",
"1. c #8390A9",
"2. c #9D9EA3",
"3. c #8D9BB3",
"4. c #AC9FA0",
"5. c #9EA0AE",
"6. c #9EA6B7",
"7. c #93A2B9",
"8. c #99A6BC",
"9. c #9AA8BF",
"0. c #9AA4B7",
"q. c #A5A5A5",
"w. c #A1A0AA",
"e. c #AAAAAB",
"r. c #A8A3A9",
"t. c #A5ABB5",
"y. c #A8ABB6",
"u. c #ACB2BC",
"i. c #B3B3B4",
"p. c #BABABA",
"a. c #BAB6BA",
"s. c #B3A6A6",
"d. c #C89E86",
"f. c #DCAD8F",
"g. c #D7A281",
"h. c #C3AC9F",
"j. c #DAB095",
"k. c #EFBB8F",
"l. c #F0BA8C",
"z. c #E7BA93",
"x. c #D3B8AA",
"c. c #C9BCB9",
"v. c #D8BFB0",
"b. c #C9B3AB",
"n. c #F5C99E",
"m. c #F1C499",
"M. c #D9C1B2",
"N. c #9EABC1",
"B. c #A0ADC2",
"V. c #A5B1C6",
"C. c #AAB6C9",
"Z. c #AEB9CC",
"A. c #ABB3C3",
"S. c #B3BDCE",
"D. c #B6B9C1",
"F. c #B4BFD0",
"G. c #BCC0C6",
"H. c #B7C1D2",
"J. c #BBC4D4",
"K. c #BFC8D7",
"L. c #BFC8D8",
"P. c #C4C5C6",
"I. c #CCCCCE",
"U. c #DCCCC0",
"Y. c #C6CEDC",
"T. c #C1C8D6",
"R. c #CAD0D8",
"E. c #D5D5D5",
"W. c #DCDCDC",
"Q. c #D6D7D8",
"!. c #E6DFDE",
"~. c #DFE3EA",
"^. c #E5E9EC",
"/. c #EDEDED",
"(. c #E2E3E7",
"). c #E9ECF1",
"_. c gray96",
"`. c #FEFEFE",
"'. c #F6F8F9",
"]. c None",
/* pixels */
"].].].].].].].].].].].].].].].].].].].].].].].].].].].].].].].].",
"].].].].].].].].].].].].].].].].].].].].].].].].].].].].].].].].",
"].].].].].].].].].].].].].].].].].].].].].].].].].].].].].].].].",
"].].].].].].].].].].].].Y.Y.Y.].].].].].].].].].].].].].].].].].",
"].].].].].].].].].].].].S.L.K.9.].].].].].].].].].].].].].].].].",
"].].].].].].].].].].].].7.F.H.7.B 3 o.7.8.J.Y.Y.].].].].].].].].",
"].].].].].].].].].].].].].V.<.F G  .<.N.F.L.Y.Y.Y.].].].].].].].",
"].].].].].].].].].].].].].7...3 K 3.7.A.I.I.I.I.I.I.].].].].].].",
"].].].].].].].].].].].].].].o. .+.7.7.s.f.f.z.f.f.f.].].Y.].].].",
"].].].].].].].].].].].].].].].7.3.7.5.,.] { g.| { g.].Y.Y.].].].",
"].].].].].].].].].].].].].Y.H.8.7.5.d.;.r.c.M.k.h.y.T.].].].].].",
"].].].].].].].].].].].].].J.C.7.4.>._ ) ..$.,.n.-.O.F.].].].].].",
"].].].].].].].].].].].].Y.V.8.7.:.' [ R , , Z m.A , ].].].].].].",
"].].].].].].].].].].].Y.Y.V.7.7.4.d.' Q p p / m./ p ].].].].].].",
"].].].].].].].].].].Y.Y.Y.V.7.7.7.4.' [ ` [ l.n.} [ ].].].].].].",
"].].].].].].].].].Y.Y.J.C.N.7.3.7.0.b.f.[ f.M.M.M.x.].].].].].].",
"].].].].].].].].Y.Y.Y.H.7.9.8.8.7.9.J.x.{ M.L.Y.T.Y.].].].].].].",
"].].].].].].].].Y.Y.Y.H.7.K.R.u.0.7.N.p.c.D.V.V.V.C.L.].].].].].",
"].].].].].].].].Y.Y.L.F.C.^./.I.u.8.7.V.F.N.N.N.N.V.J.].].].].].",
"].].].].].].].Y.Y.L.C.J.^.'.'./.I.t.7.8.N.N.N.F.J.F.B.].].].].].",
"].].].].].].].Y.Y.T.B.K.`.`.`.`.(.P.t.8.3.3.N.H.L.J.9.].].].].].",
"].].].].].].].Y.Y.L.N.L.`.`.`.`._.^.G.6.N.3.N.N.H.J.8.].].].].].",
"].].].].].].Y.Y.J.Z.8.K.`.`.`.`./.!.E.G.8.3.3.3.V.C.8.].].].].].",
"].].].].].Y.Y.Y.Z.7.7.K.`.`.`.`.Q.P./.W.u.N.3.N.7.7.7.].].].].].",
"].].].].].Y.Y.Y.Z.N.J.~.`.`._.W.p.e.I.W.Q.D.0.7.7.+.K ].].].].].",
"].].].].].Y.Y.Y.C.B.^.`.`.`.^.p.&.#.q.E._.P.t.3.3.X.d ].].].].].",
"].].].].].V.V.V.N.B.^.`.`.`./.p.*.#.&.i.I.q.$. .K D > ].].].].].",
"].].].].].7.7.7.7.B.).`.`._.W.i.&.@.#.*.e.%.P S x s $ > ].].].].",
"].].].].].N.7.7.7.].'.`.`.W.p.&.#.#.q.*.&.L H S x s > $ $ ].].].",
"].].].].].].7.7.].].`.`.`.I.q.#.#.&.e.*.@.J D n z s $ $ $ ].].].",
"].].].].].].].7.].].`.`.`.I.q.#.*.e.i.q.@.J v l l s > $ $ ].].].",
"].].].].].].].7.].].`.`.`.I.q.#.&.q.q.#.L H n k f s $ $ $ ].].].",
"].].].].].].].].].].`.`.`.I.q.#.#.@.#.P H S n k f s % $ $ ].].].",
"].].].].].].].].].].`.`.`.I.2.L F N N B M n z f f s $ $ $ ].].].",
"].].].].].].].].].].`.`.`.I.2.H 2     a M z s f f s $ $ $ ].].].",
"].].].].].].].].].].].`.`.I.#.g +     + 2 $ $ $ $ + O + $ $ $ ].",
"].].].].].].].].].].].].!.a.I O   X X o o o o . X . . + $ & $ ].",
"].].].].].].].].].].].].~ C y X   o : 2 2 a % + + + + & - - - ].",
"].].].].].].].].].].].].w 9 1 d g f f k f f a $ $ $ $ * ; ; ; ].",
"].].].].].].].].].].].].w 9 b X.o...x f f f a $ $ $ $ * ; ; ; ].",
"].].].].].].].].].].].].T U T >.%. .x k k f s # $ # $ & 1 e u ].",
"].].].].].].].].].].].].z.{ ` _ A z l k k f s # $ $ $ $ 4 U W ].",
"].].].].].].].].].].]./ n.l.} [ ! v x z f s % $ $ $ $ $ 4 Y E ].",
"].].].].].].].].].].7 T n.n.k.[ ~ H M v f % $ $ # $ $ # 4 Y E ].",
"].].].].].].].].].7 7 i T ~ ^ A G S M v f % # # $ $ $ $ : V ].].",
"].].].].].].].].7 7 7 8 6 h l l m S S v f % # # $ $ $ $ $ ].].].",
"].].].].].].].7 7 7 7 6 h j l v M S M v f % % # $ $ $ $ $ ].].].",
"].].].].].].].7 7 7 6 h k l x M S S m v f % # # $ $ $ $ $ ].].].",
"].].].].].].7 7 7 8 b s f f z S S M x l f % $ $ $ $ # $ $ ].].].",
"].].].].].7 7 7 7 r g f f f l S S M l f s $ $ $ $ $ $ $ $ ].].].",
"].].7 7 7 7 7 7 7 ].f f f f z S S M l a $ $ $ $ $ $ $ $ $ ].].].",
"].].7 7 7 7 7 7 ].].f f f z v S M m l a $ $ $ $ $ $ # $ ].].].].",
"].7 7 7 7 ].].].].].f f f v S S S M l a $ $ $ $ $ $ $ $ ].].].].",
"7 7 7 ].].].].].].].k f f v S S n x l a $ $ $ $ $ $ $ ].].].].].",
"7 7 ].].].].].].].].l f f v S S x k f a $ $ $ $ # $ $ ].].].].].",
"].].].].].].].].].].].f f z x x l f ].% $ $ $ $ $ $ ].].].].].].",
"].].].].].].].].].].].].g g g j f f ].].$ & & & $ $ ].].].].].].",
"].].].].].].].].].].].].t t t 1 4 ].].].].- - - * ].].].].].].].",
"].].].].].].].].].].].].w w q < ].].].].].; ; ; ].].].].].].].].",
"].].].].].].].].].].].].w w q < ].].].].].; ; ; ].].].].].].].].",
"].].].].].].].].].].].w w q 0 < ].].].].].; ; ; ; ].].].].].].].",
"].].].].].].].].].].w w w 9 < ].].].].].].; ; ; ; ; ].].].].].].",
"].].].].].].].].].].0 0 0 < ; ].].].].].].; ; ; ; ; ; ].].].].].",
"].].].].].].].].].].; ; < ; ; ].].].].].].; ; ; ; ; ; ].].].].]."
};
