/* XPM */
static char *result[] = {
/* columns rows colors chars-per-pixel */
"64 64 216 2 ",
"   c #231C19",
".  c #241C19",
"X  c #261D1A",
"o  c #261E1A",
"O  c #281E1B",
"+  c #2A1F1B",
"@  c #2B1F1B",
"#  c #2D1F1C",
"$  c #2B221C",
"%  c #2D211C",
"&  c #33211E",
"*  c #34221E",
"=  c #31241E",
"-  c #31261E",
";  c #34271F",
":  c #38231F",
">  c #392420",
",  c #3B2420",
"<  c #3C2520",
"1  c #3E2521",
"2  c #372A20",
"3  c #382B20",
"4  c #392C21",
"5  c #3A2C21",
"6  c #3C2E22",
"7  c #422622",
"8  c #422A23",
"9  c #462923",
"0  c #412E23",
"q  c #482924",
"w  c #4A2924",
"e  c #4C2A25",
"r  c #4D2A25",
"t  c #512B26",
"y  c #572E28",
"u  c #582E29",
"i  c #4E3126",
"p  c #4C3427",
"a  c #4D3A27",
"s  c #4D3A28",
"d  c #573027",
"f  c #583227",
"g  c #563329",
"h  c #5D302A",
"j  c #5E302A",
"k  c #5C3529",
"l  c #573E2B",
"z  c #60302B",
"x  c #62312B",
"c  c #64322C",
"v  c #66332D",
"b  c #67332D",
"n  c #68342D",
"m  c #68372C",
"M  c #6B362E",
"N  c #6D372E",
"B  c #6A3B2B",
"V  c #6A382D",
"C  c #6B3C2F",
"Z  c #70392E",
"A  c #713A2F",
"S  c #713B2F",
"D  c #723B2F",
"F  c #723C30",
"G  c #743E31",
"H  c #783F30",
"J  c #5A442C",
"K  c #5E472E",
"L  c #62482F",
"P  c #634A2F",
"I  c #7C462F",
"U  c #684330",
"Y  c #674D31",
"T  c #6B4C31",
"R  c #6A4F32",
"E  c #754032",
"W  c #7A4030",
"Q  c #7A4131",
"!  c #7C4430",
"~  c #7D4633",
"^  c #7E4634",
"/  c #724B31",
"(  c #794A31",
")  c #735534",
"_  c #755736",
"`  c #7A5436",
"'  c #814531",
"]  c #814932",
"[  c #854832",
"{  c #864932",
"}  c #874A32",
"|  c #864A33",
" . c #8B4C33",
".. c #8C4D33",
"X. c #894F36",
"o. c #8C4F34",
"O. c #8F5133",
"+. c #8D5035",
"@. c #8F5337",
"#. c #845339",
"$. c #8D5439",
"%. c #915134",
"&. c #925234",
"*. c #965435",
"=. c #975535",
"-. c #985635",
";. c #985937",
":. c #9B5A37",
">. c #9C5936",
",. c #9E5B37",
"<. c #975F39",
"1. c #90593C",
"2. c #965D3D",
"3. c #9C5C39",
"4. c #9F5D38",
"5. c #985F3E",
"6. c #A25E37",
"7. c #A35E37",
"8. c #A55F37",
"9. c #A05F39",
"0. c #86633B",
"q. c #8D643B",
"w. c #8B653D",
"e. c #8B673D",
"r. c #96653C",
"t. c #9F613C",
"y. c #956A3F",
"u. c #A0623C",
"i. c #AB6338",
"p. c #A8653B",
"a. c #AC6438",
"s. c #AD6539",
"d. c #AE6639",
"f. c #AF693B",
"g. c #AB6A3E",
"h. c #B06739",
"j. c #B26839",
"k. c #B1693A",
"l. c #B56A3A",
"z. c #B66B3A",
"x. c #B76C3A",
"c. c #B06A3C",
"v. c #B16A3C",
"b. c #B26B3C",
"n. c #B36F3F",
"m. c #B56C3C",
"M. c #B86D3B",
"N. c #B96F3C",
"B. c #B8703D",
"V. c #BA713D",
"C. c #BA713E",
"Z. c #BB723E",
"A. c #946D40",
"S. c #9C6B42",
"D. c #9A6F41",
"F. c #A46840",
"G. c #A66A41",
"H. c #A67442",
"J. c #AB7246",
"K. c #AF7546",
"L. c #B07142",
"P. c #B17243",
"I. c #B47441",
"U. c #B77542",
"Y. c #BB7540",
"T. c #BB7743",
"R. c #BD7641",
"E. c #BE7741",
"W. c #B87744",
"Q. c #B17843",
"!. c #BD7943",
"~. c #BD7A44",
"^. c #B97E47",
"/. c #BD7C45",
"(. c #B17848",
"). c #B97E4A",
"_. c #C17C44",
"`. c #C37E45",
"'. c #C37F46",
"]. c #AE8049",
"[. c #B0814A",
"{. c #B5824B",
"}. c #BF8049",
"|. c #BF8349",
" X c #BF894D",
".X c #C48046",
"XX c #C28349",
"oX c #C0834B",
"OX c #C58248",
"+X c #C68348",
"@X c #C5844A",
"#X c #C8864A",
"$X c #C9874A",
"%X c #C08A4E",
"&X c #C68B4F",
"*X c #C8884C",
"=X c #CA894C",
"-X c #CB8A4C",
";X c #CB8B4D",
":X c #CD8D4E",
">X c #C18E50",
",X c #C78C50",
"<X c #CB9153",
"1X c #CF9151",
"2X c #CE9353",
"3X c #D09251",
"4X c #D19351",
"5X c #D09554",
"6X c #D39754",
"7X c #D49854",
"8X c #D49855",
"9X c #D59A56",
"0X c #D69C57",
"qX c #D79D58",
"wX c #D89E58",
"eX c None",
/* pixels */
"eXeXeXeXeXeXeXeX                                                                                                        eXeXeXeX",
"eXeXeXeXeXeXeXeX                                                                                                        eXeXeXeX",
"eXeXeXeXeXeXeXeX3 4 5 5 5 5 5 5 5 5 5 5 5 5 5 5 5 5 5 5 5 5 5 5 5 5 2 - $ o                 o $ - 2 5 5 5 5 5 5 5 5 4 3 eXeXeXeX",
"eXeXeXeXeXeXeXs J P Y Y Y Y Y Y Y Y Y Y Y Y Y Y Y Y Y Y Y Y Y Y Y Y K s 6 $                 $ 6 s K Y Y Y Y Y Y Y Y P J s eXeXeX",
"eXeXeXeXeX  3 J _ e.A.A.A.A.A.A.A.A.A.A.A.A.A.A.A.A.A.A.A.A.A.A.A.A.0.R s -                 - s R 0.A.A.A.A.A.A.A.A.e._ J 3     ",
"eXeXeXeX    4 P e.[.>X>X>X>X>X>X>X>X>X>X>X>X>X>X>X>X>X>X>X>X>X>X>X>X].0.K 2                 2 K 0.].>X>X>X>X>X>X>X>X[.e.P 4     ",
"eXeXeXeX3 4 a ) D.%X7X7X7X7X8X9X0XqXqX0X9X8X7X7X7X7X7X7X7X7X7X7X7X7X%XD.) a 2 - $ o o $ - 2 a ) D.%X7X7X7X7X8X9X0XqX>XA.Y 5     ",
"eXeXeXs J P ) q.H.|.;X;X;X;X:X3X6X0X0X6X3X:X;X;X;X;X;X;X;X;X;X;X;X;X|.H.q.) K s 6 $ $ 6 s K ) q.H.|.;X;X;X;X:X3X6X0X>XA.Y 5     ",
"    3 J _ e.D.H.Q./.`.`.`.`.OX-X3X9X9X3X-XOX`.`.`.`.`.`.`.`.`.`.`.`./.Q.H.D.0.R s - - s R 0.D.H.Q./.`.`.`.`.OX-X3X9X>XA.Y 5     ",
"    4 P e.[.%X|./.Y.C.C.C.C.E.OX:X8X8X:XOXE.C.C.C.C.C.C.C.C.C.C.C.C.Y./.|.%X].0.K 2 2 K 0.].%X|./.Y.C.C.C.C.E.OX:X8X>XA.Y 5     ",
"    5 Y A.>X7X;X`.C.z.z.z.z.V._.$X3X3X$X_.V.l.j.h.s.s.h.j.l.z.z.z.z.B.!.XX,X{.w.L 3 5 Y A.>X7X;X`.C.l.j.h.s.c.U.}.&X{.w.L 3     ",
"    5 Y A.>X7X;X`.C.z.z.z.z.N.E.'.$X$X'.E.N.j.i.7.>.>.7.i.j.z.z.z.z.m.n.P.K.S.` l ; 5 Y A.>X7X;X`.C.j.i.7.>.:.u.G.J.S.` l ;     ",
"    5 Y A.>X7X;X`.C.z.z.z.z.M.Z.E._._.E.Z.M.h.7.=. . .=.7.h.z.z.z.z.k.p.t.2.#.U p = 5 Y A.>X7X;X`.C.h.7.=. .| X.$.1.#.U p =     ",
"    5 Y A.>X7X;X`.C.z.z.z.z.x.M.N.V.V.N.M.x.s.>. .W W  .>.s.z.z.z.z.d.,.+.~ C g 8 % 5 Y A.>X7X;X`.C.s.>. .W S F G E C g 8 %     ",
"    5 Y A.>X7X;X`.C.l.j.h.s.a.a.a.a.s.h.j.l.s.>. .W W  .>.s.l.j.h.s.6.O.! m y q > + 5 Y A.>X6X*X~.b.7.&.' Z v c x z y q > +     ",
"    5 Y A.>X7X;X`.C.j.i.7.>.-.-.-.-.>.7.i.j.h.7.=. . .=.7.h.j.i.7.>.O.I B d q 1 & O 5 Y A.>X5XoXL.9.&.{ W N c h y t q 1 & O     ",
"    5 Y A.>X7X;X`.C.h.7.=. .[ [ [ [  .=.7.h.j.i.7.>.>.7.i.j.h.7.=. .! B f 9 > & # X 5 Y A.>X2X).F.@.' W D M x y e 7 > & # X     ",
"    5 Y A.>X7X;X`.C.s.>. .W A A A A W  .>.s.l.j.h.s.s.h.j.l.s.>. .W m d 9 * + O X . 5 Y A.>X<X(.5.^ Z N M n z t 7 & + O X .     ",
"    5 Y A.>X7X;X`.C.a.-.[ A b b b b A [ -.a.z.z.z.z.l.j.h.s.7.&.' Z j r < @         2 K 0.].{.S.#.C j j j j y q > +             ",
"    5 Y A.>X7X;X`.C.a.-.[ A b b b b A [ -.a.z.z.z.z.j.i.7.>.&.{ W N j r < @         - s R 0.w.` U g r r r r q 1 & O             ",
"    5 Y A.>X7X;X`.C.a.-.[ A b b b b A [ -.a.z.z.z.z.h.7.=. .' W D M j r < @         $ 6 s K L l p 8 < < < < > & # X             ",
"    5 Y A.>X7X;X`.C.a.-.[ A b b b b A [ -.a.z.z.z.z.s.>. .W Z N M n j r < @         o $ - 2 3 ; = % @ @ @ @ + O X .             ",
"    2 K 0.]. X^.I.f.7.&.' Z b b b b Z ' &.7.a.a.a.a.7.&.' Z v c x z y q > + o $ - 2 5 5 5 5 5 5 5 5 5 5 5 5 5 5 5 5 2 - $ o     ",
"    - s R 0.y.r.<.;.&.{ W N b b b b N W { &.-.-.-.-.&.{ W N c h y t q 1 & O $ 6 s K Y Y Y Y Y Y Y Y Y Y Y Y Y Y Y Y K s 6 $     ",
"    $ 6 s K T / ( ] ' W D M b b b b M D W ' [ [ [ [ ' W D M x y e 7 > & # X - s R 0.A.A.A.A.A.A.A.A.A.A.A.A.A.A.A.A.0.R s -     ",
"    o $ - 2 0 i k V Z N M n b b b b n M N Z A A A A Z N M n z t 7 & + O X . 2 K 0.].>X>X>X>X>X>X>X>X>X>X>X>X>X>X>X>X].0.K 2     ",
"            + > q y j j j j j j j j j j j j j j j j j j j j y q > + o $ - 2 a ) D.%X7X7X7X7X8X9X0XqXqX0X9X8X8X9X0XqX>XA.Y 5     ",
"            O & 1 q r r r r r r r r r r r r r r r r r r r r q 1 & O $ 6 s K ) q.H.|.;X;X;X;X:X3X6X0X0X6X3X:X:X3X6X0X>XA.Y 5     ",
"            X # & > < < < < < < < < < < < < < < < < < < < < > & # X - s R 0.D.H.Q./.`.`.`.`.OX-X3X9X9X3X-XOXOX-X3X9X>XA.Y 5     ",
"            . X O + @ @ @ @ @ @ @ @ @ @ @ @ @ @ @ @ @ @ @ @ + O X . 2 K 0.].%X|./.Y.C.C.C.C.E.OX:X8X8X:XOXE.E.OX:X8X>XA.Y 5     ",
"            o $ - 2 5 5 5 5 5 5 5 5 2 - $ o                 o $ - 2 a ) D.%X4X=X.XR.V.N.M.x.V._.$X3X3X$X_.V.B.!.XX,X{.w.L 3     ",
"            $ 6 s K Y Y Y Y Y Y Y Y K s 6 $                 $ 6 s K ) q.H.|.=X#X+X.X_.E.Z.M.N.E.'.$X$X'.E.N.m.n.P.K.S.` l ;     ",
"            - s R 0.A.A.A.A.A.A.A.A.0.R s -                 - s R 0.D.H.Q./..X+X#X=X$X'.E.N.M.Z.E._._.E.Z.M.k.p.t.2.#.U p =     ",
"            2 K 0.].>X>X>X>X>X>X>X>X].0.K 2                 2 K 0.].%X|./.Y.R..X=X4X3X$X_.V.x.M.N.V.V.N.M.x.d.,.+.~ C g 8 %     ",
"    o $ - 2 a ) D.%X6X5X2X<X<X2X5X6X%XD.) a 2 - $ o o $ - 2 a ) D.%X3X$X_.V.V._.$X3X3X$X_.V.l.j.h.s.a.a.a.a.7.&.' Z j r < @     ",
"    $ 6 s K ) q.H.|.*XoX).(.(.).oX*X|.H.q.) K s 6 $ $ 6 s K ) q.H.|.$X'.E.N.N.E.'.$X$X'.E.N.j.i.7.>.-.-.-.-.&.{ W N j r < @     ",
"    - s R 0.D.H.Q./.~.L.F.5.5.F.L.~./.Q.H.D.0.R s - - s R 0.D.H.Q./._.E.Z.M.M.Z.E._._.E.Z.M.h.7.=. .[ [ [ [ ' W D M j r < @     ",
"    2 K 0.].%X|./.Y.b.9.@.^ ^ @.9.b.Y./.|.%X].0.K 2 2 K 0.].%X|./.Y.V.N.M.x.x.M.N.V.V.N.M.x.s.>. .W A A A A Z N M n j r < @     ",
"    5 Y A.>X7X;X`.C.s.>. .W W  .>.s.B.!.XX,X{.w.L 3 5 Y A.>X8X:XOXE.C.C.C.C.V.N.M.x.z.z.z.z.a.-.[ A b b b b b b b b j r < @     ",
"    5 Y A.>X7X;X`.C.h.7.=. . .=.7.h.m.n.P.K.S.` l ; 5 Y A.>X9X3X-XOX`.`.`.`._.E.Z.M.z.z.z.z.a.-.[ A b b b b b b b b j r < @     ",
"    5 Y A.>X7X;X`.C.j.i.7.>.>.7.i.j.k.p.t.2.#.U p = 5 Y A.>X0X6X3X:X;X;X;X;X$X'.E.N.z.z.z.z.a.-.[ A b b b b b b b b j r < @     ",
"    5 Y A.>X7X;X`.C.l.j.h.s.s.h.j.l.d.,.+.~ C g 8 % 5 Y A.>XqX0X9X8X7X7X7X7X3X$X_.V.z.z.z.z.a.-.[ A b b b b b b b b j r < @     ",
"    5 Y A.>X8X:XOXE.C.C.C.C.V.N.M.x.a.-.[ A j r < @ 5 Y A.>XwXwXwXwXwXwXwXwX7X;X`.C.z.z.z.z.s.>. .W A A A A Z N M n j r < @     ",
"    5 Y A.>X9X3X-XOX`.`.`.`._.E.Z.M.a.-.[ A j r < @ 5 Y A.>XwXwXwXwXwXwXwXwX7X;X`.C.z.z.z.z.h.7.=. .[ [ [ [ ' W D M j r < @     ",
"    5 Y A.>X0X6X3X:X;X;X;X;X$X'.E.N.a.-.[ A j r < @ 5 Y A.>XwXwXwXwXwXwXwXwX7X;X`.C.z.z.z.z.j.i.7.>.-.-.-.-.&.{ W N j r < @     ",
"    5 Y A.>XqX0X9X8X7X7X7X7X3X$X_.V.a.-.[ A j r < @ 5 Y A.>XwXwXwXwXwXwXwXwX7X;X`.C.z.z.z.z.l.j.h.s.a.a.a.a.7.&.' Z j r < @     ",
"    5 Y A.>XwXwXwXwXwXwXwXwX7X;X`.C.a.-.[ A j r < @ 5 Y A.>XqX0X9X8X7X7X7X7X3X$X_.V.l.j.h.s.s.h.j.l.l.j.h.s.7.&.' Z j r < @     ",
"    5 Y A.>XwXwXwXwXwXwXwXwX7X;X`.C.a.-.[ A j r < @ 5 Y A.>X0X6X3X:X;X;X;X;X$X'.E.N.j.i.7.>.>.7.i.j.j.i.7.>.&.{ W N j r < @     ",
"    5 Y A.>XwXwXwXwXwXwXwXwX7X;X`.C.a.-.[ A j r < @ 5 Y A.>X9X3X-XOX`.`.`.`._.E.Z.M.h.7.=. . .=.7.h.h.7.=. .' W D M j r < @     ",
"    5 Y A.>XwXwXwXwXwXwXwXwX7X;X`.C.a.-.[ A j r < @ 5 Y A.>X8X:XOXE.C.C.C.C.V.N.M.x.s.>. .W W  .>.s.s.>. .W Z N M n j r < @     ",
"    5 Y A.>XqX0X9X8X7X7X7X7X1X@XT.v.7.&.' Z j r < @ 5 Y A.>X7X;X`.C.z.z.z.z.z.z.z.z.s.>. .W H } *.8.7.&.' Z b b b b j r < @     ",
"    5 Y A.>X0X6X3X:X;X;X;X;X@XW.g.4.&.{ W N j r < @ 5 Y A.>X7X;X`.C.z.z.z.z.z.z.z.z.h.7.=. .} ..%.*.&.{ W N b b b b j r < @     ",
"    5 Y A.>X9X3X-XOX`.`.`.`.T.g.3.o.' W D M j r < @ 5 Y A.>X7X;X`.C.z.z.z.z.z.z.z.z.j.i.7.>.*.%...} ' W D M b b b b j r < @     ",
"    5 Y A.>X8X:XOXE.C.C.C.C.v.4.o.Q Z N M n j r < @ 5 Y A.>X7X;X`.C.z.z.z.z.z.z.z.z.l.j.h.s.8.*.} H Z N M n b b b b j r < @     ",
"    5 Y A.>X6X*X~.b.a.a.a.a.7.&.' Z v c x z y q > + 3 L w.{.&X}.U.c.a.a.a.a.a.a.a.a.a.a.a.a.7.&.' Z b b b b v c x z u w , @     ",
"    5 Y A.>X5XoXL.9.-.-.-.-.&.{ W N c h y t q 1 & O ; l ` S.J.G.u.:.-.-.-.-.-.-.-.-.-.-.-.-.&.{ W N b b b b c h y t w 7 : @     ",
"    5 Y A.>X2X).F.@.[ [ [ [ ' W D M x y e 7 > & # X = p U #.1.$.X.| [ [ [ [ [ [ [ [ [ [ [ [ ' W D M b b b b x y e 7 , : & eXeXeX",
"    5 Y A.>X<X(.5.^ A A A A Z N M n z t 7 & + O X . % 8 g C E G F S A A A A A A A A A A A A Z N M n b b b b z t 7 & @ @ eXeXeXeX",
"    4 P e.[.{.S.#.C j j j j j j j j y q > +         + > q y j j j j j j j j j j j j j j j j j j j j j j j j u w , @     eXeXeXeX",
"    3 J _ e.w.` U g r r r r r r r r q 1 & O         O & 1 q r r r r r r r r r r r r r r r r r r r r r r r r w 7 : @   eXeXeXeXeX",
"eXeXeXs J P L l p 8 < < < < < < < < > & # X         X # & > < < < < < < < < < < < < < < < < < < < < < < < < , : & eXeXeXeXeXeXeX",
"eXeXeXeX3 4 3 ; = % @ @ @ @ @ @ @ @ + O X .         . X O + @ @ @ @ @ @ @ @ @ @ @ @ @ @ @ @ @ @ @ @ @ @ @ @ @ @ eXeXeXeXeXeXeXeX",
"eXeXeXeX                                                                                                        eXeXeXeXeXeXeXeX",
"eXeXeXeX                                                                                                        eXeXeXeXeXeXeXeX"
};
